%TF.GenerationSoftware,KiCad,Pcbnew,7.0.7*%
%TF.CreationDate,2024-06-30T20:56:50+03:00*%
%TF.ProjectId,v2,76322e6b-6963-4616-945f-706362585858,rev?*%
%TF.SameCoordinates,Original*%
%TF.FileFunction,Drillmap*%
%TF.FilePolarity,Positive*%
%FSLAX45Y45*%
G04 Gerber Fmt 4.5, Leading zero omitted, Abs format (unit mm)*
G04 Created by KiCad (PCBNEW 7.0.7) date 2024-06-30 20:56:50*
%MOMM*%
%LPD*%
G01*
G04 APERTURE LIST*
%ADD10C,0.100000*%
%ADD11C,0.200000*%
%ADD12C,0.080000*%
%ADD13C,0.320000*%
G04 APERTURE END LIST*
D10*
X19250000Y-4930000D02*
G75*
G03*
X18740000Y-4420000I-510000J0D01*
G01*
X10620000Y-4420000D02*
G75*
G03*
X10110000Y-4930000I0J-510000D01*
G01*
X19250000Y-11400000D02*
X19250000Y-4930000D01*
X18740000Y-4420000D02*
X10620000Y-4420000D01*
X18740000Y-11910000D02*
G75*
G03*
X19250000Y-11400000I0J510000D01*
G01*
X10110000Y-11400000D02*
G75*
G03*
X10620000Y-11910000I510000J0D01*
G01*
X10620000Y-11910000D02*
X18740000Y-11910000D01*
X10110000Y-4930000D02*
X10110000Y-11400000D01*
D11*
D12*
X16813400Y-4884360D02*
X16893400Y-4964360D01*
X16893400Y-4884360D02*
X16813400Y-4964360D01*
X17252820Y-4891980D02*
X17332820Y-4971980D01*
X17332820Y-4891980D02*
X17252820Y-4971980D01*
D13*
X10770000Y-4920000D02*
G75*
G03*
X10770000Y-4920000I-160000J0D01*
G01*
X10770000Y-11410000D02*
G75*
G03*
X10770000Y-11410000I-160000J0D01*
G01*
X18910000Y-4920000D02*
G75*
G03*
X18910000Y-4920000I-160000J0D01*
G01*
X18910000Y-11410000D02*
G75*
G03*
X18910000Y-11410000I-160000J0D01*
G01*
D11*
X10365777Y-12226484D02*
X10365777Y-12026484D01*
X10365777Y-12026484D02*
X10413396Y-12026484D01*
X10413396Y-12026484D02*
X10441967Y-12036008D01*
X10441967Y-12036008D02*
X10461015Y-12055055D01*
X10461015Y-12055055D02*
X10470539Y-12074103D01*
X10470539Y-12074103D02*
X10480063Y-12112198D01*
X10480063Y-12112198D02*
X10480063Y-12140769D01*
X10480063Y-12140769D02*
X10470539Y-12178865D01*
X10470539Y-12178865D02*
X10461015Y-12197912D01*
X10461015Y-12197912D02*
X10441967Y-12216960D01*
X10441967Y-12216960D02*
X10413396Y-12226484D01*
X10413396Y-12226484D02*
X10365777Y-12226484D01*
X10565777Y-12226484D02*
X10565777Y-12093150D01*
X10565777Y-12131246D02*
X10575301Y-12112198D01*
X10575301Y-12112198D02*
X10584824Y-12102674D01*
X10584824Y-12102674D02*
X10603872Y-12093150D01*
X10603872Y-12093150D02*
X10622920Y-12093150D01*
X10689586Y-12226484D02*
X10689586Y-12093150D01*
X10689586Y-12026484D02*
X10680063Y-12036008D01*
X10680063Y-12036008D02*
X10689586Y-12045531D01*
X10689586Y-12045531D02*
X10699110Y-12036008D01*
X10699110Y-12036008D02*
X10689586Y-12026484D01*
X10689586Y-12026484D02*
X10689586Y-12045531D01*
X10813396Y-12226484D02*
X10794348Y-12216960D01*
X10794348Y-12216960D02*
X10784824Y-12197912D01*
X10784824Y-12197912D02*
X10784824Y-12026484D01*
X10918158Y-12226484D02*
X10899110Y-12216960D01*
X10899110Y-12216960D02*
X10889586Y-12197912D01*
X10889586Y-12197912D02*
X10889586Y-12026484D01*
X11146729Y-12226484D02*
X11146729Y-12026484D01*
X11146729Y-12026484D02*
X11213396Y-12169341D01*
X11213396Y-12169341D02*
X11280062Y-12026484D01*
X11280062Y-12026484D02*
X11280062Y-12226484D01*
X11461015Y-12226484D02*
X11461015Y-12121722D01*
X11461015Y-12121722D02*
X11451491Y-12102674D01*
X11451491Y-12102674D02*
X11432443Y-12093150D01*
X11432443Y-12093150D02*
X11394348Y-12093150D01*
X11394348Y-12093150D02*
X11375301Y-12102674D01*
X11461015Y-12216960D02*
X11441967Y-12226484D01*
X11441967Y-12226484D02*
X11394348Y-12226484D01*
X11394348Y-12226484D02*
X11375301Y-12216960D01*
X11375301Y-12216960D02*
X11365777Y-12197912D01*
X11365777Y-12197912D02*
X11365777Y-12178865D01*
X11365777Y-12178865D02*
X11375301Y-12159817D01*
X11375301Y-12159817D02*
X11394348Y-12150293D01*
X11394348Y-12150293D02*
X11441967Y-12150293D01*
X11441967Y-12150293D02*
X11461015Y-12140769D01*
X11556253Y-12093150D02*
X11556253Y-12293150D01*
X11556253Y-12102674D02*
X11575301Y-12093150D01*
X11575301Y-12093150D02*
X11613396Y-12093150D01*
X11613396Y-12093150D02*
X11632443Y-12102674D01*
X11632443Y-12102674D02*
X11641967Y-12112198D01*
X11641967Y-12112198D02*
X11651491Y-12131246D01*
X11651491Y-12131246D02*
X11651491Y-12188388D01*
X11651491Y-12188388D02*
X11641967Y-12207436D01*
X11641967Y-12207436D02*
X11632443Y-12216960D01*
X11632443Y-12216960D02*
X11613396Y-12226484D01*
X11613396Y-12226484D02*
X11575301Y-12226484D01*
X11575301Y-12226484D02*
X11556253Y-12216960D01*
X11737205Y-12207436D02*
X11746729Y-12216960D01*
X11746729Y-12216960D02*
X11737205Y-12226484D01*
X11737205Y-12226484D02*
X11727682Y-12216960D01*
X11727682Y-12216960D02*
X11737205Y-12207436D01*
X11737205Y-12207436D02*
X11737205Y-12226484D01*
X11737205Y-12102674D02*
X11746729Y-12112198D01*
X11746729Y-12112198D02*
X11737205Y-12121722D01*
X11737205Y-12121722D02*
X11727682Y-12112198D01*
X11727682Y-12112198D02*
X11737205Y-12102674D01*
X11737205Y-12102674D02*
X11737205Y-12121722D01*
D12*
X10025000Y-12515000D02*
X10105000Y-12595000D01*
X10105000Y-12515000D02*
X10025000Y-12595000D01*
D11*
X10403872Y-12446484D02*
X10422920Y-12446484D01*
X10422920Y-12446484D02*
X10441967Y-12456008D01*
X10441967Y-12456008D02*
X10451491Y-12465531D01*
X10451491Y-12465531D02*
X10461015Y-12484579D01*
X10461015Y-12484579D02*
X10470539Y-12522674D01*
X10470539Y-12522674D02*
X10470539Y-12570293D01*
X10470539Y-12570293D02*
X10461015Y-12608388D01*
X10461015Y-12608388D02*
X10451491Y-12627436D01*
X10451491Y-12627436D02*
X10441967Y-12636960D01*
X10441967Y-12636960D02*
X10422920Y-12646484D01*
X10422920Y-12646484D02*
X10403872Y-12646484D01*
X10403872Y-12646484D02*
X10384824Y-12636960D01*
X10384824Y-12636960D02*
X10375301Y-12627436D01*
X10375301Y-12627436D02*
X10365777Y-12608388D01*
X10365777Y-12608388D02*
X10356253Y-12570293D01*
X10356253Y-12570293D02*
X10356253Y-12522674D01*
X10356253Y-12522674D02*
X10365777Y-12484579D01*
X10365777Y-12484579D02*
X10375301Y-12465531D01*
X10375301Y-12465531D02*
X10384824Y-12456008D01*
X10384824Y-12456008D02*
X10403872Y-12446484D01*
X10556253Y-12627436D02*
X10565777Y-12636960D01*
X10565777Y-12636960D02*
X10556253Y-12646484D01*
X10556253Y-12646484D02*
X10546729Y-12636960D01*
X10546729Y-12636960D02*
X10556253Y-12627436D01*
X10556253Y-12627436D02*
X10556253Y-12646484D01*
X10680063Y-12532198D02*
X10661015Y-12522674D01*
X10661015Y-12522674D02*
X10651491Y-12513150D01*
X10651491Y-12513150D02*
X10641967Y-12494103D01*
X10641967Y-12494103D02*
X10641967Y-12484579D01*
X10641967Y-12484579D02*
X10651491Y-12465531D01*
X10651491Y-12465531D02*
X10661015Y-12456008D01*
X10661015Y-12456008D02*
X10680063Y-12446484D01*
X10680063Y-12446484D02*
X10718158Y-12446484D01*
X10718158Y-12446484D02*
X10737205Y-12456008D01*
X10737205Y-12456008D02*
X10746729Y-12465531D01*
X10746729Y-12465531D02*
X10756253Y-12484579D01*
X10756253Y-12484579D02*
X10756253Y-12494103D01*
X10756253Y-12494103D02*
X10746729Y-12513150D01*
X10746729Y-12513150D02*
X10737205Y-12522674D01*
X10737205Y-12522674D02*
X10718158Y-12532198D01*
X10718158Y-12532198D02*
X10680063Y-12532198D01*
X10680063Y-12532198D02*
X10661015Y-12541722D01*
X10661015Y-12541722D02*
X10651491Y-12551246D01*
X10651491Y-12551246D02*
X10641967Y-12570293D01*
X10641967Y-12570293D02*
X10641967Y-12608388D01*
X10641967Y-12608388D02*
X10651491Y-12627436D01*
X10651491Y-12627436D02*
X10661015Y-12636960D01*
X10661015Y-12636960D02*
X10680063Y-12646484D01*
X10680063Y-12646484D02*
X10718158Y-12646484D01*
X10718158Y-12646484D02*
X10737205Y-12636960D01*
X10737205Y-12636960D02*
X10746729Y-12627436D01*
X10746729Y-12627436D02*
X10756253Y-12608388D01*
X10756253Y-12608388D02*
X10756253Y-12570293D01*
X10756253Y-12570293D02*
X10746729Y-12551246D01*
X10746729Y-12551246D02*
X10737205Y-12541722D01*
X10737205Y-12541722D02*
X10718158Y-12532198D01*
X10880063Y-12446484D02*
X10899110Y-12446484D01*
X10899110Y-12446484D02*
X10918158Y-12456008D01*
X10918158Y-12456008D02*
X10927682Y-12465531D01*
X10927682Y-12465531D02*
X10937205Y-12484579D01*
X10937205Y-12484579D02*
X10946729Y-12522674D01*
X10946729Y-12522674D02*
X10946729Y-12570293D01*
X10946729Y-12570293D02*
X10937205Y-12608388D01*
X10937205Y-12608388D02*
X10927682Y-12627436D01*
X10927682Y-12627436D02*
X10918158Y-12636960D01*
X10918158Y-12636960D02*
X10899110Y-12646484D01*
X10899110Y-12646484D02*
X10880063Y-12646484D01*
X10880063Y-12646484D02*
X10861015Y-12636960D01*
X10861015Y-12636960D02*
X10851491Y-12627436D01*
X10851491Y-12627436D02*
X10841967Y-12608388D01*
X10841967Y-12608388D02*
X10832444Y-12570293D01*
X10832444Y-12570293D02*
X10832444Y-12522674D01*
X10832444Y-12522674D02*
X10841967Y-12484579D01*
X10841967Y-12484579D02*
X10851491Y-12465531D01*
X10851491Y-12465531D02*
X10861015Y-12456008D01*
X10861015Y-12456008D02*
X10880063Y-12446484D01*
X11070539Y-12446484D02*
X11089586Y-12446484D01*
X11089586Y-12446484D02*
X11108634Y-12456008D01*
X11108634Y-12456008D02*
X11118158Y-12465531D01*
X11118158Y-12465531D02*
X11127682Y-12484579D01*
X11127682Y-12484579D02*
X11137205Y-12522674D01*
X11137205Y-12522674D02*
X11137205Y-12570293D01*
X11137205Y-12570293D02*
X11127682Y-12608388D01*
X11127682Y-12608388D02*
X11118158Y-12627436D01*
X11118158Y-12627436D02*
X11108634Y-12636960D01*
X11108634Y-12636960D02*
X11089586Y-12646484D01*
X11089586Y-12646484D02*
X11070539Y-12646484D01*
X11070539Y-12646484D02*
X11051491Y-12636960D01*
X11051491Y-12636960D02*
X11041967Y-12627436D01*
X11041967Y-12627436D02*
X11032444Y-12608388D01*
X11032444Y-12608388D02*
X11022920Y-12570293D01*
X11022920Y-12570293D02*
X11022920Y-12522674D01*
X11022920Y-12522674D02*
X11032444Y-12484579D01*
X11032444Y-12484579D02*
X11041967Y-12465531D01*
X11041967Y-12465531D02*
X11051491Y-12456008D01*
X11051491Y-12456008D02*
X11070539Y-12446484D01*
X11222920Y-12646484D02*
X11222920Y-12513150D01*
X11222920Y-12532198D02*
X11232443Y-12522674D01*
X11232443Y-12522674D02*
X11251491Y-12513150D01*
X11251491Y-12513150D02*
X11280063Y-12513150D01*
X11280063Y-12513150D02*
X11299110Y-12522674D01*
X11299110Y-12522674D02*
X11308634Y-12541722D01*
X11308634Y-12541722D02*
X11308634Y-12646484D01*
X11308634Y-12541722D02*
X11318158Y-12522674D01*
X11318158Y-12522674D02*
X11337205Y-12513150D01*
X11337205Y-12513150D02*
X11365777Y-12513150D01*
X11365777Y-12513150D02*
X11384824Y-12522674D01*
X11384824Y-12522674D02*
X11394348Y-12541722D01*
X11394348Y-12541722D02*
X11394348Y-12646484D01*
X11489586Y-12646484D02*
X11489586Y-12513150D01*
X11489586Y-12532198D02*
X11499110Y-12522674D01*
X11499110Y-12522674D02*
X11518158Y-12513150D01*
X11518158Y-12513150D02*
X11546729Y-12513150D01*
X11546729Y-12513150D02*
X11565777Y-12522674D01*
X11565777Y-12522674D02*
X11575301Y-12541722D01*
X11575301Y-12541722D02*
X11575301Y-12646484D01*
X11575301Y-12541722D02*
X11584824Y-12522674D01*
X11584824Y-12522674D02*
X11603872Y-12513150D01*
X11603872Y-12513150D02*
X11632443Y-12513150D01*
X11632443Y-12513150D02*
X11651491Y-12522674D01*
X11651491Y-12522674D02*
X11661015Y-12541722D01*
X11661015Y-12541722D02*
X11661015Y-12646484D01*
X12051491Y-12436960D02*
X11880063Y-12694103D01*
X12308634Y-12446484D02*
X12327682Y-12446484D01*
X12327682Y-12446484D02*
X12346729Y-12456008D01*
X12346729Y-12456008D02*
X12356253Y-12465531D01*
X12356253Y-12465531D02*
X12365777Y-12484579D01*
X12365777Y-12484579D02*
X12375301Y-12522674D01*
X12375301Y-12522674D02*
X12375301Y-12570293D01*
X12375301Y-12570293D02*
X12365777Y-12608388D01*
X12365777Y-12608388D02*
X12356253Y-12627436D01*
X12356253Y-12627436D02*
X12346729Y-12636960D01*
X12346729Y-12636960D02*
X12327682Y-12646484D01*
X12327682Y-12646484D02*
X12308634Y-12646484D01*
X12308634Y-12646484D02*
X12289586Y-12636960D01*
X12289586Y-12636960D02*
X12280063Y-12627436D01*
X12280063Y-12627436D02*
X12270539Y-12608388D01*
X12270539Y-12608388D02*
X12261015Y-12570293D01*
X12261015Y-12570293D02*
X12261015Y-12522674D01*
X12261015Y-12522674D02*
X12270539Y-12484579D01*
X12270539Y-12484579D02*
X12280063Y-12465531D01*
X12280063Y-12465531D02*
X12289586Y-12456008D01*
X12289586Y-12456008D02*
X12308634Y-12446484D01*
X12461015Y-12627436D02*
X12470539Y-12636960D01*
X12470539Y-12636960D02*
X12461015Y-12646484D01*
X12461015Y-12646484D02*
X12451491Y-12636960D01*
X12451491Y-12636960D02*
X12461015Y-12627436D01*
X12461015Y-12627436D02*
X12461015Y-12646484D01*
X12594348Y-12446484D02*
X12613396Y-12446484D01*
X12613396Y-12446484D02*
X12632444Y-12456008D01*
X12632444Y-12456008D02*
X12641967Y-12465531D01*
X12641967Y-12465531D02*
X12651491Y-12484579D01*
X12651491Y-12484579D02*
X12661015Y-12522674D01*
X12661015Y-12522674D02*
X12661015Y-12570293D01*
X12661015Y-12570293D02*
X12651491Y-12608388D01*
X12651491Y-12608388D02*
X12641967Y-12627436D01*
X12641967Y-12627436D02*
X12632444Y-12636960D01*
X12632444Y-12636960D02*
X12613396Y-12646484D01*
X12613396Y-12646484D02*
X12594348Y-12646484D01*
X12594348Y-12646484D02*
X12575301Y-12636960D01*
X12575301Y-12636960D02*
X12565777Y-12627436D01*
X12565777Y-12627436D02*
X12556253Y-12608388D01*
X12556253Y-12608388D02*
X12546729Y-12570293D01*
X12546729Y-12570293D02*
X12546729Y-12522674D01*
X12546729Y-12522674D02*
X12556253Y-12484579D01*
X12556253Y-12484579D02*
X12565777Y-12465531D01*
X12565777Y-12465531D02*
X12575301Y-12456008D01*
X12575301Y-12456008D02*
X12594348Y-12446484D01*
X12727682Y-12446484D02*
X12851491Y-12446484D01*
X12851491Y-12446484D02*
X12784825Y-12522674D01*
X12784825Y-12522674D02*
X12813396Y-12522674D01*
X12813396Y-12522674D02*
X12832444Y-12532198D01*
X12832444Y-12532198D02*
X12841967Y-12541722D01*
X12841967Y-12541722D02*
X12851491Y-12560769D01*
X12851491Y-12560769D02*
X12851491Y-12608388D01*
X12851491Y-12608388D02*
X12841967Y-12627436D01*
X12841967Y-12627436D02*
X12832444Y-12636960D01*
X12832444Y-12636960D02*
X12813396Y-12646484D01*
X12813396Y-12646484D02*
X12756253Y-12646484D01*
X12756253Y-12646484D02*
X12737206Y-12636960D01*
X12737206Y-12636960D02*
X12727682Y-12627436D01*
X13041967Y-12646484D02*
X12927682Y-12646484D01*
X12984825Y-12646484D02*
X12984825Y-12446484D01*
X12984825Y-12446484D02*
X12965777Y-12475055D01*
X12965777Y-12475055D02*
X12946729Y-12494103D01*
X12946729Y-12494103D02*
X12927682Y-12503627D01*
X13222920Y-12446484D02*
X13127682Y-12446484D01*
X13127682Y-12446484D02*
X13118158Y-12541722D01*
X13118158Y-12541722D02*
X13127682Y-12532198D01*
X13127682Y-12532198D02*
X13146729Y-12522674D01*
X13146729Y-12522674D02*
X13194348Y-12522674D01*
X13194348Y-12522674D02*
X13213396Y-12532198D01*
X13213396Y-12532198D02*
X13222920Y-12541722D01*
X13222920Y-12541722D02*
X13232444Y-12560769D01*
X13232444Y-12560769D02*
X13232444Y-12608388D01*
X13232444Y-12608388D02*
X13222920Y-12627436D01*
X13222920Y-12627436D02*
X13213396Y-12636960D01*
X13213396Y-12636960D02*
X13194348Y-12646484D01*
X13194348Y-12646484D02*
X13146729Y-12646484D01*
X13146729Y-12646484D02*
X13127682Y-12636960D01*
X13127682Y-12636960D02*
X13118158Y-12627436D01*
X13308634Y-12446484D02*
X13308634Y-12484579D01*
X13384825Y-12446484D02*
X13384825Y-12484579D01*
X13680063Y-12722674D02*
X13670539Y-12713150D01*
X13670539Y-12713150D02*
X13651491Y-12684579D01*
X13651491Y-12684579D02*
X13641968Y-12665531D01*
X13641968Y-12665531D02*
X13632444Y-12636960D01*
X13632444Y-12636960D02*
X13622920Y-12589341D01*
X13622920Y-12589341D02*
X13622920Y-12551246D01*
X13622920Y-12551246D02*
X13632444Y-12503627D01*
X13632444Y-12503627D02*
X13641968Y-12475055D01*
X13641968Y-12475055D02*
X13651491Y-12456008D01*
X13651491Y-12456008D02*
X13670539Y-12427436D01*
X13670539Y-12427436D02*
X13680063Y-12417912D01*
X13746729Y-12465531D02*
X13756253Y-12456008D01*
X13756253Y-12456008D02*
X13775301Y-12446484D01*
X13775301Y-12446484D02*
X13822920Y-12446484D01*
X13822920Y-12446484D02*
X13841968Y-12456008D01*
X13841968Y-12456008D02*
X13851491Y-12465531D01*
X13851491Y-12465531D02*
X13861015Y-12484579D01*
X13861015Y-12484579D02*
X13861015Y-12503627D01*
X13861015Y-12503627D02*
X13851491Y-12532198D01*
X13851491Y-12532198D02*
X13737206Y-12646484D01*
X13737206Y-12646484D02*
X13861015Y-12646484D01*
X14099110Y-12646484D02*
X14099110Y-12446484D01*
X14184825Y-12646484D02*
X14184825Y-12541722D01*
X14184825Y-12541722D02*
X14175301Y-12522674D01*
X14175301Y-12522674D02*
X14156253Y-12513150D01*
X14156253Y-12513150D02*
X14127682Y-12513150D01*
X14127682Y-12513150D02*
X14108634Y-12522674D01*
X14108634Y-12522674D02*
X14099110Y-12532198D01*
X14308634Y-12646484D02*
X14289587Y-12636960D01*
X14289587Y-12636960D02*
X14280063Y-12627436D01*
X14280063Y-12627436D02*
X14270539Y-12608388D01*
X14270539Y-12608388D02*
X14270539Y-12551246D01*
X14270539Y-12551246D02*
X14280063Y-12532198D01*
X14280063Y-12532198D02*
X14289587Y-12522674D01*
X14289587Y-12522674D02*
X14308634Y-12513150D01*
X14308634Y-12513150D02*
X14337206Y-12513150D01*
X14337206Y-12513150D02*
X14356253Y-12522674D01*
X14356253Y-12522674D02*
X14365777Y-12532198D01*
X14365777Y-12532198D02*
X14375301Y-12551246D01*
X14375301Y-12551246D02*
X14375301Y-12608388D01*
X14375301Y-12608388D02*
X14365777Y-12627436D01*
X14365777Y-12627436D02*
X14356253Y-12636960D01*
X14356253Y-12636960D02*
X14337206Y-12646484D01*
X14337206Y-12646484D02*
X14308634Y-12646484D01*
X14489587Y-12646484D02*
X14470539Y-12636960D01*
X14470539Y-12636960D02*
X14461015Y-12617912D01*
X14461015Y-12617912D02*
X14461015Y-12446484D01*
X14641968Y-12636960D02*
X14622920Y-12646484D01*
X14622920Y-12646484D02*
X14584825Y-12646484D01*
X14584825Y-12646484D02*
X14565777Y-12636960D01*
X14565777Y-12636960D02*
X14556253Y-12617912D01*
X14556253Y-12617912D02*
X14556253Y-12541722D01*
X14556253Y-12541722D02*
X14565777Y-12522674D01*
X14565777Y-12522674D02*
X14584825Y-12513150D01*
X14584825Y-12513150D02*
X14622920Y-12513150D01*
X14622920Y-12513150D02*
X14641968Y-12522674D01*
X14641968Y-12522674D02*
X14651491Y-12541722D01*
X14651491Y-12541722D02*
X14651491Y-12560769D01*
X14651491Y-12560769D02*
X14556253Y-12579817D01*
X14727682Y-12636960D02*
X14746730Y-12646484D01*
X14746730Y-12646484D02*
X14784825Y-12646484D01*
X14784825Y-12646484D02*
X14803872Y-12636960D01*
X14803872Y-12636960D02*
X14813396Y-12617912D01*
X14813396Y-12617912D02*
X14813396Y-12608388D01*
X14813396Y-12608388D02*
X14803872Y-12589341D01*
X14803872Y-12589341D02*
X14784825Y-12579817D01*
X14784825Y-12579817D02*
X14756253Y-12579817D01*
X14756253Y-12579817D02*
X14737206Y-12570293D01*
X14737206Y-12570293D02*
X14727682Y-12551246D01*
X14727682Y-12551246D02*
X14727682Y-12541722D01*
X14727682Y-12541722D02*
X14737206Y-12522674D01*
X14737206Y-12522674D02*
X14756253Y-12513150D01*
X14756253Y-12513150D02*
X14784825Y-12513150D01*
X14784825Y-12513150D02*
X14803872Y-12522674D01*
X14880063Y-12722674D02*
X14889587Y-12713150D01*
X14889587Y-12713150D02*
X14908634Y-12684579D01*
X14908634Y-12684579D02*
X14918158Y-12665531D01*
X14918158Y-12665531D02*
X14927682Y-12636960D01*
X14927682Y-12636960D02*
X14937206Y-12589341D01*
X14937206Y-12589341D02*
X14937206Y-12551246D01*
X14937206Y-12551246D02*
X14927682Y-12503627D01*
X14927682Y-12503627D02*
X14918158Y-12475055D01*
X14918158Y-12475055D02*
X14908634Y-12456008D01*
X14908634Y-12456008D02*
X14889587Y-12427436D01*
X14889587Y-12427436D02*
X14880063Y-12417912D01*
X15241968Y-12722674D02*
X15232444Y-12713150D01*
X15232444Y-12713150D02*
X15213396Y-12684579D01*
X15213396Y-12684579D02*
X15203872Y-12665531D01*
X15203872Y-12665531D02*
X15194349Y-12636960D01*
X15194349Y-12636960D02*
X15184825Y-12589341D01*
X15184825Y-12589341D02*
X15184825Y-12551246D01*
X15184825Y-12551246D02*
X15194349Y-12503627D01*
X15194349Y-12503627D02*
X15203872Y-12475055D01*
X15203872Y-12475055D02*
X15213396Y-12456008D01*
X15213396Y-12456008D02*
X15232444Y-12427436D01*
X15232444Y-12427436D02*
X15241968Y-12417912D01*
X15318158Y-12513150D02*
X15318158Y-12646484D01*
X15318158Y-12532198D02*
X15327682Y-12522674D01*
X15327682Y-12522674D02*
X15346730Y-12513150D01*
X15346730Y-12513150D02*
X15375301Y-12513150D01*
X15375301Y-12513150D02*
X15394349Y-12522674D01*
X15394349Y-12522674D02*
X15403872Y-12541722D01*
X15403872Y-12541722D02*
X15403872Y-12646484D01*
X15527682Y-12646484D02*
X15508634Y-12636960D01*
X15508634Y-12636960D02*
X15499111Y-12627436D01*
X15499111Y-12627436D02*
X15489587Y-12608388D01*
X15489587Y-12608388D02*
X15489587Y-12551246D01*
X15489587Y-12551246D02*
X15499111Y-12532198D01*
X15499111Y-12532198D02*
X15508634Y-12522674D01*
X15508634Y-12522674D02*
X15527682Y-12513150D01*
X15527682Y-12513150D02*
X15556253Y-12513150D01*
X15556253Y-12513150D02*
X15575301Y-12522674D01*
X15575301Y-12522674D02*
X15584825Y-12532198D01*
X15584825Y-12532198D02*
X15594349Y-12551246D01*
X15594349Y-12551246D02*
X15594349Y-12608388D01*
X15594349Y-12608388D02*
X15584825Y-12627436D01*
X15584825Y-12627436D02*
X15575301Y-12636960D01*
X15575301Y-12636960D02*
X15556253Y-12646484D01*
X15556253Y-12646484D02*
X15527682Y-12646484D01*
X15651492Y-12513150D02*
X15727682Y-12513150D01*
X15680063Y-12446484D02*
X15680063Y-12617912D01*
X15680063Y-12617912D02*
X15689587Y-12636960D01*
X15689587Y-12636960D02*
X15708634Y-12646484D01*
X15708634Y-12646484D02*
X15727682Y-12646484D01*
X15946730Y-12513150D02*
X15946730Y-12713150D01*
X15946730Y-12522674D02*
X15965777Y-12513150D01*
X15965777Y-12513150D02*
X16003873Y-12513150D01*
X16003873Y-12513150D02*
X16022920Y-12522674D01*
X16022920Y-12522674D02*
X16032444Y-12532198D01*
X16032444Y-12532198D02*
X16041968Y-12551246D01*
X16041968Y-12551246D02*
X16041968Y-12608388D01*
X16041968Y-12608388D02*
X16032444Y-12627436D01*
X16032444Y-12627436D02*
X16022920Y-12636960D01*
X16022920Y-12636960D02*
X16003873Y-12646484D01*
X16003873Y-12646484D02*
X15965777Y-12646484D01*
X15965777Y-12646484D02*
X15946730Y-12636960D01*
X16156253Y-12646484D02*
X16137206Y-12636960D01*
X16137206Y-12636960D02*
X16127682Y-12617912D01*
X16127682Y-12617912D02*
X16127682Y-12446484D01*
X16318158Y-12646484D02*
X16318158Y-12541722D01*
X16318158Y-12541722D02*
X16308634Y-12522674D01*
X16308634Y-12522674D02*
X16289587Y-12513150D01*
X16289587Y-12513150D02*
X16251492Y-12513150D01*
X16251492Y-12513150D02*
X16232444Y-12522674D01*
X16318158Y-12636960D02*
X16299111Y-12646484D01*
X16299111Y-12646484D02*
X16251492Y-12646484D01*
X16251492Y-12646484D02*
X16232444Y-12636960D01*
X16232444Y-12636960D02*
X16222920Y-12617912D01*
X16222920Y-12617912D02*
X16222920Y-12598865D01*
X16222920Y-12598865D02*
X16232444Y-12579817D01*
X16232444Y-12579817D02*
X16251492Y-12570293D01*
X16251492Y-12570293D02*
X16299111Y-12570293D01*
X16299111Y-12570293D02*
X16318158Y-12560769D01*
X16384825Y-12513150D02*
X16461015Y-12513150D01*
X16413396Y-12446484D02*
X16413396Y-12617912D01*
X16413396Y-12617912D02*
X16422920Y-12636960D01*
X16422920Y-12636960D02*
X16441968Y-12646484D01*
X16441968Y-12646484D02*
X16461015Y-12646484D01*
X16603873Y-12636960D02*
X16584825Y-12646484D01*
X16584825Y-12646484D02*
X16546730Y-12646484D01*
X16546730Y-12646484D02*
X16527682Y-12636960D01*
X16527682Y-12636960D02*
X16518158Y-12617912D01*
X16518158Y-12617912D02*
X16518158Y-12541722D01*
X16518158Y-12541722D02*
X16527682Y-12522674D01*
X16527682Y-12522674D02*
X16546730Y-12513150D01*
X16546730Y-12513150D02*
X16584825Y-12513150D01*
X16584825Y-12513150D02*
X16603873Y-12522674D01*
X16603873Y-12522674D02*
X16613396Y-12541722D01*
X16613396Y-12541722D02*
X16613396Y-12560769D01*
X16613396Y-12560769D02*
X16518158Y-12579817D01*
X16784825Y-12646484D02*
X16784825Y-12446484D01*
X16784825Y-12636960D02*
X16765777Y-12646484D01*
X16765777Y-12646484D02*
X16727682Y-12646484D01*
X16727682Y-12646484D02*
X16708634Y-12636960D01*
X16708634Y-12636960D02*
X16699111Y-12627436D01*
X16699111Y-12627436D02*
X16689587Y-12608388D01*
X16689587Y-12608388D02*
X16689587Y-12551246D01*
X16689587Y-12551246D02*
X16699111Y-12532198D01*
X16699111Y-12532198D02*
X16708634Y-12522674D01*
X16708634Y-12522674D02*
X16727682Y-12513150D01*
X16727682Y-12513150D02*
X16765777Y-12513150D01*
X16765777Y-12513150D02*
X16784825Y-12522674D01*
X16861016Y-12722674D02*
X16870539Y-12713150D01*
X16870539Y-12713150D02*
X16889587Y-12684579D01*
X16889587Y-12684579D02*
X16899111Y-12665531D01*
X16899111Y-12665531D02*
X16908635Y-12636960D01*
X16908635Y-12636960D02*
X16918158Y-12589341D01*
X16918158Y-12589341D02*
X16918158Y-12551246D01*
X16918158Y-12551246D02*
X16908635Y-12503627D01*
X16908635Y-12503627D02*
X16899111Y-12475055D01*
X16899111Y-12475055D02*
X16889587Y-12456008D01*
X16889587Y-12456008D02*
X16870539Y-12427436D01*
X16870539Y-12427436D02*
X16861016Y-12417912D01*
X10105000Y-12819000D02*
G75*
G03*
X10105000Y-12819000I-100000J0D01*
G01*
X10346729Y-12710484D02*
X10470539Y-12710484D01*
X10470539Y-12710484D02*
X10403872Y-12786674D01*
X10403872Y-12786674D02*
X10432444Y-12786674D01*
X10432444Y-12786674D02*
X10451491Y-12796198D01*
X10451491Y-12796198D02*
X10461015Y-12805722D01*
X10461015Y-12805722D02*
X10470539Y-12824769D01*
X10470539Y-12824769D02*
X10470539Y-12872388D01*
X10470539Y-12872388D02*
X10461015Y-12891436D01*
X10461015Y-12891436D02*
X10451491Y-12900960D01*
X10451491Y-12900960D02*
X10432444Y-12910484D01*
X10432444Y-12910484D02*
X10375301Y-12910484D01*
X10375301Y-12910484D02*
X10356253Y-12900960D01*
X10356253Y-12900960D02*
X10346729Y-12891436D01*
X10556253Y-12891436D02*
X10565777Y-12900960D01*
X10565777Y-12900960D02*
X10556253Y-12910484D01*
X10556253Y-12910484D02*
X10546729Y-12900960D01*
X10546729Y-12900960D02*
X10556253Y-12891436D01*
X10556253Y-12891436D02*
X10556253Y-12910484D01*
X10641967Y-12729531D02*
X10651491Y-12720008D01*
X10651491Y-12720008D02*
X10670539Y-12710484D01*
X10670539Y-12710484D02*
X10718158Y-12710484D01*
X10718158Y-12710484D02*
X10737205Y-12720008D01*
X10737205Y-12720008D02*
X10746729Y-12729531D01*
X10746729Y-12729531D02*
X10756253Y-12748579D01*
X10756253Y-12748579D02*
X10756253Y-12767627D01*
X10756253Y-12767627D02*
X10746729Y-12796198D01*
X10746729Y-12796198D02*
X10632444Y-12910484D01*
X10632444Y-12910484D02*
X10756253Y-12910484D01*
X10880063Y-12710484D02*
X10899110Y-12710484D01*
X10899110Y-12710484D02*
X10918158Y-12720008D01*
X10918158Y-12720008D02*
X10927682Y-12729531D01*
X10927682Y-12729531D02*
X10937205Y-12748579D01*
X10937205Y-12748579D02*
X10946729Y-12786674D01*
X10946729Y-12786674D02*
X10946729Y-12834293D01*
X10946729Y-12834293D02*
X10937205Y-12872388D01*
X10937205Y-12872388D02*
X10927682Y-12891436D01*
X10927682Y-12891436D02*
X10918158Y-12900960D01*
X10918158Y-12900960D02*
X10899110Y-12910484D01*
X10899110Y-12910484D02*
X10880063Y-12910484D01*
X10880063Y-12910484D02*
X10861015Y-12900960D01*
X10861015Y-12900960D02*
X10851491Y-12891436D01*
X10851491Y-12891436D02*
X10841967Y-12872388D01*
X10841967Y-12872388D02*
X10832444Y-12834293D01*
X10832444Y-12834293D02*
X10832444Y-12786674D01*
X10832444Y-12786674D02*
X10841967Y-12748579D01*
X10841967Y-12748579D02*
X10851491Y-12729531D01*
X10851491Y-12729531D02*
X10861015Y-12720008D01*
X10861015Y-12720008D02*
X10880063Y-12710484D01*
X11070539Y-12710484D02*
X11089586Y-12710484D01*
X11089586Y-12710484D02*
X11108634Y-12720008D01*
X11108634Y-12720008D02*
X11118158Y-12729531D01*
X11118158Y-12729531D02*
X11127682Y-12748579D01*
X11127682Y-12748579D02*
X11137205Y-12786674D01*
X11137205Y-12786674D02*
X11137205Y-12834293D01*
X11137205Y-12834293D02*
X11127682Y-12872388D01*
X11127682Y-12872388D02*
X11118158Y-12891436D01*
X11118158Y-12891436D02*
X11108634Y-12900960D01*
X11108634Y-12900960D02*
X11089586Y-12910484D01*
X11089586Y-12910484D02*
X11070539Y-12910484D01*
X11070539Y-12910484D02*
X11051491Y-12900960D01*
X11051491Y-12900960D02*
X11041967Y-12891436D01*
X11041967Y-12891436D02*
X11032444Y-12872388D01*
X11032444Y-12872388D02*
X11022920Y-12834293D01*
X11022920Y-12834293D02*
X11022920Y-12786674D01*
X11022920Y-12786674D02*
X11032444Y-12748579D01*
X11032444Y-12748579D02*
X11041967Y-12729531D01*
X11041967Y-12729531D02*
X11051491Y-12720008D01*
X11051491Y-12720008D02*
X11070539Y-12710484D01*
X11222920Y-12910484D02*
X11222920Y-12777150D01*
X11222920Y-12796198D02*
X11232443Y-12786674D01*
X11232443Y-12786674D02*
X11251491Y-12777150D01*
X11251491Y-12777150D02*
X11280063Y-12777150D01*
X11280063Y-12777150D02*
X11299110Y-12786674D01*
X11299110Y-12786674D02*
X11308634Y-12805722D01*
X11308634Y-12805722D02*
X11308634Y-12910484D01*
X11308634Y-12805722D02*
X11318158Y-12786674D01*
X11318158Y-12786674D02*
X11337205Y-12777150D01*
X11337205Y-12777150D02*
X11365777Y-12777150D01*
X11365777Y-12777150D02*
X11384824Y-12786674D01*
X11384824Y-12786674D02*
X11394348Y-12805722D01*
X11394348Y-12805722D02*
X11394348Y-12910484D01*
X11489586Y-12910484D02*
X11489586Y-12777150D01*
X11489586Y-12796198D02*
X11499110Y-12786674D01*
X11499110Y-12786674D02*
X11518158Y-12777150D01*
X11518158Y-12777150D02*
X11546729Y-12777150D01*
X11546729Y-12777150D02*
X11565777Y-12786674D01*
X11565777Y-12786674D02*
X11575301Y-12805722D01*
X11575301Y-12805722D02*
X11575301Y-12910484D01*
X11575301Y-12805722D02*
X11584824Y-12786674D01*
X11584824Y-12786674D02*
X11603872Y-12777150D01*
X11603872Y-12777150D02*
X11632443Y-12777150D01*
X11632443Y-12777150D02*
X11651491Y-12786674D01*
X11651491Y-12786674D02*
X11661015Y-12805722D01*
X11661015Y-12805722D02*
X11661015Y-12910484D01*
X12051491Y-12700960D02*
X11880063Y-12958103D01*
X12308634Y-12710484D02*
X12327682Y-12710484D01*
X12327682Y-12710484D02*
X12346729Y-12720008D01*
X12346729Y-12720008D02*
X12356253Y-12729531D01*
X12356253Y-12729531D02*
X12365777Y-12748579D01*
X12365777Y-12748579D02*
X12375301Y-12786674D01*
X12375301Y-12786674D02*
X12375301Y-12834293D01*
X12375301Y-12834293D02*
X12365777Y-12872388D01*
X12365777Y-12872388D02*
X12356253Y-12891436D01*
X12356253Y-12891436D02*
X12346729Y-12900960D01*
X12346729Y-12900960D02*
X12327682Y-12910484D01*
X12327682Y-12910484D02*
X12308634Y-12910484D01*
X12308634Y-12910484D02*
X12289586Y-12900960D01*
X12289586Y-12900960D02*
X12280063Y-12891436D01*
X12280063Y-12891436D02*
X12270539Y-12872388D01*
X12270539Y-12872388D02*
X12261015Y-12834293D01*
X12261015Y-12834293D02*
X12261015Y-12786674D01*
X12261015Y-12786674D02*
X12270539Y-12748579D01*
X12270539Y-12748579D02*
X12280063Y-12729531D01*
X12280063Y-12729531D02*
X12289586Y-12720008D01*
X12289586Y-12720008D02*
X12308634Y-12710484D01*
X12461015Y-12891436D02*
X12470539Y-12900960D01*
X12470539Y-12900960D02*
X12461015Y-12910484D01*
X12461015Y-12910484D02*
X12451491Y-12900960D01*
X12451491Y-12900960D02*
X12461015Y-12891436D01*
X12461015Y-12891436D02*
X12461015Y-12910484D01*
X12661015Y-12910484D02*
X12546729Y-12910484D01*
X12603872Y-12910484D02*
X12603872Y-12710484D01*
X12603872Y-12710484D02*
X12584825Y-12739055D01*
X12584825Y-12739055D02*
X12565777Y-12758103D01*
X12565777Y-12758103D02*
X12546729Y-12767627D01*
X12737206Y-12729531D02*
X12746729Y-12720008D01*
X12746729Y-12720008D02*
X12765777Y-12710484D01*
X12765777Y-12710484D02*
X12813396Y-12710484D01*
X12813396Y-12710484D02*
X12832444Y-12720008D01*
X12832444Y-12720008D02*
X12841967Y-12729531D01*
X12841967Y-12729531D02*
X12851491Y-12748579D01*
X12851491Y-12748579D02*
X12851491Y-12767627D01*
X12851491Y-12767627D02*
X12841967Y-12796198D01*
X12841967Y-12796198D02*
X12727682Y-12910484D01*
X12727682Y-12910484D02*
X12851491Y-12910484D01*
X13022920Y-12710484D02*
X12984825Y-12710484D01*
X12984825Y-12710484D02*
X12965777Y-12720008D01*
X12965777Y-12720008D02*
X12956253Y-12729531D01*
X12956253Y-12729531D02*
X12937206Y-12758103D01*
X12937206Y-12758103D02*
X12927682Y-12796198D01*
X12927682Y-12796198D02*
X12927682Y-12872388D01*
X12927682Y-12872388D02*
X12937206Y-12891436D01*
X12937206Y-12891436D02*
X12946729Y-12900960D01*
X12946729Y-12900960D02*
X12965777Y-12910484D01*
X12965777Y-12910484D02*
X13003872Y-12910484D01*
X13003872Y-12910484D02*
X13022920Y-12900960D01*
X13022920Y-12900960D02*
X13032444Y-12891436D01*
X13032444Y-12891436D02*
X13041967Y-12872388D01*
X13041967Y-12872388D02*
X13041967Y-12824769D01*
X13041967Y-12824769D02*
X13032444Y-12805722D01*
X13032444Y-12805722D02*
X13022920Y-12796198D01*
X13022920Y-12796198D02*
X13003872Y-12786674D01*
X13003872Y-12786674D02*
X12965777Y-12786674D01*
X12965777Y-12786674D02*
X12946729Y-12796198D01*
X12946729Y-12796198D02*
X12937206Y-12805722D01*
X12937206Y-12805722D02*
X12927682Y-12824769D01*
X13165777Y-12710484D02*
X13184825Y-12710484D01*
X13184825Y-12710484D02*
X13203872Y-12720008D01*
X13203872Y-12720008D02*
X13213396Y-12729531D01*
X13213396Y-12729531D02*
X13222920Y-12748579D01*
X13222920Y-12748579D02*
X13232444Y-12786674D01*
X13232444Y-12786674D02*
X13232444Y-12834293D01*
X13232444Y-12834293D02*
X13222920Y-12872388D01*
X13222920Y-12872388D02*
X13213396Y-12891436D01*
X13213396Y-12891436D02*
X13203872Y-12900960D01*
X13203872Y-12900960D02*
X13184825Y-12910484D01*
X13184825Y-12910484D02*
X13165777Y-12910484D01*
X13165777Y-12910484D02*
X13146729Y-12900960D01*
X13146729Y-12900960D02*
X13137206Y-12891436D01*
X13137206Y-12891436D02*
X13127682Y-12872388D01*
X13127682Y-12872388D02*
X13118158Y-12834293D01*
X13118158Y-12834293D02*
X13118158Y-12786674D01*
X13118158Y-12786674D02*
X13127682Y-12748579D01*
X13127682Y-12748579D02*
X13137206Y-12729531D01*
X13137206Y-12729531D02*
X13146729Y-12720008D01*
X13146729Y-12720008D02*
X13165777Y-12710484D01*
X13308634Y-12710484D02*
X13308634Y-12748579D01*
X13384825Y-12710484D02*
X13384825Y-12748579D01*
X13680063Y-12986674D02*
X13670539Y-12977150D01*
X13670539Y-12977150D02*
X13651491Y-12948579D01*
X13651491Y-12948579D02*
X13641968Y-12929531D01*
X13641968Y-12929531D02*
X13632444Y-12900960D01*
X13632444Y-12900960D02*
X13622920Y-12853341D01*
X13622920Y-12853341D02*
X13622920Y-12815246D01*
X13622920Y-12815246D02*
X13632444Y-12767627D01*
X13632444Y-12767627D02*
X13641968Y-12739055D01*
X13641968Y-12739055D02*
X13651491Y-12720008D01*
X13651491Y-12720008D02*
X13670539Y-12691436D01*
X13670539Y-12691436D02*
X13680063Y-12681912D01*
X13841968Y-12777150D02*
X13841968Y-12910484D01*
X13794348Y-12700960D02*
X13746729Y-12843817D01*
X13746729Y-12843817D02*
X13870539Y-12843817D01*
X14099110Y-12910484D02*
X14099110Y-12710484D01*
X14184825Y-12910484D02*
X14184825Y-12805722D01*
X14184825Y-12805722D02*
X14175301Y-12786674D01*
X14175301Y-12786674D02*
X14156253Y-12777150D01*
X14156253Y-12777150D02*
X14127682Y-12777150D01*
X14127682Y-12777150D02*
X14108634Y-12786674D01*
X14108634Y-12786674D02*
X14099110Y-12796198D01*
X14308634Y-12910484D02*
X14289587Y-12900960D01*
X14289587Y-12900960D02*
X14280063Y-12891436D01*
X14280063Y-12891436D02*
X14270539Y-12872388D01*
X14270539Y-12872388D02*
X14270539Y-12815246D01*
X14270539Y-12815246D02*
X14280063Y-12796198D01*
X14280063Y-12796198D02*
X14289587Y-12786674D01*
X14289587Y-12786674D02*
X14308634Y-12777150D01*
X14308634Y-12777150D02*
X14337206Y-12777150D01*
X14337206Y-12777150D02*
X14356253Y-12786674D01*
X14356253Y-12786674D02*
X14365777Y-12796198D01*
X14365777Y-12796198D02*
X14375301Y-12815246D01*
X14375301Y-12815246D02*
X14375301Y-12872388D01*
X14375301Y-12872388D02*
X14365777Y-12891436D01*
X14365777Y-12891436D02*
X14356253Y-12900960D01*
X14356253Y-12900960D02*
X14337206Y-12910484D01*
X14337206Y-12910484D02*
X14308634Y-12910484D01*
X14489587Y-12910484D02*
X14470539Y-12900960D01*
X14470539Y-12900960D02*
X14461015Y-12881912D01*
X14461015Y-12881912D02*
X14461015Y-12710484D01*
X14641968Y-12900960D02*
X14622920Y-12910484D01*
X14622920Y-12910484D02*
X14584825Y-12910484D01*
X14584825Y-12910484D02*
X14565777Y-12900960D01*
X14565777Y-12900960D02*
X14556253Y-12881912D01*
X14556253Y-12881912D02*
X14556253Y-12805722D01*
X14556253Y-12805722D02*
X14565777Y-12786674D01*
X14565777Y-12786674D02*
X14584825Y-12777150D01*
X14584825Y-12777150D02*
X14622920Y-12777150D01*
X14622920Y-12777150D02*
X14641968Y-12786674D01*
X14641968Y-12786674D02*
X14651491Y-12805722D01*
X14651491Y-12805722D02*
X14651491Y-12824769D01*
X14651491Y-12824769D02*
X14556253Y-12843817D01*
X14727682Y-12900960D02*
X14746730Y-12910484D01*
X14746730Y-12910484D02*
X14784825Y-12910484D01*
X14784825Y-12910484D02*
X14803872Y-12900960D01*
X14803872Y-12900960D02*
X14813396Y-12881912D01*
X14813396Y-12881912D02*
X14813396Y-12872388D01*
X14813396Y-12872388D02*
X14803872Y-12853341D01*
X14803872Y-12853341D02*
X14784825Y-12843817D01*
X14784825Y-12843817D02*
X14756253Y-12843817D01*
X14756253Y-12843817D02*
X14737206Y-12834293D01*
X14737206Y-12834293D02*
X14727682Y-12815246D01*
X14727682Y-12815246D02*
X14727682Y-12805722D01*
X14727682Y-12805722D02*
X14737206Y-12786674D01*
X14737206Y-12786674D02*
X14756253Y-12777150D01*
X14756253Y-12777150D02*
X14784825Y-12777150D01*
X14784825Y-12777150D02*
X14803872Y-12786674D01*
X14880063Y-12986674D02*
X14889587Y-12977150D01*
X14889587Y-12977150D02*
X14908634Y-12948579D01*
X14908634Y-12948579D02*
X14918158Y-12929531D01*
X14918158Y-12929531D02*
X14927682Y-12900960D01*
X14927682Y-12900960D02*
X14937206Y-12853341D01*
X14937206Y-12853341D02*
X14937206Y-12815246D01*
X14937206Y-12815246D02*
X14927682Y-12767627D01*
X14927682Y-12767627D02*
X14918158Y-12739055D01*
X14918158Y-12739055D02*
X14908634Y-12720008D01*
X14908634Y-12720008D02*
X14889587Y-12691436D01*
X14889587Y-12691436D02*
X14880063Y-12681912D01*
X15241968Y-12986674D02*
X15232444Y-12977150D01*
X15232444Y-12977150D02*
X15213396Y-12948579D01*
X15213396Y-12948579D02*
X15203872Y-12929531D01*
X15203872Y-12929531D02*
X15194349Y-12900960D01*
X15194349Y-12900960D02*
X15184825Y-12853341D01*
X15184825Y-12853341D02*
X15184825Y-12815246D01*
X15184825Y-12815246D02*
X15194349Y-12767627D01*
X15194349Y-12767627D02*
X15203872Y-12739055D01*
X15203872Y-12739055D02*
X15213396Y-12720008D01*
X15213396Y-12720008D02*
X15232444Y-12691436D01*
X15232444Y-12691436D02*
X15241968Y-12681912D01*
X15318158Y-12777150D02*
X15318158Y-12910484D01*
X15318158Y-12796198D02*
X15327682Y-12786674D01*
X15327682Y-12786674D02*
X15346730Y-12777150D01*
X15346730Y-12777150D02*
X15375301Y-12777150D01*
X15375301Y-12777150D02*
X15394349Y-12786674D01*
X15394349Y-12786674D02*
X15403872Y-12805722D01*
X15403872Y-12805722D02*
X15403872Y-12910484D01*
X15527682Y-12910484D02*
X15508634Y-12900960D01*
X15508634Y-12900960D02*
X15499111Y-12891436D01*
X15499111Y-12891436D02*
X15489587Y-12872388D01*
X15489587Y-12872388D02*
X15489587Y-12815246D01*
X15489587Y-12815246D02*
X15499111Y-12796198D01*
X15499111Y-12796198D02*
X15508634Y-12786674D01*
X15508634Y-12786674D02*
X15527682Y-12777150D01*
X15527682Y-12777150D02*
X15556253Y-12777150D01*
X15556253Y-12777150D02*
X15575301Y-12786674D01*
X15575301Y-12786674D02*
X15584825Y-12796198D01*
X15584825Y-12796198D02*
X15594349Y-12815246D01*
X15594349Y-12815246D02*
X15594349Y-12872388D01*
X15594349Y-12872388D02*
X15584825Y-12891436D01*
X15584825Y-12891436D02*
X15575301Y-12900960D01*
X15575301Y-12900960D02*
X15556253Y-12910484D01*
X15556253Y-12910484D02*
X15527682Y-12910484D01*
X15651492Y-12777150D02*
X15727682Y-12777150D01*
X15680063Y-12710484D02*
X15680063Y-12881912D01*
X15680063Y-12881912D02*
X15689587Y-12900960D01*
X15689587Y-12900960D02*
X15708634Y-12910484D01*
X15708634Y-12910484D02*
X15727682Y-12910484D01*
X15946730Y-12777150D02*
X15946730Y-12977150D01*
X15946730Y-12786674D02*
X15965777Y-12777150D01*
X15965777Y-12777150D02*
X16003873Y-12777150D01*
X16003873Y-12777150D02*
X16022920Y-12786674D01*
X16022920Y-12786674D02*
X16032444Y-12796198D01*
X16032444Y-12796198D02*
X16041968Y-12815246D01*
X16041968Y-12815246D02*
X16041968Y-12872388D01*
X16041968Y-12872388D02*
X16032444Y-12891436D01*
X16032444Y-12891436D02*
X16022920Y-12900960D01*
X16022920Y-12900960D02*
X16003873Y-12910484D01*
X16003873Y-12910484D02*
X15965777Y-12910484D01*
X15965777Y-12910484D02*
X15946730Y-12900960D01*
X16156253Y-12910484D02*
X16137206Y-12900960D01*
X16137206Y-12900960D02*
X16127682Y-12881912D01*
X16127682Y-12881912D02*
X16127682Y-12710484D01*
X16318158Y-12910484D02*
X16318158Y-12805722D01*
X16318158Y-12805722D02*
X16308634Y-12786674D01*
X16308634Y-12786674D02*
X16289587Y-12777150D01*
X16289587Y-12777150D02*
X16251492Y-12777150D01*
X16251492Y-12777150D02*
X16232444Y-12786674D01*
X16318158Y-12900960D02*
X16299111Y-12910484D01*
X16299111Y-12910484D02*
X16251492Y-12910484D01*
X16251492Y-12910484D02*
X16232444Y-12900960D01*
X16232444Y-12900960D02*
X16222920Y-12881912D01*
X16222920Y-12881912D02*
X16222920Y-12862865D01*
X16222920Y-12862865D02*
X16232444Y-12843817D01*
X16232444Y-12843817D02*
X16251492Y-12834293D01*
X16251492Y-12834293D02*
X16299111Y-12834293D01*
X16299111Y-12834293D02*
X16318158Y-12824769D01*
X16384825Y-12777150D02*
X16461015Y-12777150D01*
X16413396Y-12710484D02*
X16413396Y-12881912D01*
X16413396Y-12881912D02*
X16422920Y-12900960D01*
X16422920Y-12900960D02*
X16441968Y-12910484D01*
X16441968Y-12910484D02*
X16461015Y-12910484D01*
X16603873Y-12900960D02*
X16584825Y-12910484D01*
X16584825Y-12910484D02*
X16546730Y-12910484D01*
X16546730Y-12910484D02*
X16527682Y-12900960D01*
X16527682Y-12900960D02*
X16518158Y-12881912D01*
X16518158Y-12881912D02*
X16518158Y-12805722D01*
X16518158Y-12805722D02*
X16527682Y-12786674D01*
X16527682Y-12786674D02*
X16546730Y-12777150D01*
X16546730Y-12777150D02*
X16584825Y-12777150D01*
X16584825Y-12777150D02*
X16603873Y-12786674D01*
X16603873Y-12786674D02*
X16613396Y-12805722D01*
X16613396Y-12805722D02*
X16613396Y-12824769D01*
X16613396Y-12824769D02*
X16518158Y-12843817D01*
X16784825Y-12910484D02*
X16784825Y-12710484D01*
X16784825Y-12900960D02*
X16765777Y-12910484D01*
X16765777Y-12910484D02*
X16727682Y-12910484D01*
X16727682Y-12910484D02*
X16708634Y-12900960D01*
X16708634Y-12900960D02*
X16699111Y-12891436D01*
X16699111Y-12891436D02*
X16689587Y-12872388D01*
X16689587Y-12872388D02*
X16689587Y-12815246D01*
X16689587Y-12815246D02*
X16699111Y-12796198D01*
X16699111Y-12796198D02*
X16708634Y-12786674D01*
X16708634Y-12786674D02*
X16727682Y-12777150D01*
X16727682Y-12777150D02*
X16765777Y-12777150D01*
X16765777Y-12777150D02*
X16784825Y-12786674D01*
X16861016Y-12986674D02*
X16870539Y-12977150D01*
X16870539Y-12977150D02*
X16889587Y-12948579D01*
X16889587Y-12948579D02*
X16899111Y-12929531D01*
X16899111Y-12929531D02*
X16908635Y-12900960D01*
X16908635Y-12900960D02*
X16918158Y-12853341D01*
X16918158Y-12853341D02*
X16918158Y-12815246D01*
X16918158Y-12815246D02*
X16908635Y-12767627D01*
X16908635Y-12767627D02*
X16899111Y-12739055D01*
X16899111Y-12739055D02*
X16889587Y-12720008D01*
X16889587Y-12720008D02*
X16870539Y-12691436D01*
X16870539Y-12691436D02*
X16861016Y-12681912D01*
M02*
