%TF.GenerationSoftware,KiCad,Pcbnew,7.0.7*%
%TF.CreationDate,2024-06-30T20:56:50+03:00*%
%TF.ProjectId,v2,76322e6b-6963-4616-945f-706362585858,rev?*%
%TF.SameCoordinates,Original*%
%TF.FileFunction,Drillmap*%
%TF.FilePolarity,Positive*%
%FSLAX45Y45*%
G04 Gerber Fmt 4.5, Leading zero omitted, Abs format (unit mm)*
G04 Created by KiCad (PCBNEW 7.0.7) date 2024-06-30 20:56:50*
%MOMM*%
%LPD*%
G01*
G04 APERTURE LIST*
%ADD10C,0.100000*%
%ADD11C,0.200000*%
%ADD12C,0.030000*%
%ADD13C,0.040000*%
%ADD14C,0.050000*%
%ADD15C,0.055000*%
%ADD16C,0.070000*%
%ADD17C,0.080000*%
%ADD18C,0.085000*%
%ADD19C,0.090000*%
%ADD20C,0.120000*%
%ADD21C,0.210000*%
%ADD22C,0.300000*%
G04 APERTURE END LIST*
D10*
X19250000Y-4930000D02*
G75*
G03*
X18740000Y-4420000I-510000J0D01*
G01*
X10620000Y-4420000D02*
G75*
G03*
X10110000Y-4930000I0J-510000D01*
G01*
X19250000Y-11400000D02*
X19250000Y-4930000D01*
X18740000Y-4420000D02*
X10620000Y-4420000D01*
X18740000Y-11910000D02*
G75*
G03*
X19250000Y-11400000I0J510000D01*
G01*
X10110000Y-11400000D02*
G75*
G03*
X10620000Y-11910000I510000J0D01*
G01*
X10620000Y-11910000D02*
X18740000Y-11910000D01*
X10110000Y-4930000D02*
X10110000Y-11400000D01*
D11*
D12*
X12611340Y-4892280D02*
X12641340Y-4922280D01*
X12641340Y-4892280D02*
X12611340Y-4922280D01*
X12718020Y-6482320D02*
X12748020Y-6512320D01*
X12748020Y-6482320D02*
X12718020Y-6512320D01*
X12817080Y-6652500D02*
X12847080Y-6682500D01*
X12847080Y-6652500D02*
X12817080Y-6682500D01*
X13215860Y-7993620D02*
X13245860Y-8023620D01*
X13245860Y-7993620D02*
X13215860Y-8023620D01*
X13474940Y-8255240D02*
X13504940Y-8285240D01*
X13504940Y-8255240D02*
X13474940Y-8285240D01*
X13497800Y-5039600D02*
X13527800Y-5069600D01*
X13527800Y-5039600D02*
X13497800Y-5069600D01*
X13800060Y-8064740D02*
X13830060Y-8094740D01*
X13830060Y-8064740D02*
X13800060Y-8094740D01*
X13832280Y-11171960D02*
X13862280Y-11201960D01*
X13862280Y-11171960D02*
X13832280Y-11201960D01*
X13894040Y-11272760D02*
X13924040Y-11302760D01*
X13924040Y-11272760D02*
X13894040Y-11302760D01*
X13952460Y-8890240D02*
X13982460Y-8920240D01*
X13982460Y-8890240D02*
X13952460Y-8920240D01*
X14008340Y-8146020D02*
X14038340Y-8176020D01*
X14038340Y-8146020D02*
X14008340Y-8176020D01*
X14305000Y-6225000D02*
X14335000Y-6255000D01*
X14335000Y-6225000D02*
X14305000Y-6255000D01*
X14435000Y-6295000D02*
X14465000Y-6325000D01*
X14465000Y-6295000D02*
X14435000Y-6325000D01*
X14530979Y-7456430D02*
X14560979Y-7486430D01*
X14560979Y-7456430D02*
X14530979Y-7486430D01*
X14849080Y-8562580D02*
X14879080Y-8592580D01*
X14879080Y-8562580D02*
X14849080Y-8592580D01*
X14935440Y-8829280D02*
X14965440Y-8859280D01*
X14965440Y-8829280D02*
X14935440Y-8859280D01*
X15004020Y-9685260D02*
X15034020Y-9715260D01*
X15034020Y-9685260D02*
X15004020Y-9715260D01*
X15255480Y-7792960D02*
X15285480Y-7822960D01*
X15285480Y-7792960D02*
X15255480Y-7822960D01*
X15367240Y-7757400D02*
X15397240Y-7787400D01*
X15397240Y-7757400D02*
X15367240Y-7787400D01*
X15644100Y-8646400D02*
X15674100Y-8676400D01*
X15674100Y-8646400D02*
X15644100Y-8676400D01*
X15993460Y-10186800D02*
X16023460Y-10216800D01*
X16023460Y-10186800D02*
X15993460Y-10216800D01*
X16452100Y-8776220D02*
X16482100Y-8806220D01*
X16482100Y-8776220D02*
X16452100Y-8806220D01*
X16609300Y-6571220D02*
X16639300Y-6601220D01*
X16639300Y-6571220D02*
X16609300Y-6601220D01*
X16616920Y-10320260D02*
X16646920Y-10350260D01*
X16646920Y-10320260D02*
X16616920Y-10350260D01*
X16782020Y-5583160D02*
X16812020Y-5613160D01*
X16812020Y-5583160D02*
X16782020Y-5613160D01*
X17257000Y-9611600D02*
X17287000Y-9641600D01*
X17287000Y-9611600D02*
X17257000Y-9641600D01*
X17287480Y-6190220D02*
X17317480Y-6220220D01*
X17317480Y-6190220D02*
X17287480Y-6220220D01*
X17290020Y-6103860D02*
X17320020Y-6133860D01*
X17320020Y-6103860D02*
X17290020Y-6133860D01*
X17353520Y-6251180D02*
X17383520Y-6281180D01*
X17383520Y-6251180D02*
X17353520Y-6281180D01*
X17394160Y-6157200D02*
X17424160Y-6187200D01*
X17424160Y-6157200D02*
X17394160Y-6187200D01*
X17419560Y-10025620D02*
X17449560Y-10055620D01*
X17449560Y-10025620D02*
X17419560Y-10055620D01*
X17493220Y-6251180D02*
X17523220Y-6281180D01*
X17523220Y-6251180D02*
X17493220Y-6281180D01*
X17604980Y-5392660D02*
X17634980Y-5422660D01*
X17634980Y-5392660D02*
X17604980Y-5422660D01*
D13*
X11970000Y-5460000D02*
G75*
G03*
X11970000Y-5460000I-20000J0D01*
G01*
X12900340Y-7066280D02*
G75*
G03*
X12900340Y-7066280I-20000J0D01*
G01*
X12999400Y-9550400D02*
G75*
G03*
X12999400Y-9550400I-20000J0D01*
G01*
X13101000Y-11176000D02*
G75*
G03*
X13101000Y-11176000I-20000J0D01*
G01*
X13111160Y-5285740D02*
G75*
G03*
X13111160Y-5285740I-20000J0D01*
G01*
X13113700Y-5044440D02*
G75*
G03*
X13113700Y-5044440I-20000J0D01*
G01*
X13126400Y-11531600D02*
G75*
G03*
X13126400Y-11531600I-20000J0D01*
G01*
X13151800Y-7391400D02*
G75*
G03*
X13151800Y-7391400I-20000J0D01*
G01*
X13202600Y-10642600D02*
G75*
G03*
X13202600Y-10642600I-20000J0D01*
G01*
X13239460Y-7202140D02*
G75*
G03*
X13239460Y-7202140I-20000J0D01*
G01*
X13278800Y-7645400D02*
G75*
G03*
X13278800Y-7645400I-20000J0D01*
G01*
X13362620Y-7218680D02*
G75*
G03*
X13362620Y-7218680I-20000J0D01*
G01*
X13634400Y-7543800D02*
G75*
G03*
X13634400Y-7543800I-20000J0D01*
G01*
X13685200Y-6629400D02*
G75*
G03*
X13685200Y-6629400I-20000J0D01*
G01*
X13736000Y-7420730D02*
G75*
G03*
X13736000Y-7420730I-20000J0D01*
G01*
X13841000Y-7084849D02*
G75*
G03*
X13841000Y-7084849I-20000J0D01*
G01*
X13863000Y-10642600D02*
G75*
G03*
X13863000Y-10642600I-20000J0D01*
G01*
X13910000Y-6880000D02*
G75*
G03*
X13910000Y-6880000I-20000J0D01*
G01*
X14142400Y-7061200D02*
G75*
G03*
X14142400Y-7061200I-20000J0D01*
G01*
X14150000Y-6630000D02*
G75*
G03*
X14150000Y-6630000I-20000J0D01*
G01*
X14160000Y-6300000D02*
G75*
G03*
X14160000Y-6300000I-20000J0D01*
G01*
X14189732Y-8327732D02*
G75*
G03*
X14189732Y-8327732I-20000J0D01*
G01*
X14206828Y-8522628D02*
G75*
G03*
X14206828Y-8522628I-20000J0D01*
G01*
X14218600Y-10642600D02*
G75*
G03*
X14218600Y-10642600I-20000J0D01*
G01*
X14228382Y-7126178D02*
G75*
G03*
X14228382Y-7126178I-20000J0D01*
G01*
X14294800Y-9601200D02*
G75*
G03*
X14294800Y-9601200I-20000J0D01*
G01*
X14345600Y-7264400D02*
G75*
G03*
X14345600Y-7264400I-20000J0D01*
G01*
X14380000Y-7040000D02*
G75*
G03*
X14380000Y-7040000I-20000J0D01*
G01*
X14486228Y-8243228D02*
G75*
G03*
X14486228Y-8243228I-20000J0D01*
G01*
X14523400Y-8458200D02*
G75*
G03*
X14523400Y-8458200I-20000J0D01*
G01*
X14574200Y-6629400D02*
G75*
G03*
X14574200Y-6629400I-20000J0D01*
G01*
X14574200Y-6959600D02*
G75*
G03*
X14574200Y-6959600I-20000J0D01*
G01*
X14574200Y-9804400D02*
G75*
G03*
X14574200Y-9804400I-20000J0D01*
G01*
X14752000Y-8102600D02*
G75*
G03*
X14752000Y-8102600I-20000J0D01*
G01*
X14760000Y-5750000D02*
G75*
G03*
X14760000Y-5750000I-20000J0D01*
G01*
X14777400Y-8356600D02*
G75*
G03*
X14777400Y-8356600I-20000J0D01*
G01*
X14780000Y-7100000D02*
G75*
G03*
X14780000Y-7100000I-20000J0D01*
G01*
X14802800Y-8636000D02*
G75*
G03*
X14802800Y-8636000I-20000J0D01*
G01*
X14877750Y-8122457D02*
G75*
G03*
X14877750Y-8122457I-20000J0D01*
G01*
X14877750Y-8328114D02*
G75*
G03*
X14877750Y-8328114I-20000J0D01*
G01*
X14890000Y-7100000D02*
G75*
G03*
X14890000Y-7100000I-20000J0D01*
G01*
X15031400Y-8407400D02*
G75*
G03*
X15031400Y-8407400I-20000J0D01*
G01*
X15148350Y-9855200D02*
G75*
G03*
X15148350Y-9855200I-20000J0D01*
G01*
X15430560Y-9187560D02*
G75*
G03*
X15430560Y-9187560I-20000J0D01*
G01*
X15514000Y-8128000D02*
G75*
G03*
X15514000Y-8128000I-20000J0D01*
G01*
X15564800Y-10210800D02*
G75*
G03*
X15564800Y-10210800I-20000J0D01*
G01*
X15933100Y-9271000D02*
G75*
G03*
X15933100Y-9271000I-20000J0D01*
G01*
X16174400Y-7340600D02*
G75*
G03*
X16174400Y-7340600I-20000J0D01*
G01*
X16220120Y-9276080D02*
G75*
G03*
X16220120Y-9276080I-20000J0D01*
G01*
X16332080Y-10216080D02*
G75*
G03*
X16332080Y-10216080I-20000J0D01*
G01*
X16453800Y-5308600D02*
G75*
G03*
X16453800Y-5308600I-20000J0D01*
G01*
X16740000Y-5870000D02*
G75*
G03*
X16740000Y-5870000I-20000J0D01*
G01*
X17739040Y-10391140D02*
G75*
G03*
X17739040Y-10391140I-20000J0D01*
G01*
X17911760Y-10396220D02*
G75*
G03*
X17911760Y-10396220I-20000J0D01*
G01*
D14*
X13002825Y-8147825D02*
X13002825Y-8197825D01*
X12977825Y-8172825D02*
X13027825Y-8172825D01*
X13137175Y-8282175D02*
X13137175Y-8332175D01*
X13112175Y-8307175D02*
X13162175Y-8307175D01*
D15*
X16807146Y-4775146D02*
X16807146Y-4736254D01*
X16768254Y-4736254D01*
X16768254Y-4775146D01*
X16807146Y-4775146D01*
D11*
X16815200Y-4788200D02*
X16815200Y-4723200D01*
X16815200Y-4723200D02*
G75*
G03*
X16760200Y-4723200I-27500J0D01*
G01*
X16760200Y-4723200D02*
X16760200Y-4788200D01*
X16760200Y-4788200D02*
G75*
G03*
X16815200Y-4788200I27500J0D01*
G01*
D15*
X17372146Y-4775146D02*
X17372146Y-4736254D01*
X17333254Y-4736254D01*
X17333254Y-4775146D01*
X17372146Y-4775146D01*
D11*
X17380200Y-4788200D02*
X17380200Y-4723200D01*
X17380200Y-4723200D02*
G75*
G03*
X17325200Y-4723200I-27500J0D01*
G01*
X17325200Y-4723200D02*
X17325200Y-4788200D01*
X17325200Y-4788200D02*
G75*
G03*
X17380200Y-4788200I27500J0D01*
G01*
D16*
X11500000Y-11253000D02*
X11535000Y-11218000D01*
X11500000Y-11183000D01*
X11465000Y-11218000D01*
X11500000Y-11253000D01*
X11500000Y-11507000D02*
X11535000Y-11472000D01*
X11500000Y-11437000D01*
X11465000Y-11472000D01*
X11500000Y-11507000D01*
X12400000Y-11253000D02*
X12435000Y-11218000D01*
X12400000Y-11183000D01*
X12365000Y-11218000D01*
X12400000Y-11253000D01*
X12400000Y-11507000D02*
X12435000Y-11472000D01*
X12400000Y-11437000D01*
X12365000Y-11472000D01*
X12400000Y-11507000D01*
X15803800Y-9179000D02*
X15838800Y-9144000D01*
X15803800Y-9109000D01*
X15768800Y-9144000D01*
X15803800Y-9179000D01*
X16057800Y-9179000D02*
X16092800Y-9144000D01*
X16057800Y-9109000D01*
X16022800Y-9144000D01*
X16057800Y-9179000D01*
X16078293Y-11180427D02*
X16113293Y-11145427D01*
X16078293Y-11110427D01*
X16043293Y-11145427D01*
X16078293Y-11180427D01*
X16257898Y-11000822D02*
X16292898Y-10965822D01*
X16257898Y-10930822D01*
X16222898Y-10965822D01*
X16257898Y-11000822D01*
X17699220Y-7769300D02*
X17734220Y-7734300D01*
X17699220Y-7699300D01*
X17664220Y-7734300D01*
X17699220Y-7769300D01*
X17953220Y-7769300D02*
X17988220Y-7734300D01*
X17953220Y-7699300D01*
X17918220Y-7734300D01*
X17953220Y-7769300D01*
D17*
X11120350Y-6268950D02*
X11200350Y-6348950D01*
X11200350Y-6268950D02*
X11120350Y-6348950D01*
X11200350Y-6308950D02*
G75*
G03*
X11200350Y-6308950I-40000J0D01*
G01*
X11374350Y-6268950D02*
X11454350Y-6348950D01*
X11454350Y-6268950D02*
X11374350Y-6348950D01*
X11454350Y-6308950D02*
G75*
G03*
X11454350Y-6308950I-40000J0D01*
G01*
X11628350Y-6268950D02*
X11708350Y-6348950D01*
X11708350Y-6268950D02*
X11628350Y-6348950D01*
X11708350Y-6308950D02*
G75*
G03*
X11708350Y-6308950I-40000J0D01*
G01*
X11882350Y-6268950D02*
X11962350Y-6348950D01*
X11962350Y-6268950D02*
X11882350Y-6348950D01*
X11962350Y-6308950D02*
G75*
G03*
X11962350Y-6308950I-40000J0D01*
G01*
D18*
X16654300Y-4993200D02*
X16739300Y-5078200D01*
X16739300Y-4993200D02*
X16654300Y-5078200D01*
X16696800Y-4993200D02*
X16696800Y-5078200D01*
X16654300Y-5035700D02*
X16739300Y-5035700D01*
D11*
X16739300Y-5063200D02*
X16739300Y-5008200D01*
X16739300Y-5008200D02*
G75*
G03*
X16654300Y-5008200I-42500J0D01*
G01*
X16654300Y-5008200D02*
X16654300Y-5063200D01*
X16654300Y-5063200D02*
G75*
G03*
X16739300Y-5063200I42500J0D01*
G01*
D18*
X17399300Y-4993200D02*
X17484300Y-5078200D01*
X17484300Y-4993200D02*
X17399300Y-5078200D01*
X17441800Y-4993200D02*
X17441800Y-5078200D01*
X17399300Y-5035700D02*
X17484300Y-5035700D01*
D11*
X17484300Y-5063200D02*
X17484300Y-5008200D01*
X17484300Y-5008200D02*
G75*
G03*
X17399300Y-5008200I-42500J0D01*
G01*
X17399300Y-5008200D02*
X17399300Y-5063200D01*
X17399300Y-5063200D02*
G75*
G03*
X17484300Y-5063200I42500J0D01*
G01*
D19*
X16981700Y-7674060D02*
X17071700Y-7764060D01*
X17071700Y-7674060D02*
X16981700Y-7764060D01*
X17058520Y-7750880D02*
X17058520Y-7687240D01*
X16994880Y-7687240D01*
X16994880Y-7750880D01*
X17058520Y-7750880D01*
X17235700Y-7674060D02*
X17325700Y-7764060D01*
X17325700Y-7674060D02*
X17235700Y-7764060D01*
X17312520Y-7750880D02*
X17312520Y-7687240D01*
X17248880Y-7687240D01*
X17248880Y-7750880D01*
X17312520Y-7750880D01*
D10*
X11617885Y-6944285D02*
X11717885Y-7044285D01*
X11717885Y-6944285D02*
X11617885Y-7044285D01*
X11667885Y-7044285D02*
X11717885Y-6994285D01*
X11667885Y-6944285D01*
X11617885Y-6994285D01*
X11667885Y-7044285D01*
X11797490Y-7123890D02*
X11897490Y-7223890D01*
X11897490Y-7123890D02*
X11797490Y-7223890D01*
X11847490Y-7223890D02*
X11897490Y-7173890D01*
X11847490Y-7123890D01*
X11797490Y-7173890D01*
X11847490Y-7223890D01*
X11977095Y-7303495D02*
X12077095Y-7403495D01*
X12077095Y-7303495D02*
X11977095Y-7403495D01*
X12027095Y-7403495D02*
X12077095Y-7353495D01*
X12027095Y-7303495D01*
X11977095Y-7353495D01*
X12027095Y-7403495D01*
X12156701Y-7483101D02*
X12256701Y-7583101D01*
X12256701Y-7483101D02*
X12156701Y-7583101D01*
X12206701Y-7583101D02*
X12256701Y-7533101D01*
X12206701Y-7483101D01*
X12156701Y-7533101D01*
X12206701Y-7583101D01*
X12732500Y-6160000D02*
X12832500Y-6260000D01*
X12832500Y-6160000D02*
X12732500Y-6260000D01*
X12782500Y-6260000D02*
X12832500Y-6210000D01*
X12782500Y-6160000D01*
X12732500Y-6210000D01*
X12782500Y-6260000D01*
X12986500Y-6160000D02*
X13086500Y-6260000D01*
X13086500Y-6160000D02*
X12986500Y-6260000D01*
X13036500Y-6260000D02*
X13086500Y-6210000D01*
X13036500Y-6160000D01*
X12986500Y-6210000D01*
X13036500Y-6260000D01*
X15004338Y-6363258D02*
X15104338Y-6463258D01*
X15104338Y-6363258D02*
X15004338Y-6463258D01*
X15054338Y-6463258D02*
X15104338Y-6413258D01*
X15054338Y-6363258D01*
X15004338Y-6413258D01*
X15054338Y-6463258D01*
X15183943Y-6542863D02*
X15283943Y-6642863D01*
X15283943Y-6542863D02*
X15183943Y-6642863D01*
X15233943Y-6642863D02*
X15283943Y-6592863D01*
X15233943Y-6542863D01*
X15183943Y-6592863D01*
X15233943Y-6642863D01*
X15253165Y-5982165D02*
X15353165Y-6082165D01*
X15353165Y-5982165D02*
X15253165Y-6082165D01*
X15303165Y-6082165D02*
X15353165Y-6032165D01*
X15303165Y-5982165D01*
X15253165Y-6032165D01*
X15303165Y-6082165D01*
X15432770Y-6161770D02*
X15532770Y-6261770D01*
X15532770Y-6161770D02*
X15432770Y-6261770D01*
X15482770Y-6261770D02*
X15532770Y-6211770D01*
X15482770Y-6161770D01*
X15432770Y-6211770D01*
X15482770Y-6261770D01*
X15612375Y-6341375D02*
X15712375Y-6441375D01*
X15712375Y-6341375D02*
X15612375Y-6441375D01*
X15662375Y-6441375D02*
X15712375Y-6391375D01*
X15662375Y-6341375D01*
X15612375Y-6391375D01*
X15662375Y-6441375D01*
X15791980Y-6520980D02*
X15891980Y-6620980D01*
X15891980Y-6520980D02*
X15791980Y-6620980D01*
X15841980Y-6620980D02*
X15891980Y-6570980D01*
X15841980Y-6520980D01*
X15791980Y-6570980D01*
X15841980Y-6620980D01*
X15825000Y-7037100D02*
X15925000Y-7137100D01*
X15925000Y-7037100D02*
X15825000Y-7137100D01*
X15875000Y-7137100D02*
X15925000Y-7087100D01*
X15875000Y-7037100D01*
X15825000Y-7087100D01*
X15875000Y-7137100D01*
X15825000Y-7291100D02*
X15925000Y-7391100D01*
X15925000Y-7291100D02*
X15825000Y-7391100D01*
X15875000Y-7391100D02*
X15925000Y-7341100D01*
X15875000Y-7291100D01*
X15825000Y-7341100D01*
X15875000Y-7391100D01*
X16140165Y-7816624D02*
X16240165Y-7916624D01*
X16240165Y-7816624D02*
X16140165Y-7916624D01*
X16190165Y-7916624D02*
X16240165Y-7866624D01*
X16190165Y-7816624D01*
X16140165Y-7866624D01*
X16190165Y-7916624D01*
X16282200Y-8027200D02*
X16382200Y-8127200D01*
X16382200Y-8027200D02*
X16282200Y-8127200D01*
X16332200Y-8127200D02*
X16382200Y-8077200D01*
X16332200Y-8027200D01*
X16282200Y-8077200D01*
X16332200Y-8127200D01*
X16424235Y-8237775D02*
X16524235Y-8337775D01*
X16524235Y-8237775D02*
X16424235Y-8337775D01*
X16474235Y-8337775D02*
X16524235Y-8287775D01*
X16474235Y-8237775D01*
X16424235Y-8287775D01*
X16474235Y-8337775D01*
X17930395Y-5650395D02*
X18030395Y-5750395D01*
X18030395Y-5650395D02*
X17930395Y-5750395D01*
X17980395Y-5750395D02*
X18030395Y-5700395D01*
X17980395Y-5650395D01*
X17930395Y-5700395D01*
X17980395Y-5750395D01*
X18110000Y-5830000D02*
X18210000Y-5930000D01*
X18210000Y-5830000D02*
X18110000Y-5930000D01*
X18160000Y-5930000D02*
X18210000Y-5880000D01*
X18160000Y-5830000D01*
X18110000Y-5880000D01*
X18160000Y-5930000D01*
D20*
X11336020Y-8317300D02*
X11336020Y-8437300D01*
X11276020Y-8377300D02*
X11396020Y-8377300D01*
X11396020Y-8377300D02*
G75*
G03*
X11396020Y-8377300I-60000J0D01*
G01*
X11336020Y-8817300D02*
X11336020Y-8937300D01*
X11276020Y-8877300D02*
X11396020Y-8877300D01*
X11396020Y-8877300D02*
G75*
G03*
X11396020Y-8877300I-60000J0D01*
G01*
D21*
X11424247Y-5184247D02*
X11424247Y-5035753D01*
X11275753Y-5035753D01*
X11275753Y-5184247D01*
X11424247Y-5184247D01*
X11455000Y-5110000D02*
G75*
G03*
X11455000Y-5110000I-105000J0D01*
G01*
X11424247Y-5764247D02*
X11424247Y-5615753D01*
X11275753Y-5615753D01*
X11275753Y-5764247D01*
X11424247Y-5764247D01*
X11455000Y-5690000D02*
G75*
G03*
X11455000Y-5690000I-105000J0D01*
G01*
D22*
X11049000Y-7338200D02*
X11199000Y-7188200D01*
X11049000Y-7038200D01*
X10899000Y-7188200D01*
X11049000Y-7338200D01*
X11199000Y-7188200D02*
G75*
G03*
X11199000Y-7188200I-150000J0D01*
G01*
X11904980Y-10233800D02*
X12054980Y-10083800D01*
X11904980Y-9933800D01*
X11754980Y-10083800D01*
X11904980Y-10233800D01*
X12054980Y-10083800D02*
G75*
G03*
X12054980Y-10083800I-150000J0D01*
G01*
X12344400Y-9675000D02*
X12494400Y-9525000D01*
X12344400Y-9375000D01*
X12194400Y-9525000D01*
X12344400Y-9675000D01*
X12494400Y-9525000D02*
G75*
G03*
X12494400Y-9525000I-150000J0D01*
G01*
X13480000Y-6310000D02*
X13630000Y-6160000D01*
X13480000Y-6010000D01*
X13330000Y-6160000D01*
X13480000Y-6310000D01*
X13630000Y-6160000D02*
G75*
G03*
X13630000Y-6160000I-150000J0D01*
G01*
X15020000Y-11100000D02*
X15170000Y-10950000D01*
X15020000Y-10800000D01*
X14870000Y-10950000D01*
X15020000Y-11100000D01*
X15170000Y-10950000D02*
G75*
G03*
X15170000Y-10950000I-150000J0D01*
G01*
X17119600Y-11072000D02*
X17269600Y-10922000D01*
X17119600Y-10772000D01*
X16969600Y-10922000D01*
X17119600Y-11072000D01*
X17269600Y-10922000D02*
G75*
G03*
X17269600Y-10922000I-150000J0D01*
G01*
X17907000Y-8582800D02*
X18057000Y-8432800D01*
X17907000Y-8282800D01*
X17757000Y-8432800D01*
X17907000Y-8582800D01*
X18057000Y-8432800D02*
G75*
G03*
X18057000Y-8432800I-150000J0D01*
G01*
D11*
X10365777Y-12226484D02*
X10365777Y-12026484D01*
X10365777Y-12026484D02*
X10413396Y-12026484D01*
X10413396Y-12026484D02*
X10441967Y-12036008D01*
X10441967Y-12036008D02*
X10461015Y-12055055D01*
X10461015Y-12055055D02*
X10470539Y-12074103D01*
X10470539Y-12074103D02*
X10480063Y-12112198D01*
X10480063Y-12112198D02*
X10480063Y-12140769D01*
X10480063Y-12140769D02*
X10470539Y-12178865D01*
X10470539Y-12178865D02*
X10461015Y-12197912D01*
X10461015Y-12197912D02*
X10441967Y-12216960D01*
X10441967Y-12216960D02*
X10413396Y-12226484D01*
X10413396Y-12226484D02*
X10365777Y-12226484D01*
X10565777Y-12226484D02*
X10565777Y-12093150D01*
X10565777Y-12131246D02*
X10575301Y-12112198D01*
X10575301Y-12112198D02*
X10584824Y-12102674D01*
X10584824Y-12102674D02*
X10603872Y-12093150D01*
X10603872Y-12093150D02*
X10622920Y-12093150D01*
X10689586Y-12226484D02*
X10689586Y-12093150D01*
X10689586Y-12026484D02*
X10680063Y-12036008D01*
X10680063Y-12036008D02*
X10689586Y-12045531D01*
X10689586Y-12045531D02*
X10699110Y-12036008D01*
X10699110Y-12036008D02*
X10689586Y-12026484D01*
X10689586Y-12026484D02*
X10689586Y-12045531D01*
X10813396Y-12226484D02*
X10794348Y-12216960D01*
X10794348Y-12216960D02*
X10784824Y-12197912D01*
X10784824Y-12197912D02*
X10784824Y-12026484D01*
X10918158Y-12226484D02*
X10899110Y-12216960D01*
X10899110Y-12216960D02*
X10889586Y-12197912D01*
X10889586Y-12197912D02*
X10889586Y-12026484D01*
X11146729Y-12226484D02*
X11146729Y-12026484D01*
X11146729Y-12026484D02*
X11213396Y-12169341D01*
X11213396Y-12169341D02*
X11280062Y-12026484D01*
X11280062Y-12026484D02*
X11280062Y-12226484D01*
X11461015Y-12226484D02*
X11461015Y-12121722D01*
X11461015Y-12121722D02*
X11451491Y-12102674D01*
X11451491Y-12102674D02*
X11432443Y-12093150D01*
X11432443Y-12093150D02*
X11394348Y-12093150D01*
X11394348Y-12093150D02*
X11375301Y-12102674D01*
X11461015Y-12216960D02*
X11441967Y-12226484D01*
X11441967Y-12226484D02*
X11394348Y-12226484D01*
X11394348Y-12226484D02*
X11375301Y-12216960D01*
X11375301Y-12216960D02*
X11365777Y-12197912D01*
X11365777Y-12197912D02*
X11365777Y-12178865D01*
X11365777Y-12178865D02*
X11375301Y-12159817D01*
X11375301Y-12159817D02*
X11394348Y-12150293D01*
X11394348Y-12150293D02*
X11441967Y-12150293D01*
X11441967Y-12150293D02*
X11461015Y-12140769D01*
X11556253Y-12093150D02*
X11556253Y-12293150D01*
X11556253Y-12102674D02*
X11575301Y-12093150D01*
X11575301Y-12093150D02*
X11613396Y-12093150D01*
X11613396Y-12093150D02*
X11632443Y-12102674D01*
X11632443Y-12102674D02*
X11641967Y-12112198D01*
X11641967Y-12112198D02*
X11651491Y-12131246D01*
X11651491Y-12131246D02*
X11651491Y-12188388D01*
X11651491Y-12188388D02*
X11641967Y-12207436D01*
X11641967Y-12207436D02*
X11632443Y-12216960D01*
X11632443Y-12216960D02*
X11613396Y-12226484D01*
X11613396Y-12226484D02*
X11575301Y-12226484D01*
X11575301Y-12226484D02*
X11556253Y-12216960D01*
X11737205Y-12207436D02*
X11746729Y-12216960D01*
X11746729Y-12216960D02*
X11737205Y-12226484D01*
X11737205Y-12226484D02*
X11727682Y-12216960D01*
X11727682Y-12216960D02*
X11737205Y-12207436D01*
X11737205Y-12207436D02*
X11737205Y-12226484D01*
X11737205Y-12102674D02*
X11746729Y-12112198D01*
X11746729Y-12112198D02*
X11737205Y-12121722D01*
X11737205Y-12121722D02*
X11727682Y-12112198D01*
X11727682Y-12112198D02*
X11737205Y-12102674D01*
X11737205Y-12102674D02*
X11737205Y-12121722D01*
D12*
X10075000Y-12540000D02*
X10105000Y-12570000D01*
X10105000Y-12540000D02*
X10075000Y-12570000D01*
D11*
X10403872Y-12446484D02*
X10422920Y-12446484D01*
X10422920Y-12446484D02*
X10441967Y-12456008D01*
X10441967Y-12456008D02*
X10451491Y-12465531D01*
X10451491Y-12465531D02*
X10461015Y-12484579D01*
X10461015Y-12484579D02*
X10470539Y-12522674D01*
X10470539Y-12522674D02*
X10470539Y-12570293D01*
X10470539Y-12570293D02*
X10461015Y-12608388D01*
X10461015Y-12608388D02*
X10451491Y-12627436D01*
X10451491Y-12627436D02*
X10441967Y-12636960D01*
X10441967Y-12636960D02*
X10422920Y-12646484D01*
X10422920Y-12646484D02*
X10403872Y-12646484D01*
X10403872Y-12646484D02*
X10384824Y-12636960D01*
X10384824Y-12636960D02*
X10375301Y-12627436D01*
X10375301Y-12627436D02*
X10365777Y-12608388D01*
X10365777Y-12608388D02*
X10356253Y-12570293D01*
X10356253Y-12570293D02*
X10356253Y-12522674D01*
X10356253Y-12522674D02*
X10365777Y-12484579D01*
X10365777Y-12484579D02*
X10375301Y-12465531D01*
X10375301Y-12465531D02*
X10384824Y-12456008D01*
X10384824Y-12456008D02*
X10403872Y-12446484D01*
X10556253Y-12627436D02*
X10565777Y-12636960D01*
X10565777Y-12636960D02*
X10556253Y-12646484D01*
X10556253Y-12646484D02*
X10546729Y-12636960D01*
X10546729Y-12636960D02*
X10556253Y-12627436D01*
X10556253Y-12627436D02*
X10556253Y-12646484D01*
X10632444Y-12446484D02*
X10756253Y-12446484D01*
X10756253Y-12446484D02*
X10689586Y-12522674D01*
X10689586Y-12522674D02*
X10718158Y-12522674D01*
X10718158Y-12522674D02*
X10737205Y-12532198D01*
X10737205Y-12532198D02*
X10746729Y-12541722D01*
X10746729Y-12541722D02*
X10756253Y-12560769D01*
X10756253Y-12560769D02*
X10756253Y-12608388D01*
X10756253Y-12608388D02*
X10746729Y-12627436D01*
X10746729Y-12627436D02*
X10737205Y-12636960D01*
X10737205Y-12636960D02*
X10718158Y-12646484D01*
X10718158Y-12646484D02*
X10661015Y-12646484D01*
X10661015Y-12646484D02*
X10641967Y-12636960D01*
X10641967Y-12636960D02*
X10632444Y-12627436D01*
X10880063Y-12446484D02*
X10899110Y-12446484D01*
X10899110Y-12446484D02*
X10918158Y-12456008D01*
X10918158Y-12456008D02*
X10927682Y-12465531D01*
X10927682Y-12465531D02*
X10937205Y-12484579D01*
X10937205Y-12484579D02*
X10946729Y-12522674D01*
X10946729Y-12522674D02*
X10946729Y-12570293D01*
X10946729Y-12570293D02*
X10937205Y-12608388D01*
X10937205Y-12608388D02*
X10927682Y-12627436D01*
X10927682Y-12627436D02*
X10918158Y-12636960D01*
X10918158Y-12636960D02*
X10899110Y-12646484D01*
X10899110Y-12646484D02*
X10880063Y-12646484D01*
X10880063Y-12646484D02*
X10861015Y-12636960D01*
X10861015Y-12636960D02*
X10851491Y-12627436D01*
X10851491Y-12627436D02*
X10841967Y-12608388D01*
X10841967Y-12608388D02*
X10832444Y-12570293D01*
X10832444Y-12570293D02*
X10832444Y-12522674D01*
X10832444Y-12522674D02*
X10841967Y-12484579D01*
X10841967Y-12484579D02*
X10851491Y-12465531D01*
X10851491Y-12465531D02*
X10861015Y-12456008D01*
X10861015Y-12456008D02*
X10880063Y-12446484D01*
X11070539Y-12446484D02*
X11089586Y-12446484D01*
X11089586Y-12446484D02*
X11108634Y-12456008D01*
X11108634Y-12456008D02*
X11118158Y-12465531D01*
X11118158Y-12465531D02*
X11127682Y-12484579D01*
X11127682Y-12484579D02*
X11137205Y-12522674D01*
X11137205Y-12522674D02*
X11137205Y-12570293D01*
X11137205Y-12570293D02*
X11127682Y-12608388D01*
X11127682Y-12608388D02*
X11118158Y-12627436D01*
X11118158Y-12627436D02*
X11108634Y-12636960D01*
X11108634Y-12636960D02*
X11089586Y-12646484D01*
X11089586Y-12646484D02*
X11070539Y-12646484D01*
X11070539Y-12646484D02*
X11051491Y-12636960D01*
X11051491Y-12636960D02*
X11041967Y-12627436D01*
X11041967Y-12627436D02*
X11032444Y-12608388D01*
X11032444Y-12608388D02*
X11022920Y-12570293D01*
X11022920Y-12570293D02*
X11022920Y-12522674D01*
X11022920Y-12522674D02*
X11032444Y-12484579D01*
X11032444Y-12484579D02*
X11041967Y-12465531D01*
X11041967Y-12465531D02*
X11051491Y-12456008D01*
X11051491Y-12456008D02*
X11070539Y-12446484D01*
X11222920Y-12646484D02*
X11222920Y-12513150D01*
X11222920Y-12532198D02*
X11232443Y-12522674D01*
X11232443Y-12522674D02*
X11251491Y-12513150D01*
X11251491Y-12513150D02*
X11280063Y-12513150D01*
X11280063Y-12513150D02*
X11299110Y-12522674D01*
X11299110Y-12522674D02*
X11308634Y-12541722D01*
X11308634Y-12541722D02*
X11308634Y-12646484D01*
X11308634Y-12541722D02*
X11318158Y-12522674D01*
X11318158Y-12522674D02*
X11337205Y-12513150D01*
X11337205Y-12513150D02*
X11365777Y-12513150D01*
X11365777Y-12513150D02*
X11384824Y-12522674D01*
X11384824Y-12522674D02*
X11394348Y-12541722D01*
X11394348Y-12541722D02*
X11394348Y-12646484D01*
X11489586Y-12646484D02*
X11489586Y-12513150D01*
X11489586Y-12532198D02*
X11499110Y-12522674D01*
X11499110Y-12522674D02*
X11518158Y-12513150D01*
X11518158Y-12513150D02*
X11546729Y-12513150D01*
X11546729Y-12513150D02*
X11565777Y-12522674D01*
X11565777Y-12522674D02*
X11575301Y-12541722D01*
X11575301Y-12541722D02*
X11575301Y-12646484D01*
X11575301Y-12541722D02*
X11584824Y-12522674D01*
X11584824Y-12522674D02*
X11603872Y-12513150D01*
X11603872Y-12513150D02*
X11632443Y-12513150D01*
X11632443Y-12513150D02*
X11651491Y-12522674D01*
X11651491Y-12522674D02*
X11661015Y-12541722D01*
X11661015Y-12541722D02*
X11661015Y-12646484D01*
X12051491Y-12436960D02*
X11880063Y-12694103D01*
X12308634Y-12446484D02*
X12327682Y-12446484D01*
X12327682Y-12446484D02*
X12346729Y-12456008D01*
X12346729Y-12456008D02*
X12356253Y-12465531D01*
X12356253Y-12465531D02*
X12365777Y-12484579D01*
X12365777Y-12484579D02*
X12375301Y-12522674D01*
X12375301Y-12522674D02*
X12375301Y-12570293D01*
X12375301Y-12570293D02*
X12365777Y-12608388D01*
X12365777Y-12608388D02*
X12356253Y-12627436D01*
X12356253Y-12627436D02*
X12346729Y-12636960D01*
X12346729Y-12636960D02*
X12327682Y-12646484D01*
X12327682Y-12646484D02*
X12308634Y-12646484D01*
X12308634Y-12646484D02*
X12289586Y-12636960D01*
X12289586Y-12636960D02*
X12280063Y-12627436D01*
X12280063Y-12627436D02*
X12270539Y-12608388D01*
X12270539Y-12608388D02*
X12261015Y-12570293D01*
X12261015Y-12570293D02*
X12261015Y-12522674D01*
X12261015Y-12522674D02*
X12270539Y-12484579D01*
X12270539Y-12484579D02*
X12280063Y-12465531D01*
X12280063Y-12465531D02*
X12289586Y-12456008D01*
X12289586Y-12456008D02*
X12308634Y-12446484D01*
X12461015Y-12627436D02*
X12470539Y-12636960D01*
X12470539Y-12636960D02*
X12461015Y-12646484D01*
X12461015Y-12646484D02*
X12451491Y-12636960D01*
X12451491Y-12636960D02*
X12461015Y-12627436D01*
X12461015Y-12627436D02*
X12461015Y-12646484D01*
X12594348Y-12446484D02*
X12613396Y-12446484D01*
X12613396Y-12446484D02*
X12632444Y-12456008D01*
X12632444Y-12456008D02*
X12641967Y-12465531D01*
X12641967Y-12465531D02*
X12651491Y-12484579D01*
X12651491Y-12484579D02*
X12661015Y-12522674D01*
X12661015Y-12522674D02*
X12661015Y-12570293D01*
X12661015Y-12570293D02*
X12651491Y-12608388D01*
X12651491Y-12608388D02*
X12641967Y-12627436D01*
X12641967Y-12627436D02*
X12632444Y-12636960D01*
X12632444Y-12636960D02*
X12613396Y-12646484D01*
X12613396Y-12646484D02*
X12594348Y-12646484D01*
X12594348Y-12646484D02*
X12575301Y-12636960D01*
X12575301Y-12636960D02*
X12565777Y-12627436D01*
X12565777Y-12627436D02*
X12556253Y-12608388D01*
X12556253Y-12608388D02*
X12546729Y-12570293D01*
X12546729Y-12570293D02*
X12546729Y-12522674D01*
X12546729Y-12522674D02*
X12556253Y-12484579D01*
X12556253Y-12484579D02*
X12565777Y-12465531D01*
X12565777Y-12465531D02*
X12575301Y-12456008D01*
X12575301Y-12456008D02*
X12594348Y-12446484D01*
X12851491Y-12646484D02*
X12737206Y-12646484D01*
X12794348Y-12646484D02*
X12794348Y-12446484D01*
X12794348Y-12446484D02*
X12775301Y-12475055D01*
X12775301Y-12475055D02*
X12756253Y-12494103D01*
X12756253Y-12494103D02*
X12737206Y-12503627D01*
X13041967Y-12646484D02*
X12927682Y-12646484D01*
X12984825Y-12646484D02*
X12984825Y-12446484D01*
X12984825Y-12446484D02*
X12965777Y-12475055D01*
X12965777Y-12475055D02*
X12946729Y-12494103D01*
X12946729Y-12494103D02*
X12927682Y-12503627D01*
X13156253Y-12532198D02*
X13137206Y-12522674D01*
X13137206Y-12522674D02*
X13127682Y-12513150D01*
X13127682Y-12513150D02*
X13118158Y-12494103D01*
X13118158Y-12494103D02*
X13118158Y-12484579D01*
X13118158Y-12484579D02*
X13127682Y-12465531D01*
X13127682Y-12465531D02*
X13137206Y-12456008D01*
X13137206Y-12456008D02*
X13156253Y-12446484D01*
X13156253Y-12446484D02*
X13194348Y-12446484D01*
X13194348Y-12446484D02*
X13213396Y-12456008D01*
X13213396Y-12456008D02*
X13222920Y-12465531D01*
X13222920Y-12465531D02*
X13232444Y-12484579D01*
X13232444Y-12484579D02*
X13232444Y-12494103D01*
X13232444Y-12494103D02*
X13222920Y-12513150D01*
X13222920Y-12513150D02*
X13213396Y-12522674D01*
X13213396Y-12522674D02*
X13194348Y-12532198D01*
X13194348Y-12532198D02*
X13156253Y-12532198D01*
X13156253Y-12532198D02*
X13137206Y-12541722D01*
X13137206Y-12541722D02*
X13127682Y-12551246D01*
X13127682Y-12551246D02*
X13118158Y-12570293D01*
X13118158Y-12570293D02*
X13118158Y-12608388D01*
X13118158Y-12608388D02*
X13127682Y-12627436D01*
X13127682Y-12627436D02*
X13137206Y-12636960D01*
X13137206Y-12636960D02*
X13156253Y-12646484D01*
X13156253Y-12646484D02*
X13194348Y-12646484D01*
X13194348Y-12646484D02*
X13213396Y-12636960D01*
X13213396Y-12636960D02*
X13222920Y-12627436D01*
X13222920Y-12627436D02*
X13232444Y-12608388D01*
X13232444Y-12608388D02*
X13232444Y-12570293D01*
X13232444Y-12570293D02*
X13222920Y-12551246D01*
X13222920Y-12551246D02*
X13213396Y-12541722D01*
X13213396Y-12541722D02*
X13194348Y-12532198D01*
X13308634Y-12446484D02*
X13308634Y-12484579D01*
X13384825Y-12446484D02*
X13384825Y-12484579D01*
X13680063Y-12722674D02*
X13670539Y-12713150D01*
X13670539Y-12713150D02*
X13651491Y-12684579D01*
X13651491Y-12684579D02*
X13641968Y-12665531D01*
X13641968Y-12665531D02*
X13632444Y-12636960D01*
X13632444Y-12636960D02*
X13622920Y-12589341D01*
X13622920Y-12589341D02*
X13622920Y-12551246D01*
X13622920Y-12551246D02*
X13632444Y-12503627D01*
X13632444Y-12503627D02*
X13641968Y-12475055D01*
X13641968Y-12475055D02*
X13651491Y-12456008D01*
X13651491Y-12456008D02*
X13670539Y-12427436D01*
X13670539Y-12427436D02*
X13680063Y-12417912D01*
X13737206Y-12446484D02*
X13861015Y-12446484D01*
X13861015Y-12446484D02*
X13794348Y-12522674D01*
X13794348Y-12522674D02*
X13822920Y-12522674D01*
X13822920Y-12522674D02*
X13841968Y-12532198D01*
X13841968Y-12532198D02*
X13851491Y-12541722D01*
X13851491Y-12541722D02*
X13861015Y-12560769D01*
X13861015Y-12560769D02*
X13861015Y-12608388D01*
X13861015Y-12608388D02*
X13851491Y-12627436D01*
X13851491Y-12627436D02*
X13841968Y-12636960D01*
X13841968Y-12636960D02*
X13822920Y-12646484D01*
X13822920Y-12646484D02*
X13765777Y-12646484D01*
X13765777Y-12646484D02*
X13746729Y-12636960D01*
X13746729Y-12636960D02*
X13737206Y-12627436D01*
X13927682Y-12446484D02*
X14051491Y-12446484D01*
X14051491Y-12446484D02*
X13984825Y-12522674D01*
X13984825Y-12522674D02*
X14013396Y-12522674D01*
X14013396Y-12522674D02*
X14032444Y-12532198D01*
X14032444Y-12532198D02*
X14041968Y-12541722D01*
X14041968Y-12541722D02*
X14051491Y-12560769D01*
X14051491Y-12560769D02*
X14051491Y-12608388D01*
X14051491Y-12608388D02*
X14041968Y-12627436D01*
X14041968Y-12627436D02*
X14032444Y-12636960D01*
X14032444Y-12636960D02*
X14013396Y-12646484D01*
X14013396Y-12646484D02*
X13956253Y-12646484D01*
X13956253Y-12646484D02*
X13937206Y-12636960D01*
X13937206Y-12636960D02*
X13927682Y-12627436D01*
X14289587Y-12646484D02*
X14289587Y-12446484D01*
X14375301Y-12646484D02*
X14375301Y-12541722D01*
X14375301Y-12541722D02*
X14365777Y-12522674D01*
X14365777Y-12522674D02*
X14346730Y-12513150D01*
X14346730Y-12513150D02*
X14318158Y-12513150D01*
X14318158Y-12513150D02*
X14299110Y-12522674D01*
X14299110Y-12522674D02*
X14289587Y-12532198D01*
X14499110Y-12646484D02*
X14480063Y-12636960D01*
X14480063Y-12636960D02*
X14470539Y-12627436D01*
X14470539Y-12627436D02*
X14461015Y-12608388D01*
X14461015Y-12608388D02*
X14461015Y-12551246D01*
X14461015Y-12551246D02*
X14470539Y-12532198D01*
X14470539Y-12532198D02*
X14480063Y-12522674D01*
X14480063Y-12522674D02*
X14499110Y-12513150D01*
X14499110Y-12513150D02*
X14527682Y-12513150D01*
X14527682Y-12513150D02*
X14546730Y-12522674D01*
X14546730Y-12522674D02*
X14556253Y-12532198D01*
X14556253Y-12532198D02*
X14565777Y-12551246D01*
X14565777Y-12551246D02*
X14565777Y-12608388D01*
X14565777Y-12608388D02*
X14556253Y-12627436D01*
X14556253Y-12627436D02*
X14546730Y-12636960D01*
X14546730Y-12636960D02*
X14527682Y-12646484D01*
X14527682Y-12646484D02*
X14499110Y-12646484D01*
X14680063Y-12646484D02*
X14661015Y-12636960D01*
X14661015Y-12636960D02*
X14651491Y-12617912D01*
X14651491Y-12617912D02*
X14651491Y-12446484D01*
X14832444Y-12636960D02*
X14813396Y-12646484D01*
X14813396Y-12646484D02*
X14775301Y-12646484D01*
X14775301Y-12646484D02*
X14756253Y-12636960D01*
X14756253Y-12636960D02*
X14746730Y-12617912D01*
X14746730Y-12617912D02*
X14746730Y-12541722D01*
X14746730Y-12541722D02*
X14756253Y-12522674D01*
X14756253Y-12522674D02*
X14775301Y-12513150D01*
X14775301Y-12513150D02*
X14813396Y-12513150D01*
X14813396Y-12513150D02*
X14832444Y-12522674D01*
X14832444Y-12522674D02*
X14841968Y-12541722D01*
X14841968Y-12541722D02*
X14841968Y-12560769D01*
X14841968Y-12560769D02*
X14746730Y-12579817D01*
X14918158Y-12636960D02*
X14937206Y-12646484D01*
X14937206Y-12646484D02*
X14975301Y-12646484D01*
X14975301Y-12646484D02*
X14994349Y-12636960D01*
X14994349Y-12636960D02*
X15003872Y-12617912D01*
X15003872Y-12617912D02*
X15003872Y-12608388D01*
X15003872Y-12608388D02*
X14994349Y-12589341D01*
X14994349Y-12589341D02*
X14975301Y-12579817D01*
X14975301Y-12579817D02*
X14946730Y-12579817D01*
X14946730Y-12579817D02*
X14927682Y-12570293D01*
X14927682Y-12570293D02*
X14918158Y-12551246D01*
X14918158Y-12551246D02*
X14918158Y-12541722D01*
X14918158Y-12541722D02*
X14927682Y-12522674D01*
X14927682Y-12522674D02*
X14946730Y-12513150D01*
X14946730Y-12513150D02*
X14975301Y-12513150D01*
X14975301Y-12513150D02*
X14994349Y-12522674D01*
X15070539Y-12722674D02*
X15080063Y-12713150D01*
X15080063Y-12713150D02*
X15099111Y-12684579D01*
X15099111Y-12684579D02*
X15108634Y-12665531D01*
X15108634Y-12665531D02*
X15118158Y-12636960D01*
X15118158Y-12636960D02*
X15127682Y-12589341D01*
X15127682Y-12589341D02*
X15127682Y-12551246D01*
X15127682Y-12551246D02*
X15118158Y-12503627D01*
X15118158Y-12503627D02*
X15108634Y-12475055D01*
X15108634Y-12475055D02*
X15099111Y-12456008D01*
X15099111Y-12456008D02*
X15080063Y-12427436D01*
X15080063Y-12427436D02*
X15070539Y-12417912D01*
D13*
X10105000Y-12819000D02*
G75*
G03*
X10105000Y-12819000I-20000J0D01*
G01*
D11*
X10403872Y-12710484D02*
X10422920Y-12710484D01*
X10422920Y-12710484D02*
X10441967Y-12720008D01*
X10441967Y-12720008D02*
X10451491Y-12729531D01*
X10451491Y-12729531D02*
X10461015Y-12748579D01*
X10461015Y-12748579D02*
X10470539Y-12786674D01*
X10470539Y-12786674D02*
X10470539Y-12834293D01*
X10470539Y-12834293D02*
X10461015Y-12872388D01*
X10461015Y-12872388D02*
X10451491Y-12891436D01*
X10451491Y-12891436D02*
X10441967Y-12900960D01*
X10441967Y-12900960D02*
X10422920Y-12910484D01*
X10422920Y-12910484D02*
X10403872Y-12910484D01*
X10403872Y-12910484D02*
X10384824Y-12900960D01*
X10384824Y-12900960D02*
X10375301Y-12891436D01*
X10375301Y-12891436D02*
X10365777Y-12872388D01*
X10365777Y-12872388D02*
X10356253Y-12834293D01*
X10356253Y-12834293D02*
X10356253Y-12786674D01*
X10356253Y-12786674D02*
X10365777Y-12748579D01*
X10365777Y-12748579D02*
X10375301Y-12729531D01*
X10375301Y-12729531D02*
X10384824Y-12720008D01*
X10384824Y-12720008D02*
X10403872Y-12710484D01*
X10556253Y-12891436D02*
X10565777Y-12900960D01*
X10565777Y-12900960D02*
X10556253Y-12910484D01*
X10556253Y-12910484D02*
X10546729Y-12900960D01*
X10546729Y-12900960D02*
X10556253Y-12891436D01*
X10556253Y-12891436D02*
X10556253Y-12910484D01*
X10737205Y-12777150D02*
X10737205Y-12910484D01*
X10689586Y-12700960D02*
X10641967Y-12843817D01*
X10641967Y-12843817D02*
X10765777Y-12843817D01*
X10880063Y-12710484D02*
X10899110Y-12710484D01*
X10899110Y-12710484D02*
X10918158Y-12720008D01*
X10918158Y-12720008D02*
X10927682Y-12729531D01*
X10927682Y-12729531D02*
X10937205Y-12748579D01*
X10937205Y-12748579D02*
X10946729Y-12786674D01*
X10946729Y-12786674D02*
X10946729Y-12834293D01*
X10946729Y-12834293D02*
X10937205Y-12872388D01*
X10937205Y-12872388D02*
X10927682Y-12891436D01*
X10927682Y-12891436D02*
X10918158Y-12900960D01*
X10918158Y-12900960D02*
X10899110Y-12910484D01*
X10899110Y-12910484D02*
X10880063Y-12910484D01*
X10880063Y-12910484D02*
X10861015Y-12900960D01*
X10861015Y-12900960D02*
X10851491Y-12891436D01*
X10851491Y-12891436D02*
X10841967Y-12872388D01*
X10841967Y-12872388D02*
X10832444Y-12834293D01*
X10832444Y-12834293D02*
X10832444Y-12786674D01*
X10832444Y-12786674D02*
X10841967Y-12748579D01*
X10841967Y-12748579D02*
X10851491Y-12729531D01*
X10851491Y-12729531D02*
X10861015Y-12720008D01*
X10861015Y-12720008D02*
X10880063Y-12710484D01*
X11070539Y-12710484D02*
X11089586Y-12710484D01*
X11089586Y-12710484D02*
X11108634Y-12720008D01*
X11108634Y-12720008D02*
X11118158Y-12729531D01*
X11118158Y-12729531D02*
X11127682Y-12748579D01*
X11127682Y-12748579D02*
X11137205Y-12786674D01*
X11137205Y-12786674D02*
X11137205Y-12834293D01*
X11137205Y-12834293D02*
X11127682Y-12872388D01*
X11127682Y-12872388D02*
X11118158Y-12891436D01*
X11118158Y-12891436D02*
X11108634Y-12900960D01*
X11108634Y-12900960D02*
X11089586Y-12910484D01*
X11089586Y-12910484D02*
X11070539Y-12910484D01*
X11070539Y-12910484D02*
X11051491Y-12900960D01*
X11051491Y-12900960D02*
X11041967Y-12891436D01*
X11041967Y-12891436D02*
X11032444Y-12872388D01*
X11032444Y-12872388D02*
X11022920Y-12834293D01*
X11022920Y-12834293D02*
X11022920Y-12786674D01*
X11022920Y-12786674D02*
X11032444Y-12748579D01*
X11032444Y-12748579D02*
X11041967Y-12729531D01*
X11041967Y-12729531D02*
X11051491Y-12720008D01*
X11051491Y-12720008D02*
X11070539Y-12710484D01*
X11222920Y-12910484D02*
X11222920Y-12777150D01*
X11222920Y-12796198D02*
X11232443Y-12786674D01*
X11232443Y-12786674D02*
X11251491Y-12777150D01*
X11251491Y-12777150D02*
X11280063Y-12777150D01*
X11280063Y-12777150D02*
X11299110Y-12786674D01*
X11299110Y-12786674D02*
X11308634Y-12805722D01*
X11308634Y-12805722D02*
X11308634Y-12910484D01*
X11308634Y-12805722D02*
X11318158Y-12786674D01*
X11318158Y-12786674D02*
X11337205Y-12777150D01*
X11337205Y-12777150D02*
X11365777Y-12777150D01*
X11365777Y-12777150D02*
X11384824Y-12786674D01*
X11384824Y-12786674D02*
X11394348Y-12805722D01*
X11394348Y-12805722D02*
X11394348Y-12910484D01*
X11489586Y-12910484D02*
X11489586Y-12777150D01*
X11489586Y-12796198D02*
X11499110Y-12786674D01*
X11499110Y-12786674D02*
X11518158Y-12777150D01*
X11518158Y-12777150D02*
X11546729Y-12777150D01*
X11546729Y-12777150D02*
X11565777Y-12786674D01*
X11565777Y-12786674D02*
X11575301Y-12805722D01*
X11575301Y-12805722D02*
X11575301Y-12910484D01*
X11575301Y-12805722D02*
X11584824Y-12786674D01*
X11584824Y-12786674D02*
X11603872Y-12777150D01*
X11603872Y-12777150D02*
X11632443Y-12777150D01*
X11632443Y-12777150D02*
X11651491Y-12786674D01*
X11651491Y-12786674D02*
X11661015Y-12805722D01*
X11661015Y-12805722D02*
X11661015Y-12910484D01*
X12051491Y-12700960D02*
X11880063Y-12958103D01*
X12308634Y-12710484D02*
X12327682Y-12710484D01*
X12327682Y-12710484D02*
X12346729Y-12720008D01*
X12346729Y-12720008D02*
X12356253Y-12729531D01*
X12356253Y-12729531D02*
X12365777Y-12748579D01*
X12365777Y-12748579D02*
X12375301Y-12786674D01*
X12375301Y-12786674D02*
X12375301Y-12834293D01*
X12375301Y-12834293D02*
X12365777Y-12872388D01*
X12365777Y-12872388D02*
X12356253Y-12891436D01*
X12356253Y-12891436D02*
X12346729Y-12900960D01*
X12346729Y-12900960D02*
X12327682Y-12910484D01*
X12327682Y-12910484D02*
X12308634Y-12910484D01*
X12308634Y-12910484D02*
X12289586Y-12900960D01*
X12289586Y-12900960D02*
X12280063Y-12891436D01*
X12280063Y-12891436D02*
X12270539Y-12872388D01*
X12270539Y-12872388D02*
X12261015Y-12834293D01*
X12261015Y-12834293D02*
X12261015Y-12786674D01*
X12261015Y-12786674D02*
X12270539Y-12748579D01*
X12270539Y-12748579D02*
X12280063Y-12729531D01*
X12280063Y-12729531D02*
X12289586Y-12720008D01*
X12289586Y-12720008D02*
X12308634Y-12710484D01*
X12461015Y-12891436D02*
X12470539Y-12900960D01*
X12470539Y-12900960D02*
X12461015Y-12910484D01*
X12461015Y-12910484D02*
X12451491Y-12900960D01*
X12451491Y-12900960D02*
X12461015Y-12891436D01*
X12461015Y-12891436D02*
X12461015Y-12910484D01*
X12594348Y-12710484D02*
X12613396Y-12710484D01*
X12613396Y-12710484D02*
X12632444Y-12720008D01*
X12632444Y-12720008D02*
X12641967Y-12729531D01*
X12641967Y-12729531D02*
X12651491Y-12748579D01*
X12651491Y-12748579D02*
X12661015Y-12786674D01*
X12661015Y-12786674D02*
X12661015Y-12834293D01*
X12661015Y-12834293D02*
X12651491Y-12872388D01*
X12651491Y-12872388D02*
X12641967Y-12891436D01*
X12641967Y-12891436D02*
X12632444Y-12900960D01*
X12632444Y-12900960D02*
X12613396Y-12910484D01*
X12613396Y-12910484D02*
X12594348Y-12910484D01*
X12594348Y-12910484D02*
X12575301Y-12900960D01*
X12575301Y-12900960D02*
X12565777Y-12891436D01*
X12565777Y-12891436D02*
X12556253Y-12872388D01*
X12556253Y-12872388D02*
X12546729Y-12834293D01*
X12546729Y-12834293D02*
X12546729Y-12786674D01*
X12546729Y-12786674D02*
X12556253Y-12748579D01*
X12556253Y-12748579D02*
X12565777Y-12729531D01*
X12565777Y-12729531D02*
X12575301Y-12720008D01*
X12575301Y-12720008D02*
X12594348Y-12710484D01*
X12851491Y-12910484D02*
X12737206Y-12910484D01*
X12794348Y-12910484D02*
X12794348Y-12710484D01*
X12794348Y-12710484D02*
X12775301Y-12739055D01*
X12775301Y-12739055D02*
X12756253Y-12758103D01*
X12756253Y-12758103D02*
X12737206Y-12767627D01*
X13032444Y-12710484D02*
X12937206Y-12710484D01*
X12937206Y-12710484D02*
X12927682Y-12805722D01*
X12927682Y-12805722D02*
X12937206Y-12796198D01*
X12937206Y-12796198D02*
X12956253Y-12786674D01*
X12956253Y-12786674D02*
X13003872Y-12786674D01*
X13003872Y-12786674D02*
X13022920Y-12796198D01*
X13022920Y-12796198D02*
X13032444Y-12805722D01*
X13032444Y-12805722D02*
X13041967Y-12824769D01*
X13041967Y-12824769D02*
X13041967Y-12872388D01*
X13041967Y-12872388D02*
X13032444Y-12891436D01*
X13032444Y-12891436D02*
X13022920Y-12900960D01*
X13022920Y-12900960D02*
X13003872Y-12910484D01*
X13003872Y-12910484D02*
X12956253Y-12910484D01*
X12956253Y-12910484D02*
X12937206Y-12900960D01*
X12937206Y-12900960D02*
X12927682Y-12891436D01*
X13108634Y-12710484D02*
X13241967Y-12710484D01*
X13241967Y-12710484D02*
X13156253Y-12910484D01*
X13308634Y-12710484D02*
X13308634Y-12748579D01*
X13384825Y-12710484D02*
X13384825Y-12748579D01*
X13680063Y-12986674D02*
X13670539Y-12977150D01*
X13670539Y-12977150D02*
X13651491Y-12948579D01*
X13651491Y-12948579D02*
X13641968Y-12929531D01*
X13641968Y-12929531D02*
X13632444Y-12900960D01*
X13632444Y-12900960D02*
X13622920Y-12853341D01*
X13622920Y-12853341D02*
X13622920Y-12815246D01*
X13622920Y-12815246D02*
X13632444Y-12767627D01*
X13632444Y-12767627D02*
X13641968Y-12739055D01*
X13641968Y-12739055D02*
X13651491Y-12720008D01*
X13651491Y-12720008D02*
X13670539Y-12691436D01*
X13670539Y-12691436D02*
X13680063Y-12681912D01*
X13851491Y-12710484D02*
X13756253Y-12710484D01*
X13756253Y-12710484D02*
X13746729Y-12805722D01*
X13746729Y-12805722D02*
X13756253Y-12796198D01*
X13756253Y-12796198D02*
X13775301Y-12786674D01*
X13775301Y-12786674D02*
X13822920Y-12786674D01*
X13822920Y-12786674D02*
X13841968Y-12796198D01*
X13841968Y-12796198D02*
X13851491Y-12805722D01*
X13851491Y-12805722D02*
X13861015Y-12824769D01*
X13861015Y-12824769D02*
X13861015Y-12872388D01*
X13861015Y-12872388D02*
X13851491Y-12891436D01*
X13851491Y-12891436D02*
X13841968Y-12900960D01*
X13841968Y-12900960D02*
X13822920Y-12910484D01*
X13822920Y-12910484D02*
X13775301Y-12910484D01*
X13775301Y-12910484D02*
X13756253Y-12900960D01*
X13756253Y-12900960D02*
X13746729Y-12891436D01*
X14032444Y-12777150D02*
X14032444Y-12910484D01*
X13984825Y-12700960D02*
X13937206Y-12843817D01*
X13937206Y-12843817D02*
X14061015Y-12843817D01*
X14289587Y-12910484D02*
X14289587Y-12710484D01*
X14375301Y-12910484D02*
X14375301Y-12805722D01*
X14375301Y-12805722D02*
X14365777Y-12786674D01*
X14365777Y-12786674D02*
X14346730Y-12777150D01*
X14346730Y-12777150D02*
X14318158Y-12777150D01*
X14318158Y-12777150D02*
X14299110Y-12786674D01*
X14299110Y-12786674D02*
X14289587Y-12796198D01*
X14499110Y-12910484D02*
X14480063Y-12900960D01*
X14480063Y-12900960D02*
X14470539Y-12891436D01*
X14470539Y-12891436D02*
X14461015Y-12872388D01*
X14461015Y-12872388D02*
X14461015Y-12815246D01*
X14461015Y-12815246D02*
X14470539Y-12796198D01*
X14470539Y-12796198D02*
X14480063Y-12786674D01*
X14480063Y-12786674D02*
X14499110Y-12777150D01*
X14499110Y-12777150D02*
X14527682Y-12777150D01*
X14527682Y-12777150D02*
X14546730Y-12786674D01*
X14546730Y-12786674D02*
X14556253Y-12796198D01*
X14556253Y-12796198D02*
X14565777Y-12815246D01*
X14565777Y-12815246D02*
X14565777Y-12872388D01*
X14565777Y-12872388D02*
X14556253Y-12891436D01*
X14556253Y-12891436D02*
X14546730Y-12900960D01*
X14546730Y-12900960D02*
X14527682Y-12910484D01*
X14527682Y-12910484D02*
X14499110Y-12910484D01*
X14680063Y-12910484D02*
X14661015Y-12900960D01*
X14661015Y-12900960D02*
X14651491Y-12881912D01*
X14651491Y-12881912D02*
X14651491Y-12710484D01*
X14832444Y-12900960D02*
X14813396Y-12910484D01*
X14813396Y-12910484D02*
X14775301Y-12910484D01*
X14775301Y-12910484D02*
X14756253Y-12900960D01*
X14756253Y-12900960D02*
X14746730Y-12881912D01*
X14746730Y-12881912D02*
X14746730Y-12805722D01*
X14746730Y-12805722D02*
X14756253Y-12786674D01*
X14756253Y-12786674D02*
X14775301Y-12777150D01*
X14775301Y-12777150D02*
X14813396Y-12777150D01*
X14813396Y-12777150D02*
X14832444Y-12786674D01*
X14832444Y-12786674D02*
X14841968Y-12805722D01*
X14841968Y-12805722D02*
X14841968Y-12824769D01*
X14841968Y-12824769D02*
X14746730Y-12843817D01*
X14918158Y-12900960D02*
X14937206Y-12910484D01*
X14937206Y-12910484D02*
X14975301Y-12910484D01*
X14975301Y-12910484D02*
X14994349Y-12900960D01*
X14994349Y-12900960D02*
X15003872Y-12881912D01*
X15003872Y-12881912D02*
X15003872Y-12872388D01*
X15003872Y-12872388D02*
X14994349Y-12853341D01*
X14994349Y-12853341D02*
X14975301Y-12843817D01*
X14975301Y-12843817D02*
X14946730Y-12843817D01*
X14946730Y-12843817D02*
X14927682Y-12834293D01*
X14927682Y-12834293D02*
X14918158Y-12815246D01*
X14918158Y-12815246D02*
X14918158Y-12805722D01*
X14918158Y-12805722D02*
X14927682Y-12786674D01*
X14927682Y-12786674D02*
X14946730Y-12777150D01*
X14946730Y-12777150D02*
X14975301Y-12777150D01*
X14975301Y-12777150D02*
X14994349Y-12786674D01*
X15070539Y-12986674D02*
X15080063Y-12977150D01*
X15080063Y-12977150D02*
X15099111Y-12948579D01*
X15099111Y-12948579D02*
X15108634Y-12929531D01*
X15108634Y-12929531D02*
X15118158Y-12900960D01*
X15118158Y-12900960D02*
X15127682Y-12853341D01*
X15127682Y-12853341D02*
X15127682Y-12815246D01*
X15127682Y-12815246D02*
X15118158Y-12767627D01*
X15118158Y-12767627D02*
X15108634Y-12739055D01*
X15108634Y-12739055D02*
X15099111Y-12720008D01*
X15099111Y-12720008D02*
X15080063Y-12691436D01*
X15080063Y-12691436D02*
X15070539Y-12681912D01*
D14*
X10080000Y-13058000D02*
X10080000Y-13108000D01*
X10055000Y-13083000D02*
X10105000Y-13083000D01*
D11*
X10403872Y-12974484D02*
X10422920Y-12974484D01*
X10422920Y-12974484D02*
X10441967Y-12984008D01*
X10441967Y-12984008D02*
X10451491Y-12993531D01*
X10451491Y-12993531D02*
X10461015Y-13012579D01*
X10461015Y-13012579D02*
X10470539Y-13050674D01*
X10470539Y-13050674D02*
X10470539Y-13098293D01*
X10470539Y-13098293D02*
X10461015Y-13136388D01*
X10461015Y-13136388D02*
X10451491Y-13155436D01*
X10451491Y-13155436D02*
X10441967Y-13164960D01*
X10441967Y-13164960D02*
X10422920Y-13174484D01*
X10422920Y-13174484D02*
X10403872Y-13174484D01*
X10403872Y-13174484D02*
X10384824Y-13164960D01*
X10384824Y-13164960D02*
X10375301Y-13155436D01*
X10375301Y-13155436D02*
X10365777Y-13136388D01*
X10365777Y-13136388D02*
X10356253Y-13098293D01*
X10356253Y-13098293D02*
X10356253Y-13050674D01*
X10356253Y-13050674D02*
X10365777Y-13012579D01*
X10365777Y-13012579D02*
X10375301Y-12993531D01*
X10375301Y-12993531D02*
X10384824Y-12984008D01*
X10384824Y-12984008D02*
X10403872Y-12974484D01*
X10556253Y-13155436D02*
X10565777Y-13164960D01*
X10565777Y-13164960D02*
X10556253Y-13174484D01*
X10556253Y-13174484D02*
X10546729Y-13164960D01*
X10546729Y-13164960D02*
X10556253Y-13155436D01*
X10556253Y-13155436D02*
X10556253Y-13174484D01*
X10746729Y-12974484D02*
X10651491Y-12974484D01*
X10651491Y-12974484D02*
X10641967Y-13069722D01*
X10641967Y-13069722D02*
X10651491Y-13060198D01*
X10651491Y-13060198D02*
X10670539Y-13050674D01*
X10670539Y-13050674D02*
X10718158Y-13050674D01*
X10718158Y-13050674D02*
X10737205Y-13060198D01*
X10737205Y-13060198D02*
X10746729Y-13069722D01*
X10746729Y-13069722D02*
X10756253Y-13088769D01*
X10756253Y-13088769D02*
X10756253Y-13136388D01*
X10756253Y-13136388D02*
X10746729Y-13155436D01*
X10746729Y-13155436D02*
X10737205Y-13164960D01*
X10737205Y-13164960D02*
X10718158Y-13174484D01*
X10718158Y-13174484D02*
X10670539Y-13174484D01*
X10670539Y-13174484D02*
X10651491Y-13164960D01*
X10651491Y-13164960D02*
X10641967Y-13155436D01*
X10880063Y-12974484D02*
X10899110Y-12974484D01*
X10899110Y-12974484D02*
X10918158Y-12984008D01*
X10918158Y-12984008D02*
X10927682Y-12993531D01*
X10927682Y-12993531D02*
X10937205Y-13012579D01*
X10937205Y-13012579D02*
X10946729Y-13050674D01*
X10946729Y-13050674D02*
X10946729Y-13098293D01*
X10946729Y-13098293D02*
X10937205Y-13136388D01*
X10937205Y-13136388D02*
X10927682Y-13155436D01*
X10927682Y-13155436D02*
X10918158Y-13164960D01*
X10918158Y-13164960D02*
X10899110Y-13174484D01*
X10899110Y-13174484D02*
X10880063Y-13174484D01*
X10880063Y-13174484D02*
X10861015Y-13164960D01*
X10861015Y-13164960D02*
X10851491Y-13155436D01*
X10851491Y-13155436D02*
X10841967Y-13136388D01*
X10841967Y-13136388D02*
X10832444Y-13098293D01*
X10832444Y-13098293D02*
X10832444Y-13050674D01*
X10832444Y-13050674D02*
X10841967Y-13012579D01*
X10841967Y-13012579D02*
X10851491Y-12993531D01*
X10851491Y-12993531D02*
X10861015Y-12984008D01*
X10861015Y-12984008D02*
X10880063Y-12974484D01*
X11070539Y-12974484D02*
X11089586Y-12974484D01*
X11089586Y-12974484D02*
X11108634Y-12984008D01*
X11108634Y-12984008D02*
X11118158Y-12993531D01*
X11118158Y-12993531D02*
X11127682Y-13012579D01*
X11127682Y-13012579D02*
X11137205Y-13050674D01*
X11137205Y-13050674D02*
X11137205Y-13098293D01*
X11137205Y-13098293D02*
X11127682Y-13136388D01*
X11127682Y-13136388D02*
X11118158Y-13155436D01*
X11118158Y-13155436D02*
X11108634Y-13164960D01*
X11108634Y-13164960D02*
X11089586Y-13174484D01*
X11089586Y-13174484D02*
X11070539Y-13174484D01*
X11070539Y-13174484D02*
X11051491Y-13164960D01*
X11051491Y-13164960D02*
X11041967Y-13155436D01*
X11041967Y-13155436D02*
X11032444Y-13136388D01*
X11032444Y-13136388D02*
X11022920Y-13098293D01*
X11022920Y-13098293D02*
X11022920Y-13050674D01*
X11022920Y-13050674D02*
X11032444Y-13012579D01*
X11032444Y-13012579D02*
X11041967Y-12993531D01*
X11041967Y-12993531D02*
X11051491Y-12984008D01*
X11051491Y-12984008D02*
X11070539Y-12974484D01*
X11222920Y-13174484D02*
X11222920Y-13041150D01*
X11222920Y-13060198D02*
X11232443Y-13050674D01*
X11232443Y-13050674D02*
X11251491Y-13041150D01*
X11251491Y-13041150D02*
X11280063Y-13041150D01*
X11280063Y-13041150D02*
X11299110Y-13050674D01*
X11299110Y-13050674D02*
X11308634Y-13069722D01*
X11308634Y-13069722D02*
X11308634Y-13174484D01*
X11308634Y-13069722D02*
X11318158Y-13050674D01*
X11318158Y-13050674D02*
X11337205Y-13041150D01*
X11337205Y-13041150D02*
X11365777Y-13041150D01*
X11365777Y-13041150D02*
X11384824Y-13050674D01*
X11384824Y-13050674D02*
X11394348Y-13069722D01*
X11394348Y-13069722D02*
X11394348Y-13174484D01*
X11489586Y-13174484D02*
X11489586Y-13041150D01*
X11489586Y-13060198D02*
X11499110Y-13050674D01*
X11499110Y-13050674D02*
X11518158Y-13041150D01*
X11518158Y-13041150D02*
X11546729Y-13041150D01*
X11546729Y-13041150D02*
X11565777Y-13050674D01*
X11565777Y-13050674D02*
X11575301Y-13069722D01*
X11575301Y-13069722D02*
X11575301Y-13174484D01*
X11575301Y-13069722D02*
X11584824Y-13050674D01*
X11584824Y-13050674D02*
X11603872Y-13041150D01*
X11603872Y-13041150D02*
X11632443Y-13041150D01*
X11632443Y-13041150D02*
X11651491Y-13050674D01*
X11651491Y-13050674D02*
X11661015Y-13069722D01*
X11661015Y-13069722D02*
X11661015Y-13174484D01*
X12051491Y-12964960D02*
X11880063Y-13222103D01*
X12308634Y-12974484D02*
X12327682Y-12974484D01*
X12327682Y-12974484D02*
X12346729Y-12984008D01*
X12346729Y-12984008D02*
X12356253Y-12993531D01*
X12356253Y-12993531D02*
X12365777Y-13012579D01*
X12365777Y-13012579D02*
X12375301Y-13050674D01*
X12375301Y-13050674D02*
X12375301Y-13098293D01*
X12375301Y-13098293D02*
X12365777Y-13136388D01*
X12365777Y-13136388D02*
X12356253Y-13155436D01*
X12356253Y-13155436D02*
X12346729Y-13164960D01*
X12346729Y-13164960D02*
X12327682Y-13174484D01*
X12327682Y-13174484D02*
X12308634Y-13174484D01*
X12308634Y-13174484D02*
X12289586Y-13164960D01*
X12289586Y-13164960D02*
X12280063Y-13155436D01*
X12280063Y-13155436D02*
X12270539Y-13136388D01*
X12270539Y-13136388D02*
X12261015Y-13098293D01*
X12261015Y-13098293D02*
X12261015Y-13050674D01*
X12261015Y-13050674D02*
X12270539Y-13012579D01*
X12270539Y-13012579D02*
X12280063Y-12993531D01*
X12280063Y-12993531D02*
X12289586Y-12984008D01*
X12289586Y-12984008D02*
X12308634Y-12974484D01*
X12461015Y-13155436D02*
X12470539Y-13164960D01*
X12470539Y-13164960D02*
X12461015Y-13174484D01*
X12461015Y-13174484D02*
X12451491Y-13164960D01*
X12451491Y-13164960D02*
X12461015Y-13155436D01*
X12461015Y-13155436D02*
X12461015Y-13174484D01*
X12594348Y-12974484D02*
X12613396Y-12974484D01*
X12613396Y-12974484D02*
X12632444Y-12984008D01*
X12632444Y-12984008D02*
X12641967Y-12993531D01*
X12641967Y-12993531D02*
X12651491Y-13012579D01*
X12651491Y-13012579D02*
X12661015Y-13050674D01*
X12661015Y-13050674D02*
X12661015Y-13098293D01*
X12661015Y-13098293D02*
X12651491Y-13136388D01*
X12651491Y-13136388D02*
X12641967Y-13155436D01*
X12641967Y-13155436D02*
X12632444Y-13164960D01*
X12632444Y-13164960D02*
X12613396Y-13174484D01*
X12613396Y-13174484D02*
X12594348Y-13174484D01*
X12594348Y-13174484D02*
X12575301Y-13164960D01*
X12575301Y-13164960D02*
X12565777Y-13155436D01*
X12565777Y-13155436D02*
X12556253Y-13136388D01*
X12556253Y-13136388D02*
X12546729Y-13098293D01*
X12546729Y-13098293D02*
X12546729Y-13050674D01*
X12546729Y-13050674D02*
X12556253Y-13012579D01*
X12556253Y-13012579D02*
X12565777Y-12993531D01*
X12565777Y-12993531D02*
X12575301Y-12984008D01*
X12575301Y-12984008D02*
X12594348Y-12974484D01*
X12851491Y-13174484D02*
X12737206Y-13174484D01*
X12794348Y-13174484D02*
X12794348Y-12974484D01*
X12794348Y-12974484D02*
X12775301Y-13003055D01*
X12775301Y-13003055D02*
X12756253Y-13022103D01*
X12756253Y-13022103D02*
X12737206Y-13031627D01*
X12946729Y-13174484D02*
X12984825Y-13174484D01*
X12984825Y-13174484D02*
X13003872Y-13164960D01*
X13003872Y-13164960D02*
X13013396Y-13155436D01*
X13013396Y-13155436D02*
X13032444Y-13126865D01*
X13032444Y-13126865D02*
X13041967Y-13088769D01*
X13041967Y-13088769D02*
X13041967Y-13012579D01*
X13041967Y-13012579D02*
X13032444Y-12993531D01*
X13032444Y-12993531D02*
X13022920Y-12984008D01*
X13022920Y-12984008D02*
X13003872Y-12974484D01*
X13003872Y-12974484D02*
X12965777Y-12974484D01*
X12965777Y-12974484D02*
X12946729Y-12984008D01*
X12946729Y-12984008D02*
X12937206Y-12993531D01*
X12937206Y-12993531D02*
X12927682Y-13012579D01*
X12927682Y-13012579D02*
X12927682Y-13060198D01*
X12927682Y-13060198D02*
X12937206Y-13079246D01*
X12937206Y-13079246D02*
X12946729Y-13088769D01*
X12946729Y-13088769D02*
X12965777Y-13098293D01*
X12965777Y-13098293D02*
X13003872Y-13098293D01*
X13003872Y-13098293D02*
X13022920Y-13088769D01*
X13022920Y-13088769D02*
X13032444Y-13079246D01*
X13032444Y-13079246D02*
X13041967Y-13060198D01*
X13108634Y-12974484D02*
X13241967Y-12974484D01*
X13241967Y-12974484D02*
X13156253Y-13174484D01*
X13308634Y-12974484D02*
X13308634Y-13012579D01*
X13384825Y-12974484D02*
X13384825Y-13012579D01*
X13680063Y-13250674D02*
X13670539Y-13241150D01*
X13670539Y-13241150D02*
X13651491Y-13212579D01*
X13651491Y-13212579D02*
X13641968Y-13193531D01*
X13641968Y-13193531D02*
X13632444Y-13164960D01*
X13632444Y-13164960D02*
X13622920Y-13117341D01*
X13622920Y-13117341D02*
X13622920Y-13079246D01*
X13622920Y-13079246D02*
X13632444Y-13031627D01*
X13632444Y-13031627D02*
X13641968Y-13003055D01*
X13641968Y-13003055D02*
X13651491Y-12984008D01*
X13651491Y-12984008D02*
X13670539Y-12955436D01*
X13670539Y-12955436D02*
X13680063Y-12945912D01*
X13746729Y-12993531D02*
X13756253Y-12984008D01*
X13756253Y-12984008D02*
X13775301Y-12974484D01*
X13775301Y-12974484D02*
X13822920Y-12974484D01*
X13822920Y-12974484D02*
X13841968Y-12984008D01*
X13841968Y-12984008D02*
X13851491Y-12993531D01*
X13851491Y-12993531D02*
X13861015Y-13012579D01*
X13861015Y-13012579D02*
X13861015Y-13031627D01*
X13861015Y-13031627D02*
X13851491Y-13060198D01*
X13851491Y-13060198D02*
X13737206Y-13174484D01*
X13737206Y-13174484D02*
X13861015Y-13174484D01*
X14099110Y-13174484D02*
X14099110Y-12974484D01*
X14184825Y-13174484D02*
X14184825Y-13069722D01*
X14184825Y-13069722D02*
X14175301Y-13050674D01*
X14175301Y-13050674D02*
X14156253Y-13041150D01*
X14156253Y-13041150D02*
X14127682Y-13041150D01*
X14127682Y-13041150D02*
X14108634Y-13050674D01*
X14108634Y-13050674D02*
X14099110Y-13060198D01*
X14308634Y-13174484D02*
X14289587Y-13164960D01*
X14289587Y-13164960D02*
X14280063Y-13155436D01*
X14280063Y-13155436D02*
X14270539Y-13136388D01*
X14270539Y-13136388D02*
X14270539Y-13079246D01*
X14270539Y-13079246D02*
X14280063Y-13060198D01*
X14280063Y-13060198D02*
X14289587Y-13050674D01*
X14289587Y-13050674D02*
X14308634Y-13041150D01*
X14308634Y-13041150D02*
X14337206Y-13041150D01*
X14337206Y-13041150D02*
X14356253Y-13050674D01*
X14356253Y-13050674D02*
X14365777Y-13060198D01*
X14365777Y-13060198D02*
X14375301Y-13079246D01*
X14375301Y-13079246D02*
X14375301Y-13136388D01*
X14375301Y-13136388D02*
X14365777Y-13155436D01*
X14365777Y-13155436D02*
X14356253Y-13164960D01*
X14356253Y-13164960D02*
X14337206Y-13174484D01*
X14337206Y-13174484D02*
X14308634Y-13174484D01*
X14489587Y-13174484D02*
X14470539Y-13164960D01*
X14470539Y-13164960D02*
X14461015Y-13145912D01*
X14461015Y-13145912D02*
X14461015Y-12974484D01*
X14641968Y-13164960D02*
X14622920Y-13174484D01*
X14622920Y-13174484D02*
X14584825Y-13174484D01*
X14584825Y-13174484D02*
X14565777Y-13164960D01*
X14565777Y-13164960D02*
X14556253Y-13145912D01*
X14556253Y-13145912D02*
X14556253Y-13069722D01*
X14556253Y-13069722D02*
X14565777Y-13050674D01*
X14565777Y-13050674D02*
X14584825Y-13041150D01*
X14584825Y-13041150D02*
X14622920Y-13041150D01*
X14622920Y-13041150D02*
X14641968Y-13050674D01*
X14641968Y-13050674D02*
X14651491Y-13069722D01*
X14651491Y-13069722D02*
X14651491Y-13088769D01*
X14651491Y-13088769D02*
X14556253Y-13107817D01*
X14727682Y-13164960D02*
X14746730Y-13174484D01*
X14746730Y-13174484D02*
X14784825Y-13174484D01*
X14784825Y-13174484D02*
X14803872Y-13164960D01*
X14803872Y-13164960D02*
X14813396Y-13145912D01*
X14813396Y-13145912D02*
X14813396Y-13136388D01*
X14813396Y-13136388D02*
X14803872Y-13117341D01*
X14803872Y-13117341D02*
X14784825Y-13107817D01*
X14784825Y-13107817D02*
X14756253Y-13107817D01*
X14756253Y-13107817D02*
X14737206Y-13098293D01*
X14737206Y-13098293D02*
X14727682Y-13079246D01*
X14727682Y-13079246D02*
X14727682Y-13069722D01*
X14727682Y-13069722D02*
X14737206Y-13050674D01*
X14737206Y-13050674D02*
X14756253Y-13041150D01*
X14756253Y-13041150D02*
X14784825Y-13041150D01*
X14784825Y-13041150D02*
X14803872Y-13050674D01*
X14880063Y-13250674D02*
X14889587Y-13241150D01*
X14889587Y-13241150D02*
X14908634Y-13212579D01*
X14908634Y-13212579D02*
X14918158Y-13193531D01*
X14918158Y-13193531D02*
X14927682Y-13164960D01*
X14927682Y-13164960D02*
X14937206Y-13117341D01*
X14937206Y-13117341D02*
X14937206Y-13079246D01*
X14937206Y-13079246D02*
X14927682Y-13031627D01*
X14927682Y-13031627D02*
X14918158Y-13003055D01*
X14918158Y-13003055D02*
X14908634Y-12984008D01*
X14908634Y-12984008D02*
X14889587Y-12955436D01*
X14889587Y-12955436D02*
X14880063Y-12945912D01*
D15*
X10096946Y-13366446D02*
X10096946Y-13327554D01*
X10058054Y-13327554D01*
X10058054Y-13366446D01*
X10096946Y-13366446D01*
D11*
X10403872Y-13238484D02*
X10422920Y-13238484D01*
X10422920Y-13238484D02*
X10441967Y-13248008D01*
X10441967Y-13248008D02*
X10451491Y-13257531D01*
X10451491Y-13257531D02*
X10461015Y-13276579D01*
X10461015Y-13276579D02*
X10470539Y-13314674D01*
X10470539Y-13314674D02*
X10470539Y-13362293D01*
X10470539Y-13362293D02*
X10461015Y-13400388D01*
X10461015Y-13400388D02*
X10451491Y-13419436D01*
X10451491Y-13419436D02*
X10441967Y-13428960D01*
X10441967Y-13428960D02*
X10422920Y-13438484D01*
X10422920Y-13438484D02*
X10403872Y-13438484D01*
X10403872Y-13438484D02*
X10384824Y-13428960D01*
X10384824Y-13428960D02*
X10375301Y-13419436D01*
X10375301Y-13419436D02*
X10365777Y-13400388D01*
X10365777Y-13400388D02*
X10356253Y-13362293D01*
X10356253Y-13362293D02*
X10356253Y-13314674D01*
X10356253Y-13314674D02*
X10365777Y-13276579D01*
X10365777Y-13276579D02*
X10375301Y-13257531D01*
X10375301Y-13257531D02*
X10384824Y-13248008D01*
X10384824Y-13248008D02*
X10403872Y-13238484D01*
X10556253Y-13419436D02*
X10565777Y-13428960D01*
X10565777Y-13428960D02*
X10556253Y-13438484D01*
X10556253Y-13438484D02*
X10546729Y-13428960D01*
X10546729Y-13428960D02*
X10556253Y-13419436D01*
X10556253Y-13419436D02*
X10556253Y-13438484D01*
X10746729Y-13238484D02*
X10651491Y-13238484D01*
X10651491Y-13238484D02*
X10641967Y-13333722D01*
X10641967Y-13333722D02*
X10651491Y-13324198D01*
X10651491Y-13324198D02*
X10670539Y-13314674D01*
X10670539Y-13314674D02*
X10718158Y-13314674D01*
X10718158Y-13314674D02*
X10737205Y-13324198D01*
X10737205Y-13324198D02*
X10746729Y-13333722D01*
X10746729Y-13333722D02*
X10756253Y-13352769D01*
X10756253Y-13352769D02*
X10756253Y-13400388D01*
X10756253Y-13400388D02*
X10746729Y-13419436D01*
X10746729Y-13419436D02*
X10737205Y-13428960D01*
X10737205Y-13428960D02*
X10718158Y-13438484D01*
X10718158Y-13438484D02*
X10670539Y-13438484D01*
X10670539Y-13438484D02*
X10651491Y-13428960D01*
X10651491Y-13428960D02*
X10641967Y-13419436D01*
X10937205Y-13238484D02*
X10841967Y-13238484D01*
X10841967Y-13238484D02*
X10832444Y-13333722D01*
X10832444Y-13333722D02*
X10841967Y-13324198D01*
X10841967Y-13324198D02*
X10861015Y-13314674D01*
X10861015Y-13314674D02*
X10908634Y-13314674D01*
X10908634Y-13314674D02*
X10927682Y-13324198D01*
X10927682Y-13324198D02*
X10937205Y-13333722D01*
X10937205Y-13333722D02*
X10946729Y-13352769D01*
X10946729Y-13352769D02*
X10946729Y-13400388D01*
X10946729Y-13400388D02*
X10937205Y-13419436D01*
X10937205Y-13419436D02*
X10927682Y-13428960D01*
X10927682Y-13428960D02*
X10908634Y-13438484D01*
X10908634Y-13438484D02*
X10861015Y-13438484D01*
X10861015Y-13438484D02*
X10841967Y-13428960D01*
X10841967Y-13428960D02*
X10832444Y-13419436D01*
X11070539Y-13238484D02*
X11089586Y-13238484D01*
X11089586Y-13238484D02*
X11108634Y-13248008D01*
X11108634Y-13248008D02*
X11118158Y-13257531D01*
X11118158Y-13257531D02*
X11127682Y-13276579D01*
X11127682Y-13276579D02*
X11137205Y-13314674D01*
X11137205Y-13314674D02*
X11137205Y-13362293D01*
X11137205Y-13362293D02*
X11127682Y-13400388D01*
X11127682Y-13400388D02*
X11118158Y-13419436D01*
X11118158Y-13419436D02*
X11108634Y-13428960D01*
X11108634Y-13428960D02*
X11089586Y-13438484D01*
X11089586Y-13438484D02*
X11070539Y-13438484D01*
X11070539Y-13438484D02*
X11051491Y-13428960D01*
X11051491Y-13428960D02*
X11041967Y-13419436D01*
X11041967Y-13419436D02*
X11032444Y-13400388D01*
X11032444Y-13400388D02*
X11022920Y-13362293D01*
X11022920Y-13362293D02*
X11022920Y-13314674D01*
X11022920Y-13314674D02*
X11032444Y-13276579D01*
X11032444Y-13276579D02*
X11041967Y-13257531D01*
X11041967Y-13257531D02*
X11051491Y-13248008D01*
X11051491Y-13248008D02*
X11070539Y-13238484D01*
X11222920Y-13438484D02*
X11222920Y-13305150D01*
X11222920Y-13324198D02*
X11232443Y-13314674D01*
X11232443Y-13314674D02*
X11251491Y-13305150D01*
X11251491Y-13305150D02*
X11280063Y-13305150D01*
X11280063Y-13305150D02*
X11299110Y-13314674D01*
X11299110Y-13314674D02*
X11308634Y-13333722D01*
X11308634Y-13333722D02*
X11308634Y-13438484D01*
X11308634Y-13333722D02*
X11318158Y-13314674D01*
X11318158Y-13314674D02*
X11337205Y-13305150D01*
X11337205Y-13305150D02*
X11365777Y-13305150D01*
X11365777Y-13305150D02*
X11384824Y-13314674D01*
X11384824Y-13314674D02*
X11394348Y-13333722D01*
X11394348Y-13333722D02*
X11394348Y-13438484D01*
X11489586Y-13438484D02*
X11489586Y-13305150D01*
X11489586Y-13324198D02*
X11499110Y-13314674D01*
X11499110Y-13314674D02*
X11518158Y-13305150D01*
X11518158Y-13305150D02*
X11546729Y-13305150D01*
X11546729Y-13305150D02*
X11565777Y-13314674D01*
X11565777Y-13314674D02*
X11575301Y-13333722D01*
X11575301Y-13333722D02*
X11575301Y-13438484D01*
X11575301Y-13333722D02*
X11584824Y-13314674D01*
X11584824Y-13314674D02*
X11603872Y-13305150D01*
X11603872Y-13305150D02*
X11632443Y-13305150D01*
X11632443Y-13305150D02*
X11651491Y-13314674D01*
X11651491Y-13314674D02*
X11661015Y-13333722D01*
X11661015Y-13333722D02*
X11661015Y-13438484D01*
X12051491Y-13228960D02*
X11880063Y-13486103D01*
X12308634Y-13238484D02*
X12327682Y-13238484D01*
X12327682Y-13238484D02*
X12346729Y-13248008D01*
X12346729Y-13248008D02*
X12356253Y-13257531D01*
X12356253Y-13257531D02*
X12365777Y-13276579D01*
X12365777Y-13276579D02*
X12375301Y-13314674D01*
X12375301Y-13314674D02*
X12375301Y-13362293D01*
X12375301Y-13362293D02*
X12365777Y-13400388D01*
X12365777Y-13400388D02*
X12356253Y-13419436D01*
X12356253Y-13419436D02*
X12346729Y-13428960D01*
X12346729Y-13428960D02*
X12327682Y-13438484D01*
X12327682Y-13438484D02*
X12308634Y-13438484D01*
X12308634Y-13438484D02*
X12289586Y-13428960D01*
X12289586Y-13428960D02*
X12280063Y-13419436D01*
X12280063Y-13419436D02*
X12270539Y-13400388D01*
X12270539Y-13400388D02*
X12261015Y-13362293D01*
X12261015Y-13362293D02*
X12261015Y-13314674D01*
X12261015Y-13314674D02*
X12270539Y-13276579D01*
X12270539Y-13276579D02*
X12280063Y-13257531D01*
X12280063Y-13257531D02*
X12289586Y-13248008D01*
X12289586Y-13248008D02*
X12308634Y-13238484D01*
X12461015Y-13419436D02*
X12470539Y-13428960D01*
X12470539Y-13428960D02*
X12461015Y-13438484D01*
X12461015Y-13438484D02*
X12451491Y-13428960D01*
X12451491Y-13428960D02*
X12461015Y-13419436D01*
X12461015Y-13419436D02*
X12461015Y-13438484D01*
X12594348Y-13238484D02*
X12613396Y-13238484D01*
X12613396Y-13238484D02*
X12632444Y-13248008D01*
X12632444Y-13248008D02*
X12641967Y-13257531D01*
X12641967Y-13257531D02*
X12651491Y-13276579D01*
X12651491Y-13276579D02*
X12661015Y-13314674D01*
X12661015Y-13314674D02*
X12661015Y-13362293D01*
X12661015Y-13362293D02*
X12651491Y-13400388D01*
X12651491Y-13400388D02*
X12641967Y-13419436D01*
X12641967Y-13419436D02*
X12632444Y-13428960D01*
X12632444Y-13428960D02*
X12613396Y-13438484D01*
X12613396Y-13438484D02*
X12594348Y-13438484D01*
X12594348Y-13438484D02*
X12575301Y-13428960D01*
X12575301Y-13428960D02*
X12565777Y-13419436D01*
X12565777Y-13419436D02*
X12556253Y-13400388D01*
X12556253Y-13400388D02*
X12546729Y-13362293D01*
X12546729Y-13362293D02*
X12546729Y-13314674D01*
X12546729Y-13314674D02*
X12556253Y-13276579D01*
X12556253Y-13276579D02*
X12565777Y-13257531D01*
X12565777Y-13257531D02*
X12575301Y-13248008D01*
X12575301Y-13248008D02*
X12594348Y-13238484D01*
X12737206Y-13257531D02*
X12746729Y-13248008D01*
X12746729Y-13248008D02*
X12765777Y-13238484D01*
X12765777Y-13238484D02*
X12813396Y-13238484D01*
X12813396Y-13238484D02*
X12832444Y-13248008D01*
X12832444Y-13248008D02*
X12841967Y-13257531D01*
X12841967Y-13257531D02*
X12851491Y-13276579D01*
X12851491Y-13276579D02*
X12851491Y-13295627D01*
X12851491Y-13295627D02*
X12841967Y-13324198D01*
X12841967Y-13324198D02*
X12727682Y-13438484D01*
X12727682Y-13438484D02*
X12851491Y-13438484D01*
X13041967Y-13438484D02*
X12927682Y-13438484D01*
X12984825Y-13438484D02*
X12984825Y-13238484D01*
X12984825Y-13238484D02*
X12965777Y-13267055D01*
X12965777Y-13267055D02*
X12946729Y-13286103D01*
X12946729Y-13286103D02*
X12927682Y-13295627D01*
X13108634Y-13238484D02*
X13241967Y-13238484D01*
X13241967Y-13238484D02*
X13156253Y-13438484D01*
X13308634Y-13238484D02*
X13308634Y-13276579D01*
X13384825Y-13238484D02*
X13384825Y-13276579D01*
X13680063Y-13514674D02*
X13670539Y-13505150D01*
X13670539Y-13505150D02*
X13651491Y-13476579D01*
X13651491Y-13476579D02*
X13641968Y-13457531D01*
X13641968Y-13457531D02*
X13632444Y-13428960D01*
X13632444Y-13428960D02*
X13622920Y-13381341D01*
X13622920Y-13381341D02*
X13622920Y-13343246D01*
X13622920Y-13343246D02*
X13632444Y-13295627D01*
X13632444Y-13295627D02*
X13641968Y-13267055D01*
X13641968Y-13267055D02*
X13651491Y-13248008D01*
X13651491Y-13248008D02*
X13670539Y-13219436D01*
X13670539Y-13219436D02*
X13680063Y-13209912D01*
X13794348Y-13238484D02*
X13813396Y-13238484D01*
X13813396Y-13238484D02*
X13832444Y-13248008D01*
X13832444Y-13248008D02*
X13841968Y-13257531D01*
X13841968Y-13257531D02*
X13851491Y-13276579D01*
X13851491Y-13276579D02*
X13861015Y-13314674D01*
X13861015Y-13314674D02*
X13861015Y-13362293D01*
X13861015Y-13362293D02*
X13851491Y-13400388D01*
X13851491Y-13400388D02*
X13841968Y-13419436D01*
X13841968Y-13419436D02*
X13832444Y-13428960D01*
X13832444Y-13428960D02*
X13813396Y-13438484D01*
X13813396Y-13438484D02*
X13794348Y-13438484D01*
X13794348Y-13438484D02*
X13775301Y-13428960D01*
X13775301Y-13428960D02*
X13765777Y-13419436D01*
X13765777Y-13419436D02*
X13756253Y-13400388D01*
X13756253Y-13400388D02*
X13746729Y-13362293D01*
X13746729Y-13362293D02*
X13746729Y-13314674D01*
X13746729Y-13314674D02*
X13756253Y-13276579D01*
X13756253Y-13276579D02*
X13765777Y-13257531D01*
X13765777Y-13257531D02*
X13775301Y-13248008D01*
X13775301Y-13248008D02*
X13794348Y-13238484D01*
X14099110Y-13438484D02*
X14099110Y-13238484D01*
X14184825Y-13438484D02*
X14184825Y-13333722D01*
X14184825Y-13333722D02*
X14175301Y-13314674D01*
X14175301Y-13314674D02*
X14156253Y-13305150D01*
X14156253Y-13305150D02*
X14127682Y-13305150D01*
X14127682Y-13305150D02*
X14108634Y-13314674D01*
X14108634Y-13314674D02*
X14099110Y-13324198D01*
X14308634Y-13438484D02*
X14289587Y-13428960D01*
X14289587Y-13428960D02*
X14280063Y-13419436D01*
X14280063Y-13419436D02*
X14270539Y-13400388D01*
X14270539Y-13400388D02*
X14270539Y-13343246D01*
X14270539Y-13343246D02*
X14280063Y-13324198D01*
X14280063Y-13324198D02*
X14289587Y-13314674D01*
X14289587Y-13314674D02*
X14308634Y-13305150D01*
X14308634Y-13305150D02*
X14337206Y-13305150D01*
X14337206Y-13305150D02*
X14356253Y-13314674D01*
X14356253Y-13314674D02*
X14365777Y-13324198D01*
X14365777Y-13324198D02*
X14375301Y-13343246D01*
X14375301Y-13343246D02*
X14375301Y-13400388D01*
X14375301Y-13400388D02*
X14365777Y-13419436D01*
X14365777Y-13419436D02*
X14356253Y-13428960D01*
X14356253Y-13428960D02*
X14337206Y-13438484D01*
X14337206Y-13438484D02*
X14308634Y-13438484D01*
X14489587Y-13438484D02*
X14470539Y-13428960D01*
X14470539Y-13428960D02*
X14461015Y-13409912D01*
X14461015Y-13409912D02*
X14461015Y-13238484D01*
X14641968Y-13428960D02*
X14622920Y-13438484D01*
X14622920Y-13438484D02*
X14584825Y-13438484D01*
X14584825Y-13438484D02*
X14565777Y-13428960D01*
X14565777Y-13428960D02*
X14556253Y-13409912D01*
X14556253Y-13409912D02*
X14556253Y-13333722D01*
X14556253Y-13333722D02*
X14565777Y-13314674D01*
X14565777Y-13314674D02*
X14584825Y-13305150D01*
X14584825Y-13305150D02*
X14622920Y-13305150D01*
X14622920Y-13305150D02*
X14641968Y-13314674D01*
X14641968Y-13314674D02*
X14651491Y-13333722D01*
X14651491Y-13333722D02*
X14651491Y-13352769D01*
X14651491Y-13352769D02*
X14556253Y-13371817D01*
X14727682Y-13428960D02*
X14746730Y-13438484D01*
X14746730Y-13438484D02*
X14784825Y-13438484D01*
X14784825Y-13438484D02*
X14803872Y-13428960D01*
X14803872Y-13428960D02*
X14813396Y-13409912D01*
X14813396Y-13409912D02*
X14813396Y-13400388D01*
X14813396Y-13400388D02*
X14803872Y-13381341D01*
X14803872Y-13381341D02*
X14784825Y-13371817D01*
X14784825Y-13371817D02*
X14756253Y-13371817D01*
X14756253Y-13371817D02*
X14737206Y-13362293D01*
X14737206Y-13362293D02*
X14727682Y-13343246D01*
X14727682Y-13343246D02*
X14727682Y-13333722D01*
X14727682Y-13333722D02*
X14737206Y-13314674D01*
X14737206Y-13314674D02*
X14756253Y-13305150D01*
X14756253Y-13305150D02*
X14784825Y-13305150D01*
X14784825Y-13305150D02*
X14803872Y-13314674D01*
X15051492Y-13362293D02*
X15203873Y-13362293D01*
X15127682Y-13438484D02*
X15127682Y-13286103D01*
X15441968Y-13257531D02*
X15451492Y-13248008D01*
X15451492Y-13248008D02*
X15470539Y-13238484D01*
X15470539Y-13238484D02*
X15518158Y-13238484D01*
X15518158Y-13238484D02*
X15537206Y-13248008D01*
X15537206Y-13248008D02*
X15546730Y-13257531D01*
X15546730Y-13257531D02*
X15556253Y-13276579D01*
X15556253Y-13276579D02*
X15556253Y-13295627D01*
X15556253Y-13295627D02*
X15546730Y-13324198D01*
X15546730Y-13324198D02*
X15432444Y-13438484D01*
X15432444Y-13438484D02*
X15556253Y-13438484D01*
X15784825Y-13428960D02*
X15803873Y-13438484D01*
X15803873Y-13438484D02*
X15841968Y-13438484D01*
X15841968Y-13438484D02*
X15861015Y-13428960D01*
X15861015Y-13428960D02*
X15870539Y-13409912D01*
X15870539Y-13409912D02*
X15870539Y-13400388D01*
X15870539Y-13400388D02*
X15861015Y-13381341D01*
X15861015Y-13381341D02*
X15841968Y-13371817D01*
X15841968Y-13371817D02*
X15813396Y-13371817D01*
X15813396Y-13371817D02*
X15794349Y-13362293D01*
X15794349Y-13362293D02*
X15784825Y-13343246D01*
X15784825Y-13343246D02*
X15784825Y-13333722D01*
X15784825Y-13333722D02*
X15794349Y-13314674D01*
X15794349Y-13314674D02*
X15813396Y-13305150D01*
X15813396Y-13305150D02*
X15841968Y-13305150D01*
X15841968Y-13305150D02*
X15861015Y-13314674D01*
X15984825Y-13438484D02*
X15965777Y-13428960D01*
X15965777Y-13428960D02*
X15956254Y-13409912D01*
X15956254Y-13409912D02*
X15956254Y-13238484D01*
X16089587Y-13438484D02*
X16070539Y-13428960D01*
X16070539Y-13428960D02*
X16061015Y-13419436D01*
X16061015Y-13419436D02*
X16051492Y-13400388D01*
X16051492Y-13400388D02*
X16051492Y-13343246D01*
X16051492Y-13343246D02*
X16061015Y-13324198D01*
X16061015Y-13324198D02*
X16070539Y-13314674D01*
X16070539Y-13314674D02*
X16089587Y-13305150D01*
X16089587Y-13305150D02*
X16118158Y-13305150D01*
X16118158Y-13305150D02*
X16137206Y-13314674D01*
X16137206Y-13314674D02*
X16146730Y-13324198D01*
X16146730Y-13324198D02*
X16156254Y-13343246D01*
X16156254Y-13343246D02*
X16156254Y-13400388D01*
X16156254Y-13400388D02*
X16146730Y-13419436D01*
X16146730Y-13419436D02*
X16137206Y-13428960D01*
X16137206Y-13428960D02*
X16118158Y-13438484D01*
X16118158Y-13438484D02*
X16089587Y-13438484D01*
X16213396Y-13305150D02*
X16289587Y-13305150D01*
X16241968Y-13238484D02*
X16241968Y-13409912D01*
X16241968Y-13409912D02*
X16251492Y-13428960D01*
X16251492Y-13428960D02*
X16270539Y-13438484D01*
X16270539Y-13438484D02*
X16289587Y-13438484D01*
X16346730Y-13428960D02*
X16365777Y-13438484D01*
X16365777Y-13438484D02*
X16403873Y-13438484D01*
X16403873Y-13438484D02*
X16422920Y-13428960D01*
X16422920Y-13428960D02*
X16432444Y-13409912D01*
X16432444Y-13409912D02*
X16432444Y-13400388D01*
X16432444Y-13400388D02*
X16422920Y-13381341D01*
X16422920Y-13381341D02*
X16403873Y-13371817D01*
X16403873Y-13371817D02*
X16375301Y-13371817D01*
X16375301Y-13371817D02*
X16356254Y-13362293D01*
X16356254Y-13362293D02*
X16346730Y-13343246D01*
X16346730Y-13343246D02*
X16346730Y-13333722D01*
X16346730Y-13333722D02*
X16356254Y-13314674D01*
X16356254Y-13314674D02*
X16375301Y-13305150D01*
X16375301Y-13305150D02*
X16403873Y-13305150D01*
X16403873Y-13305150D02*
X16422920Y-13314674D01*
X16499111Y-13514674D02*
X16508635Y-13505150D01*
X16508635Y-13505150D02*
X16527682Y-13476579D01*
X16527682Y-13476579D02*
X16537206Y-13457531D01*
X16537206Y-13457531D02*
X16546730Y-13428960D01*
X16546730Y-13428960D02*
X16556254Y-13381341D01*
X16556254Y-13381341D02*
X16556254Y-13343246D01*
X16556254Y-13343246D02*
X16546730Y-13295627D01*
X16546730Y-13295627D02*
X16537206Y-13267055D01*
X16537206Y-13267055D02*
X16527682Y-13248008D01*
X16527682Y-13248008D02*
X16508635Y-13219436D01*
X16508635Y-13219436D02*
X16499111Y-13209912D01*
D16*
X10070000Y-13646000D02*
X10105000Y-13611000D01*
X10070000Y-13576000D01*
X10035000Y-13611000D01*
X10070000Y-13646000D01*
D11*
X10403872Y-13502484D02*
X10422920Y-13502484D01*
X10422920Y-13502484D02*
X10441967Y-13512008D01*
X10441967Y-13512008D02*
X10451491Y-13521531D01*
X10451491Y-13521531D02*
X10461015Y-13540579D01*
X10461015Y-13540579D02*
X10470539Y-13578674D01*
X10470539Y-13578674D02*
X10470539Y-13626293D01*
X10470539Y-13626293D02*
X10461015Y-13664388D01*
X10461015Y-13664388D02*
X10451491Y-13683436D01*
X10451491Y-13683436D02*
X10441967Y-13692960D01*
X10441967Y-13692960D02*
X10422920Y-13702484D01*
X10422920Y-13702484D02*
X10403872Y-13702484D01*
X10403872Y-13702484D02*
X10384824Y-13692960D01*
X10384824Y-13692960D02*
X10375301Y-13683436D01*
X10375301Y-13683436D02*
X10365777Y-13664388D01*
X10365777Y-13664388D02*
X10356253Y-13626293D01*
X10356253Y-13626293D02*
X10356253Y-13578674D01*
X10356253Y-13578674D02*
X10365777Y-13540579D01*
X10365777Y-13540579D02*
X10375301Y-13521531D01*
X10375301Y-13521531D02*
X10384824Y-13512008D01*
X10384824Y-13512008D02*
X10403872Y-13502484D01*
X10556253Y-13683436D02*
X10565777Y-13692960D01*
X10565777Y-13692960D02*
X10556253Y-13702484D01*
X10556253Y-13702484D02*
X10546729Y-13692960D01*
X10546729Y-13692960D02*
X10556253Y-13683436D01*
X10556253Y-13683436D02*
X10556253Y-13702484D01*
X10632444Y-13502484D02*
X10765777Y-13502484D01*
X10765777Y-13502484D02*
X10680063Y-13702484D01*
X10880063Y-13502484D02*
X10899110Y-13502484D01*
X10899110Y-13502484D02*
X10918158Y-13512008D01*
X10918158Y-13512008D02*
X10927682Y-13521531D01*
X10927682Y-13521531D02*
X10937205Y-13540579D01*
X10937205Y-13540579D02*
X10946729Y-13578674D01*
X10946729Y-13578674D02*
X10946729Y-13626293D01*
X10946729Y-13626293D02*
X10937205Y-13664388D01*
X10937205Y-13664388D02*
X10927682Y-13683436D01*
X10927682Y-13683436D02*
X10918158Y-13692960D01*
X10918158Y-13692960D02*
X10899110Y-13702484D01*
X10899110Y-13702484D02*
X10880063Y-13702484D01*
X10880063Y-13702484D02*
X10861015Y-13692960D01*
X10861015Y-13692960D02*
X10851491Y-13683436D01*
X10851491Y-13683436D02*
X10841967Y-13664388D01*
X10841967Y-13664388D02*
X10832444Y-13626293D01*
X10832444Y-13626293D02*
X10832444Y-13578674D01*
X10832444Y-13578674D02*
X10841967Y-13540579D01*
X10841967Y-13540579D02*
X10851491Y-13521531D01*
X10851491Y-13521531D02*
X10861015Y-13512008D01*
X10861015Y-13512008D02*
X10880063Y-13502484D01*
X11070539Y-13502484D02*
X11089586Y-13502484D01*
X11089586Y-13502484D02*
X11108634Y-13512008D01*
X11108634Y-13512008D02*
X11118158Y-13521531D01*
X11118158Y-13521531D02*
X11127682Y-13540579D01*
X11127682Y-13540579D02*
X11137205Y-13578674D01*
X11137205Y-13578674D02*
X11137205Y-13626293D01*
X11137205Y-13626293D02*
X11127682Y-13664388D01*
X11127682Y-13664388D02*
X11118158Y-13683436D01*
X11118158Y-13683436D02*
X11108634Y-13692960D01*
X11108634Y-13692960D02*
X11089586Y-13702484D01*
X11089586Y-13702484D02*
X11070539Y-13702484D01*
X11070539Y-13702484D02*
X11051491Y-13692960D01*
X11051491Y-13692960D02*
X11041967Y-13683436D01*
X11041967Y-13683436D02*
X11032444Y-13664388D01*
X11032444Y-13664388D02*
X11022920Y-13626293D01*
X11022920Y-13626293D02*
X11022920Y-13578674D01*
X11022920Y-13578674D02*
X11032444Y-13540579D01*
X11032444Y-13540579D02*
X11041967Y-13521531D01*
X11041967Y-13521531D02*
X11051491Y-13512008D01*
X11051491Y-13512008D02*
X11070539Y-13502484D01*
X11222920Y-13702484D02*
X11222920Y-13569150D01*
X11222920Y-13588198D02*
X11232443Y-13578674D01*
X11232443Y-13578674D02*
X11251491Y-13569150D01*
X11251491Y-13569150D02*
X11280063Y-13569150D01*
X11280063Y-13569150D02*
X11299110Y-13578674D01*
X11299110Y-13578674D02*
X11308634Y-13597722D01*
X11308634Y-13597722D02*
X11308634Y-13702484D01*
X11308634Y-13597722D02*
X11318158Y-13578674D01*
X11318158Y-13578674D02*
X11337205Y-13569150D01*
X11337205Y-13569150D02*
X11365777Y-13569150D01*
X11365777Y-13569150D02*
X11384824Y-13578674D01*
X11384824Y-13578674D02*
X11394348Y-13597722D01*
X11394348Y-13597722D02*
X11394348Y-13702484D01*
X11489586Y-13702484D02*
X11489586Y-13569150D01*
X11489586Y-13588198D02*
X11499110Y-13578674D01*
X11499110Y-13578674D02*
X11518158Y-13569150D01*
X11518158Y-13569150D02*
X11546729Y-13569150D01*
X11546729Y-13569150D02*
X11565777Y-13578674D01*
X11565777Y-13578674D02*
X11575301Y-13597722D01*
X11575301Y-13597722D02*
X11575301Y-13702484D01*
X11575301Y-13597722D02*
X11584824Y-13578674D01*
X11584824Y-13578674D02*
X11603872Y-13569150D01*
X11603872Y-13569150D02*
X11632443Y-13569150D01*
X11632443Y-13569150D02*
X11651491Y-13578674D01*
X11651491Y-13578674D02*
X11661015Y-13597722D01*
X11661015Y-13597722D02*
X11661015Y-13702484D01*
X12051491Y-13492960D02*
X11880063Y-13750103D01*
X12308634Y-13502484D02*
X12327682Y-13502484D01*
X12327682Y-13502484D02*
X12346729Y-13512008D01*
X12346729Y-13512008D02*
X12356253Y-13521531D01*
X12356253Y-13521531D02*
X12365777Y-13540579D01*
X12365777Y-13540579D02*
X12375301Y-13578674D01*
X12375301Y-13578674D02*
X12375301Y-13626293D01*
X12375301Y-13626293D02*
X12365777Y-13664388D01*
X12365777Y-13664388D02*
X12356253Y-13683436D01*
X12356253Y-13683436D02*
X12346729Y-13692960D01*
X12346729Y-13692960D02*
X12327682Y-13702484D01*
X12327682Y-13702484D02*
X12308634Y-13702484D01*
X12308634Y-13702484D02*
X12289586Y-13692960D01*
X12289586Y-13692960D02*
X12280063Y-13683436D01*
X12280063Y-13683436D02*
X12270539Y-13664388D01*
X12270539Y-13664388D02*
X12261015Y-13626293D01*
X12261015Y-13626293D02*
X12261015Y-13578674D01*
X12261015Y-13578674D02*
X12270539Y-13540579D01*
X12270539Y-13540579D02*
X12280063Y-13521531D01*
X12280063Y-13521531D02*
X12289586Y-13512008D01*
X12289586Y-13512008D02*
X12308634Y-13502484D01*
X12461015Y-13683436D02*
X12470539Y-13692960D01*
X12470539Y-13692960D02*
X12461015Y-13702484D01*
X12461015Y-13702484D02*
X12451491Y-13692960D01*
X12451491Y-13692960D02*
X12461015Y-13683436D01*
X12461015Y-13683436D02*
X12461015Y-13702484D01*
X12594348Y-13502484D02*
X12613396Y-13502484D01*
X12613396Y-13502484D02*
X12632444Y-13512008D01*
X12632444Y-13512008D02*
X12641967Y-13521531D01*
X12641967Y-13521531D02*
X12651491Y-13540579D01*
X12651491Y-13540579D02*
X12661015Y-13578674D01*
X12661015Y-13578674D02*
X12661015Y-13626293D01*
X12661015Y-13626293D02*
X12651491Y-13664388D01*
X12651491Y-13664388D02*
X12641967Y-13683436D01*
X12641967Y-13683436D02*
X12632444Y-13692960D01*
X12632444Y-13692960D02*
X12613396Y-13702484D01*
X12613396Y-13702484D02*
X12594348Y-13702484D01*
X12594348Y-13702484D02*
X12575301Y-13692960D01*
X12575301Y-13692960D02*
X12565777Y-13683436D01*
X12565777Y-13683436D02*
X12556253Y-13664388D01*
X12556253Y-13664388D02*
X12546729Y-13626293D01*
X12546729Y-13626293D02*
X12546729Y-13578674D01*
X12546729Y-13578674D02*
X12556253Y-13540579D01*
X12556253Y-13540579D02*
X12565777Y-13521531D01*
X12565777Y-13521531D02*
X12575301Y-13512008D01*
X12575301Y-13512008D02*
X12594348Y-13502484D01*
X12737206Y-13521531D02*
X12746729Y-13512008D01*
X12746729Y-13512008D02*
X12765777Y-13502484D01*
X12765777Y-13502484D02*
X12813396Y-13502484D01*
X12813396Y-13502484D02*
X12832444Y-13512008D01*
X12832444Y-13512008D02*
X12841967Y-13521531D01*
X12841967Y-13521531D02*
X12851491Y-13540579D01*
X12851491Y-13540579D02*
X12851491Y-13559627D01*
X12851491Y-13559627D02*
X12841967Y-13588198D01*
X12841967Y-13588198D02*
X12727682Y-13702484D01*
X12727682Y-13702484D02*
X12851491Y-13702484D01*
X12918158Y-13502484D02*
X13051491Y-13502484D01*
X13051491Y-13502484D02*
X12965777Y-13702484D01*
X13213396Y-13502484D02*
X13175301Y-13502484D01*
X13175301Y-13502484D02*
X13156253Y-13512008D01*
X13156253Y-13512008D02*
X13146729Y-13521531D01*
X13146729Y-13521531D02*
X13127682Y-13550103D01*
X13127682Y-13550103D02*
X13118158Y-13588198D01*
X13118158Y-13588198D02*
X13118158Y-13664388D01*
X13118158Y-13664388D02*
X13127682Y-13683436D01*
X13127682Y-13683436D02*
X13137206Y-13692960D01*
X13137206Y-13692960D02*
X13156253Y-13702484D01*
X13156253Y-13702484D02*
X13194348Y-13702484D01*
X13194348Y-13702484D02*
X13213396Y-13692960D01*
X13213396Y-13692960D02*
X13222920Y-13683436D01*
X13222920Y-13683436D02*
X13232444Y-13664388D01*
X13232444Y-13664388D02*
X13232444Y-13616769D01*
X13232444Y-13616769D02*
X13222920Y-13597722D01*
X13222920Y-13597722D02*
X13213396Y-13588198D01*
X13213396Y-13588198D02*
X13194348Y-13578674D01*
X13194348Y-13578674D02*
X13156253Y-13578674D01*
X13156253Y-13578674D02*
X13137206Y-13588198D01*
X13137206Y-13588198D02*
X13127682Y-13597722D01*
X13127682Y-13597722D02*
X13118158Y-13616769D01*
X13308634Y-13502484D02*
X13308634Y-13540579D01*
X13384825Y-13502484D02*
X13384825Y-13540579D01*
X13680063Y-13778674D02*
X13670539Y-13769150D01*
X13670539Y-13769150D02*
X13651491Y-13740579D01*
X13651491Y-13740579D02*
X13641968Y-13721531D01*
X13641968Y-13721531D02*
X13632444Y-13692960D01*
X13632444Y-13692960D02*
X13622920Y-13645341D01*
X13622920Y-13645341D02*
X13622920Y-13607246D01*
X13622920Y-13607246D02*
X13632444Y-13559627D01*
X13632444Y-13559627D02*
X13641968Y-13531055D01*
X13641968Y-13531055D02*
X13651491Y-13512008D01*
X13651491Y-13512008D02*
X13670539Y-13483436D01*
X13670539Y-13483436D02*
X13680063Y-13473912D01*
X13861015Y-13702484D02*
X13746729Y-13702484D01*
X13803872Y-13702484D02*
X13803872Y-13502484D01*
X13803872Y-13502484D02*
X13784825Y-13531055D01*
X13784825Y-13531055D02*
X13765777Y-13550103D01*
X13765777Y-13550103D02*
X13746729Y-13559627D01*
X13984825Y-13502484D02*
X14003872Y-13502484D01*
X14003872Y-13502484D02*
X14022920Y-13512008D01*
X14022920Y-13512008D02*
X14032444Y-13521531D01*
X14032444Y-13521531D02*
X14041968Y-13540579D01*
X14041968Y-13540579D02*
X14051491Y-13578674D01*
X14051491Y-13578674D02*
X14051491Y-13626293D01*
X14051491Y-13626293D02*
X14041968Y-13664388D01*
X14041968Y-13664388D02*
X14032444Y-13683436D01*
X14032444Y-13683436D02*
X14022920Y-13692960D01*
X14022920Y-13692960D02*
X14003872Y-13702484D01*
X14003872Y-13702484D02*
X13984825Y-13702484D01*
X13984825Y-13702484D02*
X13965777Y-13692960D01*
X13965777Y-13692960D02*
X13956253Y-13683436D01*
X13956253Y-13683436D02*
X13946729Y-13664388D01*
X13946729Y-13664388D02*
X13937206Y-13626293D01*
X13937206Y-13626293D02*
X13937206Y-13578674D01*
X13937206Y-13578674D02*
X13946729Y-13540579D01*
X13946729Y-13540579D02*
X13956253Y-13521531D01*
X13956253Y-13521531D02*
X13965777Y-13512008D01*
X13965777Y-13512008D02*
X13984825Y-13502484D01*
X14289587Y-13702484D02*
X14289587Y-13502484D01*
X14375301Y-13702484D02*
X14375301Y-13597722D01*
X14375301Y-13597722D02*
X14365777Y-13578674D01*
X14365777Y-13578674D02*
X14346730Y-13569150D01*
X14346730Y-13569150D02*
X14318158Y-13569150D01*
X14318158Y-13569150D02*
X14299110Y-13578674D01*
X14299110Y-13578674D02*
X14289587Y-13588198D01*
X14499110Y-13702484D02*
X14480063Y-13692960D01*
X14480063Y-13692960D02*
X14470539Y-13683436D01*
X14470539Y-13683436D02*
X14461015Y-13664388D01*
X14461015Y-13664388D02*
X14461015Y-13607246D01*
X14461015Y-13607246D02*
X14470539Y-13588198D01*
X14470539Y-13588198D02*
X14480063Y-13578674D01*
X14480063Y-13578674D02*
X14499110Y-13569150D01*
X14499110Y-13569150D02*
X14527682Y-13569150D01*
X14527682Y-13569150D02*
X14546730Y-13578674D01*
X14546730Y-13578674D02*
X14556253Y-13588198D01*
X14556253Y-13588198D02*
X14565777Y-13607246D01*
X14565777Y-13607246D02*
X14565777Y-13664388D01*
X14565777Y-13664388D02*
X14556253Y-13683436D01*
X14556253Y-13683436D02*
X14546730Y-13692960D01*
X14546730Y-13692960D02*
X14527682Y-13702484D01*
X14527682Y-13702484D02*
X14499110Y-13702484D01*
X14680063Y-13702484D02*
X14661015Y-13692960D01*
X14661015Y-13692960D02*
X14651491Y-13673912D01*
X14651491Y-13673912D02*
X14651491Y-13502484D01*
X14832444Y-13692960D02*
X14813396Y-13702484D01*
X14813396Y-13702484D02*
X14775301Y-13702484D01*
X14775301Y-13702484D02*
X14756253Y-13692960D01*
X14756253Y-13692960D02*
X14746730Y-13673912D01*
X14746730Y-13673912D02*
X14746730Y-13597722D01*
X14746730Y-13597722D02*
X14756253Y-13578674D01*
X14756253Y-13578674D02*
X14775301Y-13569150D01*
X14775301Y-13569150D02*
X14813396Y-13569150D01*
X14813396Y-13569150D02*
X14832444Y-13578674D01*
X14832444Y-13578674D02*
X14841968Y-13597722D01*
X14841968Y-13597722D02*
X14841968Y-13616769D01*
X14841968Y-13616769D02*
X14746730Y-13635817D01*
X14918158Y-13692960D02*
X14937206Y-13702484D01*
X14937206Y-13702484D02*
X14975301Y-13702484D01*
X14975301Y-13702484D02*
X14994349Y-13692960D01*
X14994349Y-13692960D02*
X15003872Y-13673912D01*
X15003872Y-13673912D02*
X15003872Y-13664388D01*
X15003872Y-13664388D02*
X14994349Y-13645341D01*
X14994349Y-13645341D02*
X14975301Y-13635817D01*
X14975301Y-13635817D02*
X14946730Y-13635817D01*
X14946730Y-13635817D02*
X14927682Y-13626293D01*
X14927682Y-13626293D02*
X14918158Y-13607246D01*
X14918158Y-13607246D02*
X14918158Y-13597722D01*
X14918158Y-13597722D02*
X14927682Y-13578674D01*
X14927682Y-13578674D02*
X14946730Y-13569150D01*
X14946730Y-13569150D02*
X14975301Y-13569150D01*
X14975301Y-13569150D02*
X14994349Y-13578674D01*
X15070539Y-13778674D02*
X15080063Y-13769150D01*
X15080063Y-13769150D02*
X15099111Y-13740579D01*
X15099111Y-13740579D02*
X15108634Y-13721531D01*
X15108634Y-13721531D02*
X15118158Y-13692960D01*
X15118158Y-13692960D02*
X15127682Y-13645341D01*
X15127682Y-13645341D02*
X15127682Y-13607246D01*
X15127682Y-13607246D02*
X15118158Y-13559627D01*
X15118158Y-13559627D02*
X15108634Y-13531055D01*
X15108634Y-13531055D02*
X15099111Y-13512008D01*
X15099111Y-13512008D02*
X15080063Y-13483436D01*
X15080063Y-13483436D02*
X15070539Y-13473912D01*
D17*
X10025000Y-13835000D02*
X10105000Y-13915000D01*
X10105000Y-13835000D02*
X10025000Y-13915000D01*
X10105000Y-13875000D02*
G75*
G03*
X10105000Y-13875000I-40000J0D01*
G01*
D11*
X10403872Y-13766484D02*
X10422920Y-13766484D01*
X10422920Y-13766484D02*
X10441967Y-13776008D01*
X10441967Y-13776008D02*
X10451491Y-13785531D01*
X10451491Y-13785531D02*
X10461015Y-13804579D01*
X10461015Y-13804579D02*
X10470539Y-13842674D01*
X10470539Y-13842674D02*
X10470539Y-13890293D01*
X10470539Y-13890293D02*
X10461015Y-13928388D01*
X10461015Y-13928388D02*
X10451491Y-13947436D01*
X10451491Y-13947436D02*
X10441967Y-13956960D01*
X10441967Y-13956960D02*
X10422920Y-13966484D01*
X10422920Y-13966484D02*
X10403872Y-13966484D01*
X10403872Y-13966484D02*
X10384824Y-13956960D01*
X10384824Y-13956960D02*
X10375301Y-13947436D01*
X10375301Y-13947436D02*
X10365777Y-13928388D01*
X10365777Y-13928388D02*
X10356253Y-13890293D01*
X10356253Y-13890293D02*
X10356253Y-13842674D01*
X10356253Y-13842674D02*
X10365777Y-13804579D01*
X10365777Y-13804579D02*
X10375301Y-13785531D01*
X10375301Y-13785531D02*
X10384824Y-13776008D01*
X10384824Y-13776008D02*
X10403872Y-13766484D01*
X10556253Y-13947436D02*
X10565777Y-13956960D01*
X10565777Y-13956960D02*
X10556253Y-13966484D01*
X10556253Y-13966484D02*
X10546729Y-13956960D01*
X10546729Y-13956960D02*
X10556253Y-13947436D01*
X10556253Y-13947436D02*
X10556253Y-13966484D01*
X10680063Y-13852198D02*
X10661015Y-13842674D01*
X10661015Y-13842674D02*
X10651491Y-13833150D01*
X10651491Y-13833150D02*
X10641967Y-13814103D01*
X10641967Y-13814103D02*
X10641967Y-13804579D01*
X10641967Y-13804579D02*
X10651491Y-13785531D01*
X10651491Y-13785531D02*
X10661015Y-13776008D01*
X10661015Y-13776008D02*
X10680063Y-13766484D01*
X10680063Y-13766484D02*
X10718158Y-13766484D01*
X10718158Y-13766484D02*
X10737205Y-13776008D01*
X10737205Y-13776008D02*
X10746729Y-13785531D01*
X10746729Y-13785531D02*
X10756253Y-13804579D01*
X10756253Y-13804579D02*
X10756253Y-13814103D01*
X10756253Y-13814103D02*
X10746729Y-13833150D01*
X10746729Y-13833150D02*
X10737205Y-13842674D01*
X10737205Y-13842674D02*
X10718158Y-13852198D01*
X10718158Y-13852198D02*
X10680063Y-13852198D01*
X10680063Y-13852198D02*
X10661015Y-13861722D01*
X10661015Y-13861722D02*
X10651491Y-13871246D01*
X10651491Y-13871246D02*
X10641967Y-13890293D01*
X10641967Y-13890293D02*
X10641967Y-13928388D01*
X10641967Y-13928388D02*
X10651491Y-13947436D01*
X10651491Y-13947436D02*
X10661015Y-13956960D01*
X10661015Y-13956960D02*
X10680063Y-13966484D01*
X10680063Y-13966484D02*
X10718158Y-13966484D01*
X10718158Y-13966484D02*
X10737205Y-13956960D01*
X10737205Y-13956960D02*
X10746729Y-13947436D01*
X10746729Y-13947436D02*
X10756253Y-13928388D01*
X10756253Y-13928388D02*
X10756253Y-13890293D01*
X10756253Y-13890293D02*
X10746729Y-13871246D01*
X10746729Y-13871246D02*
X10737205Y-13861722D01*
X10737205Y-13861722D02*
X10718158Y-13852198D01*
X10880063Y-13766484D02*
X10899110Y-13766484D01*
X10899110Y-13766484D02*
X10918158Y-13776008D01*
X10918158Y-13776008D02*
X10927682Y-13785531D01*
X10927682Y-13785531D02*
X10937205Y-13804579D01*
X10937205Y-13804579D02*
X10946729Y-13842674D01*
X10946729Y-13842674D02*
X10946729Y-13890293D01*
X10946729Y-13890293D02*
X10937205Y-13928388D01*
X10937205Y-13928388D02*
X10927682Y-13947436D01*
X10927682Y-13947436D02*
X10918158Y-13956960D01*
X10918158Y-13956960D02*
X10899110Y-13966484D01*
X10899110Y-13966484D02*
X10880063Y-13966484D01*
X10880063Y-13966484D02*
X10861015Y-13956960D01*
X10861015Y-13956960D02*
X10851491Y-13947436D01*
X10851491Y-13947436D02*
X10841967Y-13928388D01*
X10841967Y-13928388D02*
X10832444Y-13890293D01*
X10832444Y-13890293D02*
X10832444Y-13842674D01*
X10832444Y-13842674D02*
X10841967Y-13804579D01*
X10841967Y-13804579D02*
X10851491Y-13785531D01*
X10851491Y-13785531D02*
X10861015Y-13776008D01*
X10861015Y-13776008D02*
X10880063Y-13766484D01*
X11070539Y-13766484D02*
X11089586Y-13766484D01*
X11089586Y-13766484D02*
X11108634Y-13776008D01*
X11108634Y-13776008D02*
X11118158Y-13785531D01*
X11118158Y-13785531D02*
X11127682Y-13804579D01*
X11127682Y-13804579D02*
X11137205Y-13842674D01*
X11137205Y-13842674D02*
X11137205Y-13890293D01*
X11137205Y-13890293D02*
X11127682Y-13928388D01*
X11127682Y-13928388D02*
X11118158Y-13947436D01*
X11118158Y-13947436D02*
X11108634Y-13956960D01*
X11108634Y-13956960D02*
X11089586Y-13966484D01*
X11089586Y-13966484D02*
X11070539Y-13966484D01*
X11070539Y-13966484D02*
X11051491Y-13956960D01*
X11051491Y-13956960D02*
X11041967Y-13947436D01*
X11041967Y-13947436D02*
X11032444Y-13928388D01*
X11032444Y-13928388D02*
X11022920Y-13890293D01*
X11022920Y-13890293D02*
X11022920Y-13842674D01*
X11022920Y-13842674D02*
X11032444Y-13804579D01*
X11032444Y-13804579D02*
X11041967Y-13785531D01*
X11041967Y-13785531D02*
X11051491Y-13776008D01*
X11051491Y-13776008D02*
X11070539Y-13766484D01*
X11222920Y-13966484D02*
X11222920Y-13833150D01*
X11222920Y-13852198D02*
X11232443Y-13842674D01*
X11232443Y-13842674D02*
X11251491Y-13833150D01*
X11251491Y-13833150D02*
X11280063Y-13833150D01*
X11280063Y-13833150D02*
X11299110Y-13842674D01*
X11299110Y-13842674D02*
X11308634Y-13861722D01*
X11308634Y-13861722D02*
X11308634Y-13966484D01*
X11308634Y-13861722D02*
X11318158Y-13842674D01*
X11318158Y-13842674D02*
X11337205Y-13833150D01*
X11337205Y-13833150D02*
X11365777Y-13833150D01*
X11365777Y-13833150D02*
X11384824Y-13842674D01*
X11384824Y-13842674D02*
X11394348Y-13861722D01*
X11394348Y-13861722D02*
X11394348Y-13966484D01*
X11489586Y-13966484D02*
X11489586Y-13833150D01*
X11489586Y-13852198D02*
X11499110Y-13842674D01*
X11499110Y-13842674D02*
X11518158Y-13833150D01*
X11518158Y-13833150D02*
X11546729Y-13833150D01*
X11546729Y-13833150D02*
X11565777Y-13842674D01*
X11565777Y-13842674D02*
X11575301Y-13861722D01*
X11575301Y-13861722D02*
X11575301Y-13966484D01*
X11575301Y-13861722D02*
X11584824Y-13842674D01*
X11584824Y-13842674D02*
X11603872Y-13833150D01*
X11603872Y-13833150D02*
X11632443Y-13833150D01*
X11632443Y-13833150D02*
X11651491Y-13842674D01*
X11651491Y-13842674D02*
X11661015Y-13861722D01*
X11661015Y-13861722D02*
X11661015Y-13966484D01*
X12051491Y-13756960D02*
X11880063Y-14014103D01*
X12308634Y-13766484D02*
X12327682Y-13766484D01*
X12327682Y-13766484D02*
X12346729Y-13776008D01*
X12346729Y-13776008D02*
X12356253Y-13785531D01*
X12356253Y-13785531D02*
X12365777Y-13804579D01*
X12365777Y-13804579D02*
X12375301Y-13842674D01*
X12375301Y-13842674D02*
X12375301Y-13890293D01*
X12375301Y-13890293D02*
X12365777Y-13928388D01*
X12365777Y-13928388D02*
X12356253Y-13947436D01*
X12356253Y-13947436D02*
X12346729Y-13956960D01*
X12346729Y-13956960D02*
X12327682Y-13966484D01*
X12327682Y-13966484D02*
X12308634Y-13966484D01*
X12308634Y-13966484D02*
X12289586Y-13956960D01*
X12289586Y-13956960D02*
X12280063Y-13947436D01*
X12280063Y-13947436D02*
X12270539Y-13928388D01*
X12270539Y-13928388D02*
X12261015Y-13890293D01*
X12261015Y-13890293D02*
X12261015Y-13842674D01*
X12261015Y-13842674D02*
X12270539Y-13804579D01*
X12270539Y-13804579D02*
X12280063Y-13785531D01*
X12280063Y-13785531D02*
X12289586Y-13776008D01*
X12289586Y-13776008D02*
X12308634Y-13766484D01*
X12461015Y-13947436D02*
X12470539Y-13956960D01*
X12470539Y-13956960D02*
X12461015Y-13966484D01*
X12461015Y-13966484D02*
X12451491Y-13956960D01*
X12451491Y-13956960D02*
X12461015Y-13947436D01*
X12461015Y-13947436D02*
X12461015Y-13966484D01*
X12594348Y-13766484D02*
X12613396Y-13766484D01*
X12613396Y-13766484D02*
X12632444Y-13776008D01*
X12632444Y-13776008D02*
X12641967Y-13785531D01*
X12641967Y-13785531D02*
X12651491Y-13804579D01*
X12651491Y-13804579D02*
X12661015Y-13842674D01*
X12661015Y-13842674D02*
X12661015Y-13890293D01*
X12661015Y-13890293D02*
X12651491Y-13928388D01*
X12651491Y-13928388D02*
X12641967Y-13947436D01*
X12641967Y-13947436D02*
X12632444Y-13956960D01*
X12632444Y-13956960D02*
X12613396Y-13966484D01*
X12613396Y-13966484D02*
X12594348Y-13966484D01*
X12594348Y-13966484D02*
X12575301Y-13956960D01*
X12575301Y-13956960D02*
X12565777Y-13947436D01*
X12565777Y-13947436D02*
X12556253Y-13928388D01*
X12556253Y-13928388D02*
X12546729Y-13890293D01*
X12546729Y-13890293D02*
X12546729Y-13842674D01*
X12546729Y-13842674D02*
X12556253Y-13804579D01*
X12556253Y-13804579D02*
X12565777Y-13785531D01*
X12565777Y-13785531D02*
X12575301Y-13776008D01*
X12575301Y-13776008D02*
X12594348Y-13766484D01*
X12727682Y-13766484D02*
X12851491Y-13766484D01*
X12851491Y-13766484D02*
X12784825Y-13842674D01*
X12784825Y-13842674D02*
X12813396Y-13842674D01*
X12813396Y-13842674D02*
X12832444Y-13852198D01*
X12832444Y-13852198D02*
X12841967Y-13861722D01*
X12841967Y-13861722D02*
X12851491Y-13880769D01*
X12851491Y-13880769D02*
X12851491Y-13928388D01*
X12851491Y-13928388D02*
X12841967Y-13947436D01*
X12841967Y-13947436D02*
X12832444Y-13956960D01*
X12832444Y-13956960D02*
X12813396Y-13966484D01*
X12813396Y-13966484D02*
X12756253Y-13966484D01*
X12756253Y-13966484D02*
X12737206Y-13956960D01*
X12737206Y-13956960D02*
X12727682Y-13947436D01*
X13041967Y-13966484D02*
X12927682Y-13966484D01*
X12984825Y-13966484D02*
X12984825Y-13766484D01*
X12984825Y-13766484D02*
X12965777Y-13795055D01*
X12965777Y-13795055D02*
X12946729Y-13814103D01*
X12946729Y-13814103D02*
X12927682Y-13823627D01*
X13222920Y-13766484D02*
X13127682Y-13766484D01*
X13127682Y-13766484D02*
X13118158Y-13861722D01*
X13118158Y-13861722D02*
X13127682Y-13852198D01*
X13127682Y-13852198D02*
X13146729Y-13842674D01*
X13146729Y-13842674D02*
X13194348Y-13842674D01*
X13194348Y-13842674D02*
X13213396Y-13852198D01*
X13213396Y-13852198D02*
X13222920Y-13861722D01*
X13222920Y-13861722D02*
X13232444Y-13880769D01*
X13232444Y-13880769D02*
X13232444Y-13928388D01*
X13232444Y-13928388D02*
X13222920Y-13947436D01*
X13222920Y-13947436D02*
X13213396Y-13956960D01*
X13213396Y-13956960D02*
X13194348Y-13966484D01*
X13194348Y-13966484D02*
X13146729Y-13966484D01*
X13146729Y-13966484D02*
X13127682Y-13956960D01*
X13127682Y-13956960D02*
X13118158Y-13947436D01*
X13308634Y-13766484D02*
X13308634Y-13804579D01*
X13384825Y-13766484D02*
X13384825Y-13804579D01*
X13680063Y-14042674D02*
X13670539Y-14033150D01*
X13670539Y-14033150D02*
X13651491Y-14004579D01*
X13651491Y-14004579D02*
X13641968Y-13985531D01*
X13641968Y-13985531D02*
X13632444Y-13956960D01*
X13632444Y-13956960D02*
X13622920Y-13909341D01*
X13622920Y-13909341D02*
X13622920Y-13871246D01*
X13622920Y-13871246D02*
X13632444Y-13823627D01*
X13632444Y-13823627D02*
X13641968Y-13795055D01*
X13641968Y-13795055D02*
X13651491Y-13776008D01*
X13651491Y-13776008D02*
X13670539Y-13747436D01*
X13670539Y-13747436D02*
X13680063Y-13737912D01*
X13841968Y-13833150D02*
X13841968Y-13966484D01*
X13794348Y-13756960D02*
X13746729Y-13899817D01*
X13746729Y-13899817D02*
X13870539Y-13899817D01*
X14099110Y-13966484D02*
X14099110Y-13766484D01*
X14184825Y-13966484D02*
X14184825Y-13861722D01*
X14184825Y-13861722D02*
X14175301Y-13842674D01*
X14175301Y-13842674D02*
X14156253Y-13833150D01*
X14156253Y-13833150D02*
X14127682Y-13833150D01*
X14127682Y-13833150D02*
X14108634Y-13842674D01*
X14108634Y-13842674D02*
X14099110Y-13852198D01*
X14308634Y-13966484D02*
X14289587Y-13956960D01*
X14289587Y-13956960D02*
X14280063Y-13947436D01*
X14280063Y-13947436D02*
X14270539Y-13928388D01*
X14270539Y-13928388D02*
X14270539Y-13871246D01*
X14270539Y-13871246D02*
X14280063Y-13852198D01*
X14280063Y-13852198D02*
X14289587Y-13842674D01*
X14289587Y-13842674D02*
X14308634Y-13833150D01*
X14308634Y-13833150D02*
X14337206Y-13833150D01*
X14337206Y-13833150D02*
X14356253Y-13842674D01*
X14356253Y-13842674D02*
X14365777Y-13852198D01*
X14365777Y-13852198D02*
X14375301Y-13871246D01*
X14375301Y-13871246D02*
X14375301Y-13928388D01*
X14375301Y-13928388D02*
X14365777Y-13947436D01*
X14365777Y-13947436D02*
X14356253Y-13956960D01*
X14356253Y-13956960D02*
X14337206Y-13966484D01*
X14337206Y-13966484D02*
X14308634Y-13966484D01*
X14489587Y-13966484D02*
X14470539Y-13956960D01*
X14470539Y-13956960D02*
X14461015Y-13937912D01*
X14461015Y-13937912D02*
X14461015Y-13766484D01*
X14641968Y-13956960D02*
X14622920Y-13966484D01*
X14622920Y-13966484D02*
X14584825Y-13966484D01*
X14584825Y-13966484D02*
X14565777Y-13956960D01*
X14565777Y-13956960D02*
X14556253Y-13937912D01*
X14556253Y-13937912D02*
X14556253Y-13861722D01*
X14556253Y-13861722D02*
X14565777Y-13842674D01*
X14565777Y-13842674D02*
X14584825Y-13833150D01*
X14584825Y-13833150D02*
X14622920Y-13833150D01*
X14622920Y-13833150D02*
X14641968Y-13842674D01*
X14641968Y-13842674D02*
X14651491Y-13861722D01*
X14651491Y-13861722D02*
X14651491Y-13880769D01*
X14651491Y-13880769D02*
X14556253Y-13899817D01*
X14727682Y-13956960D02*
X14746730Y-13966484D01*
X14746730Y-13966484D02*
X14784825Y-13966484D01*
X14784825Y-13966484D02*
X14803872Y-13956960D01*
X14803872Y-13956960D02*
X14813396Y-13937912D01*
X14813396Y-13937912D02*
X14813396Y-13928388D01*
X14813396Y-13928388D02*
X14803872Y-13909341D01*
X14803872Y-13909341D02*
X14784825Y-13899817D01*
X14784825Y-13899817D02*
X14756253Y-13899817D01*
X14756253Y-13899817D02*
X14737206Y-13890293D01*
X14737206Y-13890293D02*
X14727682Y-13871246D01*
X14727682Y-13871246D02*
X14727682Y-13861722D01*
X14727682Y-13861722D02*
X14737206Y-13842674D01*
X14737206Y-13842674D02*
X14756253Y-13833150D01*
X14756253Y-13833150D02*
X14784825Y-13833150D01*
X14784825Y-13833150D02*
X14803872Y-13842674D01*
X14880063Y-14042674D02*
X14889587Y-14033150D01*
X14889587Y-14033150D02*
X14908634Y-14004579D01*
X14908634Y-14004579D02*
X14918158Y-13985531D01*
X14918158Y-13985531D02*
X14927682Y-13956960D01*
X14927682Y-13956960D02*
X14937206Y-13909341D01*
X14937206Y-13909341D02*
X14937206Y-13871246D01*
X14937206Y-13871246D02*
X14927682Y-13823627D01*
X14927682Y-13823627D02*
X14918158Y-13795055D01*
X14918158Y-13795055D02*
X14908634Y-13776008D01*
X14908634Y-13776008D02*
X14889587Y-13747436D01*
X14889587Y-13747436D02*
X14880063Y-13737912D01*
D18*
X10020000Y-14096500D02*
X10105000Y-14181500D01*
X10105000Y-14096500D02*
X10020000Y-14181500D01*
X10062500Y-14096500D02*
X10062500Y-14181500D01*
X10020000Y-14139000D02*
X10105000Y-14139000D01*
D11*
X10403872Y-14030484D02*
X10422920Y-14030484D01*
X10422920Y-14030484D02*
X10441967Y-14040008D01*
X10441967Y-14040008D02*
X10451491Y-14049531D01*
X10451491Y-14049531D02*
X10461015Y-14068579D01*
X10461015Y-14068579D02*
X10470539Y-14106674D01*
X10470539Y-14106674D02*
X10470539Y-14154293D01*
X10470539Y-14154293D02*
X10461015Y-14192388D01*
X10461015Y-14192388D02*
X10451491Y-14211436D01*
X10451491Y-14211436D02*
X10441967Y-14220960D01*
X10441967Y-14220960D02*
X10422920Y-14230484D01*
X10422920Y-14230484D02*
X10403872Y-14230484D01*
X10403872Y-14230484D02*
X10384824Y-14220960D01*
X10384824Y-14220960D02*
X10375301Y-14211436D01*
X10375301Y-14211436D02*
X10365777Y-14192388D01*
X10365777Y-14192388D02*
X10356253Y-14154293D01*
X10356253Y-14154293D02*
X10356253Y-14106674D01*
X10356253Y-14106674D02*
X10365777Y-14068579D01*
X10365777Y-14068579D02*
X10375301Y-14049531D01*
X10375301Y-14049531D02*
X10384824Y-14040008D01*
X10384824Y-14040008D02*
X10403872Y-14030484D01*
X10556253Y-14211436D02*
X10565777Y-14220960D01*
X10565777Y-14220960D02*
X10556253Y-14230484D01*
X10556253Y-14230484D02*
X10546729Y-14220960D01*
X10546729Y-14220960D02*
X10556253Y-14211436D01*
X10556253Y-14211436D02*
X10556253Y-14230484D01*
X10680063Y-14116198D02*
X10661015Y-14106674D01*
X10661015Y-14106674D02*
X10651491Y-14097150D01*
X10651491Y-14097150D02*
X10641967Y-14078103D01*
X10641967Y-14078103D02*
X10641967Y-14068579D01*
X10641967Y-14068579D02*
X10651491Y-14049531D01*
X10651491Y-14049531D02*
X10661015Y-14040008D01*
X10661015Y-14040008D02*
X10680063Y-14030484D01*
X10680063Y-14030484D02*
X10718158Y-14030484D01*
X10718158Y-14030484D02*
X10737205Y-14040008D01*
X10737205Y-14040008D02*
X10746729Y-14049531D01*
X10746729Y-14049531D02*
X10756253Y-14068579D01*
X10756253Y-14068579D02*
X10756253Y-14078103D01*
X10756253Y-14078103D02*
X10746729Y-14097150D01*
X10746729Y-14097150D02*
X10737205Y-14106674D01*
X10737205Y-14106674D02*
X10718158Y-14116198D01*
X10718158Y-14116198D02*
X10680063Y-14116198D01*
X10680063Y-14116198D02*
X10661015Y-14125722D01*
X10661015Y-14125722D02*
X10651491Y-14135246D01*
X10651491Y-14135246D02*
X10641967Y-14154293D01*
X10641967Y-14154293D02*
X10641967Y-14192388D01*
X10641967Y-14192388D02*
X10651491Y-14211436D01*
X10651491Y-14211436D02*
X10661015Y-14220960D01*
X10661015Y-14220960D02*
X10680063Y-14230484D01*
X10680063Y-14230484D02*
X10718158Y-14230484D01*
X10718158Y-14230484D02*
X10737205Y-14220960D01*
X10737205Y-14220960D02*
X10746729Y-14211436D01*
X10746729Y-14211436D02*
X10756253Y-14192388D01*
X10756253Y-14192388D02*
X10756253Y-14154293D01*
X10756253Y-14154293D02*
X10746729Y-14135246D01*
X10746729Y-14135246D02*
X10737205Y-14125722D01*
X10737205Y-14125722D02*
X10718158Y-14116198D01*
X10937205Y-14030484D02*
X10841967Y-14030484D01*
X10841967Y-14030484D02*
X10832444Y-14125722D01*
X10832444Y-14125722D02*
X10841967Y-14116198D01*
X10841967Y-14116198D02*
X10861015Y-14106674D01*
X10861015Y-14106674D02*
X10908634Y-14106674D01*
X10908634Y-14106674D02*
X10927682Y-14116198D01*
X10927682Y-14116198D02*
X10937205Y-14125722D01*
X10937205Y-14125722D02*
X10946729Y-14144769D01*
X10946729Y-14144769D02*
X10946729Y-14192388D01*
X10946729Y-14192388D02*
X10937205Y-14211436D01*
X10937205Y-14211436D02*
X10927682Y-14220960D01*
X10927682Y-14220960D02*
X10908634Y-14230484D01*
X10908634Y-14230484D02*
X10861015Y-14230484D01*
X10861015Y-14230484D02*
X10841967Y-14220960D01*
X10841967Y-14220960D02*
X10832444Y-14211436D01*
X11070539Y-14030484D02*
X11089586Y-14030484D01*
X11089586Y-14030484D02*
X11108634Y-14040008D01*
X11108634Y-14040008D02*
X11118158Y-14049531D01*
X11118158Y-14049531D02*
X11127682Y-14068579D01*
X11127682Y-14068579D02*
X11137205Y-14106674D01*
X11137205Y-14106674D02*
X11137205Y-14154293D01*
X11137205Y-14154293D02*
X11127682Y-14192388D01*
X11127682Y-14192388D02*
X11118158Y-14211436D01*
X11118158Y-14211436D02*
X11108634Y-14220960D01*
X11108634Y-14220960D02*
X11089586Y-14230484D01*
X11089586Y-14230484D02*
X11070539Y-14230484D01*
X11070539Y-14230484D02*
X11051491Y-14220960D01*
X11051491Y-14220960D02*
X11041967Y-14211436D01*
X11041967Y-14211436D02*
X11032444Y-14192388D01*
X11032444Y-14192388D02*
X11022920Y-14154293D01*
X11022920Y-14154293D02*
X11022920Y-14106674D01*
X11022920Y-14106674D02*
X11032444Y-14068579D01*
X11032444Y-14068579D02*
X11041967Y-14049531D01*
X11041967Y-14049531D02*
X11051491Y-14040008D01*
X11051491Y-14040008D02*
X11070539Y-14030484D01*
X11222920Y-14230484D02*
X11222920Y-14097150D01*
X11222920Y-14116198D02*
X11232443Y-14106674D01*
X11232443Y-14106674D02*
X11251491Y-14097150D01*
X11251491Y-14097150D02*
X11280063Y-14097150D01*
X11280063Y-14097150D02*
X11299110Y-14106674D01*
X11299110Y-14106674D02*
X11308634Y-14125722D01*
X11308634Y-14125722D02*
X11308634Y-14230484D01*
X11308634Y-14125722D02*
X11318158Y-14106674D01*
X11318158Y-14106674D02*
X11337205Y-14097150D01*
X11337205Y-14097150D02*
X11365777Y-14097150D01*
X11365777Y-14097150D02*
X11384824Y-14106674D01*
X11384824Y-14106674D02*
X11394348Y-14125722D01*
X11394348Y-14125722D02*
X11394348Y-14230484D01*
X11489586Y-14230484D02*
X11489586Y-14097150D01*
X11489586Y-14116198D02*
X11499110Y-14106674D01*
X11499110Y-14106674D02*
X11518158Y-14097150D01*
X11518158Y-14097150D02*
X11546729Y-14097150D01*
X11546729Y-14097150D02*
X11565777Y-14106674D01*
X11565777Y-14106674D02*
X11575301Y-14125722D01*
X11575301Y-14125722D02*
X11575301Y-14230484D01*
X11575301Y-14125722D02*
X11584824Y-14106674D01*
X11584824Y-14106674D02*
X11603872Y-14097150D01*
X11603872Y-14097150D02*
X11632443Y-14097150D01*
X11632443Y-14097150D02*
X11651491Y-14106674D01*
X11651491Y-14106674D02*
X11661015Y-14125722D01*
X11661015Y-14125722D02*
X11661015Y-14230484D01*
X12051491Y-14020960D02*
X11880063Y-14278103D01*
X12308634Y-14030484D02*
X12327682Y-14030484D01*
X12327682Y-14030484D02*
X12346729Y-14040008D01*
X12346729Y-14040008D02*
X12356253Y-14049531D01*
X12356253Y-14049531D02*
X12365777Y-14068579D01*
X12365777Y-14068579D02*
X12375301Y-14106674D01*
X12375301Y-14106674D02*
X12375301Y-14154293D01*
X12375301Y-14154293D02*
X12365777Y-14192388D01*
X12365777Y-14192388D02*
X12356253Y-14211436D01*
X12356253Y-14211436D02*
X12346729Y-14220960D01*
X12346729Y-14220960D02*
X12327682Y-14230484D01*
X12327682Y-14230484D02*
X12308634Y-14230484D01*
X12308634Y-14230484D02*
X12289586Y-14220960D01*
X12289586Y-14220960D02*
X12280063Y-14211436D01*
X12280063Y-14211436D02*
X12270539Y-14192388D01*
X12270539Y-14192388D02*
X12261015Y-14154293D01*
X12261015Y-14154293D02*
X12261015Y-14106674D01*
X12261015Y-14106674D02*
X12270539Y-14068579D01*
X12270539Y-14068579D02*
X12280063Y-14049531D01*
X12280063Y-14049531D02*
X12289586Y-14040008D01*
X12289586Y-14040008D02*
X12308634Y-14030484D01*
X12461015Y-14211436D02*
X12470539Y-14220960D01*
X12470539Y-14220960D02*
X12461015Y-14230484D01*
X12461015Y-14230484D02*
X12451491Y-14220960D01*
X12451491Y-14220960D02*
X12461015Y-14211436D01*
X12461015Y-14211436D02*
X12461015Y-14230484D01*
X12594348Y-14030484D02*
X12613396Y-14030484D01*
X12613396Y-14030484D02*
X12632444Y-14040008D01*
X12632444Y-14040008D02*
X12641967Y-14049531D01*
X12641967Y-14049531D02*
X12651491Y-14068579D01*
X12651491Y-14068579D02*
X12661015Y-14106674D01*
X12661015Y-14106674D02*
X12661015Y-14154293D01*
X12661015Y-14154293D02*
X12651491Y-14192388D01*
X12651491Y-14192388D02*
X12641967Y-14211436D01*
X12641967Y-14211436D02*
X12632444Y-14220960D01*
X12632444Y-14220960D02*
X12613396Y-14230484D01*
X12613396Y-14230484D02*
X12594348Y-14230484D01*
X12594348Y-14230484D02*
X12575301Y-14220960D01*
X12575301Y-14220960D02*
X12565777Y-14211436D01*
X12565777Y-14211436D02*
X12556253Y-14192388D01*
X12556253Y-14192388D02*
X12546729Y-14154293D01*
X12546729Y-14154293D02*
X12546729Y-14106674D01*
X12546729Y-14106674D02*
X12556253Y-14068579D01*
X12556253Y-14068579D02*
X12565777Y-14049531D01*
X12565777Y-14049531D02*
X12575301Y-14040008D01*
X12575301Y-14040008D02*
X12594348Y-14030484D01*
X12727682Y-14030484D02*
X12851491Y-14030484D01*
X12851491Y-14030484D02*
X12784825Y-14106674D01*
X12784825Y-14106674D02*
X12813396Y-14106674D01*
X12813396Y-14106674D02*
X12832444Y-14116198D01*
X12832444Y-14116198D02*
X12841967Y-14125722D01*
X12841967Y-14125722D02*
X12851491Y-14144769D01*
X12851491Y-14144769D02*
X12851491Y-14192388D01*
X12851491Y-14192388D02*
X12841967Y-14211436D01*
X12841967Y-14211436D02*
X12832444Y-14220960D01*
X12832444Y-14220960D02*
X12813396Y-14230484D01*
X12813396Y-14230484D02*
X12756253Y-14230484D01*
X12756253Y-14230484D02*
X12737206Y-14220960D01*
X12737206Y-14220960D02*
X12727682Y-14211436D01*
X12918158Y-14030484D02*
X13041967Y-14030484D01*
X13041967Y-14030484D02*
X12975301Y-14106674D01*
X12975301Y-14106674D02*
X13003872Y-14106674D01*
X13003872Y-14106674D02*
X13022920Y-14116198D01*
X13022920Y-14116198D02*
X13032444Y-14125722D01*
X13032444Y-14125722D02*
X13041967Y-14144769D01*
X13041967Y-14144769D02*
X13041967Y-14192388D01*
X13041967Y-14192388D02*
X13032444Y-14211436D01*
X13032444Y-14211436D02*
X13022920Y-14220960D01*
X13022920Y-14220960D02*
X13003872Y-14230484D01*
X13003872Y-14230484D02*
X12946729Y-14230484D01*
X12946729Y-14230484D02*
X12927682Y-14220960D01*
X12927682Y-14220960D02*
X12918158Y-14211436D01*
X13222920Y-14030484D02*
X13127682Y-14030484D01*
X13127682Y-14030484D02*
X13118158Y-14125722D01*
X13118158Y-14125722D02*
X13127682Y-14116198D01*
X13127682Y-14116198D02*
X13146729Y-14106674D01*
X13146729Y-14106674D02*
X13194348Y-14106674D01*
X13194348Y-14106674D02*
X13213396Y-14116198D01*
X13213396Y-14116198D02*
X13222920Y-14125722D01*
X13222920Y-14125722D02*
X13232444Y-14144769D01*
X13232444Y-14144769D02*
X13232444Y-14192388D01*
X13232444Y-14192388D02*
X13222920Y-14211436D01*
X13222920Y-14211436D02*
X13213396Y-14220960D01*
X13213396Y-14220960D02*
X13194348Y-14230484D01*
X13194348Y-14230484D02*
X13146729Y-14230484D01*
X13146729Y-14230484D02*
X13127682Y-14220960D01*
X13127682Y-14220960D02*
X13118158Y-14211436D01*
X13308634Y-14030484D02*
X13308634Y-14068579D01*
X13384825Y-14030484D02*
X13384825Y-14068579D01*
X13680063Y-14306674D02*
X13670539Y-14297150D01*
X13670539Y-14297150D02*
X13651491Y-14268579D01*
X13651491Y-14268579D02*
X13641968Y-14249531D01*
X13641968Y-14249531D02*
X13632444Y-14220960D01*
X13632444Y-14220960D02*
X13622920Y-14173341D01*
X13622920Y-14173341D02*
X13622920Y-14135246D01*
X13622920Y-14135246D02*
X13632444Y-14087627D01*
X13632444Y-14087627D02*
X13641968Y-14059055D01*
X13641968Y-14059055D02*
X13651491Y-14040008D01*
X13651491Y-14040008D02*
X13670539Y-14011436D01*
X13670539Y-14011436D02*
X13680063Y-14001912D01*
X13794348Y-14030484D02*
X13813396Y-14030484D01*
X13813396Y-14030484D02*
X13832444Y-14040008D01*
X13832444Y-14040008D02*
X13841968Y-14049531D01*
X13841968Y-14049531D02*
X13851491Y-14068579D01*
X13851491Y-14068579D02*
X13861015Y-14106674D01*
X13861015Y-14106674D02*
X13861015Y-14154293D01*
X13861015Y-14154293D02*
X13851491Y-14192388D01*
X13851491Y-14192388D02*
X13841968Y-14211436D01*
X13841968Y-14211436D02*
X13832444Y-14220960D01*
X13832444Y-14220960D02*
X13813396Y-14230484D01*
X13813396Y-14230484D02*
X13794348Y-14230484D01*
X13794348Y-14230484D02*
X13775301Y-14220960D01*
X13775301Y-14220960D02*
X13765777Y-14211436D01*
X13765777Y-14211436D02*
X13756253Y-14192388D01*
X13756253Y-14192388D02*
X13746729Y-14154293D01*
X13746729Y-14154293D02*
X13746729Y-14106674D01*
X13746729Y-14106674D02*
X13756253Y-14068579D01*
X13756253Y-14068579D02*
X13765777Y-14049531D01*
X13765777Y-14049531D02*
X13775301Y-14040008D01*
X13775301Y-14040008D02*
X13794348Y-14030484D01*
X14099110Y-14230484D02*
X14099110Y-14030484D01*
X14184825Y-14230484D02*
X14184825Y-14125722D01*
X14184825Y-14125722D02*
X14175301Y-14106674D01*
X14175301Y-14106674D02*
X14156253Y-14097150D01*
X14156253Y-14097150D02*
X14127682Y-14097150D01*
X14127682Y-14097150D02*
X14108634Y-14106674D01*
X14108634Y-14106674D02*
X14099110Y-14116198D01*
X14308634Y-14230484D02*
X14289587Y-14220960D01*
X14289587Y-14220960D02*
X14280063Y-14211436D01*
X14280063Y-14211436D02*
X14270539Y-14192388D01*
X14270539Y-14192388D02*
X14270539Y-14135246D01*
X14270539Y-14135246D02*
X14280063Y-14116198D01*
X14280063Y-14116198D02*
X14289587Y-14106674D01*
X14289587Y-14106674D02*
X14308634Y-14097150D01*
X14308634Y-14097150D02*
X14337206Y-14097150D01*
X14337206Y-14097150D02*
X14356253Y-14106674D01*
X14356253Y-14106674D02*
X14365777Y-14116198D01*
X14365777Y-14116198D02*
X14375301Y-14135246D01*
X14375301Y-14135246D02*
X14375301Y-14192388D01*
X14375301Y-14192388D02*
X14365777Y-14211436D01*
X14365777Y-14211436D02*
X14356253Y-14220960D01*
X14356253Y-14220960D02*
X14337206Y-14230484D01*
X14337206Y-14230484D02*
X14308634Y-14230484D01*
X14489587Y-14230484D02*
X14470539Y-14220960D01*
X14470539Y-14220960D02*
X14461015Y-14201912D01*
X14461015Y-14201912D02*
X14461015Y-14030484D01*
X14641968Y-14220960D02*
X14622920Y-14230484D01*
X14622920Y-14230484D02*
X14584825Y-14230484D01*
X14584825Y-14230484D02*
X14565777Y-14220960D01*
X14565777Y-14220960D02*
X14556253Y-14201912D01*
X14556253Y-14201912D02*
X14556253Y-14125722D01*
X14556253Y-14125722D02*
X14565777Y-14106674D01*
X14565777Y-14106674D02*
X14584825Y-14097150D01*
X14584825Y-14097150D02*
X14622920Y-14097150D01*
X14622920Y-14097150D02*
X14641968Y-14106674D01*
X14641968Y-14106674D02*
X14651491Y-14125722D01*
X14651491Y-14125722D02*
X14651491Y-14144769D01*
X14651491Y-14144769D02*
X14556253Y-14163817D01*
X14727682Y-14220960D02*
X14746730Y-14230484D01*
X14746730Y-14230484D02*
X14784825Y-14230484D01*
X14784825Y-14230484D02*
X14803872Y-14220960D01*
X14803872Y-14220960D02*
X14813396Y-14201912D01*
X14813396Y-14201912D02*
X14813396Y-14192388D01*
X14813396Y-14192388D02*
X14803872Y-14173341D01*
X14803872Y-14173341D02*
X14784825Y-14163817D01*
X14784825Y-14163817D02*
X14756253Y-14163817D01*
X14756253Y-14163817D02*
X14737206Y-14154293D01*
X14737206Y-14154293D02*
X14727682Y-14135246D01*
X14727682Y-14135246D02*
X14727682Y-14125722D01*
X14727682Y-14125722D02*
X14737206Y-14106674D01*
X14737206Y-14106674D02*
X14756253Y-14097150D01*
X14756253Y-14097150D02*
X14784825Y-14097150D01*
X14784825Y-14097150D02*
X14803872Y-14106674D01*
X15051492Y-14154293D02*
X15203873Y-14154293D01*
X15127682Y-14230484D02*
X15127682Y-14078103D01*
X15441968Y-14049531D02*
X15451492Y-14040008D01*
X15451492Y-14040008D02*
X15470539Y-14030484D01*
X15470539Y-14030484D02*
X15518158Y-14030484D01*
X15518158Y-14030484D02*
X15537206Y-14040008D01*
X15537206Y-14040008D02*
X15546730Y-14049531D01*
X15546730Y-14049531D02*
X15556253Y-14068579D01*
X15556253Y-14068579D02*
X15556253Y-14087627D01*
X15556253Y-14087627D02*
X15546730Y-14116198D01*
X15546730Y-14116198D02*
X15432444Y-14230484D01*
X15432444Y-14230484D02*
X15556253Y-14230484D01*
X15784825Y-14220960D02*
X15803873Y-14230484D01*
X15803873Y-14230484D02*
X15841968Y-14230484D01*
X15841968Y-14230484D02*
X15861015Y-14220960D01*
X15861015Y-14220960D02*
X15870539Y-14201912D01*
X15870539Y-14201912D02*
X15870539Y-14192388D01*
X15870539Y-14192388D02*
X15861015Y-14173341D01*
X15861015Y-14173341D02*
X15841968Y-14163817D01*
X15841968Y-14163817D02*
X15813396Y-14163817D01*
X15813396Y-14163817D02*
X15794349Y-14154293D01*
X15794349Y-14154293D02*
X15784825Y-14135246D01*
X15784825Y-14135246D02*
X15784825Y-14125722D01*
X15784825Y-14125722D02*
X15794349Y-14106674D01*
X15794349Y-14106674D02*
X15813396Y-14097150D01*
X15813396Y-14097150D02*
X15841968Y-14097150D01*
X15841968Y-14097150D02*
X15861015Y-14106674D01*
X15984825Y-14230484D02*
X15965777Y-14220960D01*
X15965777Y-14220960D02*
X15956254Y-14201912D01*
X15956254Y-14201912D02*
X15956254Y-14030484D01*
X16089587Y-14230484D02*
X16070539Y-14220960D01*
X16070539Y-14220960D02*
X16061015Y-14211436D01*
X16061015Y-14211436D02*
X16051492Y-14192388D01*
X16051492Y-14192388D02*
X16051492Y-14135246D01*
X16051492Y-14135246D02*
X16061015Y-14116198D01*
X16061015Y-14116198D02*
X16070539Y-14106674D01*
X16070539Y-14106674D02*
X16089587Y-14097150D01*
X16089587Y-14097150D02*
X16118158Y-14097150D01*
X16118158Y-14097150D02*
X16137206Y-14106674D01*
X16137206Y-14106674D02*
X16146730Y-14116198D01*
X16146730Y-14116198D02*
X16156254Y-14135246D01*
X16156254Y-14135246D02*
X16156254Y-14192388D01*
X16156254Y-14192388D02*
X16146730Y-14211436D01*
X16146730Y-14211436D02*
X16137206Y-14220960D01*
X16137206Y-14220960D02*
X16118158Y-14230484D01*
X16118158Y-14230484D02*
X16089587Y-14230484D01*
X16213396Y-14097150D02*
X16289587Y-14097150D01*
X16241968Y-14030484D02*
X16241968Y-14201912D01*
X16241968Y-14201912D02*
X16251492Y-14220960D01*
X16251492Y-14220960D02*
X16270539Y-14230484D01*
X16270539Y-14230484D02*
X16289587Y-14230484D01*
X16346730Y-14220960D02*
X16365777Y-14230484D01*
X16365777Y-14230484D02*
X16403873Y-14230484D01*
X16403873Y-14230484D02*
X16422920Y-14220960D01*
X16422920Y-14220960D02*
X16432444Y-14201912D01*
X16432444Y-14201912D02*
X16432444Y-14192388D01*
X16432444Y-14192388D02*
X16422920Y-14173341D01*
X16422920Y-14173341D02*
X16403873Y-14163817D01*
X16403873Y-14163817D02*
X16375301Y-14163817D01*
X16375301Y-14163817D02*
X16356254Y-14154293D01*
X16356254Y-14154293D02*
X16346730Y-14135246D01*
X16346730Y-14135246D02*
X16346730Y-14125722D01*
X16346730Y-14125722D02*
X16356254Y-14106674D01*
X16356254Y-14106674D02*
X16375301Y-14097150D01*
X16375301Y-14097150D02*
X16403873Y-14097150D01*
X16403873Y-14097150D02*
X16422920Y-14106674D01*
X16499111Y-14306674D02*
X16508635Y-14297150D01*
X16508635Y-14297150D02*
X16527682Y-14268579D01*
X16527682Y-14268579D02*
X16537206Y-14249531D01*
X16537206Y-14249531D02*
X16546730Y-14220960D01*
X16546730Y-14220960D02*
X16556254Y-14173341D01*
X16556254Y-14173341D02*
X16556254Y-14135246D01*
X16556254Y-14135246D02*
X16546730Y-14087627D01*
X16546730Y-14087627D02*
X16537206Y-14059055D01*
X16537206Y-14059055D02*
X16527682Y-14040008D01*
X16527682Y-14040008D02*
X16508635Y-14011436D01*
X16508635Y-14011436D02*
X16499111Y-14001912D01*
D19*
X10015000Y-14358000D02*
X10105000Y-14448000D01*
X10105000Y-14358000D02*
X10015000Y-14448000D01*
X10091820Y-14434820D02*
X10091820Y-14371180D01*
X10028180Y-14371180D01*
X10028180Y-14434820D01*
X10091820Y-14434820D01*
D11*
X10403872Y-14294484D02*
X10422920Y-14294484D01*
X10422920Y-14294484D02*
X10441967Y-14304008D01*
X10441967Y-14304008D02*
X10451491Y-14313531D01*
X10451491Y-14313531D02*
X10461015Y-14332579D01*
X10461015Y-14332579D02*
X10470539Y-14370674D01*
X10470539Y-14370674D02*
X10470539Y-14418293D01*
X10470539Y-14418293D02*
X10461015Y-14456388D01*
X10461015Y-14456388D02*
X10451491Y-14475436D01*
X10451491Y-14475436D02*
X10441967Y-14484960D01*
X10441967Y-14484960D02*
X10422920Y-14494484D01*
X10422920Y-14494484D02*
X10403872Y-14494484D01*
X10403872Y-14494484D02*
X10384824Y-14484960D01*
X10384824Y-14484960D02*
X10375301Y-14475436D01*
X10375301Y-14475436D02*
X10365777Y-14456388D01*
X10365777Y-14456388D02*
X10356253Y-14418293D01*
X10356253Y-14418293D02*
X10356253Y-14370674D01*
X10356253Y-14370674D02*
X10365777Y-14332579D01*
X10365777Y-14332579D02*
X10375301Y-14313531D01*
X10375301Y-14313531D02*
X10384824Y-14304008D01*
X10384824Y-14304008D02*
X10403872Y-14294484D01*
X10556253Y-14475436D02*
X10565777Y-14484960D01*
X10565777Y-14484960D02*
X10556253Y-14494484D01*
X10556253Y-14494484D02*
X10546729Y-14484960D01*
X10546729Y-14484960D02*
X10556253Y-14475436D01*
X10556253Y-14475436D02*
X10556253Y-14494484D01*
X10661015Y-14494484D02*
X10699110Y-14494484D01*
X10699110Y-14494484D02*
X10718158Y-14484960D01*
X10718158Y-14484960D02*
X10727682Y-14475436D01*
X10727682Y-14475436D02*
X10746729Y-14446865D01*
X10746729Y-14446865D02*
X10756253Y-14408769D01*
X10756253Y-14408769D02*
X10756253Y-14332579D01*
X10756253Y-14332579D02*
X10746729Y-14313531D01*
X10746729Y-14313531D02*
X10737205Y-14304008D01*
X10737205Y-14304008D02*
X10718158Y-14294484D01*
X10718158Y-14294484D02*
X10680063Y-14294484D01*
X10680063Y-14294484D02*
X10661015Y-14304008D01*
X10661015Y-14304008D02*
X10651491Y-14313531D01*
X10651491Y-14313531D02*
X10641967Y-14332579D01*
X10641967Y-14332579D02*
X10641967Y-14380198D01*
X10641967Y-14380198D02*
X10651491Y-14399246D01*
X10651491Y-14399246D02*
X10661015Y-14408769D01*
X10661015Y-14408769D02*
X10680063Y-14418293D01*
X10680063Y-14418293D02*
X10718158Y-14418293D01*
X10718158Y-14418293D02*
X10737205Y-14408769D01*
X10737205Y-14408769D02*
X10746729Y-14399246D01*
X10746729Y-14399246D02*
X10756253Y-14380198D01*
X10880063Y-14294484D02*
X10899110Y-14294484D01*
X10899110Y-14294484D02*
X10918158Y-14304008D01*
X10918158Y-14304008D02*
X10927682Y-14313531D01*
X10927682Y-14313531D02*
X10937205Y-14332579D01*
X10937205Y-14332579D02*
X10946729Y-14370674D01*
X10946729Y-14370674D02*
X10946729Y-14418293D01*
X10946729Y-14418293D02*
X10937205Y-14456388D01*
X10937205Y-14456388D02*
X10927682Y-14475436D01*
X10927682Y-14475436D02*
X10918158Y-14484960D01*
X10918158Y-14484960D02*
X10899110Y-14494484D01*
X10899110Y-14494484D02*
X10880063Y-14494484D01*
X10880063Y-14494484D02*
X10861015Y-14484960D01*
X10861015Y-14484960D02*
X10851491Y-14475436D01*
X10851491Y-14475436D02*
X10841967Y-14456388D01*
X10841967Y-14456388D02*
X10832444Y-14418293D01*
X10832444Y-14418293D02*
X10832444Y-14370674D01*
X10832444Y-14370674D02*
X10841967Y-14332579D01*
X10841967Y-14332579D02*
X10851491Y-14313531D01*
X10851491Y-14313531D02*
X10861015Y-14304008D01*
X10861015Y-14304008D02*
X10880063Y-14294484D01*
X11070539Y-14294484D02*
X11089586Y-14294484D01*
X11089586Y-14294484D02*
X11108634Y-14304008D01*
X11108634Y-14304008D02*
X11118158Y-14313531D01*
X11118158Y-14313531D02*
X11127682Y-14332579D01*
X11127682Y-14332579D02*
X11137205Y-14370674D01*
X11137205Y-14370674D02*
X11137205Y-14418293D01*
X11137205Y-14418293D02*
X11127682Y-14456388D01*
X11127682Y-14456388D02*
X11118158Y-14475436D01*
X11118158Y-14475436D02*
X11108634Y-14484960D01*
X11108634Y-14484960D02*
X11089586Y-14494484D01*
X11089586Y-14494484D02*
X11070539Y-14494484D01*
X11070539Y-14494484D02*
X11051491Y-14484960D01*
X11051491Y-14484960D02*
X11041967Y-14475436D01*
X11041967Y-14475436D02*
X11032444Y-14456388D01*
X11032444Y-14456388D02*
X11022920Y-14418293D01*
X11022920Y-14418293D02*
X11022920Y-14370674D01*
X11022920Y-14370674D02*
X11032444Y-14332579D01*
X11032444Y-14332579D02*
X11041967Y-14313531D01*
X11041967Y-14313531D02*
X11051491Y-14304008D01*
X11051491Y-14304008D02*
X11070539Y-14294484D01*
X11222920Y-14494484D02*
X11222920Y-14361150D01*
X11222920Y-14380198D02*
X11232443Y-14370674D01*
X11232443Y-14370674D02*
X11251491Y-14361150D01*
X11251491Y-14361150D02*
X11280063Y-14361150D01*
X11280063Y-14361150D02*
X11299110Y-14370674D01*
X11299110Y-14370674D02*
X11308634Y-14389722D01*
X11308634Y-14389722D02*
X11308634Y-14494484D01*
X11308634Y-14389722D02*
X11318158Y-14370674D01*
X11318158Y-14370674D02*
X11337205Y-14361150D01*
X11337205Y-14361150D02*
X11365777Y-14361150D01*
X11365777Y-14361150D02*
X11384824Y-14370674D01*
X11384824Y-14370674D02*
X11394348Y-14389722D01*
X11394348Y-14389722D02*
X11394348Y-14494484D01*
X11489586Y-14494484D02*
X11489586Y-14361150D01*
X11489586Y-14380198D02*
X11499110Y-14370674D01*
X11499110Y-14370674D02*
X11518158Y-14361150D01*
X11518158Y-14361150D02*
X11546729Y-14361150D01*
X11546729Y-14361150D02*
X11565777Y-14370674D01*
X11565777Y-14370674D02*
X11575301Y-14389722D01*
X11575301Y-14389722D02*
X11575301Y-14494484D01*
X11575301Y-14389722D02*
X11584824Y-14370674D01*
X11584824Y-14370674D02*
X11603872Y-14361150D01*
X11603872Y-14361150D02*
X11632443Y-14361150D01*
X11632443Y-14361150D02*
X11651491Y-14370674D01*
X11651491Y-14370674D02*
X11661015Y-14389722D01*
X11661015Y-14389722D02*
X11661015Y-14494484D01*
X12051491Y-14284960D02*
X11880063Y-14542103D01*
X12308634Y-14294484D02*
X12327682Y-14294484D01*
X12327682Y-14294484D02*
X12346729Y-14304008D01*
X12346729Y-14304008D02*
X12356253Y-14313531D01*
X12356253Y-14313531D02*
X12365777Y-14332579D01*
X12365777Y-14332579D02*
X12375301Y-14370674D01*
X12375301Y-14370674D02*
X12375301Y-14418293D01*
X12375301Y-14418293D02*
X12365777Y-14456388D01*
X12365777Y-14456388D02*
X12356253Y-14475436D01*
X12356253Y-14475436D02*
X12346729Y-14484960D01*
X12346729Y-14484960D02*
X12327682Y-14494484D01*
X12327682Y-14494484D02*
X12308634Y-14494484D01*
X12308634Y-14494484D02*
X12289586Y-14484960D01*
X12289586Y-14484960D02*
X12280063Y-14475436D01*
X12280063Y-14475436D02*
X12270539Y-14456388D01*
X12270539Y-14456388D02*
X12261015Y-14418293D01*
X12261015Y-14418293D02*
X12261015Y-14370674D01*
X12261015Y-14370674D02*
X12270539Y-14332579D01*
X12270539Y-14332579D02*
X12280063Y-14313531D01*
X12280063Y-14313531D02*
X12289586Y-14304008D01*
X12289586Y-14304008D02*
X12308634Y-14294484D01*
X12461015Y-14475436D02*
X12470539Y-14484960D01*
X12470539Y-14484960D02*
X12461015Y-14494484D01*
X12461015Y-14494484D02*
X12451491Y-14484960D01*
X12451491Y-14484960D02*
X12461015Y-14475436D01*
X12461015Y-14475436D02*
X12461015Y-14494484D01*
X12594348Y-14294484D02*
X12613396Y-14294484D01*
X12613396Y-14294484D02*
X12632444Y-14304008D01*
X12632444Y-14304008D02*
X12641967Y-14313531D01*
X12641967Y-14313531D02*
X12651491Y-14332579D01*
X12651491Y-14332579D02*
X12661015Y-14370674D01*
X12661015Y-14370674D02*
X12661015Y-14418293D01*
X12661015Y-14418293D02*
X12651491Y-14456388D01*
X12651491Y-14456388D02*
X12641967Y-14475436D01*
X12641967Y-14475436D02*
X12632444Y-14484960D01*
X12632444Y-14484960D02*
X12613396Y-14494484D01*
X12613396Y-14494484D02*
X12594348Y-14494484D01*
X12594348Y-14494484D02*
X12575301Y-14484960D01*
X12575301Y-14484960D02*
X12565777Y-14475436D01*
X12565777Y-14475436D02*
X12556253Y-14456388D01*
X12556253Y-14456388D02*
X12546729Y-14418293D01*
X12546729Y-14418293D02*
X12546729Y-14370674D01*
X12546729Y-14370674D02*
X12556253Y-14332579D01*
X12556253Y-14332579D02*
X12565777Y-14313531D01*
X12565777Y-14313531D02*
X12575301Y-14304008D01*
X12575301Y-14304008D02*
X12594348Y-14294484D01*
X12727682Y-14294484D02*
X12851491Y-14294484D01*
X12851491Y-14294484D02*
X12784825Y-14370674D01*
X12784825Y-14370674D02*
X12813396Y-14370674D01*
X12813396Y-14370674D02*
X12832444Y-14380198D01*
X12832444Y-14380198D02*
X12841967Y-14389722D01*
X12841967Y-14389722D02*
X12851491Y-14408769D01*
X12851491Y-14408769D02*
X12851491Y-14456388D01*
X12851491Y-14456388D02*
X12841967Y-14475436D01*
X12841967Y-14475436D02*
X12832444Y-14484960D01*
X12832444Y-14484960D02*
X12813396Y-14494484D01*
X12813396Y-14494484D02*
X12756253Y-14494484D01*
X12756253Y-14494484D02*
X12737206Y-14484960D01*
X12737206Y-14484960D02*
X12727682Y-14475436D01*
X13032444Y-14294484D02*
X12937206Y-14294484D01*
X12937206Y-14294484D02*
X12927682Y-14389722D01*
X12927682Y-14389722D02*
X12937206Y-14380198D01*
X12937206Y-14380198D02*
X12956253Y-14370674D01*
X12956253Y-14370674D02*
X13003872Y-14370674D01*
X13003872Y-14370674D02*
X13022920Y-14380198D01*
X13022920Y-14380198D02*
X13032444Y-14389722D01*
X13032444Y-14389722D02*
X13041967Y-14408769D01*
X13041967Y-14408769D02*
X13041967Y-14456388D01*
X13041967Y-14456388D02*
X13032444Y-14475436D01*
X13032444Y-14475436D02*
X13022920Y-14484960D01*
X13022920Y-14484960D02*
X13003872Y-14494484D01*
X13003872Y-14494484D02*
X12956253Y-14494484D01*
X12956253Y-14494484D02*
X12937206Y-14484960D01*
X12937206Y-14484960D02*
X12927682Y-14475436D01*
X13213396Y-14361150D02*
X13213396Y-14494484D01*
X13165777Y-14284960D02*
X13118158Y-14427817D01*
X13118158Y-14427817D02*
X13241967Y-14427817D01*
X13308634Y-14294484D02*
X13308634Y-14332579D01*
X13384825Y-14294484D02*
X13384825Y-14332579D01*
X13680063Y-14570674D02*
X13670539Y-14561150D01*
X13670539Y-14561150D02*
X13651491Y-14532579D01*
X13651491Y-14532579D02*
X13641968Y-14513531D01*
X13641968Y-14513531D02*
X13632444Y-14484960D01*
X13632444Y-14484960D02*
X13622920Y-14437341D01*
X13622920Y-14437341D02*
X13622920Y-14399246D01*
X13622920Y-14399246D02*
X13632444Y-14351627D01*
X13632444Y-14351627D02*
X13641968Y-14323055D01*
X13641968Y-14323055D02*
X13651491Y-14304008D01*
X13651491Y-14304008D02*
X13670539Y-14275436D01*
X13670539Y-14275436D02*
X13680063Y-14265912D01*
X13746729Y-14313531D02*
X13756253Y-14304008D01*
X13756253Y-14304008D02*
X13775301Y-14294484D01*
X13775301Y-14294484D02*
X13822920Y-14294484D01*
X13822920Y-14294484D02*
X13841968Y-14304008D01*
X13841968Y-14304008D02*
X13851491Y-14313531D01*
X13851491Y-14313531D02*
X13861015Y-14332579D01*
X13861015Y-14332579D02*
X13861015Y-14351627D01*
X13861015Y-14351627D02*
X13851491Y-14380198D01*
X13851491Y-14380198D02*
X13737206Y-14494484D01*
X13737206Y-14494484D02*
X13861015Y-14494484D01*
X14099110Y-14494484D02*
X14099110Y-14294484D01*
X14184825Y-14494484D02*
X14184825Y-14389722D01*
X14184825Y-14389722D02*
X14175301Y-14370674D01*
X14175301Y-14370674D02*
X14156253Y-14361150D01*
X14156253Y-14361150D02*
X14127682Y-14361150D01*
X14127682Y-14361150D02*
X14108634Y-14370674D01*
X14108634Y-14370674D02*
X14099110Y-14380198D01*
X14308634Y-14494484D02*
X14289587Y-14484960D01*
X14289587Y-14484960D02*
X14280063Y-14475436D01*
X14280063Y-14475436D02*
X14270539Y-14456388D01*
X14270539Y-14456388D02*
X14270539Y-14399246D01*
X14270539Y-14399246D02*
X14280063Y-14380198D01*
X14280063Y-14380198D02*
X14289587Y-14370674D01*
X14289587Y-14370674D02*
X14308634Y-14361150D01*
X14308634Y-14361150D02*
X14337206Y-14361150D01*
X14337206Y-14361150D02*
X14356253Y-14370674D01*
X14356253Y-14370674D02*
X14365777Y-14380198D01*
X14365777Y-14380198D02*
X14375301Y-14399246D01*
X14375301Y-14399246D02*
X14375301Y-14456388D01*
X14375301Y-14456388D02*
X14365777Y-14475436D01*
X14365777Y-14475436D02*
X14356253Y-14484960D01*
X14356253Y-14484960D02*
X14337206Y-14494484D01*
X14337206Y-14494484D02*
X14308634Y-14494484D01*
X14489587Y-14494484D02*
X14470539Y-14484960D01*
X14470539Y-14484960D02*
X14461015Y-14465912D01*
X14461015Y-14465912D02*
X14461015Y-14294484D01*
X14641968Y-14484960D02*
X14622920Y-14494484D01*
X14622920Y-14494484D02*
X14584825Y-14494484D01*
X14584825Y-14494484D02*
X14565777Y-14484960D01*
X14565777Y-14484960D02*
X14556253Y-14465912D01*
X14556253Y-14465912D02*
X14556253Y-14389722D01*
X14556253Y-14389722D02*
X14565777Y-14370674D01*
X14565777Y-14370674D02*
X14584825Y-14361150D01*
X14584825Y-14361150D02*
X14622920Y-14361150D01*
X14622920Y-14361150D02*
X14641968Y-14370674D01*
X14641968Y-14370674D02*
X14651491Y-14389722D01*
X14651491Y-14389722D02*
X14651491Y-14408769D01*
X14651491Y-14408769D02*
X14556253Y-14427817D01*
X14727682Y-14484960D02*
X14746730Y-14494484D01*
X14746730Y-14494484D02*
X14784825Y-14494484D01*
X14784825Y-14494484D02*
X14803872Y-14484960D01*
X14803872Y-14484960D02*
X14813396Y-14465912D01*
X14813396Y-14465912D02*
X14813396Y-14456388D01*
X14813396Y-14456388D02*
X14803872Y-14437341D01*
X14803872Y-14437341D02*
X14784825Y-14427817D01*
X14784825Y-14427817D02*
X14756253Y-14427817D01*
X14756253Y-14427817D02*
X14737206Y-14418293D01*
X14737206Y-14418293D02*
X14727682Y-14399246D01*
X14727682Y-14399246D02*
X14727682Y-14389722D01*
X14727682Y-14389722D02*
X14737206Y-14370674D01*
X14737206Y-14370674D02*
X14756253Y-14361150D01*
X14756253Y-14361150D02*
X14784825Y-14361150D01*
X14784825Y-14361150D02*
X14803872Y-14370674D01*
X14880063Y-14570674D02*
X14889587Y-14561150D01*
X14889587Y-14561150D02*
X14908634Y-14532579D01*
X14908634Y-14532579D02*
X14918158Y-14513531D01*
X14918158Y-14513531D02*
X14927682Y-14484960D01*
X14927682Y-14484960D02*
X14937206Y-14437341D01*
X14937206Y-14437341D02*
X14937206Y-14399246D01*
X14937206Y-14399246D02*
X14927682Y-14351627D01*
X14927682Y-14351627D02*
X14918158Y-14323055D01*
X14918158Y-14323055D02*
X14908634Y-14304008D01*
X14908634Y-14304008D02*
X14889587Y-14275436D01*
X14889587Y-14275436D02*
X14880063Y-14265912D01*
D10*
X10005000Y-14617000D02*
X10105000Y-14717000D01*
X10105000Y-14617000D02*
X10005000Y-14717000D01*
X10055000Y-14717000D02*
X10105000Y-14667000D01*
X10055000Y-14617000D01*
X10005000Y-14667000D01*
X10055000Y-14717000D01*
D11*
X10470539Y-14758484D02*
X10356253Y-14758484D01*
X10413396Y-14758484D02*
X10413396Y-14558484D01*
X10413396Y-14558484D02*
X10394348Y-14587055D01*
X10394348Y-14587055D02*
X10375301Y-14606103D01*
X10375301Y-14606103D02*
X10356253Y-14615627D01*
X10556253Y-14739436D02*
X10565777Y-14748960D01*
X10565777Y-14748960D02*
X10556253Y-14758484D01*
X10556253Y-14758484D02*
X10546729Y-14748960D01*
X10546729Y-14748960D02*
X10556253Y-14739436D01*
X10556253Y-14739436D02*
X10556253Y-14758484D01*
X10689586Y-14558484D02*
X10708634Y-14558484D01*
X10708634Y-14558484D02*
X10727682Y-14568008D01*
X10727682Y-14568008D02*
X10737205Y-14577531D01*
X10737205Y-14577531D02*
X10746729Y-14596579D01*
X10746729Y-14596579D02*
X10756253Y-14634674D01*
X10756253Y-14634674D02*
X10756253Y-14682293D01*
X10756253Y-14682293D02*
X10746729Y-14720388D01*
X10746729Y-14720388D02*
X10737205Y-14739436D01*
X10737205Y-14739436D02*
X10727682Y-14748960D01*
X10727682Y-14748960D02*
X10708634Y-14758484D01*
X10708634Y-14758484D02*
X10689586Y-14758484D01*
X10689586Y-14758484D02*
X10670539Y-14748960D01*
X10670539Y-14748960D02*
X10661015Y-14739436D01*
X10661015Y-14739436D02*
X10651491Y-14720388D01*
X10651491Y-14720388D02*
X10641967Y-14682293D01*
X10641967Y-14682293D02*
X10641967Y-14634674D01*
X10641967Y-14634674D02*
X10651491Y-14596579D01*
X10651491Y-14596579D02*
X10661015Y-14577531D01*
X10661015Y-14577531D02*
X10670539Y-14568008D01*
X10670539Y-14568008D02*
X10689586Y-14558484D01*
X10880063Y-14558484D02*
X10899110Y-14558484D01*
X10899110Y-14558484D02*
X10918158Y-14568008D01*
X10918158Y-14568008D02*
X10927682Y-14577531D01*
X10927682Y-14577531D02*
X10937205Y-14596579D01*
X10937205Y-14596579D02*
X10946729Y-14634674D01*
X10946729Y-14634674D02*
X10946729Y-14682293D01*
X10946729Y-14682293D02*
X10937205Y-14720388D01*
X10937205Y-14720388D02*
X10927682Y-14739436D01*
X10927682Y-14739436D02*
X10918158Y-14748960D01*
X10918158Y-14748960D02*
X10899110Y-14758484D01*
X10899110Y-14758484D02*
X10880063Y-14758484D01*
X10880063Y-14758484D02*
X10861015Y-14748960D01*
X10861015Y-14748960D02*
X10851491Y-14739436D01*
X10851491Y-14739436D02*
X10841967Y-14720388D01*
X10841967Y-14720388D02*
X10832444Y-14682293D01*
X10832444Y-14682293D02*
X10832444Y-14634674D01*
X10832444Y-14634674D02*
X10841967Y-14596579D01*
X10841967Y-14596579D02*
X10851491Y-14577531D01*
X10851491Y-14577531D02*
X10861015Y-14568008D01*
X10861015Y-14568008D02*
X10880063Y-14558484D01*
X11070539Y-14558484D02*
X11089586Y-14558484D01*
X11089586Y-14558484D02*
X11108634Y-14568008D01*
X11108634Y-14568008D02*
X11118158Y-14577531D01*
X11118158Y-14577531D02*
X11127682Y-14596579D01*
X11127682Y-14596579D02*
X11137205Y-14634674D01*
X11137205Y-14634674D02*
X11137205Y-14682293D01*
X11137205Y-14682293D02*
X11127682Y-14720388D01*
X11127682Y-14720388D02*
X11118158Y-14739436D01*
X11118158Y-14739436D02*
X11108634Y-14748960D01*
X11108634Y-14748960D02*
X11089586Y-14758484D01*
X11089586Y-14758484D02*
X11070539Y-14758484D01*
X11070539Y-14758484D02*
X11051491Y-14748960D01*
X11051491Y-14748960D02*
X11041967Y-14739436D01*
X11041967Y-14739436D02*
X11032444Y-14720388D01*
X11032444Y-14720388D02*
X11022920Y-14682293D01*
X11022920Y-14682293D02*
X11022920Y-14634674D01*
X11022920Y-14634674D02*
X11032444Y-14596579D01*
X11032444Y-14596579D02*
X11041967Y-14577531D01*
X11041967Y-14577531D02*
X11051491Y-14568008D01*
X11051491Y-14568008D02*
X11070539Y-14558484D01*
X11222920Y-14758484D02*
X11222920Y-14625150D01*
X11222920Y-14644198D02*
X11232443Y-14634674D01*
X11232443Y-14634674D02*
X11251491Y-14625150D01*
X11251491Y-14625150D02*
X11280063Y-14625150D01*
X11280063Y-14625150D02*
X11299110Y-14634674D01*
X11299110Y-14634674D02*
X11308634Y-14653722D01*
X11308634Y-14653722D02*
X11308634Y-14758484D01*
X11308634Y-14653722D02*
X11318158Y-14634674D01*
X11318158Y-14634674D02*
X11337205Y-14625150D01*
X11337205Y-14625150D02*
X11365777Y-14625150D01*
X11365777Y-14625150D02*
X11384824Y-14634674D01*
X11384824Y-14634674D02*
X11394348Y-14653722D01*
X11394348Y-14653722D02*
X11394348Y-14758484D01*
X11489586Y-14758484D02*
X11489586Y-14625150D01*
X11489586Y-14644198D02*
X11499110Y-14634674D01*
X11499110Y-14634674D02*
X11518158Y-14625150D01*
X11518158Y-14625150D02*
X11546729Y-14625150D01*
X11546729Y-14625150D02*
X11565777Y-14634674D01*
X11565777Y-14634674D02*
X11575301Y-14653722D01*
X11575301Y-14653722D02*
X11575301Y-14758484D01*
X11575301Y-14653722D02*
X11584824Y-14634674D01*
X11584824Y-14634674D02*
X11603872Y-14625150D01*
X11603872Y-14625150D02*
X11632443Y-14625150D01*
X11632443Y-14625150D02*
X11651491Y-14634674D01*
X11651491Y-14634674D02*
X11661015Y-14653722D01*
X11661015Y-14653722D02*
X11661015Y-14758484D01*
X12051491Y-14548960D02*
X11880063Y-14806103D01*
X12308634Y-14558484D02*
X12327682Y-14558484D01*
X12327682Y-14558484D02*
X12346729Y-14568008D01*
X12346729Y-14568008D02*
X12356253Y-14577531D01*
X12356253Y-14577531D02*
X12365777Y-14596579D01*
X12365777Y-14596579D02*
X12375301Y-14634674D01*
X12375301Y-14634674D02*
X12375301Y-14682293D01*
X12375301Y-14682293D02*
X12365777Y-14720388D01*
X12365777Y-14720388D02*
X12356253Y-14739436D01*
X12356253Y-14739436D02*
X12346729Y-14748960D01*
X12346729Y-14748960D02*
X12327682Y-14758484D01*
X12327682Y-14758484D02*
X12308634Y-14758484D01*
X12308634Y-14758484D02*
X12289586Y-14748960D01*
X12289586Y-14748960D02*
X12280063Y-14739436D01*
X12280063Y-14739436D02*
X12270539Y-14720388D01*
X12270539Y-14720388D02*
X12261015Y-14682293D01*
X12261015Y-14682293D02*
X12261015Y-14634674D01*
X12261015Y-14634674D02*
X12270539Y-14596579D01*
X12270539Y-14596579D02*
X12280063Y-14577531D01*
X12280063Y-14577531D02*
X12289586Y-14568008D01*
X12289586Y-14568008D02*
X12308634Y-14558484D01*
X12461015Y-14739436D02*
X12470539Y-14748960D01*
X12470539Y-14748960D02*
X12461015Y-14758484D01*
X12461015Y-14758484D02*
X12451491Y-14748960D01*
X12451491Y-14748960D02*
X12461015Y-14739436D01*
X12461015Y-14739436D02*
X12461015Y-14758484D01*
X12594348Y-14558484D02*
X12613396Y-14558484D01*
X12613396Y-14558484D02*
X12632444Y-14568008D01*
X12632444Y-14568008D02*
X12641967Y-14577531D01*
X12641967Y-14577531D02*
X12651491Y-14596579D01*
X12651491Y-14596579D02*
X12661015Y-14634674D01*
X12661015Y-14634674D02*
X12661015Y-14682293D01*
X12661015Y-14682293D02*
X12651491Y-14720388D01*
X12651491Y-14720388D02*
X12641967Y-14739436D01*
X12641967Y-14739436D02*
X12632444Y-14748960D01*
X12632444Y-14748960D02*
X12613396Y-14758484D01*
X12613396Y-14758484D02*
X12594348Y-14758484D01*
X12594348Y-14758484D02*
X12575301Y-14748960D01*
X12575301Y-14748960D02*
X12565777Y-14739436D01*
X12565777Y-14739436D02*
X12556253Y-14720388D01*
X12556253Y-14720388D02*
X12546729Y-14682293D01*
X12546729Y-14682293D02*
X12546729Y-14634674D01*
X12546729Y-14634674D02*
X12556253Y-14596579D01*
X12556253Y-14596579D02*
X12565777Y-14577531D01*
X12565777Y-14577531D02*
X12575301Y-14568008D01*
X12575301Y-14568008D02*
X12594348Y-14558484D01*
X12727682Y-14558484D02*
X12851491Y-14558484D01*
X12851491Y-14558484D02*
X12784825Y-14634674D01*
X12784825Y-14634674D02*
X12813396Y-14634674D01*
X12813396Y-14634674D02*
X12832444Y-14644198D01*
X12832444Y-14644198D02*
X12841967Y-14653722D01*
X12841967Y-14653722D02*
X12851491Y-14672769D01*
X12851491Y-14672769D02*
X12851491Y-14720388D01*
X12851491Y-14720388D02*
X12841967Y-14739436D01*
X12841967Y-14739436D02*
X12832444Y-14748960D01*
X12832444Y-14748960D02*
X12813396Y-14758484D01*
X12813396Y-14758484D02*
X12756253Y-14758484D01*
X12756253Y-14758484D02*
X12737206Y-14748960D01*
X12737206Y-14748960D02*
X12727682Y-14739436D01*
X12946729Y-14758484D02*
X12984825Y-14758484D01*
X12984825Y-14758484D02*
X13003872Y-14748960D01*
X13003872Y-14748960D02*
X13013396Y-14739436D01*
X13013396Y-14739436D02*
X13032444Y-14710865D01*
X13032444Y-14710865D02*
X13041967Y-14672769D01*
X13041967Y-14672769D02*
X13041967Y-14596579D01*
X13041967Y-14596579D02*
X13032444Y-14577531D01*
X13032444Y-14577531D02*
X13022920Y-14568008D01*
X13022920Y-14568008D02*
X13003872Y-14558484D01*
X13003872Y-14558484D02*
X12965777Y-14558484D01*
X12965777Y-14558484D02*
X12946729Y-14568008D01*
X12946729Y-14568008D02*
X12937206Y-14577531D01*
X12937206Y-14577531D02*
X12927682Y-14596579D01*
X12927682Y-14596579D02*
X12927682Y-14644198D01*
X12927682Y-14644198D02*
X12937206Y-14663246D01*
X12937206Y-14663246D02*
X12946729Y-14672769D01*
X12946729Y-14672769D02*
X12965777Y-14682293D01*
X12965777Y-14682293D02*
X13003872Y-14682293D01*
X13003872Y-14682293D02*
X13022920Y-14672769D01*
X13022920Y-14672769D02*
X13032444Y-14663246D01*
X13032444Y-14663246D02*
X13041967Y-14644198D01*
X13213396Y-14625150D02*
X13213396Y-14758484D01*
X13165777Y-14548960D02*
X13118158Y-14691817D01*
X13118158Y-14691817D02*
X13241967Y-14691817D01*
X13308634Y-14558484D02*
X13308634Y-14596579D01*
X13384825Y-14558484D02*
X13384825Y-14596579D01*
X13680063Y-14834674D02*
X13670539Y-14825150D01*
X13670539Y-14825150D02*
X13651491Y-14796579D01*
X13651491Y-14796579D02*
X13641968Y-14777531D01*
X13641968Y-14777531D02*
X13632444Y-14748960D01*
X13632444Y-14748960D02*
X13622920Y-14701341D01*
X13622920Y-14701341D02*
X13622920Y-14663246D01*
X13622920Y-14663246D02*
X13632444Y-14615627D01*
X13632444Y-14615627D02*
X13641968Y-14587055D01*
X13641968Y-14587055D02*
X13651491Y-14568008D01*
X13651491Y-14568008D02*
X13670539Y-14539436D01*
X13670539Y-14539436D02*
X13680063Y-14529912D01*
X13861015Y-14758484D02*
X13746729Y-14758484D01*
X13803872Y-14758484D02*
X13803872Y-14558484D01*
X13803872Y-14558484D02*
X13784825Y-14587055D01*
X13784825Y-14587055D02*
X13765777Y-14606103D01*
X13765777Y-14606103D02*
X13746729Y-14615627D01*
X13956253Y-14758484D02*
X13994348Y-14758484D01*
X13994348Y-14758484D02*
X14013396Y-14748960D01*
X14013396Y-14748960D02*
X14022920Y-14739436D01*
X14022920Y-14739436D02*
X14041968Y-14710865D01*
X14041968Y-14710865D02*
X14051491Y-14672769D01*
X14051491Y-14672769D02*
X14051491Y-14596579D01*
X14051491Y-14596579D02*
X14041968Y-14577531D01*
X14041968Y-14577531D02*
X14032444Y-14568008D01*
X14032444Y-14568008D02*
X14013396Y-14558484D01*
X14013396Y-14558484D02*
X13975301Y-14558484D01*
X13975301Y-14558484D02*
X13956253Y-14568008D01*
X13956253Y-14568008D02*
X13946729Y-14577531D01*
X13946729Y-14577531D02*
X13937206Y-14596579D01*
X13937206Y-14596579D02*
X13937206Y-14644198D01*
X13937206Y-14644198D02*
X13946729Y-14663246D01*
X13946729Y-14663246D02*
X13956253Y-14672769D01*
X13956253Y-14672769D02*
X13975301Y-14682293D01*
X13975301Y-14682293D02*
X14013396Y-14682293D01*
X14013396Y-14682293D02*
X14032444Y-14672769D01*
X14032444Y-14672769D02*
X14041968Y-14663246D01*
X14041968Y-14663246D02*
X14051491Y-14644198D01*
X14289587Y-14758484D02*
X14289587Y-14558484D01*
X14375301Y-14758484D02*
X14375301Y-14653722D01*
X14375301Y-14653722D02*
X14365777Y-14634674D01*
X14365777Y-14634674D02*
X14346730Y-14625150D01*
X14346730Y-14625150D02*
X14318158Y-14625150D01*
X14318158Y-14625150D02*
X14299110Y-14634674D01*
X14299110Y-14634674D02*
X14289587Y-14644198D01*
X14499110Y-14758484D02*
X14480063Y-14748960D01*
X14480063Y-14748960D02*
X14470539Y-14739436D01*
X14470539Y-14739436D02*
X14461015Y-14720388D01*
X14461015Y-14720388D02*
X14461015Y-14663246D01*
X14461015Y-14663246D02*
X14470539Y-14644198D01*
X14470539Y-14644198D02*
X14480063Y-14634674D01*
X14480063Y-14634674D02*
X14499110Y-14625150D01*
X14499110Y-14625150D02*
X14527682Y-14625150D01*
X14527682Y-14625150D02*
X14546730Y-14634674D01*
X14546730Y-14634674D02*
X14556253Y-14644198D01*
X14556253Y-14644198D02*
X14565777Y-14663246D01*
X14565777Y-14663246D02*
X14565777Y-14720388D01*
X14565777Y-14720388D02*
X14556253Y-14739436D01*
X14556253Y-14739436D02*
X14546730Y-14748960D01*
X14546730Y-14748960D02*
X14527682Y-14758484D01*
X14527682Y-14758484D02*
X14499110Y-14758484D01*
X14680063Y-14758484D02*
X14661015Y-14748960D01*
X14661015Y-14748960D02*
X14651491Y-14729912D01*
X14651491Y-14729912D02*
X14651491Y-14558484D01*
X14832444Y-14748960D02*
X14813396Y-14758484D01*
X14813396Y-14758484D02*
X14775301Y-14758484D01*
X14775301Y-14758484D02*
X14756253Y-14748960D01*
X14756253Y-14748960D02*
X14746730Y-14729912D01*
X14746730Y-14729912D02*
X14746730Y-14653722D01*
X14746730Y-14653722D02*
X14756253Y-14634674D01*
X14756253Y-14634674D02*
X14775301Y-14625150D01*
X14775301Y-14625150D02*
X14813396Y-14625150D01*
X14813396Y-14625150D02*
X14832444Y-14634674D01*
X14832444Y-14634674D02*
X14841968Y-14653722D01*
X14841968Y-14653722D02*
X14841968Y-14672769D01*
X14841968Y-14672769D02*
X14746730Y-14691817D01*
X14918158Y-14748960D02*
X14937206Y-14758484D01*
X14937206Y-14758484D02*
X14975301Y-14758484D01*
X14975301Y-14758484D02*
X14994349Y-14748960D01*
X14994349Y-14748960D02*
X15003872Y-14729912D01*
X15003872Y-14729912D02*
X15003872Y-14720388D01*
X15003872Y-14720388D02*
X14994349Y-14701341D01*
X14994349Y-14701341D02*
X14975301Y-14691817D01*
X14975301Y-14691817D02*
X14946730Y-14691817D01*
X14946730Y-14691817D02*
X14927682Y-14682293D01*
X14927682Y-14682293D02*
X14918158Y-14663246D01*
X14918158Y-14663246D02*
X14918158Y-14653722D01*
X14918158Y-14653722D02*
X14927682Y-14634674D01*
X14927682Y-14634674D02*
X14946730Y-14625150D01*
X14946730Y-14625150D02*
X14975301Y-14625150D01*
X14975301Y-14625150D02*
X14994349Y-14634674D01*
X15070539Y-14834674D02*
X15080063Y-14825150D01*
X15080063Y-14825150D02*
X15099111Y-14796579D01*
X15099111Y-14796579D02*
X15108634Y-14777531D01*
X15108634Y-14777531D02*
X15118158Y-14748960D01*
X15118158Y-14748960D02*
X15127682Y-14701341D01*
X15127682Y-14701341D02*
X15127682Y-14663246D01*
X15127682Y-14663246D02*
X15118158Y-14615627D01*
X15118158Y-14615627D02*
X15108634Y-14587055D01*
X15108634Y-14587055D02*
X15099111Y-14568008D01*
X15099111Y-14568008D02*
X15080063Y-14539436D01*
X15080063Y-14539436D02*
X15070539Y-14529912D01*
D20*
X10045000Y-14871000D02*
X10045000Y-14991000D01*
X9985000Y-14931000D02*
X10105000Y-14931000D01*
X10105000Y-14931000D02*
G75*
G03*
X10105000Y-14931000I-60000J0D01*
G01*
D11*
X10470539Y-15022484D02*
X10356253Y-15022484D01*
X10413396Y-15022484D02*
X10413396Y-14822484D01*
X10413396Y-14822484D02*
X10394348Y-14851055D01*
X10394348Y-14851055D02*
X10375301Y-14870103D01*
X10375301Y-14870103D02*
X10356253Y-14879627D01*
X10556253Y-15003436D02*
X10565777Y-15012960D01*
X10565777Y-15012960D02*
X10556253Y-15022484D01*
X10556253Y-15022484D02*
X10546729Y-15012960D01*
X10546729Y-15012960D02*
X10556253Y-15003436D01*
X10556253Y-15003436D02*
X10556253Y-15022484D01*
X10641967Y-14841531D02*
X10651491Y-14832008D01*
X10651491Y-14832008D02*
X10670539Y-14822484D01*
X10670539Y-14822484D02*
X10718158Y-14822484D01*
X10718158Y-14822484D02*
X10737205Y-14832008D01*
X10737205Y-14832008D02*
X10746729Y-14841531D01*
X10746729Y-14841531D02*
X10756253Y-14860579D01*
X10756253Y-14860579D02*
X10756253Y-14879627D01*
X10756253Y-14879627D02*
X10746729Y-14908198D01*
X10746729Y-14908198D02*
X10632444Y-15022484D01*
X10632444Y-15022484D02*
X10756253Y-15022484D01*
X10880063Y-14822484D02*
X10899110Y-14822484D01*
X10899110Y-14822484D02*
X10918158Y-14832008D01*
X10918158Y-14832008D02*
X10927682Y-14841531D01*
X10927682Y-14841531D02*
X10937205Y-14860579D01*
X10937205Y-14860579D02*
X10946729Y-14898674D01*
X10946729Y-14898674D02*
X10946729Y-14946293D01*
X10946729Y-14946293D02*
X10937205Y-14984388D01*
X10937205Y-14984388D02*
X10927682Y-15003436D01*
X10927682Y-15003436D02*
X10918158Y-15012960D01*
X10918158Y-15012960D02*
X10899110Y-15022484D01*
X10899110Y-15022484D02*
X10880063Y-15022484D01*
X10880063Y-15022484D02*
X10861015Y-15012960D01*
X10861015Y-15012960D02*
X10851491Y-15003436D01*
X10851491Y-15003436D02*
X10841967Y-14984388D01*
X10841967Y-14984388D02*
X10832444Y-14946293D01*
X10832444Y-14946293D02*
X10832444Y-14898674D01*
X10832444Y-14898674D02*
X10841967Y-14860579D01*
X10841967Y-14860579D02*
X10851491Y-14841531D01*
X10851491Y-14841531D02*
X10861015Y-14832008D01*
X10861015Y-14832008D02*
X10880063Y-14822484D01*
X11070539Y-14822484D02*
X11089586Y-14822484D01*
X11089586Y-14822484D02*
X11108634Y-14832008D01*
X11108634Y-14832008D02*
X11118158Y-14841531D01*
X11118158Y-14841531D02*
X11127682Y-14860579D01*
X11127682Y-14860579D02*
X11137205Y-14898674D01*
X11137205Y-14898674D02*
X11137205Y-14946293D01*
X11137205Y-14946293D02*
X11127682Y-14984388D01*
X11127682Y-14984388D02*
X11118158Y-15003436D01*
X11118158Y-15003436D02*
X11108634Y-15012960D01*
X11108634Y-15012960D02*
X11089586Y-15022484D01*
X11089586Y-15022484D02*
X11070539Y-15022484D01*
X11070539Y-15022484D02*
X11051491Y-15012960D01*
X11051491Y-15012960D02*
X11041967Y-15003436D01*
X11041967Y-15003436D02*
X11032444Y-14984388D01*
X11032444Y-14984388D02*
X11022920Y-14946293D01*
X11022920Y-14946293D02*
X11022920Y-14898674D01*
X11022920Y-14898674D02*
X11032444Y-14860579D01*
X11032444Y-14860579D02*
X11041967Y-14841531D01*
X11041967Y-14841531D02*
X11051491Y-14832008D01*
X11051491Y-14832008D02*
X11070539Y-14822484D01*
X11222920Y-15022484D02*
X11222920Y-14889150D01*
X11222920Y-14908198D02*
X11232443Y-14898674D01*
X11232443Y-14898674D02*
X11251491Y-14889150D01*
X11251491Y-14889150D02*
X11280063Y-14889150D01*
X11280063Y-14889150D02*
X11299110Y-14898674D01*
X11299110Y-14898674D02*
X11308634Y-14917722D01*
X11308634Y-14917722D02*
X11308634Y-15022484D01*
X11308634Y-14917722D02*
X11318158Y-14898674D01*
X11318158Y-14898674D02*
X11337205Y-14889150D01*
X11337205Y-14889150D02*
X11365777Y-14889150D01*
X11365777Y-14889150D02*
X11384824Y-14898674D01*
X11384824Y-14898674D02*
X11394348Y-14917722D01*
X11394348Y-14917722D02*
X11394348Y-15022484D01*
X11489586Y-15022484D02*
X11489586Y-14889150D01*
X11489586Y-14908198D02*
X11499110Y-14898674D01*
X11499110Y-14898674D02*
X11518158Y-14889150D01*
X11518158Y-14889150D02*
X11546729Y-14889150D01*
X11546729Y-14889150D02*
X11565777Y-14898674D01*
X11565777Y-14898674D02*
X11575301Y-14917722D01*
X11575301Y-14917722D02*
X11575301Y-15022484D01*
X11575301Y-14917722D02*
X11584824Y-14898674D01*
X11584824Y-14898674D02*
X11603872Y-14889150D01*
X11603872Y-14889150D02*
X11632443Y-14889150D01*
X11632443Y-14889150D02*
X11651491Y-14898674D01*
X11651491Y-14898674D02*
X11661015Y-14917722D01*
X11661015Y-14917722D02*
X11661015Y-15022484D01*
X12051491Y-14812960D02*
X11880063Y-15070103D01*
X12308634Y-14822484D02*
X12327682Y-14822484D01*
X12327682Y-14822484D02*
X12346729Y-14832008D01*
X12346729Y-14832008D02*
X12356253Y-14841531D01*
X12356253Y-14841531D02*
X12365777Y-14860579D01*
X12365777Y-14860579D02*
X12375301Y-14898674D01*
X12375301Y-14898674D02*
X12375301Y-14946293D01*
X12375301Y-14946293D02*
X12365777Y-14984388D01*
X12365777Y-14984388D02*
X12356253Y-15003436D01*
X12356253Y-15003436D02*
X12346729Y-15012960D01*
X12346729Y-15012960D02*
X12327682Y-15022484D01*
X12327682Y-15022484D02*
X12308634Y-15022484D01*
X12308634Y-15022484D02*
X12289586Y-15012960D01*
X12289586Y-15012960D02*
X12280063Y-15003436D01*
X12280063Y-15003436D02*
X12270539Y-14984388D01*
X12270539Y-14984388D02*
X12261015Y-14946293D01*
X12261015Y-14946293D02*
X12261015Y-14898674D01*
X12261015Y-14898674D02*
X12270539Y-14860579D01*
X12270539Y-14860579D02*
X12280063Y-14841531D01*
X12280063Y-14841531D02*
X12289586Y-14832008D01*
X12289586Y-14832008D02*
X12308634Y-14822484D01*
X12461015Y-15003436D02*
X12470539Y-15012960D01*
X12470539Y-15012960D02*
X12461015Y-15022484D01*
X12461015Y-15022484D02*
X12451491Y-15012960D01*
X12451491Y-15012960D02*
X12461015Y-15003436D01*
X12461015Y-15003436D02*
X12461015Y-15022484D01*
X12594348Y-14822484D02*
X12613396Y-14822484D01*
X12613396Y-14822484D02*
X12632444Y-14832008D01*
X12632444Y-14832008D02*
X12641967Y-14841531D01*
X12641967Y-14841531D02*
X12651491Y-14860579D01*
X12651491Y-14860579D02*
X12661015Y-14898674D01*
X12661015Y-14898674D02*
X12661015Y-14946293D01*
X12661015Y-14946293D02*
X12651491Y-14984388D01*
X12651491Y-14984388D02*
X12641967Y-15003436D01*
X12641967Y-15003436D02*
X12632444Y-15012960D01*
X12632444Y-15012960D02*
X12613396Y-15022484D01*
X12613396Y-15022484D02*
X12594348Y-15022484D01*
X12594348Y-15022484D02*
X12575301Y-15012960D01*
X12575301Y-15012960D02*
X12565777Y-15003436D01*
X12565777Y-15003436D02*
X12556253Y-14984388D01*
X12556253Y-14984388D02*
X12546729Y-14946293D01*
X12546729Y-14946293D02*
X12546729Y-14898674D01*
X12546729Y-14898674D02*
X12556253Y-14860579D01*
X12556253Y-14860579D02*
X12565777Y-14841531D01*
X12565777Y-14841531D02*
X12575301Y-14832008D01*
X12575301Y-14832008D02*
X12594348Y-14822484D01*
X12832444Y-14889150D02*
X12832444Y-15022484D01*
X12784825Y-14812960D02*
X12737206Y-14955817D01*
X12737206Y-14955817D02*
X12861015Y-14955817D01*
X12918158Y-14822484D02*
X13051491Y-14822484D01*
X13051491Y-14822484D02*
X12965777Y-15022484D01*
X13118158Y-14841531D02*
X13127682Y-14832008D01*
X13127682Y-14832008D02*
X13146729Y-14822484D01*
X13146729Y-14822484D02*
X13194348Y-14822484D01*
X13194348Y-14822484D02*
X13213396Y-14832008D01*
X13213396Y-14832008D02*
X13222920Y-14841531D01*
X13222920Y-14841531D02*
X13232444Y-14860579D01*
X13232444Y-14860579D02*
X13232444Y-14879627D01*
X13232444Y-14879627D02*
X13222920Y-14908198D01*
X13222920Y-14908198D02*
X13108634Y-15022484D01*
X13108634Y-15022484D02*
X13232444Y-15022484D01*
X13308634Y-14822484D02*
X13308634Y-14860579D01*
X13384825Y-14822484D02*
X13384825Y-14860579D01*
X13680063Y-15098674D02*
X13670539Y-15089150D01*
X13670539Y-15089150D02*
X13651491Y-15060579D01*
X13651491Y-15060579D02*
X13641968Y-15041531D01*
X13641968Y-15041531D02*
X13632444Y-15012960D01*
X13632444Y-15012960D02*
X13622920Y-14965341D01*
X13622920Y-14965341D02*
X13622920Y-14927246D01*
X13622920Y-14927246D02*
X13632444Y-14879627D01*
X13632444Y-14879627D02*
X13641968Y-14851055D01*
X13641968Y-14851055D02*
X13651491Y-14832008D01*
X13651491Y-14832008D02*
X13670539Y-14803436D01*
X13670539Y-14803436D02*
X13680063Y-14793912D01*
X13746729Y-14841531D02*
X13756253Y-14832008D01*
X13756253Y-14832008D02*
X13775301Y-14822484D01*
X13775301Y-14822484D02*
X13822920Y-14822484D01*
X13822920Y-14822484D02*
X13841968Y-14832008D01*
X13841968Y-14832008D02*
X13851491Y-14841531D01*
X13851491Y-14841531D02*
X13861015Y-14860579D01*
X13861015Y-14860579D02*
X13861015Y-14879627D01*
X13861015Y-14879627D02*
X13851491Y-14908198D01*
X13851491Y-14908198D02*
X13737206Y-15022484D01*
X13737206Y-15022484D02*
X13861015Y-15022484D01*
X14099110Y-15022484D02*
X14099110Y-14822484D01*
X14184825Y-15022484D02*
X14184825Y-14917722D01*
X14184825Y-14917722D02*
X14175301Y-14898674D01*
X14175301Y-14898674D02*
X14156253Y-14889150D01*
X14156253Y-14889150D02*
X14127682Y-14889150D01*
X14127682Y-14889150D02*
X14108634Y-14898674D01*
X14108634Y-14898674D02*
X14099110Y-14908198D01*
X14308634Y-15022484D02*
X14289587Y-15012960D01*
X14289587Y-15012960D02*
X14280063Y-15003436D01*
X14280063Y-15003436D02*
X14270539Y-14984388D01*
X14270539Y-14984388D02*
X14270539Y-14927246D01*
X14270539Y-14927246D02*
X14280063Y-14908198D01*
X14280063Y-14908198D02*
X14289587Y-14898674D01*
X14289587Y-14898674D02*
X14308634Y-14889150D01*
X14308634Y-14889150D02*
X14337206Y-14889150D01*
X14337206Y-14889150D02*
X14356253Y-14898674D01*
X14356253Y-14898674D02*
X14365777Y-14908198D01*
X14365777Y-14908198D02*
X14375301Y-14927246D01*
X14375301Y-14927246D02*
X14375301Y-14984388D01*
X14375301Y-14984388D02*
X14365777Y-15003436D01*
X14365777Y-15003436D02*
X14356253Y-15012960D01*
X14356253Y-15012960D02*
X14337206Y-15022484D01*
X14337206Y-15022484D02*
X14308634Y-15022484D01*
X14489587Y-15022484D02*
X14470539Y-15012960D01*
X14470539Y-15012960D02*
X14461015Y-14993912D01*
X14461015Y-14993912D02*
X14461015Y-14822484D01*
X14641968Y-15012960D02*
X14622920Y-15022484D01*
X14622920Y-15022484D02*
X14584825Y-15022484D01*
X14584825Y-15022484D02*
X14565777Y-15012960D01*
X14565777Y-15012960D02*
X14556253Y-14993912D01*
X14556253Y-14993912D02*
X14556253Y-14917722D01*
X14556253Y-14917722D02*
X14565777Y-14898674D01*
X14565777Y-14898674D02*
X14584825Y-14889150D01*
X14584825Y-14889150D02*
X14622920Y-14889150D01*
X14622920Y-14889150D02*
X14641968Y-14898674D01*
X14641968Y-14898674D02*
X14651491Y-14917722D01*
X14651491Y-14917722D02*
X14651491Y-14936769D01*
X14651491Y-14936769D02*
X14556253Y-14955817D01*
X14727682Y-15012960D02*
X14746730Y-15022484D01*
X14746730Y-15022484D02*
X14784825Y-15022484D01*
X14784825Y-15022484D02*
X14803872Y-15012960D01*
X14803872Y-15012960D02*
X14813396Y-14993912D01*
X14813396Y-14993912D02*
X14813396Y-14984388D01*
X14813396Y-14984388D02*
X14803872Y-14965341D01*
X14803872Y-14965341D02*
X14784825Y-14955817D01*
X14784825Y-14955817D02*
X14756253Y-14955817D01*
X14756253Y-14955817D02*
X14737206Y-14946293D01*
X14737206Y-14946293D02*
X14727682Y-14927246D01*
X14727682Y-14927246D02*
X14727682Y-14917722D01*
X14727682Y-14917722D02*
X14737206Y-14898674D01*
X14737206Y-14898674D02*
X14756253Y-14889150D01*
X14756253Y-14889150D02*
X14784825Y-14889150D01*
X14784825Y-14889150D02*
X14803872Y-14898674D01*
X14880063Y-15098674D02*
X14889587Y-15089150D01*
X14889587Y-15089150D02*
X14908634Y-15060579D01*
X14908634Y-15060579D02*
X14918158Y-15041531D01*
X14918158Y-15041531D02*
X14927682Y-15012960D01*
X14927682Y-15012960D02*
X14937206Y-14965341D01*
X14937206Y-14965341D02*
X14937206Y-14927246D01*
X14937206Y-14927246D02*
X14927682Y-14879627D01*
X14927682Y-14879627D02*
X14918158Y-14851055D01*
X14918158Y-14851055D02*
X14908634Y-14832008D01*
X14908634Y-14832008D02*
X14889587Y-14803436D01*
X14889587Y-14803436D02*
X14880063Y-14793912D01*
X10075711Y-15265711D02*
X10075711Y-15124289D01*
X9934289Y-15124289D01*
X9934289Y-15265711D01*
X10075711Y-15265711D01*
X10105000Y-15195000D02*
G75*
G03*
X10105000Y-15195000I-100000J0D01*
G01*
X10356253Y-15105531D02*
X10365777Y-15096008D01*
X10365777Y-15096008D02*
X10384824Y-15086484D01*
X10384824Y-15086484D02*
X10432444Y-15086484D01*
X10432444Y-15086484D02*
X10451491Y-15096008D01*
X10451491Y-15096008D02*
X10461015Y-15105531D01*
X10461015Y-15105531D02*
X10470539Y-15124579D01*
X10470539Y-15124579D02*
X10470539Y-15143627D01*
X10470539Y-15143627D02*
X10461015Y-15172198D01*
X10461015Y-15172198D02*
X10346729Y-15286484D01*
X10346729Y-15286484D02*
X10470539Y-15286484D01*
X10556253Y-15267436D02*
X10565777Y-15276960D01*
X10565777Y-15276960D02*
X10556253Y-15286484D01*
X10556253Y-15286484D02*
X10546729Y-15276960D01*
X10546729Y-15276960D02*
X10556253Y-15267436D01*
X10556253Y-15267436D02*
X10556253Y-15286484D01*
X10756253Y-15286484D02*
X10641967Y-15286484D01*
X10699110Y-15286484D02*
X10699110Y-15086484D01*
X10699110Y-15086484D02*
X10680063Y-15115055D01*
X10680063Y-15115055D02*
X10661015Y-15134103D01*
X10661015Y-15134103D02*
X10641967Y-15143627D01*
X10880063Y-15086484D02*
X10899110Y-15086484D01*
X10899110Y-15086484D02*
X10918158Y-15096008D01*
X10918158Y-15096008D02*
X10927682Y-15105531D01*
X10927682Y-15105531D02*
X10937205Y-15124579D01*
X10937205Y-15124579D02*
X10946729Y-15162674D01*
X10946729Y-15162674D02*
X10946729Y-15210293D01*
X10946729Y-15210293D02*
X10937205Y-15248388D01*
X10937205Y-15248388D02*
X10927682Y-15267436D01*
X10927682Y-15267436D02*
X10918158Y-15276960D01*
X10918158Y-15276960D02*
X10899110Y-15286484D01*
X10899110Y-15286484D02*
X10880063Y-15286484D01*
X10880063Y-15286484D02*
X10861015Y-15276960D01*
X10861015Y-15276960D02*
X10851491Y-15267436D01*
X10851491Y-15267436D02*
X10841967Y-15248388D01*
X10841967Y-15248388D02*
X10832444Y-15210293D01*
X10832444Y-15210293D02*
X10832444Y-15162674D01*
X10832444Y-15162674D02*
X10841967Y-15124579D01*
X10841967Y-15124579D02*
X10851491Y-15105531D01*
X10851491Y-15105531D02*
X10861015Y-15096008D01*
X10861015Y-15096008D02*
X10880063Y-15086484D01*
X11070539Y-15086484D02*
X11089586Y-15086484D01*
X11089586Y-15086484D02*
X11108634Y-15096008D01*
X11108634Y-15096008D02*
X11118158Y-15105531D01*
X11118158Y-15105531D02*
X11127682Y-15124579D01*
X11127682Y-15124579D02*
X11137205Y-15162674D01*
X11137205Y-15162674D02*
X11137205Y-15210293D01*
X11137205Y-15210293D02*
X11127682Y-15248388D01*
X11127682Y-15248388D02*
X11118158Y-15267436D01*
X11118158Y-15267436D02*
X11108634Y-15276960D01*
X11108634Y-15276960D02*
X11089586Y-15286484D01*
X11089586Y-15286484D02*
X11070539Y-15286484D01*
X11070539Y-15286484D02*
X11051491Y-15276960D01*
X11051491Y-15276960D02*
X11041967Y-15267436D01*
X11041967Y-15267436D02*
X11032444Y-15248388D01*
X11032444Y-15248388D02*
X11022920Y-15210293D01*
X11022920Y-15210293D02*
X11022920Y-15162674D01*
X11022920Y-15162674D02*
X11032444Y-15124579D01*
X11032444Y-15124579D02*
X11041967Y-15105531D01*
X11041967Y-15105531D02*
X11051491Y-15096008D01*
X11051491Y-15096008D02*
X11070539Y-15086484D01*
X11222920Y-15286484D02*
X11222920Y-15153150D01*
X11222920Y-15172198D02*
X11232443Y-15162674D01*
X11232443Y-15162674D02*
X11251491Y-15153150D01*
X11251491Y-15153150D02*
X11280063Y-15153150D01*
X11280063Y-15153150D02*
X11299110Y-15162674D01*
X11299110Y-15162674D02*
X11308634Y-15181722D01*
X11308634Y-15181722D02*
X11308634Y-15286484D01*
X11308634Y-15181722D02*
X11318158Y-15162674D01*
X11318158Y-15162674D02*
X11337205Y-15153150D01*
X11337205Y-15153150D02*
X11365777Y-15153150D01*
X11365777Y-15153150D02*
X11384824Y-15162674D01*
X11384824Y-15162674D02*
X11394348Y-15181722D01*
X11394348Y-15181722D02*
X11394348Y-15286484D01*
X11489586Y-15286484D02*
X11489586Y-15153150D01*
X11489586Y-15172198D02*
X11499110Y-15162674D01*
X11499110Y-15162674D02*
X11518158Y-15153150D01*
X11518158Y-15153150D02*
X11546729Y-15153150D01*
X11546729Y-15153150D02*
X11565777Y-15162674D01*
X11565777Y-15162674D02*
X11575301Y-15181722D01*
X11575301Y-15181722D02*
X11575301Y-15286484D01*
X11575301Y-15181722D02*
X11584824Y-15162674D01*
X11584824Y-15162674D02*
X11603872Y-15153150D01*
X11603872Y-15153150D02*
X11632443Y-15153150D01*
X11632443Y-15153150D02*
X11651491Y-15162674D01*
X11651491Y-15162674D02*
X11661015Y-15181722D01*
X11661015Y-15181722D02*
X11661015Y-15286484D01*
X12051491Y-15076960D02*
X11880063Y-15334103D01*
X12308634Y-15086484D02*
X12327682Y-15086484D01*
X12327682Y-15086484D02*
X12346729Y-15096008D01*
X12346729Y-15096008D02*
X12356253Y-15105531D01*
X12356253Y-15105531D02*
X12365777Y-15124579D01*
X12365777Y-15124579D02*
X12375301Y-15162674D01*
X12375301Y-15162674D02*
X12375301Y-15210293D01*
X12375301Y-15210293D02*
X12365777Y-15248388D01*
X12365777Y-15248388D02*
X12356253Y-15267436D01*
X12356253Y-15267436D02*
X12346729Y-15276960D01*
X12346729Y-15276960D02*
X12327682Y-15286484D01*
X12327682Y-15286484D02*
X12308634Y-15286484D01*
X12308634Y-15286484D02*
X12289586Y-15276960D01*
X12289586Y-15276960D02*
X12280063Y-15267436D01*
X12280063Y-15267436D02*
X12270539Y-15248388D01*
X12270539Y-15248388D02*
X12261015Y-15210293D01*
X12261015Y-15210293D02*
X12261015Y-15162674D01*
X12261015Y-15162674D02*
X12270539Y-15124579D01*
X12270539Y-15124579D02*
X12280063Y-15105531D01*
X12280063Y-15105531D02*
X12289586Y-15096008D01*
X12289586Y-15096008D02*
X12308634Y-15086484D01*
X12461015Y-15267436D02*
X12470539Y-15276960D01*
X12470539Y-15276960D02*
X12461015Y-15286484D01*
X12461015Y-15286484D02*
X12451491Y-15276960D01*
X12451491Y-15276960D02*
X12461015Y-15267436D01*
X12461015Y-15267436D02*
X12461015Y-15286484D01*
X12594348Y-15086484D02*
X12613396Y-15086484D01*
X12613396Y-15086484D02*
X12632444Y-15096008D01*
X12632444Y-15096008D02*
X12641967Y-15105531D01*
X12641967Y-15105531D02*
X12651491Y-15124579D01*
X12651491Y-15124579D02*
X12661015Y-15162674D01*
X12661015Y-15162674D02*
X12661015Y-15210293D01*
X12661015Y-15210293D02*
X12651491Y-15248388D01*
X12651491Y-15248388D02*
X12641967Y-15267436D01*
X12641967Y-15267436D02*
X12632444Y-15276960D01*
X12632444Y-15276960D02*
X12613396Y-15286484D01*
X12613396Y-15286484D02*
X12594348Y-15286484D01*
X12594348Y-15286484D02*
X12575301Y-15276960D01*
X12575301Y-15276960D02*
X12565777Y-15267436D01*
X12565777Y-15267436D02*
X12556253Y-15248388D01*
X12556253Y-15248388D02*
X12546729Y-15210293D01*
X12546729Y-15210293D02*
X12546729Y-15162674D01*
X12546729Y-15162674D02*
X12556253Y-15124579D01*
X12556253Y-15124579D02*
X12565777Y-15105531D01*
X12565777Y-15105531D02*
X12575301Y-15096008D01*
X12575301Y-15096008D02*
X12594348Y-15086484D01*
X12775301Y-15172198D02*
X12756253Y-15162674D01*
X12756253Y-15162674D02*
X12746729Y-15153150D01*
X12746729Y-15153150D02*
X12737206Y-15134103D01*
X12737206Y-15134103D02*
X12737206Y-15124579D01*
X12737206Y-15124579D02*
X12746729Y-15105531D01*
X12746729Y-15105531D02*
X12756253Y-15096008D01*
X12756253Y-15096008D02*
X12775301Y-15086484D01*
X12775301Y-15086484D02*
X12813396Y-15086484D01*
X12813396Y-15086484D02*
X12832444Y-15096008D01*
X12832444Y-15096008D02*
X12841967Y-15105531D01*
X12841967Y-15105531D02*
X12851491Y-15124579D01*
X12851491Y-15124579D02*
X12851491Y-15134103D01*
X12851491Y-15134103D02*
X12841967Y-15153150D01*
X12841967Y-15153150D02*
X12832444Y-15162674D01*
X12832444Y-15162674D02*
X12813396Y-15172198D01*
X12813396Y-15172198D02*
X12775301Y-15172198D01*
X12775301Y-15172198D02*
X12756253Y-15181722D01*
X12756253Y-15181722D02*
X12746729Y-15191246D01*
X12746729Y-15191246D02*
X12737206Y-15210293D01*
X12737206Y-15210293D02*
X12737206Y-15248388D01*
X12737206Y-15248388D02*
X12746729Y-15267436D01*
X12746729Y-15267436D02*
X12756253Y-15276960D01*
X12756253Y-15276960D02*
X12775301Y-15286484D01*
X12775301Y-15286484D02*
X12813396Y-15286484D01*
X12813396Y-15286484D02*
X12832444Y-15276960D01*
X12832444Y-15276960D02*
X12841967Y-15267436D01*
X12841967Y-15267436D02*
X12851491Y-15248388D01*
X12851491Y-15248388D02*
X12851491Y-15210293D01*
X12851491Y-15210293D02*
X12841967Y-15191246D01*
X12841967Y-15191246D02*
X12832444Y-15181722D01*
X12832444Y-15181722D02*
X12813396Y-15172198D01*
X12927682Y-15105531D02*
X12937206Y-15096008D01*
X12937206Y-15096008D02*
X12956253Y-15086484D01*
X12956253Y-15086484D02*
X13003872Y-15086484D01*
X13003872Y-15086484D02*
X13022920Y-15096008D01*
X13022920Y-15096008D02*
X13032444Y-15105531D01*
X13032444Y-15105531D02*
X13041967Y-15124579D01*
X13041967Y-15124579D02*
X13041967Y-15143627D01*
X13041967Y-15143627D02*
X13032444Y-15172198D01*
X13032444Y-15172198D02*
X12918158Y-15286484D01*
X12918158Y-15286484D02*
X13041967Y-15286484D01*
X13108634Y-15086484D02*
X13241967Y-15086484D01*
X13241967Y-15086484D02*
X13156253Y-15286484D01*
X13308634Y-15086484D02*
X13308634Y-15124579D01*
X13384825Y-15086484D02*
X13384825Y-15124579D01*
X13680063Y-15362674D02*
X13670539Y-15353150D01*
X13670539Y-15353150D02*
X13651491Y-15324579D01*
X13651491Y-15324579D02*
X13641968Y-15305531D01*
X13641968Y-15305531D02*
X13632444Y-15276960D01*
X13632444Y-15276960D02*
X13622920Y-15229341D01*
X13622920Y-15229341D02*
X13622920Y-15191246D01*
X13622920Y-15191246D02*
X13632444Y-15143627D01*
X13632444Y-15143627D02*
X13641968Y-15115055D01*
X13641968Y-15115055D02*
X13651491Y-15096008D01*
X13651491Y-15096008D02*
X13670539Y-15067436D01*
X13670539Y-15067436D02*
X13680063Y-15057912D01*
X13746729Y-15105531D02*
X13756253Y-15096008D01*
X13756253Y-15096008D02*
X13775301Y-15086484D01*
X13775301Y-15086484D02*
X13822920Y-15086484D01*
X13822920Y-15086484D02*
X13841968Y-15096008D01*
X13841968Y-15096008D02*
X13851491Y-15105531D01*
X13851491Y-15105531D02*
X13861015Y-15124579D01*
X13861015Y-15124579D02*
X13861015Y-15143627D01*
X13861015Y-15143627D02*
X13851491Y-15172198D01*
X13851491Y-15172198D02*
X13737206Y-15286484D01*
X13737206Y-15286484D02*
X13861015Y-15286484D01*
X14099110Y-15286484D02*
X14099110Y-15086484D01*
X14184825Y-15286484D02*
X14184825Y-15181722D01*
X14184825Y-15181722D02*
X14175301Y-15162674D01*
X14175301Y-15162674D02*
X14156253Y-15153150D01*
X14156253Y-15153150D02*
X14127682Y-15153150D01*
X14127682Y-15153150D02*
X14108634Y-15162674D01*
X14108634Y-15162674D02*
X14099110Y-15172198D01*
X14308634Y-15286484D02*
X14289587Y-15276960D01*
X14289587Y-15276960D02*
X14280063Y-15267436D01*
X14280063Y-15267436D02*
X14270539Y-15248388D01*
X14270539Y-15248388D02*
X14270539Y-15191246D01*
X14270539Y-15191246D02*
X14280063Y-15172198D01*
X14280063Y-15172198D02*
X14289587Y-15162674D01*
X14289587Y-15162674D02*
X14308634Y-15153150D01*
X14308634Y-15153150D02*
X14337206Y-15153150D01*
X14337206Y-15153150D02*
X14356253Y-15162674D01*
X14356253Y-15162674D02*
X14365777Y-15172198D01*
X14365777Y-15172198D02*
X14375301Y-15191246D01*
X14375301Y-15191246D02*
X14375301Y-15248388D01*
X14375301Y-15248388D02*
X14365777Y-15267436D01*
X14365777Y-15267436D02*
X14356253Y-15276960D01*
X14356253Y-15276960D02*
X14337206Y-15286484D01*
X14337206Y-15286484D02*
X14308634Y-15286484D01*
X14489587Y-15286484D02*
X14470539Y-15276960D01*
X14470539Y-15276960D02*
X14461015Y-15257912D01*
X14461015Y-15257912D02*
X14461015Y-15086484D01*
X14641968Y-15276960D02*
X14622920Y-15286484D01*
X14622920Y-15286484D02*
X14584825Y-15286484D01*
X14584825Y-15286484D02*
X14565777Y-15276960D01*
X14565777Y-15276960D02*
X14556253Y-15257912D01*
X14556253Y-15257912D02*
X14556253Y-15181722D01*
X14556253Y-15181722D02*
X14565777Y-15162674D01*
X14565777Y-15162674D02*
X14584825Y-15153150D01*
X14584825Y-15153150D02*
X14622920Y-15153150D01*
X14622920Y-15153150D02*
X14641968Y-15162674D01*
X14641968Y-15162674D02*
X14651491Y-15181722D01*
X14651491Y-15181722D02*
X14651491Y-15200769D01*
X14651491Y-15200769D02*
X14556253Y-15219817D01*
X14727682Y-15276960D02*
X14746730Y-15286484D01*
X14746730Y-15286484D02*
X14784825Y-15286484D01*
X14784825Y-15286484D02*
X14803872Y-15276960D01*
X14803872Y-15276960D02*
X14813396Y-15257912D01*
X14813396Y-15257912D02*
X14813396Y-15248388D01*
X14813396Y-15248388D02*
X14803872Y-15229341D01*
X14803872Y-15229341D02*
X14784825Y-15219817D01*
X14784825Y-15219817D02*
X14756253Y-15219817D01*
X14756253Y-15219817D02*
X14737206Y-15210293D01*
X14737206Y-15210293D02*
X14727682Y-15191246D01*
X14727682Y-15191246D02*
X14727682Y-15181722D01*
X14727682Y-15181722D02*
X14737206Y-15162674D01*
X14737206Y-15162674D02*
X14756253Y-15153150D01*
X14756253Y-15153150D02*
X14784825Y-15153150D01*
X14784825Y-15153150D02*
X14803872Y-15162674D01*
X14880063Y-15362674D02*
X14889587Y-15353150D01*
X14889587Y-15353150D02*
X14908634Y-15324579D01*
X14908634Y-15324579D02*
X14918158Y-15305531D01*
X14918158Y-15305531D02*
X14927682Y-15276960D01*
X14927682Y-15276960D02*
X14937206Y-15229341D01*
X14937206Y-15229341D02*
X14937206Y-15191246D01*
X14937206Y-15191246D02*
X14927682Y-15143627D01*
X14927682Y-15143627D02*
X14918158Y-15115055D01*
X14918158Y-15115055D02*
X14908634Y-15096008D01*
X14908634Y-15096008D02*
X14889587Y-15067436D01*
X14889587Y-15067436D02*
X14880063Y-15057912D01*
X10005000Y-15615000D02*
X10105000Y-15515000D01*
X10005000Y-15415000D01*
X9905000Y-15515000D01*
X10005000Y-15615000D01*
X10105000Y-15515000D02*
G75*
G03*
X10105000Y-15515000I-100000J0D01*
G01*
X10346729Y-15406484D02*
X10470539Y-15406484D01*
X10470539Y-15406484D02*
X10403872Y-15482674D01*
X10403872Y-15482674D02*
X10432444Y-15482674D01*
X10432444Y-15482674D02*
X10451491Y-15492198D01*
X10451491Y-15492198D02*
X10461015Y-15501722D01*
X10461015Y-15501722D02*
X10470539Y-15520769D01*
X10470539Y-15520769D02*
X10470539Y-15568388D01*
X10470539Y-15568388D02*
X10461015Y-15587436D01*
X10461015Y-15587436D02*
X10451491Y-15596960D01*
X10451491Y-15596960D02*
X10432444Y-15606484D01*
X10432444Y-15606484D02*
X10375301Y-15606484D01*
X10375301Y-15606484D02*
X10356253Y-15596960D01*
X10356253Y-15596960D02*
X10346729Y-15587436D01*
X10556253Y-15587436D02*
X10565777Y-15596960D01*
X10565777Y-15596960D02*
X10556253Y-15606484D01*
X10556253Y-15606484D02*
X10546729Y-15596960D01*
X10546729Y-15596960D02*
X10556253Y-15587436D01*
X10556253Y-15587436D02*
X10556253Y-15606484D01*
X10689586Y-15406484D02*
X10708634Y-15406484D01*
X10708634Y-15406484D02*
X10727682Y-15416008D01*
X10727682Y-15416008D02*
X10737205Y-15425531D01*
X10737205Y-15425531D02*
X10746729Y-15444579D01*
X10746729Y-15444579D02*
X10756253Y-15482674D01*
X10756253Y-15482674D02*
X10756253Y-15530293D01*
X10756253Y-15530293D02*
X10746729Y-15568388D01*
X10746729Y-15568388D02*
X10737205Y-15587436D01*
X10737205Y-15587436D02*
X10727682Y-15596960D01*
X10727682Y-15596960D02*
X10708634Y-15606484D01*
X10708634Y-15606484D02*
X10689586Y-15606484D01*
X10689586Y-15606484D02*
X10670539Y-15596960D01*
X10670539Y-15596960D02*
X10661015Y-15587436D01*
X10661015Y-15587436D02*
X10651491Y-15568388D01*
X10651491Y-15568388D02*
X10641967Y-15530293D01*
X10641967Y-15530293D02*
X10641967Y-15482674D01*
X10641967Y-15482674D02*
X10651491Y-15444579D01*
X10651491Y-15444579D02*
X10661015Y-15425531D01*
X10661015Y-15425531D02*
X10670539Y-15416008D01*
X10670539Y-15416008D02*
X10689586Y-15406484D01*
X10880063Y-15406484D02*
X10899110Y-15406484D01*
X10899110Y-15406484D02*
X10918158Y-15416008D01*
X10918158Y-15416008D02*
X10927682Y-15425531D01*
X10927682Y-15425531D02*
X10937205Y-15444579D01*
X10937205Y-15444579D02*
X10946729Y-15482674D01*
X10946729Y-15482674D02*
X10946729Y-15530293D01*
X10946729Y-15530293D02*
X10937205Y-15568388D01*
X10937205Y-15568388D02*
X10927682Y-15587436D01*
X10927682Y-15587436D02*
X10918158Y-15596960D01*
X10918158Y-15596960D02*
X10899110Y-15606484D01*
X10899110Y-15606484D02*
X10880063Y-15606484D01*
X10880063Y-15606484D02*
X10861015Y-15596960D01*
X10861015Y-15596960D02*
X10851491Y-15587436D01*
X10851491Y-15587436D02*
X10841967Y-15568388D01*
X10841967Y-15568388D02*
X10832444Y-15530293D01*
X10832444Y-15530293D02*
X10832444Y-15482674D01*
X10832444Y-15482674D02*
X10841967Y-15444579D01*
X10841967Y-15444579D02*
X10851491Y-15425531D01*
X10851491Y-15425531D02*
X10861015Y-15416008D01*
X10861015Y-15416008D02*
X10880063Y-15406484D01*
X11070539Y-15406484D02*
X11089586Y-15406484D01*
X11089586Y-15406484D02*
X11108634Y-15416008D01*
X11108634Y-15416008D02*
X11118158Y-15425531D01*
X11118158Y-15425531D02*
X11127682Y-15444579D01*
X11127682Y-15444579D02*
X11137205Y-15482674D01*
X11137205Y-15482674D02*
X11137205Y-15530293D01*
X11137205Y-15530293D02*
X11127682Y-15568388D01*
X11127682Y-15568388D02*
X11118158Y-15587436D01*
X11118158Y-15587436D02*
X11108634Y-15596960D01*
X11108634Y-15596960D02*
X11089586Y-15606484D01*
X11089586Y-15606484D02*
X11070539Y-15606484D01*
X11070539Y-15606484D02*
X11051491Y-15596960D01*
X11051491Y-15596960D02*
X11041967Y-15587436D01*
X11041967Y-15587436D02*
X11032444Y-15568388D01*
X11032444Y-15568388D02*
X11022920Y-15530293D01*
X11022920Y-15530293D02*
X11022920Y-15482674D01*
X11022920Y-15482674D02*
X11032444Y-15444579D01*
X11032444Y-15444579D02*
X11041967Y-15425531D01*
X11041967Y-15425531D02*
X11051491Y-15416008D01*
X11051491Y-15416008D02*
X11070539Y-15406484D01*
X11222920Y-15606484D02*
X11222920Y-15473150D01*
X11222920Y-15492198D02*
X11232443Y-15482674D01*
X11232443Y-15482674D02*
X11251491Y-15473150D01*
X11251491Y-15473150D02*
X11280063Y-15473150D01*
X11280063Y-15473150D02*
X11299110Y-15482674D01*
X11299110Y-15482674D02*
X11308634Y-15501722D01*
X11308634Y-15501722D02*
X11308634Y-15606484D01*
X11308634Y-15501722D02*
X11318158Y-15482674D01*
X11318158Y-15482674D02*
X11337205Y-15473150D01*
X11337205Y-15473150D02*
X11365777Y-15473150D01*
X11365777Y-15473150D02*
X11384824Y-15482674D01*
X11384824Y-15482674D02*
X11394348Y-15501722D01*
X11394348Y-15501722D02*
X11394348Y-15606484D01*
X11489586Y-15606484D02*
X11489586Y-15473150D01*
X11489586Y-15492198D02*
X11499110Y-15482674D01*
X11499110Y-15482674D02*
X11518158Y-15473150D01*
X11518158Y-15473150D02*
X11546729Y-15473150D01*
X11546729Y-15473150D02*
X11565777Y-15482674D01*
X11565777Y-15482674D02*
X11575301Y-15501722D01*
X11575301Y-15501722D02*
X11575301Y-15606484D01*
X11575301Y-15501722D02*
X11584824Y-15482674D01*
X11584824Y-15482674D02*
X11603872Y-15473150D01*
X11603872Y-15473150D02*
X11632443Y-15473150D01*
X11632443Y-15473150D02*
X11651491Y-15482674D01*
X11651491Y-15482674D02*
X11661015Y-15501722D01*
X11661015Y-15501722D02*
X11661015Y-15606484D01*
X12051491Y-15396960D02*
X11880063Y-15654103D01*
X12308634Y-15406484D02*
X12327682Y-15406484D01*
X12327682Y-15406484D02*
X12346729Y-15416008D01*
X12346729Y-15416008D02*
X12356253Y-15425531D01*
X12356253Y-15425531D02*
X12365777Y-15444579D01*
X12365777Y-15444579D02*
X12375301Y-15482674D01*
X12375301Y-15482674D02*
X12375301Y-15530293D01*
X12375301Y-15530293D02*
X12365777Y-15568388D01*
X12365777Y-15568388D02*
X12356253Y-15587436D01*
X12356253Y-15587436D02*
X12346729Y-15596960D01*
X12346729Y-15596960D02*
X12327682Y-15606484D01*
X12327682Y-15606484D02*
X12308634Y-15606484D01*
X12308634Y-15606484D02*
X12289586Y-15596960D01*
X12289586Y-15596960D02*
X12280063Y-15587436D01*
X12280063Y-15587436D02*
X12270539Y-15568388D01*
X12270539Y-15568388D02*
X12261015Y-15530293D01*
X12261015Y-15530293D02*
X12261015Y-15482674D01*
X12261015Y-15482674D02*
X12270539Y-15444579D01*
X12270539Y-15444579D02*
X12280063Y-15425531D01*
X12280063Y-15425531D02*
X12289586Y-15416008D01*
X12289586Y-15416008D02*
X12308634Y-15406484D01*
X12461015Y-15587436D02*
X12470539Y-15596960D01*
X12470539Y-15596960D02*
X12461015Y-15606484D01*
X12461015Y-15606484D02*
X12451491Y-15596960D01*
X12451491Y-15596960D02*
X12461015Y-15587436D01*
X12461015Y-15587436D02*
X12461015Y-15606484D01*
X12661015Y-15606484D02*
X12546729Y-15606484D01*
X12603872Y-15606484D02*
X12603872Y-15406484D01*
X12603872Y-15406484D02*
X12584825Y-15435055D01*
X12584825Y-15435055D02*
X12565777Y-15454103D01*
X12565777Y-15454103D02*
X12546729Y-15463627D01*
X12851491Y-15606484D02*
X12737206Y-15606484D01*
X12794348Y-15606484D02*
X12794348Y-15406484D01*
X12794348Y-15406484D02*
X12775301Y-15435055D01*
X12775301Y-15435055D02*
X12756253Y-15454103D01*
X12756253Y-15454103D02*
X12737206Y-15463627D01*
X12965777Y-15492198D02*
X12946729Y-15482674D01*
X12946729Y-15482674D02*
X12937206Y-15473150D01*
X12937206Y-15473150D02*
X12927682Y-15454103D01*
X12927682Y-15454103D02*
X12927682Y-15444579D01*
X12927682Y-15444579D02*
X12937206Y-15425531D01*
X12937206Y-15425531D02*
X12946729Y-15416008D01*
X12946729Y-15416008D02*
X12965777Y-15406484D01*
X12965777Y-15406484D02*
X13003872Y-15406484D01*
X13003872Y-15406484D02*
X13022920Y-15416008D01*
X13022920Y-15416008D02*
X13032444Y-15425531D01*
X13032444Y-15425531D02*
X13041967Y-15444579D01*
X13041967Y-15444579D02*
X13041967Y-15454103D01*
X13041967Y-15454103D02*
X13032444Y-15473150D01*
X13032444Y-15473150D02*
X13022920Y-15482674D01*
X13022920Y-15482674D02*
X13003872Y-15492198D01*
X13003872Y-15492198D02*
X12965777Y-15492198D01*
X12965777Y-15492198D02*
X12946729Y-15501722D01*
X12946729Y-15501722D02*
X12937206Y-15511246D01*
X12937206Y-15511246D02*
X12927682Y-15530293D01*
X12927682Y-15530293D02*
X12927682Y-15568388D01*
X12927682Y-15568388D02*
X12937206Y-15587436D01*
X12937206Y-15587436D02*
X12946729Y-15596960D01*
X12946729Y-15596960D02*
X12965777Y-15606484D01*
X12965777Y-15606484D02*
X13003872Y-15606484D01*
X13003872Y-15606484D02*
X13022920Y-15596960D01*
X13022920Y-15596960D02*
X13032444Y-15587436D01*
X13032444Y-15587436D02*
X13041967Y-15568388D01*
X13041967Y-15568388D02*
X13041967Y-15530293D01*
X13041967Y-15530293D02*
X13032444Y-15511246D01*
X13032444Y-15511246D02*
X13022920Y-15501722D01*
X13022920Y-15501722D02*
X13003872Y-15492198D01*
X13232444Y-15606484D02*
X13118158Y-15606484D01*
X13175301Y-15606484D02*
X13175301Y-15406484D01*
X13175301Y-15406484D02*
X13156253Y-15435055D01*
X13156253Y-15435055D02*
X13137206Y-15454103D01*
X13137206Y-15454103D02*
X13118158Y-15463627D01*
X13308634Y-15406484D02*
X13308634Y-15444579D01*
X13384825Y-15406484D02*
X13384825Y-15444579D01*
X13680063Y-15682674D02*
X13670539Y-15673150D01*
X13670539Y-15673150D02*
X13651491Y-15644579D01*
X13651491Y-15644579D02*
X13641968Y-15625531D01*
X13641968Y-15625531D02*
X13632444Y-15596960D01*
X13632444Y-15596960D02*
X13622920Y-15549341D01*
X13622920Y-15549341D02*
X13622920Y-15511246D01*
X13622920Y-15511246D02*
X13632444Y-15463627D01*
X13632444Y-15463627D02*
X13641968Y-15435055D01*
X13641968Y-15435055D02*
X13651491Y-15416008D01*
X13651491Y-15416008D02*
X13670539Y-15387436D01*
X13670539Y-15387436D02*
X13680063Y-15377912D01*
X13737206Y-15406484D02*
X13870539Y-15406484D01*
X13870539Y-15406484D02*
X13784825Y-15606484D01*
X14099110Y-15606484D02*
X14099110Y-15406484D01*
X14184825Y-15606484D02*
X14184825Y-15501722D01*
X14184825Y-15501722D02*
X14175301Y-15482674D01*
X14175301Y-15482674D02*
X14156253Y-15473150D01*
X14156253Y-15473150D02*
X14127682Y-15473150D01*
X14127682Y-15473150D02*
X14108634Y-15482674D01*
X14108634Y-15482674D02*
X14099110Y-15492198D01*
X14308634Y-15606484D02*
X14289587Y-15596960D01*
X14289587Y-15596960D02*
X14280063Y-15587436D01*
X14280063Y-15587436D02*
X14270539Y-15568388D01*
X14270539Y-15568388D02*
X14270539Y-15511246D01*
X14270539Y-15511246D02*
X14280063Y-15492198D01*
X14280063Y-15492198D02*
X14289587Y-15482674D01*
X14289587Y-15482674D02*
X14308634Y-15473150D01*
X14308634Y-15473150D02*
X14337206Y-15473150D01*
X14337206Y-15473150D02*
X14356253Y-15482674D01*
X14356253Y-15482674D02*
X14365777Y-15492198D01*
X14365777Y-15492198D02*
X14375301Y-15511246D01*
X14375301Y-15511246D02*
X14375301Y-15568388D01*
X14375301Y-15568388D02*
X14365777Y-15587436D01*
X14365777Y-15587436D02*
X14356253Y-15596960D01*
X14356253Y-15596960D02*
X14337206Y-15606484D01*
X14337206Y-15606484D02*
X14308634Y-15606484D01*
X14489587Y-15606484D02*
X14470539Y-15596960D01*
X14470539Y-15596960D02*
X14461015Y-15577912D01*
X14461015Y-15577912D02*
X14461015Y-15406484D01*
X14641968Y-15596960D02*
X14622920Y-15606484D01*
X14622920Y-15606484D02*
X14584825Y-15606484D01*
X14584825Y-15606484D02*
X14565777Y-15596960D01*
X14565777Y-15596960D02*
X14556253Y-15577912D01*
X14556253Y-15577912D02*
X14556253Y-15501722D01*
X14556253Y-15501722D02*
X14565777Y-15482674D01*
X14565777Y-15482674D02*
X14584825Y-15473150D01*
X14584825Y-15473150D02*
X14622920Y-15473150D01*
X14622920Y-15473150D02*
X14641968Y-15482674D01*
X14641968Y-15482674D02*
X14651491Y-15501722D01*
X14651491Y-15501722D02*
X14651491Y-15520769D01*
X14651491Y-15520769D02*
X14556253Y-15539817D01*
X14727682Y-15596960D02*
X14746730Y-15606484D01*
X14746730Y-15606484D02*
X14784825Y-15606484D01*
X14784825Y-15606484D02*
X14803872Y-15596960D01*
X14803872Y-15596960D02*
X14813396Y-15577912D01*
X14813396Y-15577912D02*
X14813396Y-15568388D01*
X14813396Y-15568388D02*
X14803872Y-15549341D01*
X14803872Y-15549341D02*
X14784825Y-15539817D01*
X14784825Y-15539817D02*
X14756253Y-15539817D01*
X14756253Y-15539817D02*
X14737206Y-15530293D01*
X14737206Y-15530293D02*
X14727682Y-15511246D01*
X14727682Y-15511246D02*
X14727682Y-15501722D01*
X14727682Y-15501722D02*
X14737206Y-15482674D01*
X14737206Y-15482674D02*
X14756253Y-15473150D01*
X14756253Y-15473150D02*
X14784825Y-15473150D01*
X14784825Y-15473150D02*
X14803872Y-15482674D01*
X14880063Y-15682674D02*
X14889587Y-15673150D01*
X14889587Y-15673150D02*
X14908634Y-15644579D01*
X14908634Y-15644579D02*
X14918158Y-15625531D01*
X14918158Y-15625531D02*
X14927682Y-15596960D01*
X14927682Y-15596960D02*
X14937206Y-15549341D01*
X14937206Y-15549341D02*
X14937206Y-15511246D01*
X14937206Y-15511246D02*
X14927682Y-15463627D01*
X14927682Y-15463627D02*
X14918158Y-15435055D01*
X14918158Y-15435055D02*
X14908634Y-15416008D01*
X14908634Y-15416008D02*
X14889587Y-15387436D01*
X14889587Y-15387436D02*
X14880063Y-15377912D01*
M02*
