M48
; DRILL file {KiCad 7.0.7} date Sun Jun 30 20:56:48 2024
; FORMAT={-:-/ absolute / metric / decimal}
; #@! TF.CreationDate,2024-06-30T20:56:48+03:00
; #@! TF.GenerationSoftware,Kicad,Pcbnew,7.0.7
; #@! TF.FileFunction,Plated,1,4,PTH
FMAT,2
METRIC
; #@! TA.AperFunction,Plated,PTH,ViaDrill
T1C0.300
; #@! TA.AperFunction,Plated,PTH,ViaDrill
T2C0.400
; #@! TA.AperFunction,Plated,PTH,ComponentDrill
T3C0.500
; #@! TA.AperFunction,Plated,PTH,ComponentDrill
T4C0.550
; #@! TA.AperFunction,Plated,PTH,ComponentDrill
T5C0.700
; #@! TA.AperFunction,Plated,PTH,ComponentDrill
T6C0.800
; #@! TA.AperFunction,Plated,PTH,ComponentDrill
T7C0.850
; #@! TA.AperFunction,Plated,PTH,ComponentDrill
T8C0.900
; #@! TA.AperFunction,Plated,PTH,ComponentDrill
T9C1.000
; #@! TA.AperFunction,Plated,PTH,ComponentDrill
T10C1.200
; #@! TA.AperFunction,Plated,PTH,ComponentDrill
T11C2.100
; #@! TA.AperFunction,Plated,PTH,ComponentDrill
T12C3.000
%
G90
G05
T1
X126.263Y-49.073
X127.33Y-64.973
X128.321Y-66.675
X132.309Y-80.086
X134.899Y-82.702
X135.128Y-50.546
X138.151Y-80.797
X138.473Y-111.87
X139.09Y-112.878
X139.675Y-89.052
X140.233Y-81.61
X143.2Y-62.4
X144.5Y-63.1
X145.46Y-74.714
X148.641Y-85.776
X149.504Y-88.443
X150.19Y-97.003
X152.705Y-78.08
X153.822Y-77.724
X156.591Y-86.614
X160.085Y-102.018
X164.671Y-87.912
X166.243Y-65.862
X166.319Y-103.353
X167.97Y-55.982
X172.72Y-96.266
X173.025Y-62.052
X173.05Y-61.189
X173.685Y-62.662
X174.092Y-61.722
X174.346Y-100.406
X175.082Y-62.662
X176.2Y-54.077
T2
X119.5Y-54.6
X128.803Y-70.663
X129.794Y-95.504
X130.81Y-111.76
X130.912Y-52.857
X130.937Y-50.444
X131.064Y-115.316
X131.318Y-73.914
X131.826Y-106.426
X132.195Y-72.021
X132.588Y-76.454
X133.426Y-72.187
X136.144Y-75.438
X136.652Y-66.294
X137.16Y-74.207
X138.21Y-70.848
X138.43Y-106.426
X138.9Y-68.8
X141.224Y-70.612
X141.3Y-66.3
X141.4Y-63.0
X141.697Y-83.277
X141.868Y-85.226
X141.986Y-106.426
X142.084Y-71.262
X142.748Y-96.012
X143.256Y-72.644
X143.6Y-70.4
X144.662Y-82.432
X145.034Y-84.582
X145.542Y-66.294
X145.542Y-69.596
X145.542Y-98.044
X147.32Y-81.026
X147.4Y-57.5
X147.574Y-83.566
X147.6Y-71.0
X147.828Y-86.36
X148.577Y-81.225
X148.577Y-83.281
X148.7Y-71.0
X150.114Y-84.074
X151.284Y-98.552
X154.106Y-91.876
X154.94Y-81.28
X155.448Y-102.108
X159.131Y-92.71
X161.544Y-73.406
X162.001Y-92.761
X163.121Y-102.161
X164.338Y-53.086
X167.2Y-58.7
X177.19Y-103.911
X178.918Y-103.962
T3
X130.028Y-81.728
X131.372Y-83.072
T5
X115.0Y-112.18
X115.0Y-114.72
X124.0Y-112.18
X124.0Y-114.72
X158.038Y-91.44
X160.578Y-91.44
X160.783Y-111.454
X162.579Y-109.658
X176.992Y-77.343
X179.532Y-77.343
T6
X111.603Y-63.089
X114.143Y-63.089
X116.683Y-63.089
X119.224Y-63.089
T8
X170.267Y-77.191
X172.807Y-77.191
T9
X116.679Y-69.943
X118.475Y-71.739
X120.271Y-73.535
X122.067Y-75.331
X127.825Y-62.1
X130.365Y-62.1
X150.543Y-64.133
X152.339Y-65.929
X153.032Y-60.322
X154.828Y-62.118
X156.624Y-63.914
X158.42Y-65.71
X158.75Y-70.871
X158.75Y-73.411
X161.902Y-78.666
X163.322Y-80.772
X164.742Y-82.878
X179.804Y-57.004
X181.6Y-58.8
T10
X113.36Y-83.773
X113.36Y-88.773
T11
X113.5Y-51.1
X113.5Y-56.9
T12
X110.49Y-71.882
X119.05Y-100.838
X123.444Y-95.25
X134.8Y-61.6
X150.2Y-109.5
X171.196Y-109.22
X179.07Y-84.328
T4
X167.877Y-47.882G85X167.877Y-47.232
G05
X173.527Y-47.882G85X173.527Y-47.232
G05
T7
X166.968Y-50.632G85X166.968Y-50.082
G05
X174.418Y-50.632G85X174.418Y-50.082
G05
T0
M30
