M48
; DRILL file {KiCad 7.0.2} date Wed Aug  2 19:16:20 2023
; FORMAT={-:-/ absolute / metric / decimal}
; #@! TF.CreationDate,2023-08-02T19:16:20+03:00
; #@! TF.GenerationSoftware,Kicad,Pcbnew,7.0.2
; #@! TF.FileFunction,Plated,1,4,PTH
FMAT,2
METRIC
; #@! TA.AperFunction,Plated,PTH,ViaDrill
T1C0.300
; #@! TA.AperFunction,Plated,PTH,ViaDrill
T2C0.400
; #@! TA.AperFunction,Plated,PTH,ComponentDrill
T3C0.550
; #@! TA.AperFunction,Plated,PTH,ComponentDrill
T4C0.650
; #@! TA.AperFunction,Plated,PTH,ComponentDrill
T5C0.700
; #@! TA.AperFunction,Plated,PTH,ComponentDrill
T6C0.800
; #@! TA.AperFunction,Plated,PTH,ComponentDrill
T7C0.850
; #@! TA.AperFunction,Plated,PTH,ComponentDrill
T8C0.900
; #@! TA.AperFunction,Plated,PTH,ComponentDrill
T9C1.000
; #@! TA.AperFunction,Plated,PTH,ComponentDrill
T10C1.200
; #@! TA.AperFunction,Plated,PTH,ComponentDrill
T11C2.100
%
G90
G05
T1
X127.33Y-64.973
X128.321Y-66.675
X130.759Y-69.19
X131.674Y-75.514
X132.309Y-80.086
X132.867Y-49.581
X134.899Y-82.702
X138.151Y-80.797
X138.473Y-111.87
X139.09Y-112.878
X139.675Y-89.052
X140.233Y-81.61
X141.102Y-72.341
X141.249Y-70.231
X141.351Y-73.965
X141.707Y-71.005
X141.732Y-51.054
X142.187Y-71.766
X144.424Y-64.491
X145.034Y-72.898
X145.164Y-65.003
X145.626Y-65.774
X146.634Y-65.303
X147.549Y-69.799
X148.565Y-69.825
X148.641Y-85.776
X148.768Y-65.888
X149.504Y-88.443
X150.19Y-97.003
X151.028Y-57.912
X152.705Y-78.08
X153.123Y-75.794
X153.822Y-77.724
X154.737Y-75.819
X156.693Y-86.157
X161.468Y-98.527
X161.95Y-75.819
X162.851Y-82.487
X164.566Y-92.279
X166.243Y-65.862
X167.12Y-100.9
X167.97Y-55.982
X170.205Y-98.908
X171.707Y-86.795
X173.025Y-62.052
X173.05Y-61.189
X173.355Y-102.235
X173.685Y-62.662
X174.092Y-61.722
X175.082Y-62.662
X176.2Y-54.077
X179.756Y-95.148
X180.924Y-83.744
X181.381Y-99.289
T2
X114.554Y-74.422
X125.222Y-76.2
X128.803Y-70.663
X129.794Y-95.504
X130.81Y-111.76
X131.064Y-73.965
X131.064Y-115.316
X131.826Y-106.426
X133.426Y-72.187
X135.103Y-68.732
X137.084Y-67.005
X137.516Y-53.365
X137.541Y-50.952
X138.43Y-106.426
X141.224Y-88.138
X141.697Y-83.277
X141.868Y-85.226
X141.986Y-106.426
X142.748Y-96.012
X144.987Y-75.391
X145.034Y-84.582
X145.31Y-81.536
X145.542Y-98.044
X147.066Y-84.074
X147.574Y-77.978
X147.574Y-81.026
X148.59Y-76.454
X151.384Y-68.58
X161.544Y-73.406
X164.084Y-104.394
X164.592Y-51.562
X184.226Y-102.794
X185.953Y-102.845
T4
X137.734Y-64.033
X139.004Y-64.033
X150.543Y-64.133
X151.441Y-65.031
X158.852Y-70.551
X158.852Y-71.821
T5
X107.746Y-73.66
X110.286Y-73.66
X112.751Y-112.343
X112.751Y-114.883
X120.675Y-112.343
X120.675Y-114.883
X155.931Y-83.744
X158.471Y-83.744
X167.819Y-110.337
X169.615Y-108.541
X176.992Y-77.343
X179.532Y-77.343
T6
X118.063Y-65.045
X118.063Y-67.585
X118.063Y-70.125
X118.063Y-72.665
X127.681Y-79.649
X131.131Y-83.1
X131.191Y-55.388
X131.191Y-57.388
X147.168Y-55.347
X147.168Y-57.347
X159.004Y-56.912
X159.004Y-58.912
T8
X170.267Y-77.191
X172.807Y-77.191
T9
X130.307Y-64.079
X132.103Y-62.283
X133.899Y-60.487
X135.696Y-58.691
X153.032Y-60.322
X154.828Y-62.118
X156.624Y-63.914
X158.42Y-65.71
X181.383Y-69.522
X182.804Y-71.628
X184.224Y-73.734
T10
X113.36Y-83.773
X113.36Y-88.773
T11
X122.428Y-51.435
X122.428Y-58.42
T3
X168.258Y-46.079G85X168.258Y-45.429
G05
X173.908Y-46.079G85X173.908Y-45.429
G05
T7
X167.349Y-48.829G85X167.349Y-48.279
G05
X174.799Y-48.829G85X174.799Y-48.279
G05
T0
M30
