%TF.GenerationSoftware,KiCad,Pcbnew,7.0.2*%
%TF.CreationDate,2023-08-02T19:16:16+03:00*%
%TF.ProjectId,picoballoon,7069636f-6261-46c6-9c6f-6f6e2e6b6963,rev?*%
%TF.SameCoordinates,Original*%
%TF.FileFunction,Paste,Top*%
%TF.FilePolarity,Positive*%
%FSLAX46Y46*%
G04 Gerber Fmt 4.6, Leading zero omitted, Abs format (unit mm)*
G04 Created by KiCad (PCBNEW 7.0.2) date 2023-08-02 19:16:16*
%MOMM*%
%LPD*%
G01*
G04 APERTURE LIST*
G04 Aperture macros list*
%AMRoundRect*
0 Rectangle with rounded corners*
0 $1 Rounding radius*
0 $2 $3 $4 $5 $6 $7 $8 $9 X,Y pos of 4 corners*
0 Add a 4 corners polygon primitive as box body*
4,1,4,$2,$3,$4,$5,$6,$7,$8,$9,$2,$3,0*
0 Add four circle primitives for the rounded corners*
1,1,$1+$1,$2,$3*
1,1,$1+$1,$4,$5*
1,1,$1+$1,$6,$7*
1,1,$1+$1,$8,$9*
0 Add four rect primitives between the rounded corners*
20,1,$1+$1,$2,$3,$4,$5,0*
20,1,$1+$1,$4,$5,$6,$7,0*
20,1,$1+$1,$6,$7,$8,$9,0*
20,1,$1+$1,$8,$9,$2,$3,0*%
G04 Aperture macros list end*
%ADD10R,1.500000X2.000000*%
%ADD11RoundRect,0.112500X0.187500X0.112500X-0.187500X0.112500X-0.187500X-0.112500X0.187500X-0.112500X0*%
%ADD12RoundRect,0.225000X0.250000X-0.225000X0.250000X0.225000X-0.250000X0.225000X-0.250000X-0.225000X0*%
%ADD13RoundRect,0.225000X0.335876X0.017678X0.017678X0.335876X-0.335876X-0.017678X-0.017678X-0.335876X0*%
%ADD14RoundRect,0.200000X0.275000X-0.200000X0.275000X0.200000X-0.275000X0.200000X-0.275000X-0.200000X0*%
%ADD15RoundRect,0.075000X-0.700000X-0.075000X0.700000X-0.075000X0.700000X0.075000X-0.700000X0.075000X0*%
%ADD16RoundRect,0.075000X-0.075000X-0.700000X0.075000X-0.700000X0.075000X0.700000X-0.075000X0.700000X0*%
%ADD17RoundRect,0.250000X-0.312500X-1.075000X0.312500X-1.075000X0.312500X1.075000X-0.312500X1.075000X0*%
%ADD18RoundRect,0.225000X0.225000X0.250000X-0.225000X0.250000X-0.225000X-0.250000X0.225000X-0.250000X0*%
%ADD19RoundRect,0.225000X-0.375000X0.225000X-0.375000X-0.225000X0.375000X-0.225000X0.375000X0.225000X0*%
%ADD20RoundRect,0.200000X-0.200000X-0.275000X0.200000X-0.275000X0.200000X0.275000X-0.200000X0.275000X0*%
%ADD21R,0.800000X0.900000*%
%ADD22RoundRect,0.250000X0.312500X1.075000X-0.312500X1.075000X-0.312500X-1.075000X0.312500X-1.075000X0*%
%ADD23RoundRect,0.225000X-0.225000X-0.375000X0.225000X-0.375000X0.225000X0.375000X-0.225000X0.375000X0*%
%ADD24RoundRect,0.200000X-0.275000X0.200000X-0.275000X-0.200000X0.275000X-0.200000X0.275000X0.200000X0*%
%ADD25RoundRect,0.225000X-0.225000X-0.250000X0.225000X-0.250000X0.225000X0.250000X-0.225000X0.250000X0*%
%ADD26RoundRect,0.112500X-0.112500X0.187500X-0.112500X-0.187500X0.112500X-0.187500X0.112500X0.187500X0*%
%ADD27RoundRect,0.218750X-0.218750X-0.256250X0.218750X-0.256250X0.218750X0.256250X-0.218750X0.256250X0*%
%ADD28R,0.450000X1.300000*%
%ADD29R,0.510000X0.400000*%
%ADD30RoundRect,0.218750X0.256250X-0.218750X0.256250X0.218750X-0.256250X0.218750X-0.256250X-0.218750X0*%
%ADD31RoundRect,0.200000X-0.700000X-0.200000X0.700000X-0.200000X0.700000X0.200000X-0.700000X0.200000X0*%
%ADD32RoundRect,0.225000X0.225000X0.375000X-0.225000X0.375000X-0.225000X-0.375000X0.225000X-0.375000X0*%
%ADD33RoundRect,0.250001X0.462499X0.624999X-0.462499X0.624999X-0.462499X-0.624999X0.462499X-0.624999X0*%
%ADD34RoundRect,0.100000X-0.637500X-0.100000X0.637500X-0.100000X0.637500X0.100000X-0.637500X0.100000X0*%
%ADD35RoundRect,0.250000X-0.312500X-0.625000X0.312500X-0.625000X0.312500X0.625000X-0.312500X0.625000X0*%
%ADD36R,3.800000X2.000000*%
%ADD37R,0.900000X0.800000*%
%ADD38R,1.400000X3.000000*%
%ADD39R,0.400000X0.510000*%
%ADD40RoundRect,0.250000X-0.751301X1.263953X-1.263953X0.751301X0.751301X-1.263953X1.263953X-0.751301X0*%
%ADD41R,1.560000X0.650000*%
%ADD42RoundRect,0.250000X-0.625000X0.312500X-0.625000X-0.312500X0.625000X-0.312500X0.625000X0.312500X0*%
G04 APERTURE END LIST*
D10*
%TO.C,U7*%
X129906000Y-108838000D03*
X131906000Y-108838000D03*
X133906000Y-108838000D03*
X135906000Y-108838000D03*
X137906000Y-108838000D03*
X139906000Y-108838000D03*
X141906000Y-108838000D03*
X143906000Y-108838000D03*
X143906000Y-92838000D03*
X141906000Y-92838000D03*
X139906000Y-92838000D03*
X137906000Y-92838000D03*
X135906000Y-92838000D03*
X133906000Y-92838000D03*
X131906000Y-92838000D03*
X129906000Y-92838000D03*
%TD*%
D11*
%TO.C,D6*%
X154567600Y-94030800D03*
X152467600Y-94030800D03*
%TD*%
D12*
%TO.C,C22*%
X156591000Y-89370200D03*
X156591000Y-87820200D03*
%TD*%
D13*
%TO.C,C15*%
X139079608Y-79846808D03*
X137983592Y-78750792D03*
%TD*%
D14*
%TO.C,R16*%
X125653800Y-66585600D03*
X125653800Y-64935600D03*
%TD*%
D15*
%TO.C,U4*%
X139638400Y-69960800D03*
X139638400Y-70460800D03*
X139638400Y-70960800D03*
X139638400Y-71460800D03*
X139638400Y-71960800D03*
X139638400Y-72460800D03*
X139638400Y-72960800D03*
X139638400Y-73460800D03*
X139638400Y-73960800D03*
X139638400Y-74460800D03*
X139638400Y-74960800D03*
X139638400Y-75460800D03*
X139638400Y-75960800D03*
X139638400Y-76460800D03*
X139638400Y-76960800D03*
X139638400Y-77460800D03*
D16*
X141563400Y-79385800D03*
X142063400Y-79385800D03*
X142563400Y-79385800D03*
X143063400Y-79385800D03*
X143563400Y-79385800D03*
X144063400Y-79385800D03*
X144563400Y-79385800D03*
X145063400Y-79385800D03*
X145563400Y-79385800D03*
X146063400Y-79385800D03*
X146563400Y-79385800D03*
X147063400Y-79385800D03*
X147563400Y-79385800D03*
X148063400Y-79385800D03*
X148563400Y-79385800D03*
X149063400Y-79385800D03*
D15*
X150988400Y-77460800D03*
X150988400Y-76960800D03*
X150988400Y-76460800D03*
X150988400Y-75960800D03*
X150988400Y-75460800D03*
X150988400Y-74960800D03*
X150988400Y-74460800D03*
X150988400Y-73960800D03*
X150988400Y-73460800D03*
X150988400Y-72960800D03*
X150988400Y-72460800D03*
X150988400Y-71960800D03*
X150988400Y-71460800D03*
X150988400Y-70960800D03*
X150988400Y-70460800D03*
X150988400Y-69960800D03*
D16*
X149063400Y-68035800D03*
X148563400Y-68035800D03*
X148063400Y-68035800D03*
X147563400Y-68035800D03*
X147063400Y-68035800D03*
X146563400Y-68035800D03*
X146063400Y-68035800D03*
X145563400Y-68035800D03*
X145063400Y-68035800D03*
X144563400Y-68035800D03*
X144063400Y-68035800D03*
X143563400Y-68035800D03*
X143063400Y-68035800D03*
X142563400Y-68035800D03*
X142063400Y-68035800D03*
X141563400Y-68035800D03*
%TD*%
D17*
%TO.C,R1*%
X128890300Y-51384200D03*
X131815300Y-51384200D03*
%TD*%
D18*
%TO.C,C20*%
X132194600Y-70688200D03*
X130644600Y-70688200D03*
%TD*%
D12*
%TO.C,C16*%
X133146800Y-75501800D03*
X133146800Y-73951800D03*
%TD*%
%TO.C,C30*%
X123698000Y-76213000D03*
X123698000Y-74663000D03*
%TD*%
D19*
%TO.C,D1*%
X159385000Y-96444800D03*
X159385000Y-99744800D03*
%TD*%
D20*
%TO.C,R4*%
X135776200Y-54711600D03*
X137426200Y-54711600D03*
%TD*%
D21*
%TO.C,Q5*%
X167910600Y-104202200D03*
X169810600Y-104202200D03*
X168860600Y-102202200D03*
%TD*%
D22*
%TO.C,R10*%
X166308500Y-73406000D03*
X163383500Y-73406000D03*
%TD*%
D18*
%TO.C,C24*%
X185839400Y-96266000D03*
X184289400Y-96266000D03*
%TD*%
D23*
%TO.C,D7*%
X149556200Y-85775800D03*
X152856200Y-85775800D03*
%TD*%
D18*
%TO.C,C28*%
X168695800Y-96471200D03*
X167145800Y-96471200D03*
%TD*%
D24*
%TO.C,C25*%
X184226200Y-99657400D03*
X184226200Y-101307400D03*
%TD*%
D21*
%TO.C,Q1*%
X110302000Y-108289600D03*
X112202000Y-108289600D03*
X111252000Y-106289600D03*
%TD*%
D25*
%TO.C,C10*%
X170325200Y-61747400D03*
X171875200Y-61747400D03*
%TD*%
D18*
%TO.C,C21*%
X150203200Y-94919800D03*
X148653200Y-94919800D03*
%TD*%
D26*
%TO.C,D2*%
X163042600Y-96435200D03*
X163042600Y-98535200D03*
%TD*%
D13*
%TO.C,C2*%
X135904608Y-81701008D03*
X134808592Y-80604992D03*
%TD*%
D27*
%TO.C,L1*%
X134619900Y-52324000D03*
X136194900Y-52324000D03*
%TD*%
D28*
%TO.C,J3*%
X172374000Y-48603600D03*
X171724000Y-48603600D03*
X171074000Y-48603600D03*
X170424000Y-48603600D03*
X169774000Y-48603600D03*
%TD*%
D29*
%TO.C,Q4*%
X137297000Y-112869600D03*
X137297000Y-111869600D03*
X136007000Y-112369600D03*
%TD*%
D25*
%TO.C,C7*%
X172725800Y-54127400D03*
X174275800Y-54127400D03*
%TD*%
D14*
%TO.C,R12*%
X148336000Y-49161200D03*
X148336000Y-47511200D03*
%TD*%
D18*
%TO.C,C19*%
X136639600Y-72186800D03*
X135089600Y-72186800D03*
%TD*%
D25*
%TO.C,C27*%
X132575000Y-115316000D03*
X134125000Y-115316000D03*
%TD*%
D30*
%TO.C,L4*%
X188518800Y-92837100D03*
X188518800Y-91262100D03*
%TD*%
D12*
%TO.C,C18*%
X137058400Y-70091600D03*
X137058400Y-68541600D03*
%TD*%
%TO.C,C8*%
X169037000Y-94120000D03*
X169037000Y-92570000D03*
%TD*%
D24*
%TO.C,R6*%
X117602000Y-113195600D03*
X117602000Y-114845600D03*
%TD*%
D14*
%TO.C,R13*%
X152019000Y-52793400D03*
X152019000Y-51143400D03*
%TD*%
D22*
%TO.C,R8*%
X143194500Y-55626000D03*
X140269500Y-55626000D03*
%TD*%
D12*
%TO.C,C11*%
X166274200Y-69101000D03*
X166274200Y-67551000D03*
%TD*%
D14*
%TO.C,R24*%
X113284000Y-74485000D03*
X113284000Y-72835000D03*
%TD*%
D31*
%TO.C,U8*%
X171706800Y-88566000D03*
X171706800Y-89666000D03*
X171706800Y-90766000D03*
X171706800Y-91866000D03*
X171706800Y-92966000D03*
X171706800Y-94066000D03*
X171706800Y-95166000D03*
X171706800Y-96266000D03*
X171706800Y-97366000D03*
X181406800Y-97366000D03*
X181406800Y-96266000D03*
X181406800Y-95166000D03*
X181406800Y-94066000D03*
X181406800Y-92966000D03*
X181406800Y-91866000D03*
X181406800Y-90766000D03*
X181406800Y-89666000D03*
X181406800Y-88566000D03*
%TD*%
D32*
%TO.C,D3*%
X115315000Y-102108000D03*
X112015000Y-102108000D03*
%TD*%
D12*
%TO.C,C5*%
X166166800Y-94145400D03*
X166166800Y-92595400D03*
%TD*%
D20*
%TO.C,R22*%
X165470200Y-106605800D03*
X167120200Y-106605800D03*
%TD*%
D33*
%TO.C,L2*%
X172638500Y-57023000D03*
X169663500Y-57023000D03*
%TD*%
D34*
%TO.C,U1*%
X139656900Y-50739400D03*
X139656900Y-51389400D03*
X139656900Y-52039400D03*
X139656900Y-52689400D03*
X145381900Y-52689400D03*
X145381900Y-52039400D03*
X145381900Y-51389400D03*
X145381900Y-50739400D03*
%TD*%
D35*
%TO.C,R9*%
X118171500Y-104648000D03*
X121096500Y-104648000D03*
%TD*%
D24*
%TO.C,C23*%
X185953400Y-99632000D03*
X185953400Y-101282000D03*
%TD*%
D18*
%TO.C,C26*%
X134099600Y-111861600D03*
X132549600Y-111861600D03*
%TD*%
D24*
%TO.C,R5*%
X109677200Y-113424200D03*
X109677200Y-115074200D03*
%TD*%
D13*
%TO.C,C1*%
X133237608Y-79161008D03*
X132141592Y-78064992D03*
%TD*%
D10*
%TO.C,U2*%
X174390800Y-64414000D03*
X172090800Y-64414000D03*
D36*
X172090800Y-70714000D03*
D10*
X169790800Y-64414000D03*
%TD*%
D20*
%TO.C,R17*%
X155664400Y-54533800D03*
X157314400Y-54533800D03*
%TD*%
D23*
%TO.C,D4*%
X112192800Y-98298000D03*
X115492800Y-98298000D03*
%TD*%
D21*
%TO.C,Q2*%
X119573000Y-109026200D03*
X121473000Y-109026200D03*
X120523000Y-107026200D03*
%TD*%
D37*
%TO.C,Q6*%
X111252000Y-67188000D03*
X111252000Y-69088000D03*
X113252000Y-68138000D03*
%TD*%
D24*
%TO.C,R20*%
X184404000Y-91275400D03*
X184404000Y-92925400D03*
%TD*%
D38*
%TO.C,U6*%
X188522600Y-96316800D03*
X198522600Y-96316800D03*
%TD*%
D39*
%TO.C,Q3*%
X172381800Y-101043200D03*
X173381800Y-101043200D03*
X172881800Y-99753200D03*
%TD*%
D18*
%TO.C,C17*%
X136715800Y-74168000D03*
X135165800Y-74168000D03*
%TD*%
D25*
%TO.C,C6*%
X167988400Y-54381400D03*
X169538400Y-54381400D03*
%TD*%
D40*
%TO.C,R14*%
X159574804Y-45657196D03*
X155385196Y-49846804D03*
%TD*%
D27*
%TO.C,L3*%
X148488300Y-92583000D03*
X150063300Y-92583000D03*
%TD*%
D24*
%TO.C,R15*%
X151053800Y-54521600D03*
X151053800Y-56171600D03*
%TD*%
D18*
%TO.C,C4*%
X136106200Y-49530000D03*
X134556200Y-49530000D03*
%TD*%
D12*
%TO.C,C12*%
X148361400Y-52540200D03*
X148361400Y-50990200D03*
%TD*%
D41*
%TO.C,U5*%
X154105600Y-90383400D03*
X154105600Y-89433400D03*
X154105600Y-88483400D03*
X151405600Y-88483400D03*
X151405600Y-90383400D03*
%TD*%
D17*
%TO.C,R18*%
X159116300Y-51612800D03*
X162041300Y-51612800D03*
%TD*%
D18*
%TO.C,C29*%
X168670400Y-99417600D03*
X167120400Y-99417600D03*
%TD*%
D42*
%TO.C,R7*%
X108458000Y-101661500D03*
X108458000Y-104586500D03*
%TD*%
M02*
