%TF.GenerationSoftware,KiCad,Pcbnew,7.0.2*%
%TF.CreationDate,2023-08-02T19:16:16+03:00*%
%TF.ProjectId,picoballoon,7069636f-6261-46c6-9c6f-6f6e2e6b6963,rev?*%
%TF.SameCoordinates,Original*%
%TF.FileFunction,Soldermask,Bot*%
%TF.FilePolarity,Negative*%
%FSLAX46Y46*%
G04 Gerber Fmt 4.6, Leading zero omitted, Abs format (unit mm)*
G04 Created by KiCad (PCBNEW 7.0.2) date 2023-08-02 19:16:16*
%MOMM*%
%LPD*%
G01*
G04 APERTURE LIST*
G04 Aperture macros list*
%AMRoundRect*
0 Rectangle with rounded corners*
0 $1 Rounding radius*
0 $2 $3 $4 $5 $6 $7 $8 $9 X,Y pos of 4 corners*
0 Add a 4 corners polygon primitive as box body*
4,1,4,$2,$3,$4,$5,$6,$7,$8,$9,$2,$3,0*
0 Add four circle primitives for the rounded corners*
1,1,$1+$1,$2,$3*
1,1,$1+$1,$4,$5*
1,1,$1+$1,$6,$7*
1,1,$1+$1,$8,$9*
0 Add four rect primitives between the rounded corners*
20,1,$1+$1,$2,$3,$4,$5,0*
20,1,$1+$1,$4,$5,$6,$7,0*
20,1,$1+$1,$6,$7,$8,$9,0*
20,1,$1+$1,$8,$9,$2,$3,0*%
%AMHorizOval*
0 Thick line with rounded ends*
0 $1 width*
0 $2 $3 position (X,Y) of the first rounded end (center of the circle)*
0 $4 $5 position (X,Y) of the second rounded end (center of the circle)*
0 Add line between two ends*
20,1,$1,$2,$3,$4,$5,0*
0 Add two circle primitives to create the rounded ends*
1,1,$1,$2,$3*
1,1,$1,$4,$5*%
%AMRotRect*
0 Rectangle, with rotation*
0 The origin of the aperture is its center*
0 $1 length*
0 $2 width*
0 $3 Rotation angle, in degrees counterclockwise*
0 Add horizontal line*
21,1,$1,$2,0,0,$3*%
G04 Aperture macros list end*
%ADD10RoundRect,0.250002X-1.699998X-1.699998X1.699998X-1.699998X1.699998X1.699998X-1.699998X1.699998X0*%
%ADD11C,1.600000*%
%ADD12C,1.400000*%
%ADD13O,1.400000X1.400000*%
%ADD14R,1.000000X1.000000*%
%ADD15O,1.000000X1.000000*%
%ADD16RotRect,1.700000X1.700000X34.000000*%
%ADD17HorizOval,1.700000X0.000000X0.000000X0.000000X0.000000X0*%
%ADD18RotRect,1.700000X1.700000X225.000000*%
%ADD19HorizOval,1.700000X0.000000X0.000000X0.000000X0.000000X0*%
%ADD20O,0.800000X0.800000*%
%ADD21O,1.450000X2.000000*%
%ADD22O,1.150000X1.800000*%
%ADD23R,1.800000X1.800000*%
%ADD24C,1.800000*%
%ADD25RotRect,1.700000X1.700000X135.000000*%
%ADD26HorizOval,1.700000X0.000000X0.000000X0.000000X0.000000X0*%
%ADD27R,2.400000X2.400000*%
%ADD28C,2.400000*%
%ADD29C,5.300000*%
%ADD30HorizOval,1.400000X0.000000X0.000000X0.000000X0.000000X0*%
%ADD31C,1.500000*%
%ADD32RotRect,1.000000X1.000000X45.000000*%
%ADD33HorizOval,1.000000X0.000000X0.000000X0.000000X0.000000X0*%
%ADD34R,1.500000X1.500000*%
G04 APERTURE END LIST*
D10*
%TO.C,J1*%
X122428000Y-51435000D03*
%TD*%
D11*
%TO.C,C14*%
X159004000Y-56912000D03*
X159004000Y-58912000D03*
%TD*%
D12*
%TO.C,R19*%
X155930600Y-83743800D03*
D13*
X158470600Y-83743800D03*
%TD*%
D14*
%TO.C,SWD1*%
X158851600Y-71820800D03*
D15*
X158851600Y-70550800D03*
%TD*%
D16*
%TO.C,MISC3*%
X181383450Y-69522245D03*
D17*
X182803800Y-71628000D03*
X184224150Y-73733756D03*
%TD*%
D12*
%TO.C,R2*%
X112750600Y-112343400D03*
D13*
X112750600Y-114883400D03*
%TD*%
D18*
%TO.C,MISC2*%
X158419800Y-65709800D03*
D19*
X156623749Y-63913749D03*
X154827698Y-62117698D03*
X153031646Y-60321646D03*
%TD*%
D10*
%TO.C,J2*%
X122428000Y-58420000D03*
%TD*%
D20*
%TO.C,J3*%
X173309200Y-47516400D03*
X168915000Y-47440200D03*
D21*
X174799000Y-48553600D03*
D22*
X173908000Y-45753600D03*
X168258000Y-45753600D03*
D21*
X167349000Y-48553600D03*
%TD*%
D23*
%TO.C,D5*%
X172807000Y-77190600D03*
D24*
X170267000Y-77190600D03*
%TD*%
D12*
%TO.C,R3*%
X120675400Y-112343400D03*
D13*
X120675400Y-114883400D03*
%TD*%
D25*
%TO.C,MISC1*%
X130307394Y-64078806D03*
D26*
X132103445Y-62282755D03*
X133899496Y-60486704D03*
X135695548Y-58690652D03*
%TD*%
D27*
%TO.C,C9*%
X113360200Y-88773000D03*
D28*
X113360200Y-83773000D03*
%TD*%
D29*
%TO.C,H2*%
X192049400Y-49885600D03*
%TD*%
D12*
%TO.C,R23*%
X107746000Y-73660000D03*
D13*
X110286000Y-73660000D03*
%TD*%
D29*
%TO.C,H3*%
X102717600Y-50825400D03*
%TD*%
D12*
%TO.C,R21*%
X167818730Y-110336671D03*
D30*
X169614781Y-108540620D03*
%TD*%
D12*
%TO.C,R11*%
X176992200Y-77343000D03*
D13*
X179532200Y-77343000D03*
%TD*%
D14*
%TO.C,UART2*%
X139003800Y-64033400D03*
D15*
X137733800Y-64033400D03*
%TD*%
D29*
%TO.C,H1*%
X102235000Y-114731800D03*
%TD*%
%TO.C,H4*%
X193167000Y-114858800D03*
%TD*%
D31*
%TO.C,Y1*%
X127680589Y-79649189D03*
X131131270Y-83099870D03*
%TD*%
D32*
%TO.C,UART1*%
X150543381Y-64132581D03*
D33*
X151441407Y-65030607D03*
%TD*%
D11*
%TO.C,C13*%
X147167600Y-55346600D03*
X147167600Y-57346600D03*
%TD*%
%TO.C,C3*%
X131191000Y-55388000D03*
X131191000Y-57388000D03*
%TD*%
D34*
%TO.C,U3*%
X118063300Y-65045300D03*
D31*
X118063300Y-67585300D03*
X118063300Y-70125300D03*
X118063300Y-72665300D03*
%TD*%
M02*
