%TF.GenerationSoftware,KiCad,Pcbnew,7.0.7*%
%TF.CreationDate,2023-10-20T22:51:04+03:00*%
%TF.ProjectId,picoballoon,7069636f-6261-46c6-9c6f-6f6e2e6b6963,rev?*%
%TF.SameCoordinates,Original*%
%TF.FileFunction,Copper,L3,Inr*%
%TF.FilePolarity,Positive*%
%FSLAX46Y46*%
G04 Gerber Fmt 4.6, Leading zero omitted, Abs format (unit mm)*
G04 Created by KiCad (PCBNEW 7.0.7) date 2023-10-20 22:51:04*
%MOMM*%
%LPD*%
G01*
G04 APERTURE LIST*
G04 Aperture macros list*
%AMRoundRect*
0 Rectangle with rounded corners*
0 $1 Rounding radius*
0 $2 $3 $4 $5 $6 $7 $8 $9 X,Y pos of 4 corners*
0 Add a 4 corners polygon primitive as box body*
4,1,4,$2,$3,$4,$5,$6,$7,$8,$9,$2,$3,0*
0 Add four circle primitives for the rounded corners*
1,1,$1+$1,$2,$3*
1,1,$1+$1,$4,$5*
1,1,$1+$1,$6,$7*
1,1,$1+$1,$8,$9*
0 Add four rect primitives between the rounded corners*
20,1,$1+$1,$2,$3,$4,$5,0*
20,1,$1+$1,$4,$5,$6,$7,0*
20,1,$1+$1,$6,$7,$8,$9,0*
20,1,$1+$1,$8,$9,$2,$3,0*%
%AMHorizOval*
0 Thick line with rounded ends*
0 $1 width*
0 $2 $3 position (X,Y) of the first rounded end (center of the circle)*
0 $4 $5 position (X,Y) of the second rounded end (center of the circle)*
0 Add line between two ends*
20,1,$1,$2,$3,$4,$5,0*
0 Add two circle primitives to create the rounded ends*
1,1,$1,$2,$3*
1,1,$1,$4,$5*%
%AMRotRect*
0 Rectangle, with rotation*
0 The origin of the aperture is its center*
0 $1 length*
0 $2 width*
0 $3 Rotation angle, in degrees counterclockwise*
0 Add horizontal line*
21,1,$1,$2,0,0,$3*%
G04 Aperture macros list end*
%TA.AperFunction,ComponentPad*%
%ADD10RoundRect,0.250002X-1.699998X-1.699998X1.699998X-1.699998X1.699998X1.699998X-1.699998X1.699998X0*%
%TD*%
%TA.AperFunction,ComponentPad*%
%ADD11C,1.600000*%
%TD*%
%TA.AperFunction,ComponentPad*%
%ADD12C,1.400000*%
%TD*%
%TA.AperFunction,ComponentPad*%
%ADD13O,1.400000X1.400000*%
%TD*%
%TA.AperFunction,ComponentPad*%
%ADD14R,1.000000X1.000000*%
%TD*%
%TA.AperFunction,ComponentPad*%
%ADD15O,1.000000X1.000000*%
%TD*%
%TA.AperFunction,ComponentPad*%
%ADD16RotRect,1.700000X1.700000X34.000000*%
%TD*%
%TA.AperFunction,ComponentPad*%
%ADD17HorizOval,1.700000X0.000000X0.000000X0.000000X0.000000X0*%
%TD*%
%TA.AperFunction,ComponentPad*%
%ADD18RotRect,1.700000X1.700000X225.000000*%
%TD*%
%TA.AperFunction,ComponentPad*%
%ADD19HorizOval,1.700000X0.000000X0.000000X0.000000X0.000000X0*%
%TD*%
%TA.AperFunction,ComponentPad*%
%ADD20O,1.450000X2.000000*%
%TD*%
%TA.AperFunction,ComponentPad*%
%ADD21O,1.150000X1.800000*%
%TD*%
%TA.AperFunction,ComponentPad*%
%ADD22R,1.800000X1.800000*%
%TD*%
%TA.AperFunction,ComponentPad*%
%ADD23C,1.800000*%
%TD*%
%TA.AperFunction,ComponentPad*%
%ADD24RotRect,1.700000X1.700000X135.000000*%
%TD*%
%TA.AperFunction,ComponentPad*%
%ADD25HorizOval,1.700000X0.000000X0.000000X0.000000X0.000000X0*%
%TD*%
%TA.AperFunction,ComponentPad*%
%ADD26R,2.400000X2.400000*%
%TD*%
%TA.AperFunction,ComponentPad*%
%ADD27C,2.400000*%
%TD*%
%TA.AperFunction,ComponentPad*%
%ADD28HorizOval,1.400000X0.000000X0.000000X0.000000X0.000000X0*%
%TD*%
%TA.AperFunction,ComponentPad*%
%ADD29C,1.500000*%
%TD*%
%TA.AperFunction,ComponentPad*%
%ADD30RotRect,1.000000X1.000000X45.000000*%
%TD*%
%TA.AperFunction,ComponentPad*%
%ADD31HorizOval,1.000000X0.000000X0.000000X0.000000X0.000000X0*%
%TD*%
%TA.AperFunction,ComponentPad*%
%ADD32R,1.500000X1.500000*%
%TD*%
%TA.AperFunction,ViaPad*%
%ADD33C,0.700000*%
%TD*%
%TA.AperFunction,ViaPad*%
%ADD34C,0.800000*%
%TD*%
G04 APERTURE END LIST*
D10*
%TO.N,SOLAR+*%
%TO.C,J1*%
X122428000Y-51435000D03*
%TD*%
D11*
%TO.N,Net-(C14-Pad1)*%
%TO.C,C14*%
X159004000Y-56912000D03*
%TO.N,GND*%
X159004000Y-58912000D03*
%TD*%
D12*
%TO.N,DC_EN*%
%TO.C,R19*%
X155930600Y-83743800D03*
D13*
%TO.N,GND*%
X158470600Y-83743800D03*
%TD*%
D14*
%TO.N,SWDIO*%
%TO.C,SWD1*%
X158851600Y-71820800D03*
D15*
%TO.N,SWCLK*%
X158851600Y-70550800D03*
%TD*%
D16*
%TO.N,GND*%
%TO.C,MISC3*%
X181383450Y-69522245D03*
D17*
%TO.N,PB11*%
X182803800Y-71628000D03*
%TO.N,+3.3V*%
X184224150Y-73733756D03*
%TD*%
D12*
%TO.N,+3.3V*%
%TO.C,R2*%
X112750600Y-112343400D03*
D13*
%TO.N,LowPowCapChrg*%
X112750600Y-114883400D03*
%TD*%
D18*
%TO.N,PD6*%
%TO.C,MISC2*%
X158419800Y-65709800D03*
D19*
%TO.N,PB3*%
X156623749Y-63913749D03*
%TO.N,PB4*%
X154827698Y-62117698D03*
%TO.N,PB5*%
X153031646Y-60321646D03*
%TD*%
D10*
%TO.N,GND*%
%TO.C,J2*%
X122428000Y-58420000D03*
%TD*%
D20*
%TO.N,unconnected-(J3-Shield-Pad6)*%
%TO.C,J3*%
X174799000Y-48553600D03*
D21*
X173908000Y-45753600D03*
X168258000Y-45753600D03*
D20*
X167349000Y-48553600D03*
%TD*%
D22*
%TO.N,Net-(D5-K)*%
%TO.C,D5*%
X172807000Y-77190600D03*
D23*
%TO.N,Net-(D5-A)*%
X170267000Y-77190600D03*
%TD*%
D12*
%TO.N,+3.3V*%
%TO.C,R3*%
X120675400Y-112343400D03*
D13*
%TO.N,HighPowCapChrg*%
X120675400Y-114883400D03*
%TD*%
D24*
%TO.N,PC15*%
%TO.C,MISC1*%
X130307394Y-64078806D03*
D25*
%TO.N,PC14*%
X132103445Y-62282755D03*
%TO.N,PC13*%
X133899496Y-60486704D03*
%TO.N,PC12*%
X135695548Y-58690652D03*
%TD*%
D26*
%TO.N,BCKP_OUT*%
%TO.C,C9*%
X113360200Y-88773000D03*
D27*
%TO.N,GND*%
X113360200Y-83773000D03*
%TD*%
D12*
%TO.N,BCKP_OUT*%
%TO.C,R23*%
X107746000Y-73660000D03*
D13*
%TO.N,Net-(C30-Pad2)*%
X110286000Y-73660000D03*
%TD*%
D12*
%TO.N,GPS_EN*%
%TO.C,R21*%
X167818730Y-110336671D03*
D28*
%TO.N,+3.3V*%
X169614781Y-108540620D03*
%TD*%
D12*
%TO.N,Net-(D5-K)*%
%TO.C,R11*%
X176992200Y-77343000D03*
D13*
%TO.N,GND*%
X179532200Y-77343000D03*
%TD*%
D14*
%TO.N,USART3_TX*%
%TO.C,UART2*%
X139003800Y-64033400D03*
D15*
%TO.N,USART3_RX*%
X137733800Y-64033400D03*
%TD*%
D29*
%TO.N,OSC_IN*%
%TO.C,Y1*%
X127680589Y-79649189D03*
%TO.N,OSC_OUT*%
X131131270Y-83099870D03*
%TD*%
D30*
%TO.N,UART2_TX*%
%TO.C,UART1*%
X150543381Y-64132581D03*
D31*
%TO.N,UART2_RX*%
X151441407Y-65030607D03*
%TD*%
D11*
%TO.N,Net-(U1-VCTRL)*%
%TO.C,C13*%
X147167600Y-55346600D03*
%TO.N,GND*%
X147167600Y-57346600D03*
%TD*%
%TO.N,Net-(C3-Pad1)*%
%TO.C,C3*%
X131191000Y-55388000D03*
%TO.N,GND*%
X131191000Y-57388000D03*
%TD*%
D32*
%TO.N,+3.3V*%
%TO.C,U3*%
X118063300Y-65045300D03*
D29*
%TO.N,DHD11_DAT*%
X118063300Y-67585300D03*
%TO.N,unconnected-(U3-NC-Pad3)*%
X118063300Y-70125300D03*
%TO.N,GND*%
X118063300Y-72665300D03*
%TD*%
D33*
%TO.N,GND*%
X166243000Y-65862200D03*
D34*
X130810000Y-111760000D03*
X184226200Y-102793800D03*
X129794000Y-95504000D03*
D33*
X175082200Y-62661800D03*
X164565922Y-92278878D03*
X181381400Y-99288600D03*
X167970200Y-55981600D03*
X150190200Y-97002600D03*
D34*
X131064000Y-73964800D03*
X131826000Y-106426000D03*
X185953400Y-102844600D03*
D33*
X151028400Y-57912000D03*
X174091600Y-61722000D03*
X149504400Y-88442800D03*
D34*
X137083800Y-67005200D03*
D33*
X180924200Y-83743800D03*
X141732000Y-51054000D03*
X176199800Y-54076600D03*
D34*
X131064000Y-115316000D03*
X128803400Y-70662800D03*
D33*
X173355000Y-102235000D03*
X167120400Y-100900400D03*
D34*
X142748000Y-96012000D03*
D33*
X138472800Y-111869600D03*
X138150600Y-80797400D03*
X156692600Y-86156800D03*
X134899400Y-82702400D03*
X173685200Y-62661800D03*
X141351000Y-73964800D03*
X173050200Y-61188600D03*
X179755800Y-95148400D03*
X132867400Y-49580800D03*
X173024800Y-62052200D03*
D34*
X133426200Y-72186800D03*
D33*
X171706800Y-86794600D03*
X132308600Y-80086200D03*
D34*
%TO.N,Net-(U1-MPP-SET)*%
X137541000Y-50952400D03*
X137515600Y-53365400D03*
D33*
%TO.N,GPS_RESET_SIGNAL*%
X154736800Y-75819000D03*
X153122900Y-75793600D03*
X170205400Y-98907600D03*
X161950400Y-75819000D03*
%TO.N,LORA_RESET*%
X153822400Y-77724000D03*
X139090400Y-112877600D03*
D34*
%TO.N,GPS_EN*%
X164084000Y-104394000D03*
X151384000Y-68580000D03*
D33*
%TO.N,LowPowCapChrg*%
X147548600Y-69799200D03*
%TO.N,HighPowCapChrg*%
X148564600Y-69824600D03*
%TO.N,DC_EN*%
X148767800Y-65887600D03*
%TO.N,DHD11_DAT*%
X145034000Y-72898000D03*
X128320800Y-66675000D03*
%TO.N,LORA_SPI1_SCK*%
X140233400Y-81610200D03*
X139674600Y-89052400D03*
D34*
%TO.N,DIO1*%
X145542000Y-98044000D03*
D33*
X152704800Y-78079600D03*
D34*
%TO.N,CAP_CHRG_READ_EN*%
X125222000Y-76200000D03*
X144986623Y-75390623D03*
X147574000Y-77978000D03*
X148590000Y-76454000D03*
D33*
%TO.N,PC15*%
X141101623Y-72340757D03*
%TO.N,PC14*%
X142186875Y-71766228D03*
%TO.N,PC13*%
X141707413Y-71005163D03*
%TO.N,PC12*%
X141249400Y-70231000D03*
%TO.N,PD6*%
X146634200Y-65303400D03*
%TO.N,PB3*%
X145626250Y-65774226D03*
%TO.N,PB4*%
X145163964Y-65002606D03*
%TO.N,PB5*%
X144424400Y-64490600D03*
%TO.N,PB11*%
X162851422Y-82487178D03*
D34*
%TO.N,CAP_CHRG_V*%
X114554000Y-74422000D03*
X141224000Y-88138000D03*
X147066000Y-84074000D03*
X147574000Y-81026000D03*
D33*
%TO.N,+3.3V*%
X131673600Y-75514200D03*
X161467800Y-98526600D03*
X130759200Y-69189600D03*
D34*
X164592000Y-51562000D03*
X161544000Y-73406000D03*
D33*
X148640800Y-85775800D03*
X127330200Y-64973200D03*
D34*
X135102600Y-68732400D03*
%TO.N,DIO2*%
X141868277Y-85226277D03*
X145034000Y-84582000D03*
X141697323Y-83277323D03*
X141986000Y-106426000D03*
%TO.N,DIO0*%
X145310101Y-81535915D03*
X138430000Y-106426000D03*
%TD*%
%TA.AperFunction,Conductor*%
%TO.N,+3.3V*%
G36*
X193459574Y-42142008D02*
G01*
X193684770Y-42191520D01*
X193959717Y-42252563D01*
X193967349Y-42254515D01*
X194220616Y-42327921D01*
X194322637Y-42358171D01*
X194475480Y-42403492D01*
X194482413Y-42405775D01*
X194733620Y-42496843D01*
X194979775Y-42588949D01*
X194986097Y-42591517D01*
X195232165Y-42699482D01*
X195470371Y-42808106D01*
X195476042Y-42810871D01*
X195715360Y-42935207D01*
X195944968Y-43059936D01*
X195950035Y-43062846D01*
X195956814Y-43066954D01*
X196180090Y-43202265D01*
X196182363Y-43203678D01*
X196401470Y-43343321D01*
X196405811Y-43346220D01*
X196626499Y-43500634D01*
X196629060Y-43502478D01*
X196837728Y-43656936D01*
X196841504Y-43659847D01*
X197051577Y-43828411D01*
X197054461Y-43830798D01*
X197217934Y-43970457D01*
X197251739Y-43999337D01*
X197254979Y-44002204D01*
X197453535Y-44184194D01*
X197456673Y-44187173D01*
X197641661Y-44369001D01*
X197644342Y-44371718D01*
X197830505Y-44566325D01*
X197833779Y-44569885D01*
X198005734Y-44764281D01*
X198007893Y-44766788D01*
X198180766Y-44973058D01*
X198184110Y-44977227D01*
X198342234Y-45183325D01*
X198343913Y-45185566D01*
X198502745Y-45402563D01*
X198506089Y-45407366D01*
X198650285Y-45625240D01*
X198794950Y-45852849D01*
X198798219Y-45858296D01*
X198927118Y-46086134D01*
X199056047Y-46321863D01*
X199059173Y-46327976D01*
X199172358Y-46565268D01*
X199284857Y-46807490D01*
X199287763Y-46814270D01*
X199385234Y-47061689D01*
X199480313Y-47307468D01*
X199482924Y-47314911D01*
X199567815Y-47584097D01*
X199634964Y-47798560D01*
X199640628Y-47835253D01*
X199845964Y-118877282D01*
X199826474Y-118944378D01*
X199825519Y-118945849D01*
X199737331Y-119079735D01*
X199556155Y-119353288D01*
X199551620Y-119359685D01*
X199401854Y-119557419D01*
X199230148Y-119780578D01*
X199225585Y-119786164D01*
X199056897Y-119980836D01*
X198875719Y-120184653D01*
X198871217Y-120189455D01*
X198687260Y-120375487D01*
X198494527Y-120563609D01*
X198490170Y-120567661D01*
X198293798Y-120741717D01*
X198291663Y-120743566D01*
X198088332Y-120915684D01*
X198084189Y-120919041D01*
X197876025Y-121080413D01*
X197873268Y-121082490D01*
X197658969Y-121239268D01*
X197655120Y-121241973D01*
X197436429Y-121389563D01*
X197433011Y-121391789D01*
X197208407Y-121532847D01*
X197204918Y-121534959D01*
X196976960Y-121667876D01*
X196972851Y-121670168D01*
X196738584Y-121795103D01*
X196735517Y-121796684D01*
X196499766Y-121914105D01*
X196494942Y-121916380D01*
X196251564Y-122024801D01*
X196248972Y-122025920D01*
X196006931Y-122127205D01*
X196001380Y-122129373D01*
X195748210Y-122221288D01*
X195500754Y-122306196D01*
X195494479Y-122308164D01*
X195232167Y-122382860D01*
X194983610Y-122450250D01*
X194976599Y-122451934D01*
X194701021Y-122509685D01*
X194513234Y-122547552D01*
X194457815Y-122558728D01*
X194450091Y-122560032D01*
X194125395Y-122604377D01*
X193937676Y-122629530D01*
X193920149Y-122630623D01*
X98911711Y-121818150D01*
X98856176Y-121804486D01*
X98681407Y-121714837D01*
X98408387Y-121574023D01*
X98401422Y-121570143D01*
X98178633Y-121436449D01*
X97942212Y-121292428D01*
X97935991Y-121288378D01*
X97717336Y-121136525D01*
X97496473Y-120979480D01*
X97490987Y-120975345D01*
X97280756Y-120807573D01*
X97263826Y-120793626D01*
X97073273Y-120636655D01*
X97068534Y-120632543D01*
X96997486Y-120567661D01*
X96868765Y-120450110D01*
X96868760Y-120450105D01*
X96674666Y-120265618D01*
X96670588Y-120261557D01*
X96553071Y-120138949D01*
X96483709Y-120066581D01*
X96481656Y-120064386D01*
X96405397Y-119980836D01*
X96302456Y-119868052D01*
X96299024Y-119864129D01*
X96125230Y-119656816D01*
X96123052Y-119654139D01*
X95958429Y-119445853D01*
X95955600Y-119442132D01*
X95795893Y-119223615D01*
X95793515Y-119220246D01*
X95754854Y-119163478D01*
X95644129Y-119000893D01*
X95641915Y-118997523D01*
X95497053Y-118768816D01*
X95494664Y-118764883D01*
X95361167Y-118535422D01*
X95359418Y-118532311D01*
X95230196Y-118294695D01*
X95227812Y-118290084D01*
X95110726Y-118051336D01*
X95109487Y-118048730D01*
X94996492Y-117803362D01*
X94994207Y-117798077D01*
X94978494Y-117759300D01*
X94928711Y-117636442D01*
X94893655Y-117549929D01*
X94893644Y-117549903D01*
X94797059Y-117297168D01*
X94794971Y-117291256D01*
X94711954Y-117035643D01*
X94632839Y-116778527D01*
X94631007Y-116771925D01*
X94579770Y-116565297D01*
X94565776Y-116508867D01*
X94504566Y-116249752D01*
X94503100Y-116242597D01*
X94455685Y-115969816D01*
X94434931Y-115845524D01*
X94412885Y-115713493D01*
X94411827Y-115705599D01*
X94403969Y-115628174D01*
X94380802Y-115399890D01*
X94359108Y-115181304D01*
X94358502Y-115169017D01*
X94358676Y-114645697D01*
X99330673Y-114645697D01*
X99330781Y-114649349D01*
X99330781Y-114649360D01*
X99337720Y-114883400D01*
X99340875Y-114989806D01*
X99341415Y-114993427D01*
X99341417Y-114993443D01*
X99391161Y-115326665D01*
X99391162Y-115326674D01*
X99391703Y-115330292D01*
X99392669Y-115333827D01*
X99481479Y-115658840D01*
X99481481Y-115658847D01*
X99482446Y-115662377D01*
X99483819Y-115665764D01*
X99483822Y-115665771D01*
X99610449Y-115978000D01*
X99610452Y-115978007D01*
X99611828Y-115981399D01*
X99778034Y-116282879D01*
X99780169Y-116285854D01*
X99780175Y-116285864D01*
X99882566Y-116428563D01*
X99978730Y-116562585D01*
X100211099Y-116816591D01*
X100471880Y-117041331D01*
X100648411Y-117160234D01*
X100754354Y-117231593D01*
X100754358Y-117231595D01*
X100757410Y-117233651D01*
X101063683Y-117390850D01*
X101386399Y-117510722D01*
X101721027Y-117591583D01*
X102062870Y-117632300D01*
X102066538Y-117632300D01*
X102319165Y-117632300D01*
X102320990Y-117632300D01*
X102578655Y-117617009D01*
X102917486Y-117556113D01*
X103246736Y-117455569D01*
X103561783Y-117316790D01*
X103858206Y-117141724D01*
X104131842Y-116932827D01*
X104378851Y-116693033D01*
X104595764Y-116425707D01*
X104779538Y-116134602D01*
X104927592Y-115823806D01*
X105037848Y-115497680D01*
X105108758Y-115160802D01*
X105133488Y-114883400D01*
X111544957Y-114883400D01*
X111565485Y-115104937D01*
X111626369Y-115318926D01*
X111725541Y-115518088D01*
X111859619Y-115695637D01*
X112024037Y-115845524D01*
X112213195Y-115962645D01*
X112213197Y-115962645D01*
X112213199Y-115962647D01*
X112420660Y-116043018D01*
X112639357Y-116083900D01*
X112639359Y-116083900D01*
X112861841Y-116083900D01*
X112861843Y-116083900D01*
X113080540Y-116043018D01*
X113288001Y-115962647D01*
X113477162Y-115845524D01*
X113641581Y-115695636D01*
X113775658Y-115518089D01*
X113874829Y-115318928D01*
X113875663Y-115316000D01*
X113913986Y-115181304D01*
X113935715Y-115104936D01*
X113956243Y-114883400D01*
X119469757Y-114883400D01*
X119490285Y-115104937D01*
X119551169Y-115318926D01*
X119650341Y-115518088D01*
X119784419Y-115695637D01*
X119948837Y-115845524D01*
X120137995Y-115962645D01*
X120137997Y-115962645D01*
X120137999Y-115962647D01*
X120345460Y-116043018D01*
X120564157Y-116083900D01*
X120564159Y-116083900D01*
X120786641Y-116083900D01*
X120786643Y-116083900D01*
X121005340Y-116043018D01*
X121212801Y-115962647D01*
X121401962Y-115845524D01*
X121566381Y-115695636D01*
X121700458Y-115518089D01*
X121799629Y-115318928D01*
X121800463Y-115316000D01*
X121800463Y-115315999D01*
X130158540Y-115315999D01*
X130178326Y-115504257D01*
X130236820Y-115684284D01*
X130331466Y-115848216D01*
X130458129Y-115988889D01*
X130611269Y-116100151D01*
X130784197Y-116177144D01*
X130969352Y-116216500D01*
X130969354Y-116216500D01*
X131158648Y-116216500D01*
X131282084Y-116190262D01*
X131343803Y-116177144D01*
X131516730Y-116100151D01*
X131669871Y-115988888D01*
X131796533Y-115848216D01*
X131891179Y-115684284D01*
X131949674Y-115504256D01*
X131969460Y-115316000D01*
X131949674Y-115127744D01*
X131891179Y-114947716D01*
X131891179Y-114947715D01*
X131796533Y-114783783D01*
X131786551Y-114772697D01*
X190262673Y-114772697D01*
X190262781Y-114776349D01*
X190262781Y-114776360D01*
X190272523Y-115104936D01*
X190272875Y-115116806D01*
X190273415Y-115120427D01*
X190273417Y-115120443D01*
X190323161Y-115453665D01*
X190323162Y-115453674D01*
X190323703Y-115457292D01*
X190324669Y-115460827D01*
X190413479Y-115785840D01*
X190413481Y-115785847D01*
X190414446Y-115789377D01*
X190415819Y-115792764D01*
X190415822Y-115792771D01*
X190542449Y-116105000D01*
X190542452Y-116105007D01*
X190543828Y-116108399D01*
X190710034Y-116409879D01*
X190712169Y-116412854D01*
X190712175Y-116412864D01*
X190814566Y-116555563D01*
X190910730Y-116689585D01*
X191143099Y-116943591D01*
X191403880Y-117168331D01*
X191580411Y-117287234D01*
X191686354Y-117358593D01*
X191686358Y-117358595D01*
X191689410Y-117360651D01*
X191995683Y-117517850D01*
X192318399Y-117637722D01*
X192653027Y-117718583D01*
X192994870Y-117759300D01*
X192998538Y-117759300D01*
X193251165Y-117759300D01*
X193252990Y-117759300D01*
X193510655Y-117744009D01*
X193849486Y-117683113D01*
X194178736Y-117582569D01*
X194493783Y-117443790D01*
X194790206Y-117268724D01*
X195063842Y-117059827D01*
X195310851Y-116820033D01*
X195527764Y-116552707D01*
X195711538Y-116261602D01*
X195859592Y-115950806D01*
X195969848Y-115624680D01*
X196040758Y-115287802D01*
X196071327Y-114944903D01*
X196061125Y-114600794D01*
X196010297Y-114260308D01*
X195919554Y-113928223D01*
X195790172Y-113609201D01*
X195623966Y-113307721D01*
X195621827Y-113304741D01*
X195621824Y-113304735D01*
X195442922Y-113055404D01*
X195423270Y-113028015D01*
X195190901Y-112774009D01*
X194930120Y-112549269D01*
X194784380Y-112451105D01*
X194647645Y-112359006D01*
X194647636Y-112359000D01*
X194644590Y-112356949D01*
X194641318Y-112355269D01*
X194641312Y-112355266D01*
X194341594Y-112201432D01*
X194338317Y-112199750D01*
X194202553Y-112149321D01*
X194019044Y-112081157D01*
X194019045Y-112081157D01*
X194015601Y-112079878D01*
X194012036Y-112079016D01*
X194012031Y-112079015D01*
X193684537Y-111999878D01*
X193684533Y-111999877D01*
X193680973Y-111999017D01*
X193677337Y-111998583D01*
X193677332Y-111998583D01*
X193342769Y-111958733D01*
X193342761Y-111958732D01*
X193339130Y-111958300D01*
X193081010Y-111958300D01*
X193079196Y-111958407D01*
X193079184Y-111958408D01*
X192827011Y-111973373D01*
X192827003Y-111973373D01*
X192823345Y-111973591D01*
X192819750Y-111974237D01*
X192819734Y-111974239D01*
X192488130Y-112033837D01*
X192488128Y-112033837D01*
X192484514Y-112034487D01*
X192481005Y-112035558D01*
X192480999Y-112035560D01*
X192158778Y-112133957D01*
X192158764Y-112133962D01*
X192155264Y-112135031D01*
X192151913Y-112136506D01*
X192151897Y-112136513D01*
X191843573Y-112272331D01*
X191843563Y-112272335D01*
X191840217Y-112273810D01*
X191837078Y-112275663D01*
X191837064Y-112275671D01*
X191546952Y-112447010D01*
X191546941Y-112447017D01*
X191543794Y-112448876D01*
X191540883Y-112451098D01*
X191540873Y-112451105D01*
X191273078Y-112655543D01*
X191273069Y-112655550D01*
X191270158Y-112657773D01*
X191267529Y-112660324D01*
X191267521Y-112660332D01*
X191025793Y-112894999D01*
X191025782Y-112895009D01*
X191023149Y-112897567D01*
X191020838Y-112900414D01*
X191020828Y-112900426D01*
X190895078Y-113055403D01*
X190806236Y-113164893D01*
X190804279Y-113167992D01*
X190804271Y-113168004D01*
X190643800Y-113422198D01*
X190622462Y-113455998D01*
X190620888Y-113459301D01*
X190620882Y-113459313D01*
X190475994Y-113763464D01*
X190474408Y-113766794D01*
X190473227Y-113770286D01*
X190473225Y-113770292D01*
X190365333Y-114089425D01*
X190365330Y-114089433D01*
X190364152Y-114092920D01*
X190363396Y-114096510D01*
X190363392Y-114096526D01*
X190293999Y-114426199D01*
X190293997Y-114426208D01*
X190293242Y-114429798D01*
X190292916Y-114433453D01*
X190292915Y-114433461D01*
X190262998Y-114769041D01*
X190262997Y-114769056D01*
X190262673Y-114772697D01*
X131786551Y-114772697D01*
X131669870Y-114643110D01*
X131516730Y-114531848D01*
X131343802Y-114454855D01*
X131158648Y-114415500D01*
X131158646Y-114415500D01*
X130969354Y-114415500D01*
X130969352Y-114415500D01*
X130784197Y-114454855D01*
X130611269Y-114531848D01*
X130458129Y-114643110D01*
X130331466Y-114783783D01*
X130236820Y-114947715D01*
X130178326Y-115127742D01*
X130158540Y-115315999D01*
X121800463Y-115315999D01*
X121838786Y-115181304D01*
X121860515Y-115104936D01*
X121881043Y-114883400D01*
X121860515Y-114661864D01*
X121823523Y-114531849D01*
X121799630Y-114447873D01*
X121700458Y-114248711D01*
X121566380Y-114071162D01*
X121401962Y-113921275D01*
X121212804Y-113804154D01*
X121180309Y-113791565D01*
X121018182Y-113728757D01*
X120962784Y-113686186D01*
X120939193Y-113620419D01*
X120954904Y-113552339D01*
X121004928Y-113503560D01*
X121018186Y-113497505D01*
X121212578Y-113422198D01*
X121328726Y-113350280D01*
X121328726Y-113350279D01*
X120675401Y-112696953D01*
X120675400Y-112696953D01*
X120022072Y-113350279D01*
X120022072Y-113350281D01*
X120138216Y-113422195D01*
X120332614Y-113497505D01*
X120388015Y-113540078D01*
X120411606Y-113605845D01*
X120395895Y-113673925D01*
X120345871Y-113722704D01*
X120332620Y-113728756D01*
X120225404Y-113770292D01*
X120137996Y-113804154D01*
X119948837Y-113921275D01*
X119784419Y-114071162D01*
X119650341Y-114248711D01*
X119551169Y-114447873D01*
X119490285Y-114661862D01*
X119469757Y-114883400D01*
X113956243Y-114883400D01*
X113935715Y-114661864D01*
X113898723Y-114531849D01*
X113874830Y-114447873D01*
X113775658Y-114248711D01*
X113641580Y-114071162D01*
X113477162Y-113921275D01*
X113288004Y-113804154D01*
X113255509Y-113791565D01*
X113093382Y-113728757D01*
X113037984Y-113686186D01*
X113014393Y-113620419D01*
X113030104Y-113552339D01*
X113080128Y-113503560D01*
X113093386Y-113497505D01*
X113287778Y-113422198D01*
X113403926Y-113350280D01*
X113403926Y-113350279D01*
X112750601Y-112696953D01*
X112750600Y-112696953D01*
X112097272Y-113350279D01*
X112097272Y-113350281D01*
X112213416Y-113422195D01*
X112407814Y-113497505D01*
X112463215Y-113540078D01*
X112486806Y-113605845D01*
X112471095Y-113673925D01*
X112421071Y-113722704D01*
X112407820Y-113728756D01*
X112300604Y-113770292D01*
X112213196Y-113804154D01*
X112024037Y-113921275D01*
X111859619Y-114071162D01*
X111725541Y-114248711D01*
X111626369Y-114447873D01*
X111565485Y-114661862D01*
X111544957Y-114883400D01*
X105133488Y-114883400D01*
X105139327Y-114817903D01*
X105129125Y-114473794D01*
X105125255Y-114447873D01*
X105104145Y-114306461D01*
X105078297Y-114133308D01*
X104987554Y-113801223D01*
X104858172Y-113482201D01*
X104691966Y-113180721D01*
X104689827Y-113177741D01*
X104689824Y-113177735D01*
X104493415Y-112904005D01*
X104491270Y-112901015D01*
X104258901Y-112647009D01*
X103998120Y-112422269D01*
X103881026Y-112343400D01*
X111545459Y-112343400D01*
X111565978Y-112564845D01*
X111626838Y-112778747D01*
X111725967Y-112977825D01*
X111741737Y-112998708D01*
X111741738Y-112998708D01*
X112367745Y-112372702D01*
X112396972Y-112372702D01*
X112425647Y-112485938D01*
X112489536Y-112583727D01*
X112581715Y-112655472D01*
X112692195Y-112693400D01*
X112779605Y-112693400D01*
X112865816Y-112679014D01*
X112968547Y-112623419D01*
X113047660Y-112537479D01*
X113094582Y-112430508D01*
X113101800Y-112343400D01*
X113104153Y-112343400D01*
X113759461Y-112998708D01*
X113775232Y-112977824D01*
X113874361Y-112778747D01*
X113935221Y-112564845D01*
X113955740Y-112343400D01*
X119470259Y-112343400D01*
X119490778Y-112564845D01*
X119551638Y-112778747D01*
X119650767Y-112977825D01*
X119666537Y-112998708D01*
X119666538Y-112998708D01*
X120292545Y-112372702D01*
X120321772Y-112372702D01*
X120350447Y-112485938D01*
X120414336Y-112583727D01*
X120506515Y-112655472D01*
X120616995Y-112693400D01*
X120704405Y-112693400D01*
X120790616Y-112679014D01*
X120893347Y-112623419D01*
X120972460Y-112537479D01*
X121019382Y-112430508D01*
X121026600Y-112343400D01*
X121028953Y-112343400D01*
X121684261Y-112998708D01*
X121700032Y-112977824D01*
X121799161Y-112778747D01*
X121860021Y-112564845D01*
X121880540Y-112343400D01*
X121860021Y-112121954D01*
X121799162Y-111908054D01*
X121725439Y-111759999D01*
X129904540Y-111759999D01*
X129924326Y-111948257D01*
X129982820Y-112128284D01*
X130077466Y-112292216D01*
X130204129Y-112432889D01*
X130357269Y-112544151D01*
X130530197Y-112621144D01*
X130715352Y-112660500D01*
X130715354Y-112660500D01*
X130904648Y-112660500D01*
X131028084Y-112634262D01*
X131089803Y-112621144D01*
X131262730Y-112544151D01*
X131342854Y-112485938D01*
X131415870Y-112432889D01*
X131542533Y-112292216D01*
X131637179Y-112128284D01*
X131645371Y-112103073D01*
X131695674Y-111948256D01*
X131703941Y-111869600D01*
X137617615Y-111869600D01*
X137636303Y-112047404D01*
X137691549Y-112217435D01*
X137780940Y-112372265D01*
X137900571Y-112505127D01*
X138045203Y-112610210D01*
X138045206Y-112610211D01*
X138045207Y-112610212D01*
X138171265Y-112666336D01*
X138224502Y-112711586D01*
X138244824Y-112778435D01*
X138244151Y-112792577D01*
X138235215Y-112877599D01*
X138253903Y-113055404D01*
X138309149Y-113225435D01*
X138398540Y-113380265D01*
X138518171Y-113513127D01*
X138662803Y-113618210D01*
X138662806Y-113618211D01*
X138662807Y-113618212D01*
X138719138Y-113643292D01*
X138826135Y-113690930D01*
X139001007Y-113728100D01*
X139001009Y-113728100D01*
X139179793Y-113728100D01*
X139354664Y-113690930D01*
X139354665Y-113690929D01*
X139354667Y-113690929D01*
X139517993Y-113618212D01*
X139530396Y-113609201D01*
X139625534Y-113540078D01*
X139662630Y-113513126D01*
X139782259Y-113380265D01*
X139871650Y-113225435D01*
X139926897Y-113055403D01*
X139945585Y-112877600D01*
X139926897Y-112699797D01*
X139897788Y-112610210D01*
X139871650Y-112529764D01*
X139782259Y-112374934D01*
X139662628Y-112242072D01*
X139517996Y-112136989D01*
X139391934Y-112080863D01*
X139338697Y-112035613D01*
X139318375Y-111968764D01*
X139319047Y-111954635D01*
X139327985Y-111869600D01*
X139309297Y-111691797D01*
X139254050Y-111521765D01*
X139254050Y-111521764D01*
X139164659Y-111366934D01*
X139045028Y-111234072D01*
X138900396Y-111128989D01*
X138737064Y-111056269D01*
X138562193Y-111019100D01*
X138562191Y-111019100D01*
X138383409Y-111019100D01*
X138383407Y-111019100D01*
X138208535Y-111056269D01*
X138045208Y-111128987D01*
X137900568Y-111234074D01*
X137780940Y-111366934D01*
X137691549Y-111521764D01*
X137636303Y-111691795D01*
X137617615Y-111869600D01*
X131703941Y-111869600D01*
X131715460Y-111760000D01*
X131695674Y-111571744D01*
X131637179Y-111391716D01*
X131637179Y-111391715D01*
X131542533Y-111227783D01*
X131415870Y-111087110D01*
X131262730Y-110975848D01*
X131089802Y-110898855D01*
X130904648Y-110859500D01*
X130904646Y-110859500D01*
X130715354Y-110859500D01*
X130715352Y-110859500D01*
X130530197Y-110898855D01*
X130357269Y-110975848D01*
X130204129Y-111087110D01*
X130077466Y-111227783D01*
X129982820Y-111391715D01*
X129924326Y-111571742D01*
X129904540Y-111759999D01*
X121725439Y-111759999D01*
X121700030Y-111708972D01*
X121684260Y-111688090D01*
X121028953Y-112343399D01*
X121028953Y-112343400D01*
X121026600Y-112343400D01*
X121029028Y-112314098D01*
X121000353Y-112200862D01*
X120936464Y-112103073D01*
X120844285Y-112031328D01*
X120733805Y-111993400D01*
X120646395Y-111993400D01*
X120560184Y-112007786D01*
X120457453Y-112063381D01*
X120378340Y-112149321D01*
X120331418Y-112256292D01*
X120321772Y-112372702D01*
X120292545Y-112372702D01*
X120321847Y-112343400D01*
X119666537Y-111688091D01*
X119650768Y-111708974D01*
X119551637Y-111908054D01*
X119490778Y-112121954D01*
X119470259Y-112343400D01*
X113955740Y-112343400D01*
X113935221Y-112121954D01*
X113874362Y-111908054D01*
X113775230Y-111708972D01*
X113759460Y-111688090D01*
X113104153Y-112343399D01*
X113104153Y-112343400D01*
X113101800Y-112343400D01*
X113104228Y-112314098D01*
X113075553Y-112200862D01*
X113011664Y-112103073D01*
X112919485Y-112031328D01*
X112809005Y-111993400D01*
X112721595Y-111993400D01*
X112635384Y-112007786D01*
X112532653Y-112063381D01*
X112453540Y-112149321D01*
X112406618Y-112256292D01*
X112396972Y-112372702D01*
X112367745Y-112372702D01*
X112397047Y-112343400D01*
X111741738Y-111688091D01*
X111741737Y-111688091D01*
X111725968Y-111708974D01*
X111626837Y-111908054D01*
X111565978Y-112121954D01*
X111545459Y-112343400D01*
X103881026Y-112343400D01*
X103852380Y-112324105D01*
X103715645Y-112232006D01*
X103715636Y-112232000D01*
X103712590Y-112229949D01*
X103709318Y-112228269D01*
X103709312Y-112228266D01*
X103409594Y-112074432D01*
X103406317Y-112072750D01*
X103303306Y-112034487D01*
X103126369Y-111968764D01*
X103083601Y-111952878D01*
X103080036Y-111952016D01*
X103080031Y-111952015D01*
X102752537Y-111872878D01*
X102752533Y-111872877D01*
X102748973Y-111872017D01*
X102745337Y-111871583D01*
X102745332Y-111871583D01*
X102410769Y-111831733D01*
X102410761Y-111831732D01*
X102407130Y-111831300D01*
X102149010Y-111831300D01*
X102147196Y-111831407D01*
X102147184Y-111831408D01*
X101895011Y-111846373D01*
X101895003Y-111846373D01*
X101891345Y-111846591D01*
X101887750Y-111847237D01*
X101887734Y-111847239D01*
X101556130Y-111906837D01*
X101556128Y-111906837D01*
X101552514Y-111907487D01*
X101549005Y-111908558D01*
X101548999Y-111908560D01*
X101226778Y-112006957D01*
X101226764Y-112006962D01*
X101223264Y-112008031D01*
X101219913Y-112009506D01*
X101219897Y-112009513D01*
X100911573Y-112145331D01*
X100911563Y-112145335D01*
X100908217Y-112146810D01*
X100905078Y-112148663D01*
X100905064Y-112148671D01*
X100614952Y-112320010D01*
X100614941Y-112320017D01*
X100611794Y-112321876D01*
X100608883Y-112324098D01*
X100608873Y-112324105D01*
X100341078Y-112528543D01*
X100341069Y-112528550D01*
X100338158Y-112530773D01*
X100335529Y-112533324D01*
X100335521Y-112533332D01*
X100093793Y-112767999D01*
X100093782Y-112768009D01*
X100091149Y-112770567D01*
X100088838Y-112773414D01*
X100088828Y-112773426D01*
X99882251Y-113028015D01*
X99874236Y-113037893D01*
X99872279Y-113040992D01*
X99872271Y-113041004D01*
X99692422Y-113325893D01*
X99690462Y-113328998D01*
X99688888Y-113332301D01*
X99688882Y-113332313D01*
X99543994Y-113636464D01*
X99542408Y-113639794D01*
X99541227Y-113643286D01*
X99541225Y-113643292D01*
X99433333Y-113962425D01*
X99433330Y-113962433D01*
X99432152Y-113965920D01*
X99431396Y-113969510D01*
X99431392Y-113969526D01*
X99361999Y-114299199D01*
X99361997Y-114299208D01*
X99361242Y-114302798D01*
X99360916Y-114306453D01*
X99360915Y-114306461D01*
X99330998Y-114642041D01*
X99330997Y-114642056D01*
X99330673Y-114645697D01*
X94358676Y-114645697D01*
X94358733Y-114473794D01*
X94359777Y-111336519D01*
X112097271Y-111336519D01*
X112750600Y-111989847D01*
X112750601Y-111989847D01*
X113403927Y-111336519D01*
X120022071Y-111336519D01*
X120675400Y-111989847D01*
X120675401Y-111989847D01*
X121328727Y-111336519D01*
X121212579Y-111264602D01*
X121005201Y-111184264D01*
X120786594Y-111143400D01*
X120564206Y-111143400D01*
X120345598Y-111184264D01*
X120138221Y-111264602D01*
X120022071Y-111336519D01*
X113403927Y-111336519D01*
X113287779Y-111264602D01*
X113080401Y-111184264D01*
X112861794Y-111143400D01*
X112639406Y-111143400D01*
X112420798Y-111184264D01*
X112213421Y-111264602D01*
X112097271Y-111336519D01*
X94359777Y-111336519D01*
X94360110Y-110336671D01*
X166613087Y-110336671D01*
X166633615Y-110558208D01*
X166694499Y-110772197D01*
X166793671Y-110971359D01*
X166927749Y-111148908D01*
X167092167Y-111298795D01*
X167281325Y-111415916D01*
X167281327Y-111415916D01*
X167281329Y-111415918D01*
X167488790Y-111496289D01*
X167707487Y-111537171D01*
X167707489Y-111537171D01*
X167929971Y-111537171D01*
X167929973Y-111537171D01*
X168148670Y-111496289D01*
X168356131Y-111415918D01*
X168545292Y-111298795D01*
X168709711Y-111148907D01*
X168843788Y-110971360D01*
X168942959Y-110772199D01*
X169003845Y-110558207D01*
X169024373Y-110336671D01*
X169003845Y-110115135D01*
X168942959Y-109901144D01*
X168874390Y-109763439D01*
X168862129Y-109694654D01*
X168889002Y-109630159D01*
X168946478Y-109590431D01*
X169016308Y-109588083D01*
X169050668Y-109602740D01*
X169077602Y-109619417D01*
X169284979Y-109699755D01*
X169503587Y-109740620D01*
X169725975Y-109740620D01*
X169944582Y-109699755D01*
X170151961Y-109619417D01*
X170268107Y-109547500D01*
X170268107Y-109547499D01*
X169611228Y-108890620D01*
X169643786Y-108890620D01*
X169729997Y-108876234D01*
X169832728Y-108820639D01*
X169911841Y-108734699D01*
X169958763Y-108627728D01*
X169965981Y-108540619D01*
X169968334Y-108540619D01*
X170623641Y-109195928D01*
X170623642Y-109195928D01*
X170639413Y-109175044D01*
X170738542Y-108975967D01*
X170799402Y-108762065D01*
X170819921Y-108540620D01*
X170799402Y-108319174D01*
X170738543Y-108105274D01*
X170639411Y-107906192D01*
X170623641Y-107885310D01*
X169968334Y-108540618D01*
X169968334Y-108540619D01*
X169965981Y-108540619D01*
X169968409Y-108511318D01*
X169939734Y-108398082D01*
X169875845Y-108300293D01*
X169783666Y-108228548D01*
X169673186Y-108190620D01*
X169585776Y-108190620D01*
X169499565Y-108205006D01*
X169396834Y-108260601D01*
X169317721Y-108346541D01*
X169270799Y-108453512D01*
X169263401Y-108542792D01*
X168605919Y-107885310D01*
X168605918Y-107885311D01*
X168590149Y-107906194D01*
X168491018Y-108105274D01*
X168430159Y-108319174D01*
X168409640Y-108540620D01*
X168430159Y-108762065D01*
X168491019Y-108975967D01*
X168559503Y-109113502D01*
X168571764Y-109182287D01*
X168544891Y-109246782D01*
X168487415Y-109286510D01*
X168417584Y-109288856D01*
X168383226Y-109274200D01*
X168356134Y-109257425D01*
X168294904Y-109233704D01*
X168148670Y-109177053D01*
X167929973Y-109136171D01*
X167707487Y-109136171D01*
X167499537Y-109175044D01*
X167488790Y-109177053D01*
X167281325Y-109257425D01*
X167092167Y-109374546D01*
X166927749Y-109524433D01*
X166793671Y-109701982D01*
X166694499Y-109901144D01*
X166633615Y-110115133D01*
X166613087Y-110336671D01*
X94360110Y-110336671D01*
X94361042Y-107533739D01*
X168961452Y-107533739D01*
X169614781Y-108187067D01*
X169614782Y-108187067D01*
X170268108Y-107533739D01*
X170151960Y-107461822D01*
X169944582Y-107381484D01*
X169725975Y-107340620D01*
X169503587Y-107340620D01*
X169284979Y-107381484D01*
X169077602Y-107461822D01*
X168961452Y-107533739D01*
X94361042Y-107533739D01*
X94361411Y-106426000D01*
X130920540Y-106426000D01*
X130940326Y-106614257D01*
X130998820Y-106794284D01*
X131093466Y-106958216D01*
X131220129Y-107098889D01*
X131373269Y-107210151D01*
X131546197Y-107287144D01*
X131731352Y-107326500D01*
X131731354Y-107326500D01*
X131920648Y-107326500D01*
X132044083Y-107300262D01*
X132105803Y-107287144D01*
X132278730Y-107210151D01*
X132431871Y-107098888D01*
X132558533Y-106958216D01*
X132653179Y-106794284D01*
X132711674Y-106614256D01*
X132731460Y-106426000D01*
X137524540Y-106426000D01*
X137544326Y-106614257D01*
X137602820Y-106794284D01*
X137697466Y-106958216D01*
X137824129Y-107098889D01*
X137977269Y-107210151D01*
X138150197Y-107287144D01*
X138335352Y-107326500D01*
X138335354Y-107326500D01*
X138524648Y-107326500D01*
X138648083Y-107300262D01*
X138709803Y-107287144D01*
X138882730Y-107210151D01*
X139035871Y-107098888D01*
X139162533Y-106958216D01*
X139257179Y-106794284D01*
X139315674Y-106614256D01*
X139335460Y-106426000D01*
X141080540Y-106426000D01*
X141100326Y-106614257D01*
X141158820Y-106794284D01*
X141253466Y-106958216D01*
X141380129Y-107098889D01*
X141533269Y-107210151D01*
X141706197Y-107287144D01*
X141891352Y-107326500D01*
X141891354Y-107326500D01*
X142080648Y-107326500D01*
X142204083Y-107300262D01*
X142265803Y-107287144D01*
X142438730Y-107210151D01*
X142591871Y-107098888D01*
X142718533Y-106958216D01*
X142813179Y-106794284D01*
X142871674Y-106614256D01*
X142891460Y-106426000D01*
X142871674Y-106237744D01*
X142813179Y-106057716D01*
X142813179Y-106057715D01*
X142718533Y-105893783D01*
X142591870Y-105753110D01*
X142438730Y-105641848D01*
X142265802Y-105564855D01*
X142080648Y-105525500D01*
X142080646Y-105525500D01*
X141891354Y-105525500D01*
X141891352Y-105525500D01*
X141706197Y-105564855D01*
X141533269Y-105641848D01*
X141380129Y-105753110D01*
X141253466Y-105893783D01*
X141158820Y-106057715D01*
X141100326Y-106237742D01*
X141080540Y-106426000D01*
X139335460Y-106426000D01*
X139315674Y-106237744D01*
X139257179Y-106057716D01*
X139257179Y-106057715D01*
X139162533Y-105893783D01*
X139035870Y-105753110D01*
X138882730Y-105641848D01*
X138709802Y-105564855D01*
X138524648Y-105525500D01*
X138524646Y-105525500D01*
X138335354Y-105525500D01*
X138335352Y-105525500D01*
X138150197Y-105564855D01*
X137977269Y-105641848D01*
X137824129Y-105753110D01*
X137697466Y-105893783D01*
X137602820Y-106057715D01*
X137544326Y-106237742D01*
X137524540Y-106426000D01*
X132731460Y-106426000D01*
X132711674Y-106237744D01*
X132653179Y-106057716D01*
X132653179Y-106057715D01*
X132558533Y-105893783D01*
X132431870Y-105753110D01*
X132278730Y-105641848D01*
X132105802Y-105564855D01*
X131920648Y-105525500D01*
X131920646Y-105525500D01*
X131731354Y-105525500D01*
X131731352Y-105525500D01*
X131546197Y-105564855D01*
X131373269Y-105641848D01*
X131220129Y-105753110D01*
X131093466Y-105893783D01*
X130998820Y-106057715D01*
X130940326Y-106237742D01*
X130920540Y-106426000D01*
X94361411Y-106426000D01*
X94362087Y-104394000D01*
X163178540Y-104394000D01*
X163198326Y-104582257D01*
X163256820Y-104762284D01*
X163351466Y-104926216D01*
X163478129Y-105066889D01*
X163631269Y-105178151D01*
X163804197Y-105255144D01*
X163989352Y-105294500D01*
X163989354Y-105294500D01*
X164178648Y-105294500D01*
X164302084Y-105268262D01*
X164363803Y-105255144D01*
X164536730Y-105178151D01*
X164689871Y-105066888D01*
X164816533Y-104926216D01*
X164911179Y-104762284D01*
X164969674Y-104582256D01*
X164989460Y-104394000D01*
X164969674Y-104205744D01*
X164911179Y-104025716D01*
X164911179Y-104025715D01*
X164816533Y-103861783D01*
X164689870Y-103721110D01*
X164536730Y-103609848D01*
X164363802Y-103532855D01*
X164178648Y-103493500D01*
X164178646Y-103493500D01*
X163989354Y-103493500D01*
X163989352Y-103493500D01*
X163804197Y-103532855D01*
X163631269Y-103609848D01*
X163478129Y-103721110D01*
X163351466Y-103861783D01*
X163256820Y-104025715D01*
X163198326Y-104205742D01*
X163178540Y-104394000D01*
X94362087Y-104394000D01*
X94362805Y-102235000D01*
X172499815Y-102235000D01*
X172518503Y-102412804D01*
X172573749Y-102582835D01*
X172663140Y-102737665D01*
X172782771Y-102870527D01*
X172927403Y-102975610D01*
X173090735Y-103048330D01*
X173265607Y-103085500D01*
X173265609Y-103085500D01*
X173444393Y-103085500D01*
X173619264Y-103048330D01*
X173619265Y-103048329D01*
X173619267Y-103048329D01*
X173782593Y-102975612D01*
X173927230Y-102870526D01*
X173996316Y-102793799D01*
X183320740Y-102793799D01*
X183340526Y-102982057D01*
X183399020Y-103162084D01*
X183493666Y-103326016D01*
X183620329Y-103466689D01*
X183773469Y-103577951D01*
X183946397Y-103654944D01*
X184131552Y-103694300D01*
X184131554Y-103694300D01*
X184320848Y-103694300D01*
X184444283Y-103668062D01*
X184506003Y-103654944D01*
X184678930Y-103577951D01*
X184762151Y-103517488D01*
X184832070Y-103466689D01*
X184912992Y-103376816D01*
X184958733Y-103326016D01*
X184967747Y-103310402D01*
X185018312Y-103262187D01*
X185086919Y-103248962D01*
X185151784Y-103274929D01*
X185182522Y-103310401D01*
X185220866Y-103376816D01*
X185347529Y-103517489D01*
X185500669Y-103628751D01*
X185673597Y-103705744D01*
X185858752Y-103745100D01*
X185858754Y-103745100D01*
X186048048Y-103745100D01*
X186171484Y-103718862D01*
X186233203Y-103705744D01*
X186406130Y-103628751D01*
X186406130Y-103628750D01*
X186559270Y-103517489D01*
X186685933Y-103376816D01*
X186780579Y-103212884D01*
X186797085Y-103162084D01*
X186839074Y-103032856D01*
X186858860Y-102844600D01*
X186839074Y-102656344D01*
X186780579Y-102476316D01*
X186780579Y-102476315D01*
X186685933Y-102312383D01*
X186559270Y-102171710D01*
X186406130Y-102060448D01*
X186233202Y-101983455D01*
X186048048Y-101944100D01*
X186048046Y-101944100D01*
X185858754Y-101944100D01*
X185858752Y-101944100D01*
X185673597Y-101983455D01*
X185500669Y-102060448D01*
X185347529Y-102171710D01*
X185220866Y-102312384D01*
X185211850Y-102328000D01*
X185161282Y-102376215D01*
X185092675Y-102389436D01*
X185027810Y-102363467D01*
X184997076Y-102327997D01*
X184988061Y-102312383D01*
X184958733Y-102261584D01*
X184958732Y-102261582D01*
X184832070Y-102120910D01*
X184678930Y-102009648D01*
X184506002Y-101932655D01*
X184320848Y-101893300D01*
X184320846Y-101893300D01*
X184131554Y-101893300D01*
X184131552Y-101893300D01*
X183946397Y-101932655D01*
X183773469Y-102009648D01*
X183620329Y-102120910D01*
X183493666Y-102261583D01*
X183399020Y-102425515D01*
X183340526Y-102605542D01*
X183320740Y-102793799D01*
X173996316Y-102793799D01*
X174046859Y-102737665D01*
X174136250Y-102582835D01*
X174191497Y-102412803D01*
X174210185Y-102235000D01*
X174191497Y-102057197D01*
X174151031Y-101932655D01*
X174136250Y-101887164D01*
X174046859Y-101732334D01*
X173927228Y-101599472D01*
X173782596Y-101494389D01*
X173619264Y-101421669D01*
X173444393Y-101384500D01*
X173444391Y-101384500D01*
X173265609Y-101384500D01*
X173265607Y-101384500D01*
X173090735Y-101421669D01*
X172927408Y-101494387D01*
X172782768Y-101599474D01*
X172663140Y-101732334D01*
X172573749Y-101887164D01*
X172518503Y-102057195D01*
X172499815Y-102235000D01*
X94362805Y-102235000D01*
X94363249Y-100900400D01*
X166265215Y-100900400D01*
X166283903Y-101078204D01*
X166339149Y-101248235D01*
X166428540Y-101403065D01*
X166548171Y-101535927D01*
X166692803Y-101641010D01*
X166856135Y-101713730D01*
X167031007Y-101750900D01*
X167031009Y-101750900D01*
X167209793Y-101750900D01*
X167384664Y-101713730D01*
X167384665Y-101713729D01*
X167384667Y-101713729D01*
X167547993Y-101641012D01*
X167692630Y-101535926D01*
X167812259Y-101403065D01*
X167901650Y-101248235D01*
X167956897Y-101078203D01*
X167975585Y-100900400D01*
X167956897Y-100722597D01*
X167901650Y-100552565D01*
X167901650Y-100552564D01*
X167812259Y-100397734D01*
X167692628Y-100264872D01*
X167547996Y-100159789D01*
X167384664Y-100087069D01*
X167209793Y-100049900D01*
X167209791Y-100049900D01*
X167031009Y-100049900D01*
X167031007Y-100049900D01*
X166856135Y-100087069D01*
X166692808Y-100159787D01*
X166548168Y-100264874D01*
X166428540Y-100397734D01*
X166339149Y-100552564D01*
X166283903Y-100722595D01*
X166265215Y-100900400D01*
X94363249Y-100900400D01*
X94364199Y-98043999D01*
X144636540Y-98043999D01*
X144656326Y-98232257D01*
X144714820Y-98412284D01*
X144809466Y-98576216D01*
X144936129Y-98716889D01*
X145089269Y-98828151D01*
X145262197Y-98905144D01*
X145447352Y-98944500D01*
X145447354Y-98944500D01*
X145636648Y-98944500D01*
X145810248Y-98907600D01*
X169350215Y-98907600D01*
X169368903Y-99085404D01*
X169424149Y-99255435D01*
X169513540Y-99410265D01*
X169633171Y-99543127D01*
X169777803Y-99648210D01*
X169941135Y-99720930D01*
X170116007Y-99758100D01*
X170116009Y-99758100D01*
X170294793Y-99758100D01*
X170469664Y-99720930D01*
X170469665Y-99720929D01*
X170469667Y-99720929D01*
X170632993Y-99648212D01*
X170649203Y-99636435D01*
X170674059Y-99618374D01*
X170777630Y-99543126D01*
X170897259Y-99410265D01*
X170967503Y-99288599D01*
X180526215Y-99288599D01*
X180544903Y-99466404D01*
X180600149Y-99636435D01*
X180689540Y-99791265D01*
X180809171Y-99924127D01*
X180953803Y-100029210D01*
X180953806Y-100029211D01*
X180953807Y-100029212D01*
X181062690Y-100077689D01*
X181117135Y-100101930D01*
X181292007Y-100139100D01*
X181292009Y-100139100D01*
X181470793Y-100139100D01*
X181645664Y-100101930D01*
X181645665Y-100101929D01*
X181645667Y-100101929D01*
X181808993Y-100029212D01*
X181953630Y-99924126D01*
X182073259Y-99791265D01*
X182162650Y-99636435D01*
X182217897Y-99466403D01*
X182236585Y-99288600D01*
X182217897Y-99110797D01*
X182162650Y-98940765D01*
X182162650Y-98940764D01*
X182073259Y-98785934D01*
X181953628Y-98653072D01*
X181808996Y-98547989D01*
X181645664Y-98475269D01*
X181470793Y-98438100D01*
X181470791Y-98438100D01*
X181292009Y-98438100D01*
X181292007Y-98438100D01*
X181117135Y-98475269D01*
X180953808Y-98547987D01*
X180809168Y-98653074D01*
X180689540Y-98785934D01*
X180600149Y-98940764D01*
X180544903Y-99110795D01*
X180526215Y-99288599D01*
X170967503Y-99288599D01*
X170986650Y-99255435D01*
X171041897Y-99085403D01*
X171060585Y-98907600D01*
X171041897Y-98729797D01*
X171013240Y-98641601D01*
X170986650Y-98559764D01*
X170897259Y-98404934D01*
X170777628Y-98272072D01*
X170632996Y-98166989D01*
X170469664Y-98094269D01*
X170294793Y-98057100D01*
X170294791Y-98057100D01*
X170116009Y-98057100D01*
X170116007Y-98057100D01*
X169941135Y-98094269D01*
X169777808Y-98166987D01*
X169633168Y-98272074D01*
X169513540Y-98404934D01*
X169424149Y-98559764D01*
X169368903Y-98729795D01*
X169350215Y-98907600D01*
X145810248Y-98907600D01*
X145821803Y-98905144D01*
X145994730Y-98828151D01*
X146052837Y-98785934D01*
X146147870Y-98716889D01*
X146205330Y-98653074D01*
X146274533Y-98576216D01*
X146369179Y-98412284D01*
X146427674Y-98232256D01*
X146447460Y-98044000D01*
X146427674Y-97855744D01*
X146369179Y-97675716D01*
X146369179Y-97675715D01*
X146274533Y-97511783D01*
X146147870Y-97371110D01*
X145994730Y-97259848D01*
X145821802Y-97182855D01*
X145636648Y-97143500D01*
X145636646Y-97143500D01*
X145447354Y-97143500D01*
X145447352Y-97143500D01*
X145262197Y-97182855D01*
X145089269Y-97259848D01*
X144936129Y-97371110D01*
X144809466Y-97511783D01*
X144714820Y-97675715D01*
X144656326Y-97855742D01*
X144636540Y-98043999D01*
X94364199Y-98043999D01*
X94364545Y-97002600D01*
X149335015Y-97002600D01*
X149353703Y-97180404D01*
X149408949Y-97350435D01*
X149498340Y-97505265D01*
X149617971Y-97638127D01*
X149762603Y-97743210D01*
X149925935Y-97815930D01*
X150100807Y-97853100D01*
X150100809Y-97853100D01*
X150279593Y-97853100D01*
X150454464Y-97815930D01*
X150454465Y-97815929D01*
X150454467Y-97815929D01*
X150617793Y-97743212D01*
X150762430Y-97638126D01*
X150882059Y-97505265D01*
X150971450Y-97350435D01*
X151026697Y-97180403D01*
X151045385Y-97002600D01*
X151026697Y-96824797D01*
X150971450Y-96654765D01*
X150971450Y-96654764D01*
X150882059Y-96499934D01*
X150762428Y-96367072D01*
X150617796Y-96261989D01*
X150454464Y-96189269D01*
X150279593Y-96152100D01*
X150279591Y-96152100D01*
X150100809Y-96152100D01*
X150100807Y-96152100D01*
X149925935Y-96189269D01*
X149762608Y-96261987D01*
X149617968Y-96367074D01*
X149498340Y-96499934D01*
X149408949Y-96654764D01*
X149353703Y-96824795D01*
X149335015Y-97002600D01*
X94364545Y-97002600D01*
X94365044Y-95503999D01*
X128888540Y-95503999D01*
X128908326Y-95692257D01*
X128966820Y-95872284D01*
X129061466Y-96036216D01*
X129188129Y-96176889D01*
X129341269Y-96288151D01*
X129514197Y-96365144D01*
X129699352Y-96404500D01*
X129699354Y-96404500D01*
X129888648Y-96404500D01*
X130012084Y-96378262D01*
X130073803Y-96365144D01*
X130246730Y-96288151D01*
X130282739Y-96261989D01*
X130399870Y-96176889D01*
X130526533Y-96036216D01*
X130540514Y-96012000D01*
X141842540Y-96012000D01*
X141862326Y-96200257D01*
X141920820Y-96380284D01*
X142015466Y-96544216D01*
X142142129Y-96684889D01*
X142295269Y-96796151D01*
X142468197Y-96873144D01*
X142653352Y-96912500D01*
X142653354Y-96912500D01*
X142842648Y-96912500D01*
X142966084Y-96886262D01*
X143027803Y-96873144D01*
X143200730Y-96796151D01*
X143353871Y-96684888D01*
X143480533Y-96544216D01*
X143575179Y-96380284D01*
X143633674Y-96200256D01*
X143653460Y-96012000D01*
X143633674Y-95823744D01*
X143575179Y-95643716D01*
X143575179Y-95643715D01*
X143480533Y-95479783D01*
X143353870Y-95339110D01*
X143200730Y-95227848D01*
X143027802Y-95150855D01*
X143016252Y-95148400D01*
X178900615Y-95148400D01*
X178909959Y-95237301D01*
X178919303Y-95326204D01*
X178974549Y-95496235D01*
X179063940Y-95651065D01*
X179183571Y-95783927D01*
X179328203Y-95889010D01*
X179491535Y-95961730D01*
X179666407Y-95998900D01*
X179666409Y-95998900D01*
X179845193Y-95998900D01*
X180020064Y-95961730D01*
X180020065Y-95961729D01*
X180020067Y-95961729D01*
X180183393Y-95889012D01*
X180328030Y-95783926D01*
X180447659Y-95651065D01*
X180537050Y-95496235D01*
X180592297Y-95326203D01*
X180610985Y-95148400D01*
X180592297Y-94970597D01*
X180563640Y-94882401D01*
X180537050Y-94800564D01*
X180447659Y-94645734D01*
X180328028Y-94512872D01*
X180183396Y-94407789D01*
X180020064Y-94335069D01*
X179845193Y-94297900D01*
X179845191Y-94297900D01*
X179666409Y-94297900D01*
X179666407Y-94297900D01*
X179491535Y-94335069D01*
X179328208Y-94407787D01*
X179183568Y-94512874D01*
X179063940Y-94645734D01*
X178974549Y-94800564D01*
X178919303Y-94970595D01*
X178919302Y-94970597D01*
X178919303Y-94970597D01*
X178900615Y-95148400D01*
X143016252Y-95148400D01*
X142842648Y-95111500D01*
X142842646Y-95111500D01*
X142653354Y-95111500D01*
X142653352Y-95111500D01*
X142468197Y-95150855D01*
X142295269Y-95227848D01*
X142142129Y-95339110D01*
X142015466Y-95479783D01*
X141920820Y-95643715D01*
X141862326Y-95823742D01*
X141842540Y-96012000D01*
X130540514Y-96012000D01*
X130621179Y-95872284D01*
X130649888Y-95783926D01*
X130679674Y-95692256D01*
X130699460Y-95504000D01*
X130679674Y-95315744D01*
X130649332Y-95222363D01*
X130621179Y-95135715D01*
X130526533Y-94971783D01*
X130399870Y-94831110D01*
X130246730Y-94719848D01*
X130073802Y-94642855D01*
X129888648Y-94603500D01*
X129888646Y-94603500D01*
X129699354Y-94603500D01*
X129699352Y-94603500D01*
X129514197Y-94642855D01*
X129341269Y-94719848D01*
X129188129Y-94831110D01*
X129061466Y-94971783D01*
X128966820Y-95135715D01*
X128908326Y-95315742D01*
X128888540Y-95503999D01*
X94365044Y-95503999D01*
X94366117Y-92278878D01*
X163710737Y-92278878D01*
X163729425Y-92456682D01*
X163784671Y-92626713D01*
X163874062Y-92781543D01*
X163993693Y-92914405D01*
X164138325Y-93019488D01*
X164301657Y-93092208D01*
X164476529Y-93129378D01*
X164476531Y-93129378D01*
X164655315Y-93129378D01*
X164830186Y-93092208D01*
X164830187Y-93092207D01*
X164830189Y-93092207D01*
X164993515Y-93019490D01*
X165138152Y-92914404D01*
X165257781Y-92781543D01*
X165347172Y-92626713D01*
X165402419Y-92456681D01*
X165421107Y-92278878D01*
X165402419Y-92101075D01*
X165347172Y-91931043D01*
X165347172Y-91931042D01*
X165257781Y-91776212D01*
X165138150Y-91643350D01*
X164993518Y-91538267D01*
X164830186Y-91465547D01*
X164655315Y-91428378D01*
X164655313Y-91428378D01*
X164476531Y-91428378D01*
X164476529Y-91428378D01*
X164301657Y-91465547D01*
X164138330Y-91538265D01*
X163993690Y-91643352D01*
X163874062Y-91776212D01*
X163784671Y-91931042D01*
X163729425Y-92101073D01*
X163710737Y-92278878D01*
X94366117Y-92278878D01*
X94366869Y-90017578D01*
X111659700Y-90017578D01*
X111659701Y-90020872D01*
X111666109Y-90080483D01*
X111716404Y-90215331D01*
X111802654Y-90330546D01*
X111917869Y-90416796D01*
X112052717Y-90467091D01*
X112112327Y-90473500D01*
X114608072Y-90473499D01*
X114667683Y-90467091D01*
X114802531Y-90416796D01*
X114917746Y-90330546D01*
X115003996Y-90215331D01*
X115054291Y-90080483D01*
X115060700Y-90020873D01*
X115060700Y-89052399D01*
X138819415Y-89052399D01*
X138838103Y-89230204D01*
X138893349Y-89400235D01*
X138982740Y-89555065D01*
X139102371Y-89687927D01*
X139247003Y-89793010D01*
X139410335Y-89865730D01*
X139585207Y-89902900D01*
X139585209Y-89902900D01*
X139763993Y-89902900D01*
X139938864Y-89865730D01*
X139938865Y-89865729D01*
X139938867Y-89865729D01*
X140102193Y-89793012D01*
X140246830Y-89687926D01*
X140366459Y-89555065D01*
X140455850Y-89400235D01*
X140511097Y-89230203D01*
X140529785Y-89052400D01*
X140524110Y-88998409D01*
X140536679Y-88929681D01*
X140584411Y-88878657D01*
X140652151Y-88861539D01*
X140718393Y-88883761D01*
X140720317Y-88885132D01*
X140771269Y-88922151D01*
X140944197Y-88999144D01*
X141129352Y-89038500D01*
X141129354Y-89038500D01*
X141318648Y-89038500D01*
X141442084Y-89012262D01*
X141503803Y-88999144D01*
X141676730Y-88922151D01*
X141829870Y-88810889D01*
X141956533Y-88670216D01*
X142051179Y-88506284D01*
X142071806Y-88442800D01*
X148649215Y-88442800D01*
X148667903Y-88620604D01*
X148723149Y-88790635D01*
X148812540Y-88945465D01*
X148932171Y-89078327D01*
X149076803Y-89183410D01*
X149240135Y-89256130D01*
X149415007Y-89293300D01*
X149415009Y-89293300D01*
X149593793Y-89293300D01*
X149768664Y-89256130D01*
X149768665Y-89256129D01*
X149768667Y-89256129D01*
X149931993Y-89183412D01*
X150076630Y-89078326D01*
X150196259Y-88945465D01*
X150285650Y-88790635D01*
X150340897Y-88620603D01*
X150359585Y-88442800D01*
X150340897Y-88264997D01*
X150285650Y-88094965D01*
X150285650Y-88094964D01*
X150196259Y-87940134D01*
X150076628Y-87807272D01*
X149931996Y-87702189D01*
X149768664Y-87629469D01*
X149593793Y-87592300D01*
X149593791Y-87592300D01*
X149415009Y-87592300D01*
X149415007Y-87592300D01*
X149240135Y-87629469D01*
X149076808Y-87702187D01*
X148932168Y-87807274D01*
X148812540Y-87940134D01*
X148723149Y-88094964D01*
X148667903Y-88264995D01*
X148649215Y-88442800D01*
X142071806Y-88442800D01*
X142099936Y-88356225D01*
X142109674Y-88326256D01*
X142129460Y-88138000D01*
X142109674Y-87949744D01*
X142079332Y-87856363D01*
X142051179Y-87769715D01*
X141956533Y-87605783D01*
X141829870Y-87465110D01*
X141676730Y-87353848D01*
X141503802Y-87276855D01*
X141318648Y-87237500D01*
X141318646Y-87237500D01*
X141129354Y-87237500D01*
X141129352Y-87237500D01*
X140944197Y-87276855D01*
X140771269Y-87353848D01*
X140618129Y-87465110D01*
X140491466Y-87605783D01*
X140396820Y-87769715D01*
X140338326Y-87949742D01*
X140318540Y-88138000D01*
X140327090Y-88219355D01*
X140314520Y-88288084D01*
X140266787Y-88339108D01*
X140199047Y-88356225D01*
X140132806Y-88334002D01*
X140130882Y-88332632D01*
X140102193Y-88311787D01*
X139938864Y-88239069D01*
X139763993Y-88201900D01*
X139763991Y-88201900D01*
X139585209Y-88201900D01*
X139585207Y-88201900D01*
X139410335Y-88239069D01*
X139247008Y-88311787D01*
X139102368Y-88416874D01*
X138982740Y-88549734D01*
X138893349Y-88704564D01*
X138838103Y-88874595D01*
X138819415Y-89052399D01*
X115060700Y-89052399D01*
X115060699Y-87525128D01*
X115054291Y-87465517D01*
X115003996Y-87330669D01*
X114917746Y-87215454D01*
X114802531Y-87129204D01*
X114667683Y-87078909D01*
X114608073Y-87072500D01*
X114604750Y-87072500D01*
X112115639Y-87072500D01*
X112115620Y-87072500D01*
X112112328Y-87072501D01*
X112109048Y-87072853D01*
X112109040Y-87072854D01*
X112052715Y-87078909D01*
X111917869Y-87129204D01*
X111802654Y-87215454D01*
X111716404Y-87330668D01*
X111666110Y-87465515D01*
X111666109Y-87465517D01*
X111659700Y-87525127D01*
X111659700Y-87528448D01*
X111659700Y-87528449D01*
X111659700Y-90017560D01*
X111659700Y-90017578D01*
X94366869Y-90017578D01*
X94368153Y-86156800D01*
X155837415Y-86156800D01*
X155856103Y-86334604D01*
X155911349Y-86504635D01*
X156000740Y-86659465D01*
X156120371Y-86792327D01*
X156265003Y-86897410D01*
X156428335Y-86970130D01*
X156603207Y-87007300D01*
X156603209Y-87007300D01*
X156781993Y-87007300D01*
X156956864Y-86970130D01*
X156956865Y-86970129D01*
X156956867Y-86970129D01*
X157120193Y-86897412D01*
X157261702Y-86794599D01*
X170851615Y-86794599D01*
X170870303Y-86972404D01*
X170925549Y-87142435D01*
X171014940Y-87297265D01*
X171134571Y-87430127D01*
X171279203Y-87535210D01*
X171442535Y-87607930D01*
X171617407Y-87645100D01*
X171617409Y-87645100D01*
X171796193Y-87645100D01*
X171971064Y-87607930D01*
X171971065Y-87607929D01*
X171971067Y-87607929D01*
X172134393Y-87535212D01*
X172143702Y-87528449D01*
X172230320Y-87465516D01*
X172279030Y-87430126D01*
X172398659Y-87297265D01*
X172488050Y-87142435D01*
X172543297Y-86972403D01*
X172561985Y-86794600D01*
X172543297Y-86616797D01*
X172488050Y-86446765D01*
X172488050Y-86446764D01*
X172398659Y-86291934D01*
X172279028Y-86159072D01*
X172134396Y-86053989D01*
X171971064Y-85981269D01*
X171796193Y-85944100D01*
X171796191Y-85944100D01*
X171617409Y-85944100D01*
X171617407Y-85944100D01*
X171442535Y-85981269D01*
X171279208Y-86053987D01*
X171134568Y-86159074D01*
X171014940Y-86291934D01*
X170925549Y-86446764D01*
X170870303Y-86616795D01*
X170851615Y-86794599D01*
X157261702Y-86794599D01*
X157264830Y-86792326D01*
X157384459Y-86659465D01*
X157473850Y-86504635D01*
X157529097Y-86334603D01*
X157547785Y-86156800D01*
X157529097Y-85978997D01*
X157473850Y-85808965D01*
X157473850Y-85808964D01*
X157384459Y-85654134D01*
X157264828Y-85521272D01*
X157120196Y-85416189D01*
X156956864Y-85343469D01*
X156781993Y-85306300D01*
X156781991Y-85306300D01*
X156603209Y-85306300D01*
X156603207Y-85306300D01*
X156428335Y-85343469D01*
X156265008Y-85416187D01*
X156120368Y-85521274D01*
X156000740Y-85654134D01*
X155911349Y-85808964D01*
X155856103Y-85978995D01*
X155837415Y-86156800D01*
X94368153Y-86156800D01*
X94368946Y-83772999D01*
X111654931Y-83772999D01*
X111673977Y-84027154D01*
X111730692Y-84275637D01*
X111823808Y-84512891D01*
X111877689Y-84606216D01*
X111951241Y-84733612D01*
X112110150Y-84932877D01*
X112296983Y-85106232D01*
X112507566Y-85249805D01*
X112737196Y-85360389D01*
X112980742Y-85435513D01*
X113232765Y-85473500D01*
X113487635Y-85473500D01*
X113739658Y-85435513D01*
X113983204Y-85360389D01*
X114212834Y-85249805D01*
X114423417Y-85106232D01*
X114610250Y-84932877D01*
X114769159Y-84733612D01*
X114896593Y-84512888D01*
X114989708Y-84275637D01*
X115046422Y-84027157D01*
X115065468Y-83773000D01*
X115046422Y-83518843D01*
X114989708Y-83270363D01*
X114922793Y-83099869D01*
X129875992Y-83099869D01*
X129895062Y-83317844D01*
X129951695Y-83529201D01*
X130001531Y-83636075D01*
X130044168Y-83727509D01*
X130169672Y-83906747D01*
X130324393Y-84061468D01*
X130503631Y-84186972D01*
X130701940Y-84279445D01*
X130913293Y-84336077D01*
X131131270Y-84355147D01*
X131349247Y-84336077D01*
X131560600Y-84279445D01*
X131758909Y-84186972D01*
X131938147Y-84061468D01*
X132092868Y-83906747D01*
X132218372Y-83727509D01*
X132310845Y-83529200D01*
X132367477Y-83317847D01*
X132386547Y-83099870D01*
X132367477Y-82881893D01*
X132319382Y-82702399D01*
X134044215Y-82702399D01*
X134062903Y-82880204D01*
X134118149Y-83050235D01*
X134207540Y-83205065D01*
X134327171Y-83337927D01*
X134471803Y-83443010D01*
X134635135Y-83515730D01*
X134810007Y-83552900D01*
X134810009Y-83552900D01*
X134988793Y-83552900D01*
X135163664Y-83515730D01*
X135163665Y-83515729D01*
X135163667Y-83515729D01*
X135326993Y-83443012D01*
X135337465Y-83435404D01*
X135384663Y-83401112D01*
X135471630Y-83337926D01*
X135526197Y-83277323D01*
X140791863Y-83277323D01*
X140811649Y-83465580D01*
X140870143Y-83645607D01*
X140964789Y-83809539D01*
X141091452Y-83950212D01*
X141244592Y-84061474D01*
X141417520Y-84138467D01*
X141504527Y-84156961D01*
X141566009Y-84190153D01*
X141599786Y-84251316D01*
X141595134Y-84321030D01*
X141553530Y-84377163D01*
X141529183Y-84391530D01*
X141415546Y-84442125D01*
X141262406Y-84553387D01*
X141135743Y-84694060D01*
X141041097Y-84857992D01*
X140982603Y-85038019D01*
X140962817Y-85226277D01*
X140982603Y-85414534D01*
X141041097Y-85594561D01*
X141135743Y-85758493D01*
X141262406Y-85899166D01*
X141415546Y-86010428D01*
X141588474Y-86087421D01*
X141773629Y-86126777D01*
X141773631Y-86126777D01*
X141962925Y-86126777D01*
X142086361Y-86100539D01*
X142148080Y-86087421D01*
X142321007Y-86010428D01*
X142474148Y-85899165D01*
X142600810Y-85758493D01*
X142695456Y-85594561D01*
X142753951Y-85414533D01*
X142773737Y-85226277D01*
X142753951Y-85038021D01*
X142710215Y-84903417D01*
X142695456Y-84857992D01*
X142600810Y-84694060D01*
X142499909Y-84581999D01*
X144128540Y-84581999D01*
X144148326Y-84770257D01*
X144206820Y-84950284D01*
X144301466Y-85114216D01*
X144428129Y-85254889D01*
X144581269Y-85366151D01*
X144754197Y-85443144D01*
X144939352Y-85482500D01*
X144939354Y-85482500D01*
X145128648Y-85482500D01*
X145252084Y-85456262D01*
X145313803Y-85443144D01*
X145486730Y-85366151D01*
X145494662Y-85360388D01*
X145639870Y-85254889D01*
X145665633Y-85226277D01*
X145766533Y-85114216D01*
X145861179Y-84950284D01*
X145919674Y-84770256D01*
X145939460Y-84582000D01*
X145919674Y-84393744D01*
X145882536Y-84279445D01*
X145861179Y-84213715D01*
X145780515Y-84074000D01*
X146160540Y-84074000D01*
X146180326Y-84262257D01*
X146238820Y-84442284D01*
X146333466Y-84606216D01*
X146460129Y-84746889D01*
X146613269Y-84858151D01*
X146786197Y-84935144D01*
X146971352Y-84974500D01*
X146971354Y-84974500D01*
X147160648Y-84974500D01*
X147302727Y-84944300D01*
X147345803Y-84935144D01*
X147518730Y-84858151D01*
X147567047Y-84823047D01*
X147671870Y-84746889D01*
X147798533Y-84606216D01*
X147893179Y-84442284D01*
X147913907Y-84378489D01*
X147951674Y-84262256D01*
X147971460Y-84074000D01*
X147951674Y-83885744D01*
X147905553Y-83743799D01*
X154724957Y-83743799D01*
X154745485Y-83965337D01*
X154806369Y-84179326D01*
X154905541Y-84378488D01*
X155039619Y-84556037D01*
X155204037Y-84705924D01*
X155393195Y-84823045D01*
X155393197Y-84823045D01*
X155393199Y-84823047D01*
X155600660Y-84903418D01*
X155819357Y-84944300D01*
X155819359Y-84944300D01*
X156041841Y-84944300D01*
X156041843Y-84944300D01*
X156260540Y-84903418D01*
X156468001Y-84823047D01*
X156657162Y-84705924D01*
X156766536Y-84606216D01*
X156821580Y-84556037D01*
X156823581Y-84553387D01*
X156955658Y-84378489D01*
X157054829Y-84179328D01*
X157055258Y-84177823D01*
X157081334Y-84086174D01*
X157118613Y-84027081D01*
X157181922Y-83997523D01*
X157251162Y-84006885D01*
X157304349Y-84052195D01*
X157319866Y-84086174D01*
X157346369Y-84179326D01*
X157445541Y-84378488D01*
X157579619Y-84556037D01*
X157744037Y-84705924D01*
X157933195Y-84823045D01*
X157933197Y-84823045D01*
X157933199Y-84823047D01*
X158140660Y-84903418D01*
X158359357Y-84944300D01*
X158359359Y-84944300D01*
X158581841Y-84944300D01*
X158581843Y-84944300D01*
X158800540Y-84903418D01*
X159008001Y-84823047D01*
X159197162Y-84705924D01*
X159306536Y-84606216D01*
X159361580Y-84556037D01*
X159363581Y-84553387D01*
X159495658Y-84378489D01*
X159594829Y-84179328D01*
X159595258Y-84177823D01*
X159628361Y-84061474D01*
X159655715Y-83965336D01*
X159676243Y-83743800D01*
X180069015Y-83743800D01*
X180087703Y-83921604D01*
X180142949Y-84091635D01*
X180232340Y-84246465D01*
X180303754Y-84325777D01*
X180351215Y-84378488D01*
X180351971Y-84379327D01*
X180496603Y-84484410D01*
X180659935Y-84557130D01*
X180834807Y-84594300D01*
X180834809Y-84594300D01*
X181013593Y-84594300D01*
X181188464Y-84557130D01*
X181188465Y-84557129D01*
X181188467Y-84557129D01*
X181351793Y-84484412D01*
X181496430Y-84379326D01*
X181616059Y-84246465D01*
X181705450Y-84091635D01*
X181760697Y-83921603D01*
X181779385Y-83743800D01*
X181760697Y-83565997D01*
X181707224Y-83401425D01*
X181705450Y-83395964D01*
X181616059Y-83241134D01*
X181509423Y-83122704D01*
X181496430Y-83108274D01*
X181496429Y-83108273D01*
X181496428Y-83108272D01*
X181351796Y-83003189D01*
X181188464Y-82930469D01*
X181013593Y-82893300D01*
X181013591Y-82893300D01*
X180834809Y-82893300D01*
X180834807Y-82893300D01*
X180659935Y-82930469D01*
X180496608Y-83003187D01*
X180351968Y-83108274D01*
X180232340Y-83241134D01*
X180142949Y-83395964D01*
X180087703Y-83565995D01*
X180069015Y-83743800D01*
X159676243Y-83743800D01*
X159655715Y-83522264D01*
X159631001Y-83435404D01*
X159594830Y-83308273D01*
X159495658Y-83109111D01*
X159361580Y-82931562D01*
X159197162Y-82781675D01*
X159008004Y-82664554D01*
X158875245Y-82613123D01*
X158800540Y-82584182D01*
X158581843Y-82543300D01*
X158359357Y-82543300D01*
X158140659Y-82584182D01*
X158140660Y-82584182D01*
X157933195Y-82664554D01*
X157744037Y-82781675D01*
X157579619Y-82931562D01*
X157445541Y-83109111D01*
X157346369Y-83308273D01*
X157319866Y-83401425D01*
X157282587Y-83460519D01*
X157219277Y-83490076D01*
X157150038Y-83480714D01*
X157096851Y-83435404D01*
X157081334Y-83401425D01*
X157054830Y-83308273D01*
X156955658Y-83109111D01*
X156821580Y-82931562D01*
X156657162Y-82781675D01*
X156468004Y-82664554D01*
X156335245Y-82613123D01*
X156260540Y-82584182D01*
X156041843Y-82543300D01*
X155819357Y-82543300D01*
X155600660Y-82584182D01*
X155393195Y-82664554D01*
X155204037Y-82781675D01*
X155039619Y-82931562D01*
X154905541Y-83109111D01*
X154806369Y-83308273D01*
X154745485Y-83522262D01*
X154724957Y-83743799D01*
X147905553Y-83743799D01*
X147900259Y-83727506D01*
X147893179Y-83705715D01*
X147798533Y-83541783D01*
X147671870Y-83401110D01*
X147518730Y-83289848D01*
X147345802Y-83212855D01*
X147160648Y-83173500D01*
X147160646Y-83173500D01*
X146971354Y-83173500D01*
X146971352Y-83173500D01*
X146786197Y-83212855D01*
X146613269Y-83289848D01*
X146460129Y-83401110D01*
X146333466Y-83541783D01*
X146238820Y-83705715D01*
X146180326Y-83885742D01*
X146160540Y-84074000D01*
X145780515Y-84074000D01*
X145766533Y-84049783D01*
X145639870Y-83909110D01*
X145486730Y-83797848D01*
X145313802Y-83720855D01*
X145128648Y-83681500D01*
X145128646Y-83681500D01*
X144939354Y-83681500D01*
X144939352Y-83681500D01*
X144754197Y-83720855D01*
X144581269Y-83797848D01*
X144428129Y-83909110D01*
X144301466Y-84049783D01*
X144206820Y-84213715D01*
X144148326Y-84393742D01*
X144128540Y-84581999D01*
X142499909Y-84581999D01*
X142474147Y-84553387D01*
X142321007Y-84442125D01*
X142148079Y-84365132D01*
X142061071Y-84346638D01*
X141999589Y-84313446D01*
X141965813Y-84252283D01*
X141970465Y-84182568D01*
X142012070Y-84126436D01*
X142036412Y-84112070D01*
X142150053Y-84061474D01*
X142150053Y-84061473D01*
X142150055Y-84061473D01*
X142303193Y-83950212D01*
X142361241Y-83885744D01*
X142429856Y-83809539D01*
X142524502Y-83645607D01*
X142582997Y-83465579D01*
X142602783Y-83277323D01*
X142582997Y-83089067D01*
X142524502Y-82909039D01*
X142524502Y-82909038D01*
X142429856Y-82745106D01*
X142303193Y-82604433D01*
X142150053Y-82493171D01*
X142136593Y-82487178D01*
X161996237Y-82487178D01*
X162014925Y-82664982D01*
X162070171Y-82835013D01*
X162159562Y-82989843D01*
X162279193Y-83122705D01*
X162423825Y-83227788D01*
X162423828Y-83227789D01*
X162423829Y-83227790D01*
X162453803Y-83241135D01*
X162587157Y-83300508D01*
X162762029Y-83337678D01*
X162762031Y-83337678D01*
X162940815Y-83337678D01*
X163115686Y-83300508D01*
X163115687Y-83300507D01*
X163115689Y-83300507D01*
X163279015Y-83227790D01*
X163423652Y-83122704D01*
X163543281Y-82989843D01*
X163632672Y-82835013D01*
X163687919Y-82664981D01*
X163706607Y-82487178D01*
X163687919Y-82309375D01*
X163652294Y-82199734D01*
X163632672Y-82139342D01*
X163543281Y-81984512D01*
X163423650Y-81851650D01*
X163279018Y-81746567D01*
X163115686Y-81673847D01*
X162940815Y-81636678D01*
X162940813Y-81636678D01*
X162762031Y-81636678D01*
X162762029Y-81636678D01*
X162587157Y-81673847D01*
X162423830Y-81746565D01*
X162279190Y-81851652D01*
X162159562Y-81984512D01*
X162070171Y-82139342D01*
X162014925Y-82309373D01*
X161996237Y-82487178D01*
X142136593Y-82487178D01*
X141977125Y-82416178D01*
X141791971Y-82376823D01*
X141791969Y-82376823D01*
X141602677Y-82376823D01*
X141602675Y-82376823D01*
X141417520Y-82416178D01*
X141244592Y-82493171D01*
X141091452Y-82604433D01*
X140964789Y-82745106D01*
X140870143Y-82909038D01*
X140811649Y-83089065D01*
X140791863Y-83277323D01*
X135526197Y-83277323D01*
X135591259Y-83205065D01*
X135680650Y-83050235D01*
X135735897Y-82880203D01*
X135754585Y-82702400D01*
X135735897Y-82524597D01*
X135680650Y-82354565D01*
X135680650Y-82354564D01*
X135591259Y-82199734D01*
X135471628Y-82066872D01*
X135326996Y-81961789D01*
X135163664Y-81889069D01*
X134988793Y-81851900D01*
X134988791Y-81851900D01*
X134810009Y-81851900D01*
X134810007Y-81851900D01*
X134635135Y-81889069D01*
X134471808Y-81961787D01*
X134327168Y-82066874D01*
X134207540Y-82199734D01*
X134118149Y-82354564D01*
X134062903Y-82524595D01*
X134044215Y-82702399D01*
X132319382Y-82702399D01*
X132310845Y-82670540D01*
X132218372Y-82472232D01*
X132092868Y-82292993D01*
X131938147Y-82138272D01*
X131758909Y-82012768D01*
X131641534Y-81958035D01*
X131560601Y-81920295D01*
X131349244Y-81863662D01*
X131131270Y-81844592D01*
X130913295Y-81863662D01*
X130701938Y-81920295D01*
X130503631Y-82012768D01*
X130324392Y-82138272D01*
X130169672Y-82292992D01*
X130044168Y-82472231D01*
X129951695Y-82670538D01*
X129895062Y-82881895D01*
X129875992Y-83099869D01*
X114922793Y-83099869D01*
X114896593Y-83033112D01*
X114769159Y-82812388D01*
X114610250Y-82613123D01*
X114423417Y-82439768D01*
X114212834Y-82296195D01*
X113983204Y-82185611D01*
X113739658Y-82110487D01*
X113487635Y-82072500D01*
X113232765Y-82072500D01*
X112980742Y-82110487D01*
X112737196Y-82185611D01*
X112507566Y-82296195D01*
X112427458Y-82350812D01*
X112296981Y-82439769D01*
X112110150Y-82613123D01*
X111951238Y-82812392D01*
X111823808Y-83033108D01*
X111730692Y-83270362D01*
X111673977Y-83518845D01*
X111654931Y-83772999D01*
X94368946Y-83772999D01*
X94370318Y-79649189D01*
X126425311Y-79649189D01*
X126444381Y-79867163D01*
X126501014Y-80078520D01*
X126539882Y-80161872D01*
X126593487Y-80276828D01*
X126718991Y-80456066D01*
X126873712Y-80610787D01*
X127052950Y-80736291D01*
X127251259Y-80828764D01*
X127462612Y-80885396D01*
X127607929Y-80898109D01*
X127680588Y-80904466D01*
X127680588Y-80904465D01*
X127680589Y-80904466D01*
X127898566Y-80885396D01*
X128109919Y-80828764D01*
X128308228Y-80736291D01*
X128487466Y-80610787D01*
X128642187Y-80456066D01*
X128767691Y-80276828D01*
X128856583Y-80086199D01*
X131453415Y-80086199D01*
X131472103Y-80264004D01*
X131527349Y-80434035D01*
X131616740Y-80588865D01*
X131736371Y-80721727D01*
X131881003Y-80826810D01*
X131881006Y-80826811D01*
X131881007Y-80826812D01*
X131905561Y-80837744D01*
X132044335Y-80899530D01*
X132219207Y-80936700D01*
X132219209Y-80936700D01*
X132397993Y-80936700D01*
X132572864Y-80899530D01*
X132572865Y-80899529D01*
X132572867Y-80899529D01*
X132736193Y-80826812D01*
X132776675Y-80797400D01*
X137295415Y-80797400D01*
X137314103Y-80975204D01*
X137369349Y-81145235D01*
X137458740Y-81300065D01*
X137578371Y-81432927D01*
X137723003Y-81538010D01*
X137886335Y-81610730D01*
X138061207Y-81647900D01*
X138061209Y-81647900D01*
X138239993Y-81647900D01*
X138414864Y-81610730D01*
X138414865Y-81610729D01*
X138414867Y-81610729D01*
X138416055Y-81610200D01*
X139378215Y-81610200D01*
X139384905Y-81673847D01*
X139396903Y-81788004D01*
X139452149Y-81958035D01*
X139541540Y-82112865D01*
X139661171Y-82245727D01*
X139805803Y-82350810D01*
X139805806Y-82350811D01*
X139805807Y-82350812D01*
X139864229Y-82376823D01*
X139969135Y-82423530D01*
X140144007Y-82460700D01*
X140144009Y-82460700D01*
X140322793Y-82460700D01*
X140497664Y-82423530D01*
X140497665Y-82423529D01*
X140497667Y-82423529D01*
X140660993Y-82350812D01*
X140805630Y-82245726D01*
X140925259Y-82112865D01*
X141014650Y-81958035D01*
X141069897Y-81788003D01*
X141088585Y-81610200D01*
X141080777Y-81535915D01*
X144404641Y-81535915D01*
X144424427Y-81724172D01*
X144482921Y-81904199D01*
X144577567Y-82068131D01*
X144704230Y-82208804D01*
X144857370Y-82320066D01*
X145030298Y-82397059D01*
X145215453Y-82436415D01*
X145215455Y-82436415D01*
X145404749Y-82436415D01*
X145528185Y-82410177D01*
X145589904Y-82397059D01*
X145762831Y-82320066D01*
X145800095Y-82292992D01*
X145915971Y-82208804D01*
X146042634Y-82068131D01*
X146137280Y-81904199D01*
X146142196Y-81889069D01*
X146195775Y-81724171D01*
X146215561Y-81535915D01*
X146195775Y-81347659D01*
X146152430Y-81214257D01*
X146137280Y-81167630D01*
X146055510Y-81026000D01*
X146668540Y-81026000D01*
X146688326Y-81214257D01*
X146746820Y-81394284D01*
X146841466Y-81558216D01*
X146968129Y-81698889D01*
X147121269Y-81810151D01*
X147294197Y-81887144D01*
X147479352Y-81926500D01*
X147479354Y-81926500D01*
X147668648Y-81926500D01*
X147792084Y-81900262D01*
X147853803Y-81887144D01*
X148026730Y-81810151D01*
X148114249Y-81746565D01*
X148179870Y-81698889D01*
X148306533Y-81558216D01*
X148401179Y-81394284D01*
X148416329Y-81347657D01*
X148459674Y-81214256D01*
X148479460Y-81026000D01*
X148459674Y-80837744D01*
X148401179Y-80657716D01*
X148401179Y-80657715D01*
X148306533Y-80493783D01*
X148179870Y-80353110D01*
X148026730Y-80241848D01*
X147853802Y-80164855D01*
X147668648Y-80125500D01*
X147668646Y-80125500D01*
X147479354Y-80125500D01*
X147479352Y-80125500D01*
X147294197Y-80164855D01*
X147121269Y-80241848D01*
X146968129Y-80353110D01*
X146841466Y-80493783D01*
X146746820Y-80657715D01*
X146688326Y-80837742D01*
X146668540Y-81026000D01*
X146055510Y-81026000D01*
X146042634Y-81003698D01*
X145915971Y-80863025D01*
X145762831Y-80751763D01*
X145589903Y-80674770D01*
X145404749Y-80635415D01*
X145404747Y-80635415D01*
X145215455Y-80635415D01*
X145215453Y-80635415D01*
X145030298Y-80674770D01*
X144857370Y-80751763D01*
X144704230Y-80863025D01*
X144577567Y-81003698D01*
X144482921Y-81167630D01*
X144424427Y-81347657D01*
X144404641Y-81535915D01*
X141080777Y-81535915D01*
X141069897Y-81432397D01*
X141014650Y-81262365D01*
X141014650Y-81262364D01*
X140925259Y-81107534D01*
X140805628Y-80974672D01*
X140660996Y-80869589D01*
X140497664Y-80796869D01*
X140322793Y-80759700D01*
X140322791Y-80759700D01*
X140144009Y-80759700D01*
X140144007Y-80759700D01*
X139969135Y-80796869D01*
X139805808Y-80869587D01*
X139661168Y-80974674D01*
X139541540Y-81107534D01*
X139452149Y-81262364D01*
X139396903Y-81432395D01*
X139385802Y-81538012D01*
X139378215Y-81610200D01*
X138416055Y-81610200D01*
X138578193Y-81538012D01*
X138722830Y-81432926D01*
X138842459Y-81300065D01*
X138931850Y-81145235D01*
X138987097Y-80975203D01*
X139005785Y-80797400D01*
X138987097Y-80619597D01*
X138946218Y-80493784D01*
X138931850Y-80449564D01*
X138842459Y-80294734D01*
X138722828Y-80161872D01*
X138578196Y-80056789D01*
X138414864Y-79984069D01*
X138239993Y-79946900D01*
X138239991Y-79946900D01*
X138061209Y-79946900D01*
X138061207Y-79946900D01*
X137886335Y-79984069D01*
X137723008Y-80056787D01*
X137578368Y-80161874D01*
X137458740Y-80294734D01*
X137369349Y-80449564D01*
X137314103Y-80619595D01*
X137295415Y-80797400D01*
X132776675Y-80797400D01*
X132880830Y-80721726D01*
X133000459Y-80588865D01*
X133089850Y-80434035D01*
X133145097Y-80264003D01*
X133163785Y-80086200D01*
X133145097Y-79908397D01*
X133089850Y-79738365D01*
X133089850Y-79738364D01*
X133000459Y-79583534D01*
X132880828Y-79450672D01*
X132736196Y-79345589D01*
X132572864Y-79272869D01*
X132397993Y-79235700D01*
X132397991Y-79235700D01*
X132219209Y-79235700D01*
X132219207Y-79235700D01*
X132044335Y-79272869D01*
X131881008Y-79345587D01*
X131736368Y-79450674D01*
X131616740Y-79583534D01*
X131527349Y-79738364D01*
X131472103Y-79908395D01*
X131453415Y-80086199D01*
X128856583Y-80086199D01*
X128860164Y-80078519D01*
X128916796Y-79867166D01*
X128935866Y-79649189D01*
X128916796Y-79431212D01*
X128860164Y-79219859D01*
X128767691Y-79021551D01*
X128642187Y-78842312D01*
X128487466Y-78687591D01*
X128308228Y-78562087D01*
X128196990Y-78510216D01*
X128109920Y-78469614D01*
X127898563Y-78412981D01*
X127680588Y-78393911D01*
X127462614Y-78412981D01*
X127251257Y-78469614D01*
X127052950Y-78562087D01*
X126873711Y-78687591D01*
X126718991Y-78842311D01*
X126593487Y-79021550D01*
X126501014Y-79219857D01*
X126444381Y-79431214D01*
X126425311Y-79649189D01*
X94370318Y-79649189D01*
X94370874Y-77977999D01*
X146668540Y-77977999D01*
X146688326Y-78166257D01*
X146746820Y-78346284D01*
X146841466Y-78510216D01*
X146968129Y-78650889D01*
X147121269Y-78762151D01*
X147294197Y-78839144D01*
X147479352Y-78878500D01*
X147479354Y-78878500D01*
X147668648Y-78878500D01*
X147792084Y-78852262D01*
X147853803Y-78839144D01*
X148026730Y-78762151D01*
X148091455Y-78715126D01*
X148179870Y-78650889D01*
X148233705Y-78591100D01*
X148306533Y-78510216D01*
X148401179Y-78346284D01*
X148459674Y-78166256D01*
X148468782Y-78079599D01*
X151849615Y-78079599D01*
X151868303Y-78257404D01*
X151923549Y-78427435D01*
X152012940Y-78582265D01*
X152132571Y-78715127D01*
X152277203Y-78820210D01*
X152277206Y-78820211D01*
X152277207Y-78820212D01*
X152326845Y-78842312D01*
X152440535Y-78892930D01*
X152615407Y-78930100D01*
X152615409Y-78930100D01*
X152794193Y-78930100D01*
X152969064Y-78892930D01*
X152969065Y-78892929D01*
X152969067Y-78892929D01*
X153132393Y-78820212D01*
X153277030Y-78715126D01*
X153396659Y-78582265D01*
X153396659Y-78582263D01*
X153405380Y-78572579D01*
X153407030Y-78574065D01*
X153445045Y-78537809D01*
X153513650Y-78524578D01*
X153552313Y-78534738D01*
X153558134Y-78537330D01*
X153733007Y-78574500D01*
X153733009Y-78574500D01*
X153911793Y-78574500D01*
X154086664Y-78537330D01*
X154086665Y-78537329D01*
X154086667Y-78537329D01*
X154249993Y-78464612D01*
X154394630Y-78359526D01*
X154514259Y-78226665D01*
X154603650Y-78071835D01*
X154658897Y-77901803D01*
X154677585Y-77724000D01*
X154658897Y-77546197D01*
X154603650Y-77376165D01*
X154603650Y-77376164D01*
X154514259Y-77221334D01*
X154486586Y-77190600D01*
X168861699Y-77190600D01*
X168880865Y-77421899D01*
X168880865Y-77421901D01*
X168880866Y-77421905D01*
X168928427Y-77609716D01*
X168937844Y-77646903D01*
X169000500Y-77789744D01*
X169031076Y-77859449D01*
X169158021Y-78053753D01*
X169315216Y-78224513D01*
X169498374Y-78367070D01*
X169702497Y-78477536D01*
X169797691Y-78510216D01*
X169922015Y-78552897D01*
X169922017Y-78552897D01*
X169922019Y-78552898D01*
X170150951Y-78591100D01*
X170150952Y-78591100D01*
X170383048Y-78591100D01*
X170383049Y-78591100D01*
X170611981Y-78552898D01*
X170831503Y-78477536D01*
X171035626Y-78367070D01*
X171218784Y-78224513D01*
X171227132Y-78215444D01*
X171287016Y-78179453D01*
X171356855Y-78181550D01*
X171414472Y-78221073D01*
X171434544Y-78256091D01*
X171463204Y-78332931D01*
X171549454Y-78448146D01*
X171664669Y-78534396D01*
X171799517Y-78584691D01*
X171859127Y-78591100D01*
X173754872Y-78591099D01*
X173814483Y-78584691D01*
X173949331Y-78534396D01*
X174064546Y-78448146D01*
X174150796Y-78332931D01*
X174201091Y-78198083D01*
X174207500Y-78138473D01*
X174207500Y-77342999D01*
X175786557Y-77342999D01*
X175807085Y-77564537D01*
X175867969Y-77778526D01*
X175967141Y-77977688D01*
X176101219Y-78155237D01*
X176265637Y-78305124D01*
X176454795Y-78422245D01*
X176454797Y-78422245D01*
X176454799Y-78422247D01*
X176662260Y-78502618D01*
X176880957Y-78543500D01*
X176880959Y-78543500D01*
X177103441Y-78543500D01*
X177103443Y-78543500D01*
X177322140Y-78502618D01*
X177529601Y-78422247D01*
X177718762Y-78305124D01*
X177883181Y-78155236D01*
X178017258Y-77977689D01*
X178116429Y-77778528D01*
X178129735Y-77731765D01*
X178142934Y-77685374D01*
X178180213Y-77626281D01*
X178243522Y-77596723D01*
X178312762Y-77606085D01*
X178365949Y-77651395D01*
X178381466Y-77685374D01*
X178407969Y-77778526D01*
X178507141Y-77977688D01*
X178641219Y-78155237D01*
X178805637Y-78305124D01*
X178994795Y-78422245D01*
X178994797Y-78422245D01*
X178994799Y-78422247D01*
X179202260Y-78502618D01*
X179420957Y-78543500D01*
X179420959Y-78543500D01*
X179643441Y-78543500D01*
X179643443Y-78543500D01*
X179862140Y-78502618D01*
X180069601Y-78422247D01*
X180258762Y-78305124D01*
X180423181Y-78155236D01*
X180557258Y-77977689D01*
X180656429Y-77778528D01*
X180717315Y-77564536D01*
X180737843Y-77343000D01*
X180717315Y-77121464D01*
X180690936Y-77028751D01*
X180656430Y-76907473D01*
X180557258Y-76708311D01*
X180423180Y-76530762D01*
X180258762Y-76380875D01*
X180069604Y-76263754D01*
X179993272Y-76234183D01*
X179862140Y-76183382D01*
X179643443Y-76142500D01*
X179420957Y-76142500D01*
X179214783Y-76181041D01*
X179202260Y-76183382D01*
X178994795Y-76263754D01*
X178805637Y-76380875D01*
X178641219Y-76530762D01*
X178507141Y-76708311D01*
X178407969Y-76907473D01*
X178381466Y-77000625D01*
X178344187Y-77059719D01*
X178280877Y-77089276D01*
X178211638Y-77079914D01*
X178158451Y-77034604D01*
X178142934Y-77000625D01*
X178116430Y-76907473D01*
X178017258Y-76708311D01*
X177883180Y-76530762D01*
X177718762Y-76380875D01*
X177529604Y-76263754D01*
X177453272Y-76234183D01*
X177322140Y-76183382D01*
X177103443Y-76142500D01*
X176880957Y-76142500D01*
X176674783Y-76181041D01*
X176662260Y-76183382D01*
X176454795Y-76263754D01*
X176265637Y-76380875D01*
X176101219Y-76530762D01*
X175967141Y-76708311D01*
X175867969Y-76907473D01*
X175807085Y-77121462D01*
X175786557Y-77342999D01*
X174207500Y-77342999D01*
X174207499Y-76242728D01*
X174201091Y-76183117D01*
X174150796Y-76048269D01*
X174064546Y-75933054D01*
X173949331Y-75846804D01*
X173814483Y-75796509D01*
X173814482Y-75796508D01*
X173758166Y-75790454D01*
X173758165Y-75790453D01*
X173754873Y-75790100D01*
X173751550Y-75790100D01*
X171862439Y-75790100D01*
X171862420Y-75790100D01*
X171859128Y-75790101D01*
X171855848Y-75790453D01*
X171855840Y-75790454D01*
X171799515Y-75796509D01*
X171664669Y-75846804D01*
X171549454Y-75933054D01*
X171463204Y-76048269D01*
X171434545Y-76125108D01*
X171392673Y-76181041D01*
X171327209Y-76205458D01*
X171258936Y-76190606D01*
X171227133Y-76165757D01*
X171218784Y-76156687D01*
X171035627Y-76014131D01*
X171035626Y-76014130D01*
X170831503Y-75903664D01*
X170831499Y-75903662D01*
X170831498Y-75903662D01*
X170611984Y-75828302D01*
X170404017Y-75793599D01*
X170383049Y-75790100D01*
X170150951Y-75790100D01*
X170129983Y-75793599D01*
X169922015Y-75828302D01*
X169702501Y-75903662D01*
X169498372Y-76014131D01*
X169315215Y-76156687D01*
X169158020Y-76327448D01*
X169031076Y-76521750D01*
X168937844Y-76734296D01*
X168937842Y-76734300D01*
X168937843Y-76734300D01*
X168893180Y-76910671D01*
X168880865Y-76959300D01*
X168861699Y-77190600D01*
X154486586Y-77190600D01*
X154394628Y-77088472D01*
X154249996Y-76983389D01*
X154086664Y-76910669D01*
X153911793Y-76873500D01*
X153911791Y-76873500D01*
X153733009Y-76873500D01*
X153733007Y-76873500D01*
X153558135Y-76910669D01*
X153394808Y-76983387D01*
X153250168Y-77088474D01*
X153121820Y-77231020D01*
X153120171Y-77229535D01*
X153082131Y-77265801D01*
X153013523Y-77279019D01*
X152974886Y-77268861D01*
X152969067Y-77266270D01*
X152794193Y-77229100D01*
X152794191Y-77229100D01*
X152615409Y-77229100D01*
X152615407Y-77229100D01*
X152440535Y-77266269D01*
X152277208Y-77338987D01*
X152132568Y-77444074D01*
X152012940Y-77576934D01*
X151923549Y-77731764D01*
X151868303Y-77901795D01*
X151849615Y-78079599D01*
X148468782Y-78079599D01*
X148479460Y-77978000D01*
X148459674Y-77789744D01*
X148401179Y-77609716D01*
X148401178Y-77609715D01*
X148401178Y-77609713D01*
X148359299Y-77537175D01*
X148342826Y-77469275D01*
X148365679Y-77403248D01*
X148420600Y-77360058D01*
X148490154Y-77353417D01*
X148492429Y-77353878D01*
X148495354Y-77354500D01*
X148495355Y-77354500D01*
X148684648Y-77354500D01*
X148808084Y-77328262D01*
X148869803Y-77315144D01*
X149042730Y-77238151D01*
X149195871Y-77126888D01*
X149322533Y-76986216D01*
X149417179Y-76822284D01*
X149475674Y-76642256D01*
X149495460Y-76454000D01*
X149475674Y-76265744D01*
X149417179Y-76085716D01*
X149417179Y-76085715D01*
X149322533Y-75921783D01*
X149207115Y-75793599D01*
X152267715Y-75793599D01*
X152286403Y-75971404D01*
X152341649Y-76141435D01*
X152431040Y-76296265D01*
X152550671Y-76429127D01*
X152695303Y-76534210D01*
X152695306Y-76534211D01*
X152695307Y-76534212D01*
X152804191Y-76582689D01*
X152858635Y-76606930D01*
X153033507Y-76644100D01*
X153033509Y-76644100D01*
X153212293Y-76644100D01*
X153387164Y-76606930D01*
X153387165Y-76606929D01*
X153387167Y-76606929D01*
X153550493Y-76534212D01*
X153555242Y-76530762D01*
X153591559Y-76504374D01*
X153695130Y-76429126D01*
X153814759Y-76296265D01*
X153815127Y-76295626D01*
X153816591Y-76294230D01*
X153823481Y-76286579D01*
X153824064Y-76287104D01*
X153865691Y-76247409D01*
X153934298Y-76234183D01*
X153999164Y-76260148D01*
X154029904Y-76295621D01*
X154044941Y-76321666D01*
X154164571Y-76454527D01*
X154309203Y-76559610D01*
X154472535Y-76632330D01*
X154647407Y-76669500D01*
X154647409Y-76669500D01*
X154826193Y-76669500D01*
X155001064Y-76632330D01*
X155001065Y-76632329D01*
X155001067Y-76632329D01*
X155164393Y-76559612D01*
X155199356Y-76534210D01*
X155216505Y-76521750D01*
X155309030Y-76454526D01*
X155428659Y-76321665D01*
X155518050Y-76166835D01*
X155573297Y-75996803D01*
X155591985Y-75819000D01*
X161095215Y-75819000D01*
X161113903Y-75996804D01*
X161169149Y-76166835D01*
X161258540Y-76321665D01*
X161378171Y-76454527D01*
X161522803Y-76559610D01*
X161686135Y-76632330D01*
X161861007Y-76669500D01*
X161861009Y-76669500D01*
X162039793Y-76669500D01*
X162214664Y-76632330D01*
X162214665Y-76632329D01*
X162214667Y-76632329D01*
X162377993Y-76559612D01*
X162412956Y-76534210D01*
X162430105Y-76521750D01*
X162522630Y-76454526D01*
X162642259Y-76321665D01*
X162731650Y-76166835D01*
X162786897Y-75996803D01*
X162805585Y-75819000D01*
X162786897Y-75641197D01*
X162758240Y-75553001D01*
X162731650Y-75471164D01*
X162642259Y-75316334D01*
X162522628Y-75183472D01*
X162377996Y-75078389D01*
X162214664Y-75005669D01*
X162039793Y-74968500D01*
X162039791Y-74968500D01*
X161861009Y-74968500D01*
X161861007Y-74968500D01*
X161686135Y-75005669D01*
X161522808Y-75078387D01*
X161378168Y-75183474D01*
X161258540Y-75316334D01*
X161169149Y-75471164D01*
X161113903Y-75641195D01*
X161095215Y-75819000D01*
X155591985Y-75819000D01*
X155573297Y-75641197D01*
X155544640Y-75553001D01*
X155518050Y-75471164D01*
X155428659Y-75316334D01*
X155309028Y-75183472D01*
X155164396Y-75078389D01*
X155001064Y-75005669D01*
X154826193Y-74968500D01*
X154826191Y-74968500D01*
X154647409Y-74968500D01*
X154647407Y-74968500D01*
X154472535Y-75005669D01*
X154309208Y-75078387D01*
X154164568Y-75183474D01*
X154044938Y-75316337D01*
X154044566Y-75316982D01*
X154043095Y-75318383D01*
X154036220Y-75326020D01*
X154035636Y-75325495D01*
X153993997Y-75365195D01*
X153925389Y-75378415D01*
X153860525Y-75352444D01*
X153829795Y-75316977D01*
X153814759Y-75290934D01*
X153695128Y-75158072D01*
X153550496Y-75052989D01*
X153387164Y-74980269D01*
X153212293Y-74943100D01*
X153212291Y-74943100D01*
X153033509Y-74943100D01*
X153033507Y-74943100D01*
X152858635Y-74980269D01*
X152695308Y-75052987D01*
X152550668Y-75158074D01*
X152431040Y-75290934D01*
X152341649Y-75445764D01*
X152286403Y-75615795D01*
X152267715Y-75793599D01*
X149207115Y-75793599D01*
X149195870Y-75781110D01*
X149042730Y-75669848D01*
X148869802Y-75592855D01*
X148684648Y-75553500D01*
X148684646Y-75553500D01*
X148495354Y-75553500D01*
X148495352Y-75553500D01*
X148310197Y-75592855D01*
X148137269Y-75669848D01*
X147984129Y-75781110D01*
X147857466Y-75921783D01*
X147762820Y-76085715D01*
X147704326Y-76265742D01*
X147684540Y-76454000D01*
X147704326Y-76642257D01*
X147762820Y-76822283D01*
X147804701Y-76894824D01*
X147821172Y-76962724D01*
X147798320Y-77028751D01*
X147743398Y-77071941D01*
X147673845Y-77078582D01*
X147671533Y-77078113D01*
X147668649Y-77077500D01*
X147668646Y-77077500D01*
X147479354Y-77077500D01*
X147479352Y-77077500D01*
X147294197Y-77116855D01*
X147121269Y-77193848D01*
X146968129Y-77305110D01*
X146841466Y-77445783D01*
X146746820Y-77609715D01*
X146688326Y-77789742D01*
X146668540Y-77977999D01*
X94370874Y-77977999D01*
X94371465Y-76200000D01*
X124316540Y-76200000D01*
X124336326Y-76388257D01*
X124394820Y-76568284D01*
X124489466Y-76732216D01*
X124616129Y-76872889D01*
X124769269Y-76984151D01*
X124942197Y-77061144D01*
X125127352Y-77100500D01*
X125127354Y-77100500D01*
X125316648Y-77100500D01*
X125440083Y-77074262D01*
X125501803Y-77061144D01*
X125674730Y-76984151D01*
X125708935Y-76959300D01*
X125827870Y-76872889D01*
X125954533Y-76732216D01*
X126049179Y-76568284D01*
X126061371Y-76530762D01*
X126107674Y-76388256D01*
X126127460Y-76200000D01*
X126107674Y-76011744D01*
X126077332Y-75918363D01*
X126049179Y-75831715D01*
X125954533Y-75667783D01*
X125827870Y-75527110D01*
X125674730Y-75415848D01*
X125618074Y-75390623D01*
X144081163Y-75390623D01*
X144100949Y-75578880D01*
X144159443Y-75758907D01*
X144254089Y-75922839D01*
X144380752Y-76063512D01*
X144533892Y-76174774D01*
X144706820Y-76251767D01*
X144891975Y-76291123D01*
X144891977Y-76291123D01*
X145081271Y-76291123D01*
X145226996Y-76260148D01*
X145266426Y-76251767D01*
X145439353Y-76174774D01*
X145507713Y-76125108D01*
X145592493Y-76063512D01*
X145719156Y-75922839D01*
X145813802Y-75758907D01*
X145842739Y-75669848D01*
X145872297Y-75578879D01*
X145892083Y-75390623D01*
X145872297Y-75202367D01*
X145813802Y-75022339D01*
X145813802Y-75022338D01*
X145719156Y-74858406D01*
X145592493Y-74717733D01*
X145439353Y-74606471D01*
X145266425Y-74529478D01*
X145081271Y-74490123D01*
X145081269Y-74490123D01*
X144891977Y-74490123D01*
X144891975Y-74490123D01*
X144706820Y-74529478D01*
X144533892Y-74606471D01*
X144380752Y-74717733D01*
X144254089Y-74858406D01*
X144159443Y-75022338D01*
X144100949Y-75202365D01*
X144081163Y-75390623D01*
X125618074Y-75390623D01*
X125501802Y-75338855D01*
X125316648Y-75299500D01*
X125316646Y-75299500D01*
X125127354Y-75299500D01*
X125127352Y-75299500D01*
X124942197Y-75338855D01*
X124769269Y-75415848D01*
X124616129Y-75527110D01*
X124489466Y-75667783D01*
X124394820Y-75831715D01*
X124336326Y-76011742D01*
X124316540Y-76200000D01*
X94371465Y-76200000D01*
X94372310Y-73660000D01*
X106540357Y-73660000D01*
X106560885Y-73881537D01*
X106621769Y-74095526D01*
X106720941Y-74294688D01*
X106855019Y-74472237D01*
X107019437Y-74622124D01*
X107208595Y-74739245D01*
X107208597Y-74739245D01*
X107208599Y-74739247D01*
X107416060Y-74819618D01*
X107634757Y-74860500D01*
X107634759Y-74860500D01*
X107857241Y-74860500D01*
X107857243Y-74860500D01*
X108075940Y-74819618D01*
X108283401Y-74739247D01*
X108472562Y-74622124D01*
X108489731Y-74606472D01*
X108636980Y-74472237D01*
X108682973Y-74411332D01*
X108771058Y-74294689D01*
X108870229Y-74095528D01*
X108874416Y-74080814D01*
X108896734Y-74002374D01*
X108934013Y-73943281D01*
X108997322Y-73913723D01*
X109066562Y-73923085D01*
X109119749Y-73968395D01*
X109135266Y-74002374D01*
X109161769Y-74095526D01*
X109260941Y-74294688D01*
X109395019Y-74472237D01*
X109559437Y-74622124D01*
X109748595Y-74739245D01*
X109748597Y-74739245D01*
X109748599Y-74739247D01*
X109956060Y-74819618D01*
X110174757Y-74860500D01*
X110174759Y-74860500D01*
X110397241Y-74860500D01*
X110397243Y-74860500D01*
X110615940Y-74819618D01*
X110823401Y-74739247D01*
X111012562Y-74622124D01*
X111029731Y-74606472D01*
X111176980Y-74472237D01*
X111214918Y-74421999D01*
X113648540Y-74421999D01*
X113668326Y-74610257D01*
X113726820Y-74790284D01*
X113821466Y-74954216D01*
X113948129Y-75094889D01*
X114101269Y-75206151D01*
X114274197Y-75283144D01*
X114459352Y-75322500D01*
X114459354Y-75322500D01*
X114648648Y-75322500D01*
X114797149Y-75290935D01*
X114833803Y-75283144D01*
X115006730Y-75206151D01*
X115159871Y-75094888D01*
X115286533Y-74954216D01*
X115381179Y-74790284D01*
X115439674Y-74610256D01*
X115459460Y-74422000D01*
X115439674Y-74233744D01*
X115381179Y-74053716D01*
X115381179Y-74053715D01*
X115329843Y-73964799D01*
X130158540Y-73964799D01*
X130178326Y-74153057D01*
X130236820Y-74333084D01*
X130331466Y-74497016D01*
X130458129Y-74637689D01*
X130611269Y-74748951D01*
X130784197Y-74825944D01*
X130969352Y-74865300D01*
X130969354Y-74865300D01*
X131158648Y-74865300D01*
X131282084Y-74839062D01*
X131343803Y-74825944D01*
X131516730Y-74748951D01*
X131669871Y-74637688D01*
X131796533Y-74497016D01*
X131891179Y-74333084D01*
X131949674Y-74153056D01*
X131969460Y-73964800D01*
X131949674Y-73776544D01*
X131901051Y-73626898D01*
X131891179Y-73596515D01*
X131796533Y-73432583D01*
X131669870Y-73291910D01*
X131516730Y-73180648D01*
X131343802Y-73103655D01*
X131158648Y-73064300D01*
X131158646Y-73064300D01*
X130969354Y-73064300D01*
X130969352Y-73064300D01*
X130784197Y-73103655D01*
X130611269Y-73180648D01*
X130458129Y-73291910D01*
X130331466Y-73432583D01*
X130236820Y-73596515D01*
X130178326Y-73776542D01*
X130158540Y-73964799D01*
X115329843Y-73964799D01*
X115286533Y-73889783D01*
X115159870Y-73749110D01*
X115006730Y-73637848D01*
X114833802Y-73560855D01*
X114648648Y-73521500D01*
X114648646Y-73521500D01*
X114459354Y-73521500D01*
X114459352Y-73521500D01*
X114274197Y-73560855D01*
X114101269Y-73637848D01*
X113948129Y-73749110D01*
X113821466Y-73889783D01*
X113726820Y-74053715D01*
X113668326Y-74233742D01*
X113648540Y-74421999D01*
X111214918Y-74421999D01*
X111222973Y-74411332D01*
X111311058Y-74294689D01*
X111410229Y-74095528D01*
X111414416Y-74080814D01*
X111447424Y-73964800D01*
X111471115Y-73881536D01*
X111491643Y-73660000D01*
X111471115Y-73438464D01*
X111437251Y-73319443D01*
X111410230Y-73224473D01*
X111311058Y-73025311D01*
X111176980Y-72847762D01*
X111012562Y-72697875D01*
X110959951Y-72665300D01*
X116808022Y-72665300D01*
X116827092Y-72883274D01*
X116883725Y-73094631D01*
X116910230Y-73151471D01*
X116976198Y-73292939D01*
X117101702Y-73472177D01*
X117256423Y-73626898D01*
X117435661Y-73752402D01*
X117633970Y-73844875D01*
X117845323Y-73901507D01*
X117984956Y-73913723D01*
X118063299Y-73920577D01*
X118063299Y-73920576D01*
X118063300Y-73920577D01*
X118281277Y-73901507D01*
X118492630Y-73844875D01*
X118690939Y-73752402D01*
X118870177Y-73626898D01*
X119024898Y-73472177D01*
X119150402Y-73292939D01*
X119242875Y-73094630D01*
X119299507Y-72883277D01*
X119318577Y-72665300D01*
X119299507Y-72447323D01*
X119242875Y-72235970D01*
X119219947Y-72186800D01*
X132520740Y-72186800D01*
X132540526Y-72375057D01*
X132599020Y-72555084D01*
X132693666Y-72719016D01*
X132820329Y-72859689D01*
X132973469Y-72970951D01*
X133146397Y-73047944D01*
X133331552Y-73087300D01*
X133331554Y-73087300D01*
X133520848Y-73087300D01*
X133644284Y-73061062D01*
X133706003Y-73047944D01*
X133878930Y-72970951D01*
X133979340Y-72897999D01*
X134032070Y-72859689D01*
X134072407Y-72814891D01*
X134158733Y-72719016D01*
X134253379Y-72555084D01*
X134311874Y-72375056D01*
X134315479Y-72340757D01*
X140246438Y-72340757D01*
X140265126Y-72518561D01*
X140320372Y-72688592D01*
X140409763Y-72843422D01*
X140529394Y-72976284D01*
X140674028Y-73081368D01*
X140674029Y-73081368D01*
X140674030Y-73081369D01*
X140752794Y-73116437D01*
X140754329Y-73117120D01*
X140807567Y-73162369D01*
X140827889Y-73229218D01*
X140808845Y-73296442D01*
X140787329Y-73319443D01*
X140787491Y-73319588D01*
X140659140Y-73462134D01*
X140569749Y-73616964D01*
X140514503Y-73786995D01*
X140495815Y-73964800D01*
X140514503Y-74142604D01*
X140569749Y-74312635D01*
X140659140Y-74467465D01*
X140778771Y-74600327D01*
X140923403Y-74705410D01*
X141086735Y-74778130D01*
X141261607Y-74815300D01*
X141261609Y-74815300D01*
X141440393Y-74815300D01*
X141615264Y-74778130D01*
X141615265Y-74778129D01*
X141615267Y-74778129D01*
X141778593Y-74705412D01*
X141923230Y-74600326D01*
X142042859Y-74467465D01*
X142132250Y-74312635D01*
X142187497Y-74142603D01*
X142206185Y-73964800D01*
X142187497Y-73786997D01*
X142139036Y-73637849D01*
X142132250Y-73616964D01*
X142042859Y-73462134D01*
X141923228Y-73329272D01*
X141778596Y-73224189D01*
X141698291Y-73188435D01*
X141645054Y-73143185D01*
X141624732Y-73076336D01*
X141643777Y-73009112D01*
X141665294Y-72986112D01*
X141665133Y-72985967D01*
X141744340Y-72898000D01*
X141744341Y-72897999D01*
X144178815Y-72897999D01*
X144197503Y-73075804D01*
X144252749Y-73245835D01*
X144342140Y-73400665D01*
X144450935Y-73521493D01*
X144453113Y-73523912D01*
X144461771Y-73533527D01*
X144606403Y-73638610D01*
X144769735Y-73711330D01*
X144944607Y-73748500D01*
X144944609Y-73748500D01*
X145123393Y-73748500D01*
X145298264Y-73711330D01*
X145298265Y-73711329D01*
X145298267Y-73711329D01*
X145461593Y-73638612D01*
X145606230Y-73533526D01*
X145725859Y-73400665D01*
X145815250Y-73245835D01*
X145870497Y-73075803D01*
X145889185Y-72898000D01*
X145870497Y-72720197D01*
X145825189Y-72580753D01*
X145815250Y-72550164D01*
X145725859Y-72395334D01*
X145606228Y-72262472D01*
X145461596Y-72157389D01*
X145298264Y-72084669D01*
X145123393Y-72047500D01*
X145123391Y-72047500D01*
X144944609Y-72047500D01*
X144944607Y-72047500D01*
X144769735Y-72084669D01*
X144606408Y-72157387D01*
X144461768Y-72262474D01*
X144342140Y-72395334D01*
X144252749Y-72550164D01*
X144197503Y-72720195D01*
X144178815Y-72897999D01*
X141744341Y-72897999D01*
X141793482Y-72843422D01*
X141877513Y-72697876D01*
X141882872Y-72688594D01*
X141884076Y-72684889D01*
X141923512Y-72627213D01*
X141987869Y-72600013D01*
X142027789Y-72601914D01*
X142097483Y-72616728D01*
X142097484Y-72616728D01*
X142276268Y-72616728D01*
X142451139Y-72579558D01*
X142451140Y-72579557D01*
X142451142Y-72579557D01*
X142614468Y-72506840D01*
X142759105Y-72401754D01*
X142878734Y-72268893D01*
X142968125Y-72114063D01*
X143023372Y-71944031D01*
X143042060Y-71766228D01*
X143023372Y-71588425D01*
X142987392Y-71477691D01*
X142968125Y-71418392D01*
X142878734Y-71263562D01*
X142759105Y-71130702D01*
X142605299Y-71018953D01*
X142562634Y-70963623D01*
X142554865Y-70931597D01*
X142548026Y-70866526D01*
X142543910Y-70827360D01*
X142513467Y-70733665D01*
X142488663Y-70657327D01*
X142399272Y-70502497D01*
X142279644Y-70369638D01*
X142258254Y-70354097D01*
X142150549Y-70275844D01*
X142107886Y-70220515D01*
X142100117Y-70188495D01*
X142085897Y-70053197D01*
X142038500Y-69907325D01*
X142030650Y-69883164D01*
X141982173Y-69799200D01*
X146693415Y-69799200D01*
X146712103Y-69977004D01*
X146767349Y-70147035D01*
X146856740Y-70301865D01*
X146976370Y-70434726D01*
X147121003Y-70539810D01*
X147121006Y-70539811D01*
X147121007Y-70539812D01*
X147178052Y-70565210D01*
X147284335Y-70612530D01*
X147459207Y-70649700D01*
X147459209Y-70649700D01*
X147637993Y-70649700D01*
X147812864Y-70612530D01*
X147812865Y-70612529D01*
X147812867Y-70612529D01*
X147942911Y-70554630D01*
X147988100Y-70534511D01*
X147989923Y-70538605D01*
X148031906Y-70523575D01*
X148099977Y-70539326D01*
X148112007Y-70547048D01*
X148137006Y-70565212D01*
X148300335Y-70637930D01*
X148475207Y-70675100D01*
X148475209Y-70675100D01*
X148653993Y-70675100D01*
X148828864Y-70637930D01*
X148828865Y-70637929D01*
X148828867Y-70637929D01*
X148992193Y-70565212D01*
X149006757Y-70554631D01*
X149012031Y-70550799D01*
X157846259Y-70550799D01*
X157865575Y-70746929D01*
X157865576Y-70746932D01*
X157922786Y-70935527D01*
X157922787Y-70935530D01*
X157922788Y-70935531D01*
X157923922Y-70937653D01*
X157924995Y-70942806D01*
X157926332Y-70947214D01*
X157925937Y-70947333D01*
X157938164Y-71006056D01*
X157913834Y-71070413D01*
X157907805Y-71078466D01*
X157857510Y-71213315D01*
X157857509Y-71213317D01*
X157851100Y-71272927D01*
X157851100Y-71276248D01*
X157851100Y-71276249D01*
X157851100Y-72365360D01*
X157851100Y-72365378D01*
X157851101Y-72368672D01*
X157851453Y-72371952D01*
X157851454Y-72371959D01*
X157853967Y-72395334D01*
X157857509Y-72428283D01*
X157907804Y-72563131D01*
X157994054Y-72678346D01*
X158109269Y-72764596D01*
X158244117Y-72814891D01*
X158303727Y-72821300D01*
X159399472Y-72821299D01*
X159459083Y-72814891D01*
X159593931Y-72764596D01*
X159709146Y-72678346D01*
X159795396Y-72563131D01*
X159845691Y-72428283D01*
X159852100Y-72368673D01*
X159852099Y-71272928D01*
X159845691Y-71213317D01*
X159795396Y-71078469D01*
X159789368Y-71070417D01*
X159764951Y-71004955D01*
X159777219Y-70947320D01*
X159776868Y-70947214D01*
X159778122Y-70943076D01*
X159779277Y-70937653D01*
X159780414Y-70935527D01*
X159837624Y-70746932D01*
X159856941Y-70550800D01*
X159837624Y-70354668D01*
X159780414Y-70166073D01*
X159687510Y-69992262D01*
X159562483Y-69839917D01*
X159410138Y-69714890D01*
X159374741Y-69695970D01*
X159236326Y-69621985D01*
X159047733Y-69564776D01*
X158851600Y-69545459D01*
X158655466Y-69564776D01*
X158466873Y-69621985D01*
X158293063Y-69714889D01*
X158140717Y-69839917D01*
X158015689Y-69992263D01*
X157922785Y-70166073D01*
X157865576Y-70354666D01*
X157846259Y-70550799D01*
X149012031Y-70550799D01*
X149049501Y-70523575D01*
X149136830Y-70460126D01*
X149256459Y-70327265D01*
X149345850Y-70172435D01*
X149401097Y-70002403D01*
X149419785Y-69824600D01*
X149401097Y-69646797D01*
X149350277Y-69490389D01*
X149345850Y-69476764D01*
X149256459Y-69321934D01*
X149136828Y-69189072D01*
X148992196Y-69083989D01*
X148828864Y-69011269D01*
X148653993Y-68974100D01*
X148653991Y-68974100D01*
X148475209Y-68974100D01*
X148475207Y-68974100D01*
X148300335Y-69011269D01*
X148125102Y-69089289D01*
X148123285Y-69085208D01*
X148081093Y-69100237D01*
X148013047Y-69084375D01*
X148001202Y-69076758D01*
X147976193Y-69058588D01*
X147976191Y-69058587D01*
X147812864Y-68985869D01*
X147637993Y-68948700D01*
X147637991Y-68948700D01*
X147459209Y-68948700D01*
X147459207Y-68948700D01*
X147284335Y-68985869D01*
X147121008Y-69058587D01*
X146976368Y-69163674D01*
X146856740Y-69296534D01*
X146767349Y-69451364D01*
X146712103Y-69621395D01*
X146693415Y-69799200D01*
X141982173Y-69799200D01*
X141941259Y-69728334D01*
X141821628Y-69595472D01*
X141676996Y-69490389D01*
X141513664Y-69417669D01*
X141338793Y-69380500D01*
X141338791Y-69380500D01*
X141160009Y-69380500D01*
X141160007Y-69380500D01*
X140985135Y-69417669D01*
X140821808Y-69490387D01*
X140677168Y-69595474D01*
X140557540Y-69728334D01*
X140468149Y-69883164D01*
X140412903Y-70053195D01*
X140394215Y-70231000D01*
X140412903Y-70408804D01*
X140468149Y-70578835D01*
X140557540Y-70733665D01*
X140627858Y-70811760D01*
X140677170Y-70866526D01*
X140806262Y-70960318D01*
X140848926Y-71015646D01*
X140856696Y-71047672D01*
X140870916Y-71182967D01*
X140930190Y-71365393D01*
X140926373Y-71366632D01*
X140937289Y-71411670D01*
X140914423Y-71477691D01*
X140859492Y-71520870D01*
X140839219Y-71527031D01*
X140837359Y-71527426D01*
X140674031Y-71600144D01*
X140529391Y-71705231D01*
X140409763Y-71838091D01*
X140320372Y-71992921D01*
X140265126Y-72162952D01*
X140246438Y-72340757D01*
X134315479Y-72340757D01*
X134331660Y-72186800D01*
X134311874Y-71998544D01*
X134281532Y-71905163D01*
X134253379Y-71818515D01*
X134158733Y-71654583D01*
X134032070Y-71513910D01*
X133878930Y-71402648D01*
X133706002Y-71325655D01*
X133520848Y-71286300D01*
X133520846Y-71286300D01*
X133331554Y-71286300D01*
X133331552Y-71286300D01*
X133146397Y-71325655D01*
X132973469Y-71402648D01*
X132820329Y-71513910D01*
X132693666Y-71654583D01*
X132599020Y-71818515D01*
X132540526Y-71998542D01*
X132520740Y-72186800D01*
X119219947Y-72186800D01*
X119150402Y-72037662D01*
X119024898Y-71858423D01*
X118870177Y-71703702D01*
X118690939Y-71578198D01*
X118539717Y-71507682D01*
X118487278Y-71461510D01*
X118468126Y-71394316D01*
X118488342Y-71327435D01*
X118539717Y-71282918D01*
X118542624Y-71281562D01*
X118690939Y-71212402D01*
X118870177Y-71086898D01*
X119024898Y-70932177D01*
X119150402Y-70752939D01*
X119192435Y-70662800D01*
X127897940Y-70662800D01*
X127917726Y-70851057D01*
X127976220Y-71031084D01*
X128070866Y-71195016D01*
X128197529Y-71335689D01*
X128350669Y-71446951D01*
X128523597Y-71523944D01*
X128708752Y-71563300D01*
X128708754Y-71563300D01*
X128898048Y-71563300D01*
X129021483Y-71537062D01*
X129083203Y-71523944D01*
X129256130Y-71446951D01*
X129317108Y-71402648D01*
X129409270Y-71335689D01*
X129465781Y-71272928D01*
X129535933Y-71195016D01*
X129630579Y-71031084D01*
X129689074Y-70851056D01*
X129708860Y-70662800D01*
X129689074Y-70474544D01*
X129630579Y-70294516D01*
X129630579Y-70294515D01*
X129535933Y-70130583D01*
X129409270Y-69989910D01*
X129256130Y-69878648D01*
X129083202Y-69801655D01*
X128898048Y-69762300D01*
X128898046Y-69762300D01*
X128708754Y-69762300D01*
X128708752Y-69762300D01*
X128523597Y-69801655D01*
X128350669Y-69878648D01*
X128197529Y-69989910D01*
X128070866Y-70130583D01*
X127976220Y-70294515D01*
X127917726Y-70474542D01*
X127897940Y-70662800D01*
X119192435Y-70662800D01*
X119242875Y-70554630D01*
X119299507Y-70343277D01*
X119318577Y-70125300D01*
X119299507Y-69907323D01*
X119242875Y-69695970D01*
X119150402Y-69497662D01*
X119024898Y-69318423D01*
X118870177Y-69163702D01*
X118690939Y-69038198D01*
X118539717Y-68967682D01*
X118487278Y-68921510D01*
X118468126Y-68854316D01*
X118488342Y-68787435D01*
X118539717Y-68742918D01*
X118542624Y-68741562D01*
X118690939Y-68672402D01*
X118822903Y-68580000D01*
X150478540Y-68580000D01*
X150498326Y-68768257D01*
X150556820Y-68948284D01*
X150651466Y-69112216D01*
X150778129Y-69252889D01*
X150931269Y-69364151D01*
X151104197Y-69441144D01*
X151289352Y-69480500D01*
X151289354Y-69480500D01*
X151478648Y-69480500D01*
X151602084Y-69454262D01*
X151663803Y-69441144D01*
X151836730Y-69364151D01*
X151869776Y-69340142D01*
X179700020Y-69340142D01*
X179718698Y-69417669D01*
X179733730Y-69480062D01*
X179761751Y-69533065D01*
X179763612Y-69535824D01*
X180755296Y-71006056D01*
X180765919Y-71021804D01*
X180804566Y-71067641D01*
X180921668Y-71151310D01*
X181057600Y-71198597D01*
X181188460Y-71205039D01*
X181201346Y-71205674D01*
X181201346Y-71205673D01*
X181201348Y-71205674D01*
X181337920Y-71172771D01*
X181407703Y-71176206D01*
X181464553Y-71216824D01*
X181490418Y-71281730D01*
X181486736Y-71325415D01*
X181468736Y-71392591D01*
X181448140Y-71628000D01*
X181468736Y-71863407D01*
X181504946Y-71998544D01*
X181529897Y-72091663D01*
X181629765Y-72305830D01*
X181765305Y-72499401D01*
X181932399Y-72666495D01*
X182125970Y-72802035D01*
X182340137Y-72901903D01*
X182568391Y-72963062D01*
X182568392Y-72963063D01*
X182803798Y-72983659D01*
X182803798Y-72983658D01*
X182803800Y-72983659D01*
X182882341Y-72976787D01*
X182950840Y-72990553D01*
X183001024Y-73039168D01*
X183016958Y-73107196D01*
X183005531Y-73152720D01*
X182950719Y-73270262D01*
X182889580Y-73498437D01*
X182868992Y-73733755D01*
X182889580Y-73969074D01*
X182950719Y-74197245D01*
X182984026Y-74268674D01*
X183724150Y-73769454D01*
X183724150Y-73805645D01*
X183764657Y-73943600D01*
X183842389Y-74064554D01*
X183951050Y-74158708D01*
X184004807Y-74183258D01*
X183264087Y-74682881D01*
X183353068Y-74771862D01*
X183546573Y-74907356D01*
X183760657Y-75007186D01*
X183988831Y-75068325D01*
X184224150Y-75088913D01*
X184459468Y-75068325D01*
X184687642Y-75007186D01*
X184759068Y-74973879D01*
X184259849Y-74233756D01*
X184259913Y-74233756D01*
X184366465Y-74218436D01*
X184497250Y-74158708D01*
X184605911Y-74064554D01*
X184675642Y-73956048D01*
X185173274Y-74693817D01*
X185262259Y-74604833D01*
X185397750Y-74411332D01*
X185497580Y-74197248D01*
X185558719Y-73969074D01*
X185579307Y-73733755D01*
X185558719Y-73498437D01*
X185497580Y-73270263D01*
X185464273Y-73198836D01*
X184724150Y-73698055D01*
X184724150Y-73661867D01*
X184683643Y-73523912D01*
X184605911Y-73402958D01*
X184497250Y-73308804D01*
X184443491Y-73284253D01*
X185184211Y-72784629D01*
X185095231Y-72695649D01*
X184901726Y-72560155D01*
X184687642Y-72460325D01*
X184459468Y-72399186D01*
X184224149Y-72378598D01*
X184145939Y-72385441D01*
X184077439Y-72371674D01*
X184027256Y-72323059D01*
X184011323Y-72255030D01*
X184022749Y-72209511D01*
X184077703Y-72091663D01*
X184138863Y-71863408D01*
X184159459Y-71628000D01*
X184138863Y-71392592D01*
X184077703Y-71164337D01*
X183977835Y-70950171D01*
X183842295Y-70756599D01*
X183675201Y-70589505D01*
X183481630Y-70453965D01*
X183267463Y-70354097D01*
X183206302Y-70337709D01*
X183039207Y-70292936D01*
X183022681Y-70291490D01*
X182957613Y-70266035D01*
X182916636Y-70209443D01*
X182912760Y-70139681D01*
X182932598Y-70095876D01*
X183012515Y-69984027D01*
X183059802Y-69848095D01*
X183066879Y-69704347D01*
X183033170Y-69564428D01*
X183005149Y-69511425D01*
X182000981Y-68022686D01*
X181962334Y-67976849D01*
X181864731Y-67907112D01*
X181845231Y-67893179D01*
X181756586Y-67862342D01*
X181709300Y-67845893D01*
X181702554Y-67845560D01*
X181565552Y-67838815D01*
X181425632Y-67872525D01*
X181375572Y-67898990D01*
X181375562Y-67898995D01*
X181372630Y-67900546D01*
X181369878Y-67902401D01*
X181369870Y-67902407D01*
X179886641Y-68902858D01*
X179886627Y-68902868D01*
X179883891Y-68904714D01*
X179881363Y-68906845D01*
X179881353Y-68906853D01*
X179838054Y-68943360D01*
X179754384Y-69060463D01*
X179707098Y-69196395D01*
X179700020Y-69340142D01*
X151869776Y-69340142D01*
X151894837Y-69321934D01*
X151989870Y-69252889D01*
X152047330Y-69189074D01*
X152116533Y-69112216D01*
X152211179Y-68948284D01*
X152269674Y-68768256D01*
X152289460Y-68580000D01*
X152269674Y-68391744D01*
X152239332Y-68298363D01*
X152211179Y-68211715D01*
X152116533Y-68047783D01*
X151989870Y-67907110D01*
X151836730Y-67795848D01*
X151663802Y-67718855D01*
X151478648Y-67679500D01*
X151478646Y-67679500D01*
X151289354Y-67679500D01*
X151289352Y-67679500D01*
X151104197Y-67718855D01*
X150931269Y-67795848D01*
X150778129Y-67907110D01*
X150651466Y-68047783D01*
X150556820Y-68211715D01*
X150498326Y-68391742D01*
X150478540Y-68580000D01*
X118822903Y-68580000D01*
X118870177Y-68546898D01*
X119024898Y-68392177D01*
X119150402Y-68212939D01*
X119242875Y-68014630D01*
X119299507Y-67803277D01*
X119318577Y-67585300D01*
X119299507Y-67367323D01*
X119242875Y-67155970D01*
X119150402Y-66957662D01*
X119024898Y-66778423D01*
X118921475Y-66675000D01*
X127465615Y-66675000D01*
X127484303Y-66852804D01*
X127539549Y-67022835D01*
X127628940Y-67177665D01*
X127748571Y-67310527D01*
X127893203Y-67415610D01*
X127893206Y-67415611D01*
X127893207Y-67415612D01*
X128002091Y-67464089D01*
X128056535Y-67488330D01*
X128231407Y-67525500D01*
X128231409Y-67525500D01*
X128410193Y-67525500D01*
X128585064Y-67488330D01*
X128585065Y-67488329D01*
X128585067Y-67488329D01*
X128748393Y-67415612D01*
X128893030Y-67310526D01*
X129012659Y-67177665D01*
X129102050Y-67022835D01*
X129107780Y-67005200D01*
X136178340Y-67005200D01*
X136198126Y-67193457D01*
X136256620Y-67373484D01*
X136351266Y-67537416D01*
X136477929Y-67678089D01*
X136631069Y-67789351D01*
X136803997Y-67866344D01*
X136989152Y-67905700D01*
X136989154Y-67905700D01*
X137178448Y-67905700D01*
X137334523Y-67872525D01*
X137363603Y-67866344D01*
X137536530Y-67789351D01*
X137689670Y-67678089D01*
X137816333Y-67537416D01*
X137910979Y-67373484D01*
X137931435Y-67310526D01*
X137969474Y-67193456D01*
X137989260Y-67005200D01*
X137969474Y-66816944D01*
X137910979Y-66636916D01*
X137910979Y-66636915D01*
X137816333Y-66472983D01*
X137689670Y-66332310D01*
X137536530Y-66221048D01*
X137363602Y-66144055D01*
X137178448Y-66104700D01*
X137178446Y-66104700D01*
X136989154Y-66104700D01*
X136989152Y-66104700D01*
X136803997Y-66144055D01*
X136631069Y-66221048D01*
X136477929Y-66332310D01*
X136351266Y-66472983D01*
X136256620Y-66636915D01*
X136198126Y-66816942D01*
X136178340Y-67005200D01*
X129107780Y-67005200D01*
X129157297Y-66852803D01*
X129175985Y-66675000D01*
X129157297Y-66497197D01*
X129109175Y-66349093D01*
X129102050Y-66327164D01*
X129012659Y-66172334D01*
X128893028Y-66039472D01*
X128748396Y-65934389D01*
X128585064Y-65861669D01*
X128410193Y-65824500D01*
X128410191Y-65824500D01*
X128231409Y-65824500D01*
X128231407Y-65824500D01*
X128056535Y-65861669D01*
X127893208Y-65934387D01*
X127748568Y-66039474D01*
X127628940Y-66172334D01*
X127539549Y-66327164D01*
X127484303Y-66497195D01*
X127465615Y-66675000D01*
X118921475Y-66675000D01*
X118870177Y-66623702D01*
X118723322Y-66520873D01*
X118679700Y-66466298D01*
X118672507Y-66396799D01*
X118704029Y-66334445D01*
X118764259Y-66299031D01*
X118794448Y-66295300D01*
X118857818Y-66295300D01*
X118864432Y-66294945D01*
X118920671Y-66288899D01*
X119055389Y-66238652D01*
X119170488Y-66152488D01*
X119256652Y-66037389D01*
X119306899Y-65902671D01*
X119312945Y-65846432D01*
X119313300Y-65839818D01*
X119313300Y-65295300D01*
X118378986Y-65295300D01*
X118390941Y-65283345D01*
X118448465Y-65170448D01*
X118468286Y-65045300D01*
X118448465Y-64920152D01*
X118390941Y-64807255D01*
X118378986Y-64795300D01*
X119313300Y-64795300D01*
X119313300Y-64250781D01*
X119312945Y-64244167D01*
X119306899Y-64187928D01*
X119266199Y-64078806D01*
X128599665Y-64078806D01*
X128620146Y-64221263D01*
X128665113Y-64319724D01*
X128679935Y-64352179D01*
X128717554Y-64398862D01*
X129987338Y-65668644D01*
X129989922Y-65670726D01*
X130034021Y-65706265D01*
X130164936Y-65766053D01*
X130307394Y-65786534D01*
X130449851Y-65766053D01*
X130580767Y-65706265D01*
X130627450Y-65668646D01*
X131897232Y-64398862D01*
X131934853Y-64352179D01*
X131994641Y-64221263D01*
X132015122Y-64078806D01*
X132012608Y-64061316D01*
X132008594Y-64033400D01*
X136728459Y-64033400D01*
X136731354Y-64062791D01*
X136747776Y-64229533D01*
X136804985Y-64418126D01*
X136882309Y-64562788D01*
X136897890Y-64591938D01*
X137022917Y-64744283D01*
X137175262Y-64869310D01*
X137349073Y-64962214D01*
X137537668Y-65019424D01*
X137733800Y-65038741D01*
X137929932Y-65019424D01*
X138118527Y-64962214D01*
X138120653Y-64961077D01*
X138125811Y-64960003D01*
X138130214Y-64958668D01*
X138130333Y-64959061D01*
X138189054Y-64946835D01*
X138253417Y-64971168D01*
X138261469Y-64977196D01*
X138396317Y-65027491D01*
X138455927Y-65033900D01*
X139551672Y-65033899D01*
X139611283Y-65027491D01*
X139746131Y-64977196D01*
X139861346Y-64890946D01*
X139947596Y-64775731D01*
X139997891Y-64640883D01*
X140004300Y-64581273D01*
X140004300Y-64490600D01*
X143569215Y-64490600D01*
X143587903Y-64668404D01*
X143643149Y-64838435D01*
X143732540Y-64993265D01*
X143852171Y-65126127D01*
X143996803Y-65231210D01*
X143996806Y-65231211D01*
X143996807Y-65231212D01*
X144043044Y-65251798D01*
X144160134Y-65303930D01*
X144273486Y-65328023D01*
X144329237Y-65339873D01*
X144390718Y-65373065D01*
X144410843Y-65399163D01*
X144472104Y-65505271D01*
X144591732Y-65638130D01*
X144591734Y-65638132D01*
X144725742Y-65735495D01*
X144768406Y-65790825D01*
X144776175Y-65822847D01*
X144780312Y-65862200D01*
X144789753Y-65952030D01*
X144844999Y-66122061D01*
X144934390Y-66276891D01*
X145054021Y-66409753D01*
X145198653Y-66514836D01*
X145198656Y-66514837D01*
X145198657Y-66514838D01*
X145217275Y-66523127D01*
X145361985Y-66587556D01*
X145536857Y-66624726D01*
X145536859Y-66624726D01*
X145715643Y-66624726D01*
X145890514Y-66587556D01*
X145890515Y-66587555D01*
X145890517Y-66587555D01*
X146053843Y-66514838D01*
X146077396Y-66497726D01*
X146094909Y-66485000D01*
X146198480Y-66409752D01*
X146318109Y-66276891D01*
X146361089Y-66202445D01*
X146411656Y-66154230D01*
X146480263Y-66141006D01*
X146494254Y-66143154D01*
X146544809Y-66153900D01*
X146723593Y-66153900D01*
X146898464Y-66116730D01*
X146898465Y-66116729D01*
X146898467Y-66116729D01*
X147061793Y-66044012D01*
X147067310Y-66040004D01*
X147145531Y-65983172D01*
X147206430Y-65938926D01*
X147252644Y-65887600D01*
X147912615Y-65887600D01*
X147931303Y-66065404D01*
X147986549Y-66235435D01*
X148075940Y-66390265D01*
X148195571Y-66523127D01*
X148340203Y-66628210D01*
X148340206Y-66628211D01*
X148340207Y-66628212D01*
X148359757Y-66636916D01*
X148503535Y-66700930D01*
X148678407Y-66738100D01*
X148678409Y-66738100D01*
X148857193Y-66738100D01*
X149032064Y-66700930D01*
X149032065Y-66700929D01*
X149032067Y-66700929D01*
X149195393Y-66628212D01*
X149201597Y-66623705D01*
X149251352Y-66587555D01*
X149340030Y-66523126D01*
X149459659Y-66390265D01*
X149549050Y-66235435D01*
X149604297Y-66065403D01*
X149622985Y-65887600D01*
X149604297Y-65709797D01*
X149558011Y-65567343D01*
X149549050Y-65539764D01*
X149459659Y-65384934D01*
X149340028Y-65252072D01*
X149195396Y-65146989D01*
X149032064Y-65074269D01*
X148857193Y-65037100D01*
X148857191Y-65037100D01*
X148678409Y-65037100D01*
X148678407Y-65037100D01*
X148503535Y-65074269D01*
X148340208Y-65146987D01*
X148195568Y-65252074D01*
X148075940Y-65384934D01*
X147986549Y-65539764D01*
X147931303Y-65709795D01*
X147912615Y-65887600D01*
X147252644Y-65887600D01*
X147326059Y-65806065D01*
X147415450Y-65651235D01*
X147470697Y-65481203D01*
X147489385Y-65303400D01*
X147470697Y-65125597D01*
X147436199Y-65019423D01*
X147415450Y-64955564D01*
X147326059Y-64800734D01*
X147206428Y-64667872D01*
X147061796Y-64562789D01*
X146898464Y-64490069D01*
X146723593Y-64452900D01*
X146723591Y-64452900D01*
X146544809Y-64452900D01*
X146544807Y-64452900D01*
X146369935Y-64490069D01*
X146206605Y-64562788D01*
X146096460Y-64642814D01*
X146030654Y-64666294D01*
X145962600Y-64650468D01*
X145916188Y-64604496D01*
X145855823Y-64499940D01*
X145736192Y-64367078D01*
X145591560Y-64261995D01*
X145428228Y-64189275D01*
X145259126Y-64153332D01*
X145220689Y-64132581D01*
X149330627Y-64132581D01*
X149351108Y-64275038D01*
X149407658Y-64398862D01*
X149410897Y-64405954D01*
X149448516Y-64452637D01*
X150223325Y-65227445D01*
X150225917Y-65229534D01*
X150225924Y-65229540D01*
X150270006Y-65265064D01*
X150270007Y-65265064D01*
X150270008Y-65265065D01*
X150310035Y-65283345D01*
X150400924Y-65324853D01*
X150410877Y-65326284D01*
X150474433Y-65355308D01*
X150506513Y-65404736D01*
X150506836Y-65404564D01*
X150508863Y-65408358D01*
X150511891Y-65413022D01*
X150512592Y-65415332D01*
X150512593Y-65415334D01*
X150605497Y-65589145D01*
X150730524Y-65741490D01*
X150882869Y-65866517D01*
X151056680Y-65959421D01*
X151245275Y-66016631D01*
X151441407Y-66035948D01*
X151637539Y-66016631D01*
X151826134Y-65959421D01*
X151999945Y-65866517D01*
X152152290Y-65741490D01*
X152277317Y-65589145D01*
X152370221Y-65415334D01*
X152427431Y-65226739D01*
X152446748Y-65030607D01*
X152427431Y-64834475D01*
X152370221Y-64645880D01*
X152277317Y-64472069D01*
X152152290Y-64319724D01*
X151999945Y-64194697D01*
X151826134Y-64101793D01*
X151826133Y-64101792D01*
X151826132Y-64101792D01*
X151823822Y-64101091D01*
X151819404Y-64098195D01*
X151815364Y-64096036D01*
X151815557Y-64095674D01*
X151765385Y-64062791D01*
X151737084Y-64000077D01*
X151735653Y-63990124D01*
X151711899Y-63938111D01*
X151675865Y-63859208D01*
X151638246Y-63812525D01*
X150863437Y-63037717D01*
X150860845Y-63035628D01*
X150860837Y-63035621D01*
X150816755Y-63000097D01*
X150685838Y-62940308D01*
X150543380Y-62919827D01*
X150400923Y-62940308D01*
X150270009Y-63000096D01*
X150225925Y-63035621D01*
X150223325Y-63037716D01*
X150220981Y-63040059D01*
X150220972Y-63040068D01*
X149450873Y-63810168D01*
X149450864Y-63810177D01*
X149448517Y-63812525D01*
X149446436Y-63815107D01*
X149446421Y-63815124D01*
X149410897Y-63859206D01*
X149351108Y-63990123D01*
X149330627Y-64132581D01*
X145220689Y-64132581D01*
X145197644Y-64120140D01*
X145177520Y-64094042D01*
X145116259Y-63987934D01*
X144996628Y-63855072D01*
X144851996Y-63749989D01*
X144688664Y-63677269D01*
X144513793Y-63640100D01*
X144513791Y-63640100D01*
X144335009Y-63640100D01*
X144335007Y-63640100D01*
X144160135Y-63677269D01*
X143996808Y-63749987D01*
X143852168Y-63855074D01*
X143732540Y-63987934D01*
X143643149Y-64142764D01*
X143587903Y-64312795D01*
X143569215Y-64490600D01*
X140004300Y-64490600D01*
X140004299Y-63485528D01*
X139997891Y-63425917D01*
X139947596Y-63291069D01*
X139861346Y-63175854D01*
X139746131Y-63089604D01*
X139611283Y-63039309D01*
X139551673Y-63032900D01*
X139548350Y-63032900D01*
X138459239Y-63032900D01*
X138459220Y-63032900D01*
X138455928Y-63032901D01*
X138452648Y-63033253D01*
X138452640Y-63033254D01*
X138396315Y-63039309D01*
X138261467Y-63089604D01*
X138253413Y-63095634D01*
X138187947Y-63120048D01*
X138130320Y-63107780D01*
X138130214Y-63108132D01*
X138126073Y-63106875D01*
X138120653Y-63105722D01*
X138118531Y-63104588D01*
X138118530Y-63104587D01*
X138118527Y-63104586D01*
X137929932Y-63047376D01*
X137929929Y-63047375D01*
X137733800Y-63028059D01*
X137537666Y-63047376D01*
X137349073Y-63104585D01*
X137175263Y-63197489D01*
X137022917Y-63322517D01*
X136897889Y-63474863D01*
X136804985Y-63648673D01*
X136747776Y-63837266D01*
X136729527Y-64022552D01*
X136728459Y-64033400D01*
X132008594Y-64033400D01*
X131994641Y-63936348D01*
X131936796Y-63809688D01*
X131926852Y-63740530D01*
X131955876Y-63676974D01*
X132014654Y-63639199D01*
X132060398Y-63634648D01*
X132103445Y-63638414D01*
X132338853Y-63617818D01*
X132567108Y-63556658D01*
X132781275Y-63456790D01*
X132974846Y-63321250D01*
X133141940Y-63154156D01*
X133277480Y-62960585D01*
X133377348Y-62746418D01*
X133438508Y-62518163D01*
X133459104Y-62282755D01*
X133438508Y-62047347D01*
X133411528Y-61946655D01*
X133413191Y-61876806D01*
X133452353Y-61818943D01*
X133516582Y-61791439D01*
X133563395Y-61794786D01*
X133664088Y-61821767D01*
X133682136Y-61823346D01*
X133899495Y-61842363D01*
X133899495Y-61842362D01*
X133899496Y-61842363D01*
X134134904Y-61821767D01*
X134363159Y-61760607D01*
X134577326Y-61660739D01*
X134770897Y-61525199D01*
X134937991Y-61358105D01*
X135073531Y-61164534D01*
X135173399Y-60950367D01*
X135234559Y-60722112D01*
X135255155Y-60486704D01*
X135240714Y-60321646D01*
X151675986Y-60321646D01*
X151696582Y-60557053D01*
X151723563Y-60657746D01*
X151757743Y-60785309D01*
X151857611Y-60999476D01*
X151993151Y-61193047D01*
X152160245Y-61360141D01*
X152353816Y-61495681D01*
X152567983Y-61595549D01*
X152796238Y-61656709D01*
X153031646Y-61677305D01*
X153267054Y-61656709D01*
X153367749Y-61629728D01*
X153437596Y-61631391D01*
X153495458Y-61670553D01*
X153522963Y-61734781D01*
X153519615Y-61781596D01*
X153492634Y-61882290D01*
X153472038Y-62117698D01*
X153492634Y-62353105D01*
X153529038Y-62488966D01*
X153553795Y-62581361D01*
X153653663Y-62795528D01*
X153789203Y-62989099D01*
X153956297Y-63156193D01*
X154149868Y-63291733D01*
X154364035Y-63391601D01*
X154592290Y-63452761D01*
X154827698Y-63473357D01*
X155063106Y-63452761D01*
X155163797Y-63425781D01*
X155233646Y-63427444D01*
X155291509Y-63466606D01*
X155319013Y-63530834D01*
X155315665Y-63577649D01*
X155288685Y-63678340D01*
X155268089Y-63913748D01*
X155288685Y-64149156D01*
X155318920Y-64261994D01*
X155349846Y-64377412D01*
X155449714Y-64591579D01*
X155585254Y-64785150D01*
X155752348Y-64952244D01*
X155945919Y-65087784D01*
X156160086Y-65187652D01*
X156388340Y-65248812D01*
X156388341Y-65248812D01*
X156623748Y-65269408D01*
X156623748Y-65269407D01*
X156623749Y-65269408D01*
X156641664Y-65267840D01*
X156666795Y-65265642D01*
X156735295Y-65279408D01*
X156785478Y-65328023D01*
X156801412Y-65396052D01*
X156790397Y-65440682D01*
X156732552Y-65567342D01*
X156712071Y-65709800D01*
X156732552Y-65852257D01*
X156792340Y-65983171D01*
X156792341Y-65983173D01*
X156829960Y-66029856D01*
X158099744Y-67299638D01*
X158102328Y-67301720D01*
X158146427Y-67337259D01*
X158277342Y-67397047D01*
X158419800Y-67417528D01*
X158562257Y-67397047D01*
X158693173Y-67337259D01*
X158739856Y-67299640D01*
X160009638Y-66029856D01*
X160047259Y-65983173D01*
X160102506Y-65862200D01*
X165387815Y-65862200D01*
X165406503Y-66040004D01*
X165461749Y-66210035D01*
X165551140Y-66364865D01*
X165670771Y-66497727D01*
X165815403Y-66602810D01*
X165978735Y-66675530D01*
X166153607Y-66712700D01*
X166153609Y-66712700D01*
X166332393Y-66712700D01*
X166507264Y-66675530D01*
X166507265Y-66675529D01*
X166507267Y-66675529D01*
X166670593Y-66602812D01*
X166815230Y-66497726D01*
X166934859Y-66364865D01*
X167024250Y-66210035D01*
X167079497Y-66040003D01*
X167098185Y-65862200D01*
X167079497Y-65684397D01*
X167024250Y-65514365D01*
X167024250Y-65514364D01*
X166934859Y-65359534D01*
X166819314Y-65231210D01*
X166815230Y-65226674D01*
X166815229Y-65226673D01*
X166815228Y-65226672D01*
X166670596Y-65121589D01*
X166507264Y-65048869D01*
X166332393Y-65011700D01*
X166332391Y-65011700D01*
X166153609Y-65011700D01*
X166153607Y-65011700D01*
X165978735Y-65048869D01*
X165815408Y-65121587D01*
X165670768Y-65226674D01*
X165551140Y-65359534D01*
X165461749Y-65514364D01*
X165406503Y-65684395D01*
X165387815Y-65862200D01*
X160102506Y-65862200D01*
X160107047Y-65852257D01*
X160127528Y-65709800D01*
X160117224Y-65638130D01*
X160107047Y-65567342D01*
X160047259Y-65436428D01*
X160047259Y-65436427D01*
X160009640Y-65389744D01*
X158739856Y-64119962D01*
X158693173Y-64082341D01*
X158693172Y-64082340D01*
X158562257Y-64022552D01*
X158419800Y-64002071D01*
X158277342Y-64022552D01*
X158150682Y-64080397D01*
X158081523Y-64090341D01*
X158017967Y-64061316D01*
X157980193Y-64002538D01*
X157975642Y-63956795D01*
X157979408Y-63913748D01*
X157958812Y-63678341D01*
X157958446Y-63676974D01*
X157897652Y-63450086D01*
X157797784Y-63235920D01*
X157662244Y-63042348D01*
X157495150Y-62875254D01*
X157301579Y-62739714D01*
X157087412Y-62639846D01*
X157026250Y-62623458D01*
X156859156Y-62578685D01*
X156623749Y-62558089D01*
X156388340Y-62578685D01*
X156287649Y-62605665D01*
X156217799Y-62604002D01*
X156159937Y-62564839D01*
X156132433Y-62500610D01*
X156135780Y-62453798D01*
X156162761Y-62353106D01*
X156183357Y-62117698D01*
X156177626Y-62052199D01*
X172169615Y-62052199D01*
X172188303Y-62230004D01*
X172243549Y-62400035D01*
X172332940Y-62554865D01*
X172452571Y-62687727D01*
X172597203Y-62792810D01*
X172597206Y-62792811D01*
X172597207Y-62792812D01*
X172760533Y-62865529D01*
X172794263Y-62872698D01*
X172855746Y-62905890D01*
X172886414Y-62955668D01*
X172903950Y-63009636D01*
X172993339Y-63164463D01*
X173112971Y-63297327D01*
X173257603Y-63402410D01*
X173257606Y-63402411D01*
X173257607Y-63402412D01*
X173313830Y-63427444D01*
X173420935Y-63475130D01*
X173595807Y-63512300D01*
X173595809Y-63512300D01*
X173774593Y-63512300D01*
X173949464Y-63475130D01*
X173949465Y-63475129D01*
X173949467Y-63475129D01*
X174112793Y-63402412D01*
X174257430Y-63297326D01*
X174291552Y-63259429D01*
X174351036Y-63222782D01*
X174420893Y-63224112D01*
X174475847Y-63259429D01*
X174509970Y-63297326D01*
X174542893Y-63321246D01*
X174654603Y-63402410D01*
X174654606Y-63402411D01*
X174654607Y-63402412D01*
X174710830Y-63427444D01*
X174817935Y-63475130D01*
X174992807Y-63512300D01*
X174992809Y-63512300D01*
X175171593Y-63512300D01*
X175346464Y-63475130D01*
X175346465Y-63475129D01*
X175346467Y-63475129D01*
X175509793Y-63402412D01*
X175654430Y-63297326D01*
X175774059Y-63164465D01*
X175863450Y-63009635D01*
X175918697Y-62839603D01*
X175937385Y-62661800D01*
X175918697Y-62483997D01*
X175876168Y-62353106D01*
X175863450Y-62313964D01*
X175774059Y-62159134D01*
X175654428Y-62026272D01*
X175509796Y-61921189D01*
X175346464Y-61848469D01*
X175171593Y-61811300D01*
X175171591Y-61811300D01*
X175067821Y-61811300D01*
X175000782Y-61791615D01*
X174955027Y-61738811D01*
X174944500Y-61700262D01*
X174942087Y-61677305D01*
X174928097Y-61544197D01*
X174894198Y-61439868D01*
X174872850Y-61374164D01*
X174783459Y-61219334D01*
X174663828Y-61086472D01*
X174519196Y-60981389D01*
X174355864Y-60908669D01*
X174180993Y-60871500D01*
X174180991Y-60871500D01*
X174002209Y-60871500D01*
X173954040Y-60881738D01*
X173884373Y-60876421D01*
X173828640Y-60834283D01*
X173820874Y-60822447D01*
X173742059Y-60685934D01*
X173644098Y-60577139D01*
X173622430Y-60553074D01*
X173622429Y-60553073D01*
X173622428Y-60553072D01*
X173477796Y-60447989D01*
X173314464Y-60375269D01*
X173139593Y-60338100D01*
X173139591Y-60338100D01*
X172960809Y-60338100D01*
X172960807Y-60338100D01*
X172785935Y-60375269D01*
X172622608Y-60447987D01*
X172477968Y-60553074D01*
X172358340Y-60685934D01*
X172268949Y-60840764D01*
X172213703Y-61010795D01*
X172195015Y-61188600D01*
X172213703Y-61366404D01*
X172234484Y-61430362D01*
X172268950Y-61536435D01*
X172268951Y-61536437D01*
X172272978Y-61548830D01*
X172272021Y-61549140D01*
X172285403Y-61604306D01*
X172268932Y-61660401D01*
X172243549Y-61704365D01*
X172188303Y-61874395D01*
X172169615Y-62052199D01*
X156177626Y-62052199D01*
X156162761Y-61882290D01*
X156101601Y-61654035D01*
X156001733Y-61439869D01*
X155866193Y-61246297D01*
X155699099Y-61079203D01*
X155505528Y-60943663D01*
X155291361Y-60843795D01*
X155213017Y-60822803D01*
X155063105Y-60782634D01*
X154827698Y-60762038D01*
X154592290Y-60782634D01*
X154491596Y-60809615D01*
X154421746Y-60807952D01*
X154363884Y-60768789D01*
X154336380Y-60704561D01*
X154339727Y-60657751D01*
X154366709Y-60557054D01*
X154387305Y-60321646D01*
X154366709Y-60086238D01*
X154305549Y-59857983D01*
X154205681Y-59643817D01*
X154070141Y-59450245D01*
X153903047Y-59283151D01*
X153709476Y-59147611D01*
X153495309Y-59047743D01*
X153434148Y-59031355D01*
X153267053Y-58986582D01*
X153031645Y-58965986D01*
X152796238Y-58986582D01*
X152567982Y-59047743D01*
X152353816Y-59147611D01*
X152160244Y-59283151D01*
X151993151Y-59450244D01*
X151857611Y-59643816D01*
X151757743Y-59857982D01*
X151696582Y-60086238D01*
X151675986Y-60321646D01*
X135240714Y-60321646D01*
X135234559Y-60251296D01*
X135207578Y-60150600D01*
X135209241Y-60080753D01*
X135248403Y-60022891D01*
X135312631Y-59995386D01*
X135359443Y-59998733D01*
X135460140Y-60025715D01*
X135695548Y-60046311D01*
X135930956Y-60025715D01*
X136159211Y-59964555D01*
X136373378Y-59864687D01*
X136566949Y-59729147D01*
X136734043Y-59562053D01*
X136869583Y-59368482D01*
X136969451Y-59154315D01*
X137030611Y-58926060D01*
X137031841Y-58912000D01*
X157698531Y-58912000D01*
X157718364Y-59138689D01*
X157777261Y-59358497D01*
X157873432Y-59564735D01*
X158003953Y-59751140D01*
X158164859Y-59912046D01*
X158351264Y-60042567D01*
X158351265Y-60042567D01*
X158351266Y-60042568D01*
X158557504Y-60138739D01*
X158777308Y-60197635D01*
X158928436Y-60210856D01*
X159003999Y-60217468D01*
X159003999Y-60217467D01*
X159004000Y-60217468D01*
X159230692Y-60197635D01*
X159450496Y-60138739D01*
X159656734Y-60042568D01*
X159843139Y-59912047D01*
X160004047Y-59751139D01*
X160134568Y-59564734D01*
X160230739Y-59358496D01*
X160289635Y-59138692D01*
X160309468Y-58912000D01*
X160289635Y-58685308D01*
X160230739Y-58465504D01*
X160134568Y-58259266D01*
X160134567Y-58259264D01*
X160004049Y-58072863D01*
X159971920Y-58040734D01*
X159930865Y-57999679D01*
X159897382Y-57938359D01*
X159902366Y-57868667D01*
X159930865Y-57824320D01*
X160004047Y-57751139D01*
X160134568Y-57564734D01*
X160230739Y-57358496D01*
X160289635Y-57138692D01*
X160309468Y-56912000D01*
X160289635Y-56685308D01*
X160230739Y-56465504D01*
X160134568Y-56259266D01*
X160112074Y-56227140D01*
X160004046Y-56072859D01*
X159912786Y-55981599D01*
X167115015Y-55981599D01*
X167133703Y-56159404D01*
X167188949Y-56329435D01*
X167278340Y-56484265D01*
X167397971Y-56617127D01*
X167542603Y-56722210D01*
X167542606Y-56722211D01*
X167542607Y-56722212D01*
X167571927Y-56735266D01*
X167705935Y-56794930D01*
X167880807Y-56832100D01*
X167880809Y-56832100D01*
X168059593Y-56832100D01*
X168234464Y-56794930D01*
X168234465Y-56794929D01*
X168234467Y-56794929D01*
X168397793Y-56722212D01*
X168542430Y-56617126D01*
X168662059Y-56484265D01*
X168751450Y-56329435D01*
X168806697Y-56159403D01*
X168825385Y-55981600D01*
X168806697Y-55803797D01*
X168751450Y-55633765D01*
X168751450Y-55633764D01*
X168662059Y-55478934D01*
X168564098Y-55370139D01*
X168542430Y-55346074D01*
X168542429Y-55346073D01*
X168542428Y-55346072D01*
X168397796Y-55240989D01*
X168234464Y-55168269D01*
X168059593Y-55131100D01*
X168059591Y-55131100D01*
X167880809Y-55131100D01*
X167880807Y-55131100D01*
X167705935Y-55168269D01*
X167542608Y-55240987D01*
X167397968Y-55346074D01*
X167278340Y-55478934D01*
X167188949Y-55633764D01*
X167133703Y-55803795D01*
X167115015Y-55981599D01*
X159912786Y-55981599D01*
X159843140Y-55911953D01*
X159656735Y-55781432D01*
X159450497Y-55685261D01*
X159230689Y-55626364D01*
X159003999Y-55606531D01*
X158777310Y-55626364D01*
X158557502Y-55685261D01*
X158351264Y-55781432D01*
X158164859Y-55911953D01*
X158003953Y-56072859D01*
X157873432Y-56259264D01*
X157777261Y-56465502D01*
X157718364Y-56685310D01*
X157698531Y-56912000D01*
X157718364Y-57138689D01*
X157777261Y-57358497D01*
X157873432Y-57564735D01*
X158003950Y-57751136D01*
X158003952Y-57751138D01*
X158003953Y-57751139D01*
X158077133Y-57824319D01*
X158110617Y-57885640D01*
X158105633Y-57955332D01*
X158077133Y-57999680D01*
X158003951Y-58072862D01*
X157873432Y-58259264D01*
X157777261Y-58465502D01*
X157718364Y-58685310D01*
X157698531Y-58912000D01*
X137031841Y-58912000D01*
X137051207Y-58690652D01*
X137050739Y-58685308D01*
X137030611Y-58455244D01*
X137012606Y-58388047D01*
X136969451Y-58226989D01*
X136869583Y-58012823D01*
X136734043Y-57819251D01*
X136566949Y-57652157D01*
X136373378Y-57516617D01*
X136159211Y-57416749D01*
X136098050Y-57400361D01*
X135930955Y-57355588D01*
X135828224Y-57346600D01*
X145862131Y-57346600D01*
X145881964Y-57573289D01*
X145940861Y-57793097D01*
X146037032Y-57999335D01*
X146167553Y-58185740D01*
X146328459Y-58346646D01*
X146514864Y-58477167D01*
X146514865Y-58477167D01*
X146514866Y-58477168D01*
X146721104Y-58573339D01*
X146940908Y-58632235D01*
X147092035Y-58645457D01*
X147167599Y-58652068D01*
X147167599Y-58652067D01*
X147167600Y-58652068D01*
X147394292Y-58632235D01*
X147614096Y-58573339D01*
X147820334Y-58477168D01*
X148006739Y-58346647D01*
X148167647Y-58185739D01*
X148298168Y-57999334D01*
X148338893Y-57912000D01*
X150173215Y-57912000D01*
X150177769Y-57955332D01*
X150191903Y-58089804D01*
X150247149Y-58259835D01*
X150336540Y-58414665D01*
X150456171Y-58547527D01*
X150600803Y-58652610D01*
X150600806Y-58652611D01*
X150600807Y-58652612D01*
X150686247Y-58690652D01*
X150764135Y-58725330D01*
X150939007Y-58762500D01*
X150939009Y-58762500D01*
X151117793Y-58762500D01*
X151292664Y-58725330D01*
X151292665Y-58725329D01*
X151292667Y-58725329D01*
X151455993Y-58652612D01*
X151600630Y-58547526D01*
X151720259Y-58414665D01*
X151809650Y-58259835D01*
X151864897Y-58089803D01*
X151883585Y-57912000D01*
X151864897Y-57734197D01*
X151812615Y-57573289D01*
X151809650Y-57564164D01*
X151720259Y-57409334D01*
X151600628Y-57276472D01*
X151455996Y-57171389D01*
X151292664Y-57098669D01*
X151117793Y-57061500D01*
X151117791Y-57061500D01*
X150939009Y-57061500D01*
X150939007Y-57061500D01*
X150764135Y-57098669D01*
X150600808Y-57171387D01*
X150456168Y-57276474D01*
X150336540Y-57409334D01*
X150247149Y-57564164D01*
X150191903Y-57734195D01*
X150173215Y-57911999D01*
X150173215Y-57912000D01*
X148338893Y-57912000D01*
X148394339Y-57793096D01*
X148453235Y-57573292D01*
X148473068Y-57346600D01*
X148472052Y-57334992D01*
X148453235Y-57119910D01*
X148453235Y-57119908D01*
X148394339Y-56900104D01*
X148298168Y-56693866D01*
X148283657Y-56673141D01*
X148167646Y-56507459D01*
X148094467Y-56434280D01*
X148060982Y-56372957D01*
X148065966Y-56303265D01*
X148094466Y-56258919D01*
X148167647Y-56185739D01*
X148298168Y-55999334D01*
X148394339Y-55793096D01*
X148453235Y-55573292D01*
X148473068Y-55346600D01*
X148453235Y-55119908D01*
X148394339Y-54900104D01*
X148298168Y-54693866D01*
X148217925Y-54579265D01*
X148167646Y-54507459D01*
X148006740Y-54346553D01*
X147820335Y-54216032D01*
X147614097Y-54119861D01*
X147452644Y-54076600D01*
X175344615Y-54076600D01*
X175347323Y-54102364D01*
X175363303Y-54254404D01*
X175418549Y-54424435D01*
X175507940Y-54579265D01*
X175627571Y-54712127D01*
X175772203Y-54817210D01*
X175935535Y-54889930D01*
X176110407Y-54927100D01*
X176110409Y-54927100D01*
X176289193Y-54927100D01*
X176464064Y-54889930D01*
X176464065Y-54889929D01*
X176464067Y-54889929D01*
X176627393Y-54817212D01*
X176772030Y-54712126D01*
X176891659Y-54579265D01*
X176981050Y-54424435D01*
X177036297Y-54254403D01*
X177054985Y-54076600D01*
X177036297Y-53898797D01*
X177007640Y-53810601D01*
X176981050Y-53728764D01*
X176891659Y-53573934D01*
X176772028Y-53441072D01*
X176627396Y-53335989D01*
X176464064Y-53263269D01*
X176289193Y-53226100D01*
X176289191Y-53226100D01*
X176110409Y-53226100D01*
X176110407Y-53226100D01*
X175935535Y-53263269D01*
X175772208Y-53335987D01*
X175627568Y-53441074D01*
X175507940Y-53573934D01*
X175418549Y-53728764D01*
X175363303Y-53898795D01*
X175363302Y-53898797D01*
X175363303Y-53898797D01*
X175344615Y-54076600D01*
X147452644Y-54076600D01*
X147394289Y-54060964D01*
X147167599Y-54041131D01*
X146940910Y-54060964D01*
X146721102Y-54119861D01*
X146514864Y-54216032D01*
X146328459Y-54346553D01*
X146167553Y-54507459D01*
X146037032Y-54693864D01*
X145940861Y-54900102D01*
X145881964Y-55119910D01*
X145862131Y-55346599D01*
X145881964Y-55573289D01*
X145940861Y-55793097D01*
X146037032Y-55999335D01*
X146167553Y-56185740D01*
X146240732Y-56258919D01*
X146274217Y-56320242D01*
X146269233Y-56389934D01*
X146240732Y-56434281D01*
X146167553Y-56507459D01*
X146037032Y-56693864D01*
X145940861Y-56900102D01*
X145881964Y-57119910D01*
X145862131Y-57346600D01*
X135828224Y-57346600D01*
X135695548Y-57334992D01*
X135460140Y-57355588D01*
X135231884Y-57416749D01*
X135017718Y-57516617D01*
X134824146Y-57652157D01*
X134657053Y-57819250D01*
X134521513Y-58012822D01*
X134421645Y-58226988D01*
X134360484Y-58455244D01*
X134339888Y-58690652D01*
X134360484Y-58926059D01*
X134387465Y-59026753D01*
X134385802Y-59096603D01*
X134346639Y-59154465D01*
X134282411Y-59181969D01*
X134235597Y-59178621D01*
X134134903Y-59151640D01*
X133899496Y-59131044D01*
X133664088Y-59151640D01*
X133435832Y-59212801D01*
X133221666Y-59312669D01*
X133028094Y-59448209D01*
X132861001Y-59615302D01*
X132725461Y-59808874D01*
X132625593Y-60023040D01*
X132564432Y-60251296D01*
X132543836Y-60486704D01*
X132564432Y-60722111D01*
X132591412Y-60822803D01*
X132589749Y-60892653D01*
X132550586Y-60950515D01*
X132486357Y-60978019D01*
X132439544Y-60974671D01*
X132338852Y-60947691D01*
X132103444Y-60927095D01*
X131868037Y-60947691D01*
X131639781Y-61008852D01*
X131425615Y-61108720D01*
X131232043Y-61244260D01*
X131064950Y-61411353D01*
X130929410Y-61604925D01*
X130829542Y-61819091D01*
X130768381Y-62047347D01*
X130747785Y-62282756D01*
X130751551Y-62325803D01*
X130737784Y-62394303D01*
X130689168Y-62444485D01*
X130621139Y-62460418D01*
X130576511Y-62449403D01*
X130449851Y-62391558D01*
X130307393Y-62371077D01*
X130164936Y-62391558D01*
X130034022Y-62451346D01*
X129993507Y-62483995D01*
X129987338Y-62488966D01*
X129984994Y-62491309D01*
X129984985Y-62491318D01*
X128719903Y-63756402D01*
X128719894Y-63756411D01*
X128717556Y-63758750D01*
X128715477Y-63761328D01*
X128715474Y-63761333D01*
X128679934Y-63805433D01*
X128620146Y-63936348D01*
X128599665Y-64078806D01*
X119266199Y-64078806D01*
X119256652Y-64053210D01*
X119170488Y-63938111D01*
X119055389Y-63851947D01*
X118920671Y-63801700D01*
X118864432Y-63795654D01*
X118857818Y-63795300D01*
X118313300Y-63795300D01*
X118313300Y-64729614D01*
X118301345Y-64717659D01*
X118188448Y-64660135D01*
X118094781Y-64645300D01*
X118031819Y-64645300D01*
X117938152Y-64660135D01*
X117825255Y-64717659D01*
X117813300Y-64729613D01*
X117813300Y-63795300D01*
X117268782Y-63795300D01*
X117262167Y-63795654D01*
X117205928Y-63801700D01*
X117071210Y-63851947D01*
X116956111Y-63938111D01*
X116869947Y-64053210D01*
X116819700Y-64187928D01*
X116813654Y-64244167D01*
X116813300Y-64250781D01*
X116813300Y-64795300D01*
X117747614Y-64795300D01*
X117735659Y-64807255D01*
X117678135Y-64920152D01*
X117658314Y-65045300D01*
X117678135Y-65170448D01*
X117735659Y-65283345D01*
X117747614Y-65295300D01*
X116813300Y-65295300D01*
X116813300Y-65839818D01*
X116813654Y-65846432D01*
X116819700Y-65902671D01*
X116869947Y-66037389D01*
X116956111Y-66152488D01*
X117071210Y-66238652D01*
X117205928Y-66288899D01*
X117262167Y-66294945D01*
X117268782Y-66295300D01*
X117332153Y-66295300D01*
X117399192Y-66314985D01*
X117444947Y-66367789D01*
X117454891Y-66436947D01*
X117425866Y-66500503D01*
X117403276Y-66520875D01*
X117256422Y-66623702D01*
X117101702Y-66778422D01*
X116976198Y-66957661D01*
X116883725Y-67155968D01*
X116827092Y-67367325D01*
X116808022Y-67585300D01*
X116827092Y-67803274D01*
X116883725Y-68014631D01*
X116888764Y-68025436D01*
X116976198Y-68212939D01*
X117101702Y-68392177D01*
X117256423Y-68546898D01*
X117435661Y-68672402D01*
X117534537Y-68718508D01*
X117586882Y-68742918D01*
X117639321Y-68789091D01*
X117658473Y-68856284D01*
X117638257Y-68923165D01*
X117586882Y-68967682D01*
X117435661Y-69038198D01*
X117256422Y-69163702D01*
X117101702Y-69318422D01*
X116976198Y-69497661D01*
X116883725Y-69695968D01*
X116827092Y-69907325D01*
X116808022Y-70125300D01*
X116827092Y-70343274D01*
X116883725Y-70554631D01*
X116888659Y-70565212D01*
X116976198Y-70752939D01*
X117101702Y-70932177D01*
X117256423Y-71086898D01*
X117435661Y-71212402D01*
X117534537Y-71258508D01*
X117586882Y-71282918D01*
X117639321Y-71329091D01*
X117658473Y-71396284D01*
X117638257Y-71463165D01*
X117586882Y-71507682D01*
X117435661Y-71578198D01*
X117256422Y-71703702D01*
X117101702Y-71858422D01*
X116976198Y-72037661D01*
X116883725Y-72235968D01*
X116827092Y-72447325D01*
X116808022Y-72665300D01*
X110959951Y-72665300D01*
X110823404Y-72580754D01*
X110662865Y-72518561D01*
X110615940Y-72500382D01*
X110397243Y-72459500D01*
X110174757Y-72459500D01*
X109961308Y-72499401D01*
X109956060Y-72500382D01*
X109748595Y-72580754D01*
X109559437Y-72697875D01*
X109395019Y-72847762D01*
X109260941Y-73025311D01*
X109161769Y-73224473D01*
X109135266Y-73317625D01*
X109097987Y-73376719D01*
X109034677Y-73406276D01*
X108965438Y-73396914D01*
X108912251Y-73351604D01*
X108896734Y-73317625D01*
X108870230Y-73224473D01*
X108771058Y-73025311D01*
X108636980Y-72847762D01*
X108472562Y-72697875D01*
X108283404Y-72580754D01*
X108122865Y-72518561D01*
X108075940Y-72500382D01*
X107857243Y-72459500D01*
X107634757Y-72459500D01*
X107421308Y-72499401D01*
X107416060Y-72500382D01*
X107208595Y-72580754D01*
X107019437Y-72697875D01*
X106855019Y-72847762D01*
X106720941Y-73025311D01*
X106621769Y-73224473D01*
X106560885Y-73438462D01*
X106540357Y-73660000D01*
X94372310Y-73660000D01*
X94376799Y-60166876D01*
X119977500Y-60166876D01*
X119977501Y-60170006D01*
X119977820Y-60173138D01*
X119977821Y-60173139D01*
X119988000Y-60272795D01*
X120043185Y-60439332D01*
X120135290Y-60588657D01*
X120259342Y-60712709D01*
X120259344Y-60712710D01*
X120259345Y-60712711D01*
X120408667Y-60804814D01*
X120461880Y-60822447D01*
X120575203Y-60859999D01*
X120674860Y-60870180D01*
X120674861Y-60870180D01*
X120677993Y-60870500D01*
X124178006Y-60870499D01*
X124280796Y-60859999D01*
X124447333Y-60804814D01*
X124596655Y-60712711D01*
X124720711Y-60588655D01*
X124812814Y-60439333D01*
X124867999Y-60272796D01*
X124878500Y-60170007D01*
X124878499Y-57388000D01*
X129885531Y-57388000D01*
X129905364Y-57614689D01*
X129964261Y-57834497D01*
X130060432Y-58040735D01*
X130190953Y-58227140D01*
X130351859Y-58388046D01*
X130538264Y-58518567D01*
X130538265Y-58518567D01*
X130538266Y-58518568D01*
X130744504Y-58614739D01*
X130964308Y-58673635D01*
X131191000Y-58693468D01*
X131417692Y-58673635D01*
X131637496Y-58614739D01*
X131843734Y-58518568D01*
X132030139Y-58388047D01*
X132191047Y-58227139D01*
X132321568Y-58040734D01*
X132417739Y-57834496D01*
X132476635Y-57614692D01*
X132496468Y-57388000D01*
X132476635Y-57161308D01*
X132417739Y-56941504D01*
X132321568Y-56735266D01*
X132312427Y-56722210D01*
X132191046Y-56548859D01*
X132117867Y-56475680D01*
X132084382Y-56414357D01*
X132089366Y-56344665D01*
X132117864Y-56300321D01*
X132191047Y-56227139D01*
X132321568Y-56040734D01*
X132417739Y-55834496D01*
X132476635Y-55614692D01*
X132496468Y-55388000D01*
X132476635Y-55161308D01*
X132417739Y-54941504D01*
X132321568Y-54735266D01*
X132305366Y-54712126D01*
X132191046Y-54548859D01*
X132030140Y-54387953D01*
X131843735Y-54257432D01*
X131637497Y-54161261D01*
X131417689Y-54102364D01*
X131191000Y-54082531D01*
X130964310Y-54102364D01*
X130744502Y-54161261D01*
X130538264Y-54257432D01*
X130351859Y-54387953D01*
X130190953Y-54548859D01*
X130060432Y-54735264D01*
X129964261Y-54941502D01*
X129905364Y-55161310D01*
X129885531Y-55388000D01*
X129905364Y-55614689D01*
X129964261Y-55834497D01*
X130060432Y-56040735D01*
X130190953Y-56227140D01*
X130264131Y-56300318D01*
X130297616Y-56361641D01*
X130292632Y-56431333D01*
X130264132Y-56475679D01*
X130190953Y-56548859D01*
X130060432Y-56735264D01*
X129964261Y-56941502D01*
X129905364Y-57161310D01*
X129885531Y-57388000D01*
X124878499Y-57388000D01*
X124878499Y-56669994D01*
X124867999Y-56567204D01*
X124812814Y-56400667D01*
X124720711Y-56251345D01*
X124720710Y-56251344D01*
X124720709Y-56251342D01*
X124596657Y-56127290D01*
X124456329Y-56040735D01*
X124447333Y-56035186D01*
X124447332Y-56035185D01*
X124447331Y-56035185D01*
X124280796Y-55980000D01*
X124181139Y-55969819D01*
X124181120Y-55969818D01*
X124178007Y-55969500D01*
X124174858Y-55969500D01*
X120681142Y-55969500D01*
X120681122Y-55969500D01*
X120677994Y-55969501D01*
X120674862Y-55969820D01*
X120674860Y-55969821D01*
X120575204Y-55980000D01*
X120408667Y-56035185D01*
X120259342Y-56127290D01*
X120135290Y-56251342D01*
X120043185Y-56400668D01*
X119988000Y-56567203D01*
X119977819Y-56666860D01*
X119977817Y-56666880D01*
X119977500Y-56669993D01*
X119977500Y-56673140D01*
X119977500Y-56673141D01*
X119977500Y-60166857D01*
X119977500Y-60166876D01*
X94376799Y-60166876D01*
X94379935Y-50739297D01*
X99813273Y-50739297D01*
X99813381Y-50742949D01*
X99813381Y-50742960D01*
X99820338Y-50977606D01*
X99823475Y-51083406D01*
X99824015Y-51087027D01*
X99824017Y-51087043D01*
X99873761Y-51420265D01*
X99873762Y-51420274D01*
X99874303Y-51423892D01*
X99875269Y-51427427D01*
X99964079Y-51752440D01*
X99964081Y-51752447D01*
X99965046Y-51755977D01*
X99966419Y-51759364D01*
X99966422Y-51759371D01*
X100093049Y-52071600D01*
X100093052Y-52071607D01*
X100094428Y-52074999D01*
X100260634Y-52376479D01*
X100262769Y-52379454D01*
X100262775Y-52379464D01*
X100426674Y-52607886D01*
X100461330Y-52656185D01*
X100693699Y-52910191D01*
X100954480Y-53134931D01*
X101131011Y-53253834D01*
X101236954Y-53325193D01*
X101236958Y-53325195D01*
X101240010Y-53327251D01*
X101546283Y-53484450D01*
X101868999Y-53604322D01*
X102203627Y-53685183D01*
X102545470Y-53725900D01*
X102549138Y-53725900D01*
X102801765Y-53725900D01*
X102803590Y-53725900D01*
X103061255Y-53710609D01*
X103400086Y-53649713D01*
X103729336Y-53549169D01*
X104044383Y-53410390D01*
X104340806Y-53235324D01*
X104410818Y-53181876D01*
X119977500Y-53181876D01*
X119977501Y-53185006D01*
X119977820Y-53188138D01*
X119977821Y-53188139D01*
X119988000Y-53287795D01*
X120043185Y-53454332D01*
X120135290Y-53603657D01*
X120259342Y-53727709D01*
X120259344Y-53727710D01*
X120259345Y-53727711D01*
X120408667Y-53819814D01*
X120491935Y-53847406D01*
X120575203Y-53874999D01*
X120674860Y-53885180D01*
X120674861Y-53885180D01*
X120677993Y-53885500D01*
X124178006Y-53885499D01*
X124280796Y-53874999D01*
X124447333Y-53819814D01*
X124596655Y-53727711D01*
X124720711Y-53603655D01*
X124812814Y-53454333D01*
X124842284Y-53365399D01*
X136610140Y-53365399D01*
X136629926Y-53553657D01*
X136688420Y-53733684D01*
X136783066Y-53897616D01*
X136909729Y-54038289D01*
X137062869Y-54149551D01*
X137235797Y-54226544D01*
X137420952Y-54265900D01*
X137420954Y-54265900D01*
X137610248Y-54265900D01*
X137733683Y-54239662D01*
X137795403Y-54226544D01*
X137968330Y-54149551D01*
X138060574Y-54082532D01*
X138121470Y-54038289D01*
X138248133Y-53897616D01*
X138342779Y-53733684D01*
X138350206Y-53710826D01*
X138401274Y-53553656D01*
X138421060Y-53365400D01*
X138401274Y-53177144D01*
X138342779Y-52997116D01*
X138342779Y-52997115D01*
X138248133Y-52833183D01*
X138121470Y-52692510D01*
X137968330Y-52581248D01*
X137795402Y-52504255D01*
X137610248Y-52464900D01*
X137610246Y-52464900D01*
X137420954Y-52464900D01*
X137420952Y-52464900D01*
X137235797Y-52504255D01*
X137062869Y-52581248D01*
X136909729Y-52692510D01*
X136783066Y-52833183D01*
X136688420Y-52997115D01*
X136629926Y-53177142D01*
X136610140Y-53365399D01*
X124842284Y-53365399D01*
X124867999Y-53287796D01*
X124878500Y-53185007D01*
X124878499Y-50952400D01*
X136635540Y-50952400D01*
X136638189Y-50977606D01*
X136655326Y-51140657D01*
X136713820Y-51320684D01*
X136808466Y-51484616D01*
X136935129Y-51625289D01*
X137088269Y-51736551D01*
X137261197Y-51813544D01*
X137446352Y-51852900D01*
X137446354Y-51852900D01*
X137635648Y-51852900D01*
X137759084Y-51826662D01*
X137820803Y-51813544D01*
X137993730Y-51736551D01*
X137993730Y-51736550D01*
X138146870Y-51625289D01*
X138188093Y-51579507D01*
X138273533Y-51484616D01*
X138368179Y-51320684D01*
X138426674Y-51140656D01*
X138435782Y-51053999D01*
X140876815Y-51053999D01*
X140895503Y-51231804D01*
X140950749Y-51401835D01*
X141040140Y-51556665D01*
X141159771Y-51689527D01*
X141304403Y-51794610D01*
X141304406Y-51794611D01*
X141304407Y-51794612D01*
X141413291Y-51843089D01*
X141467735Y-51867330D01*
X141642607Y-51904500D01*
X141642609Y-51904500D01*
X141821393Y-51904500D01*
X141996264Y-51867330D01*
X141996265Y-51867329D01*
X141996267Y-51867329D01*
X142159593Y-51794612D01*
X142304230Y-51689526D01*
X142423859Y-51556665D01*
X142513250Y-51401835D01*
X142568497Y-51231803D01*
X142587185Y-51054000D01*
X142568497Y-50876197D01*
X142532088Y-50764142D01*
X142513250Y-50706164D01*
X142423859Y-50551334D01*
X142304228Y-50418472D01*
X142159596Y-50313389D01*
X141996264Y-50240669D01*
X141821393Y-50203500D01*
X141821391Y-50203500D01*
X141642609Y-50203500D01*
X141642607Y-50203500D01*
X141467735Y-50240669D01*
X141304408Y-50313387D01*
X141159768Y-50418474D01*
X141040140Y-50551334D01*
X140950749Y-50706164D01*
X140895503Y-50876195D01*
X140876815Y-51053999D01*
X138435782Y-51053999D01*
X138446460Y-50952400D01*
X138426674Y-50764144D01*
X138368179Y-50584116D01*
X138368179Y-50584115D01*
X138273533Y-50420183D01*
X138146870Y-50279510D01*
X137993730Y-50168248D01*
X137820802Y-50091255D01*
X137635648Y-50051900D01*
X137635646Y-50051900D01*
X137446354Y-50051900D01*
X137446352Y-50051900D01*
X137261197Y-50091255D01*
X137088269Y-50168248D01*
X136935129Y-50279510D01*
X136808466Y-50420183D01*
X136713820Y-50584115D01*
X136655326Y-50764142D01*
X136643549Y-50876195D01*
X136635540Y-50952400D01*
X124878499Y-50952400D01*
X124878499Y-49684994D01*
X124867999Y-49582204D01*
X124867534Y-49580800D01*
X132012215Y-49580800D01*
X132030903Y-49758604D01*
X132086149Y-49928635D01*
X132175540Y-50083465D01*
X132295171Y-50216327D01*
X132439803Y-50321410D01*
X132603135Y-50394130D01*
X132778007Y-50431300D01*
X132778009Y-50431300D01*
X132956793Y-50431300D01*
X133131664Y-50394130D01*
X133131665Y-50394129D01*
X133131667Y-50394129D01*
X133294993Y-50321412D01*
X133306039Y-50313387D01*
X133352663Y-50279512D01*
X133439630Y-50216326D01*
X133559259Y-50083465D01*
X133648650Y-49928635D01*
X133703897Y-49758603D01*
X133722585Y-49580800D01*
X133703897Y-49402997D01*
X133663132Y-49277536D01*
X133648650Y-49232964D01*
X133559259Y-49078134D01*
X133445351Y-48951628D01*
X133439630Y-48945274D01*
X133439629Y-48945273D01*
X133439628Y-48945272D01*
X133354789Y-48883632D01*
X166123500Y-48883632D01*
X166123747Y-48886382D01*
X166123748Y-48886393D01*
X166138321Y-49048309D01*
X166197006Y-49260948D01*
X166292719Y-49459699D01*
X166412059Y-49623956D01*
X166422381Y-49638163D01*
X166581825Y-49790607D01*
X166765927Y-49912131D01*
X166804540Y-49928635D01*
X166968767Y-49998830D01*
X167048697Y-50017073D01*
X167183832Y-50047917D01*
X167385258Y-50056963D01*
X167404202Y-50057814D01*
X167404202Y-50057813D01*
X167404204Y-50057814D01*
X167622802Y-50028203D01*
X167832599Y-49960036D01*
X168026853Y-49855503D01*
X168199320Y-49717965D01*
X168344457Y-49551842D01*
X168457600Y-49362474D01*
X168535111Y-49155946D01*
X168554304Y-49050185D01*
X168574500Y-48938898D01*
X168574500Y-48447078D01*
X168594185Y-48380039D01*
X168646989Y-48334284D01*
X168713763Y-48324682D01*
X168713782Y-48324511D01*
X168714461Y-48324582D01*
X168716147Y-48324340D01*
X168719438Y-48325105D01*
X168726739Y-48325872D01*
X168726744Y-48325874D01*
X168767485Y-48330155D01*
X168780294Y-48332185D01*
X168820354Y-48340700D01*
X169009643Y-48340700D01*
X169009646Y-48340700D01*
X169049726Y-48332180D01*
X169062503Y-48330156D01*
X169103256Y-48325874D01*
X169142220Y-48313212D01*
X169154741Y-48309858D01*
X169180860Y-48304307D01*
X169194799Y-48301345D01*
X169194799Y-48301344D01*
X169194803Y-48301344D01*
X169232234Y-48284677D01*
X169244324Y-48280036D01*
X169283284Y-48267379D01*
X169318753Y-48246899D01*
X169330307Y-48241011D01*
X169367730Y-48224351D01*
X169400872Y-48200271D01*
X169411734Y-48193218D01*
X169447216Y-48172733D01*
X169477654Y-48145325D01*
X169487740Y-48137158D01*
X169520871Y-48113088D01*
X169548284Y-48082641D01*
X169557441Y-48073484D01*
X169587888Y-48046071D01*
X169611958Y-48012939D01*
X169620125Y-48002854D01*
X169647533Y-47972416D01*
X169668018Y-47936934D01*
X169675071Y-47926072D01*
X169699151Y-47892930D01*
X169715811Y-47855507D01*
X169721700Y-47843953D01*
X169724241Y-47839553D01*
X169742179Y-47808484D01*
X169754836Y-47769524D01*
X169759477Y-47757434D01*
X169776144Y-47720003D01*
X169784658Y-47679941D01*
X169788012Y-47667420D01*
X169800674Y-47628456D01*
X169804956Y-47587703D01*
X169806980Y-47574926D01*
X169815500Y-47534846D01*
X169815500Y-47516399D01*
X172403740Y-47516399D01*
X172408021Y-47557131D01*
X172408700Y-47570092D01*
X172408700Y-47611045D01*
X172417214Y-47651104D01*
X172419243Y-47663919D01*
X172423525Y-47704655D01*
X172436182Y-47743609D01*
X172439542Y-47756146D01*
X172448056Y-47796205D01*
X172464712Y-47833613D01*
X172469364Y-47845731D01*
X172482021Y-47884684D01*
X172502500Y-47920155D01*
X172508387Y-47931708D01*
X172512453Y-47940839D01*
X172525050Y-47969132D01*
X172549118Y-48002260D01*
X172556184Y-48013140D01*
X172575432Y-48046478D01*
X172576667Y-48048616D01*
X172602965Y-48077823D01*
X172604077Y-48079057D01*
X172612241Y-48089139D01*
X172636312Y-48122271D01*
X172666746Y-48149674D01*
X172675915Y-48158842D01*
X172684190Y-48168032D01*
X172703330Y-48189289D01*
X172736458Y-48213357D01*
X172746547Y-48221527D01*
X172776981Y-48248931D01*
X172776983Y-48248932D01*
X172776984Y-48248933D01*
X172812466Y-48269419D01*
X172823336Y-48276478D01*
X172856470Y-48300551D01*
X172893883Y-48317208D01*
X172905439Y-48323096D01*
X172940916Y-48343579D01*
X172979866Y-48356234D01*
X172991978Y-48360883D01*
X173029397Y-48377544D01*
X173069467Y-48386060D01*
X173081982Y-48389414D01*
X173120944Y-48402074D01*
X173161685Y-48406355D01*
X173174494Y-48408385D01*
X173214554Y-48416900D01*
X173403846Y-48416900D01*
X173423718Y-48412676D01*
X173493385Y-48417992D01*
X173549119Y-48460128D01*
X173573225Y-48525708D01*
X173573500Y-48533965D01*
X173573500Y-48883632D01*
X173573747Y-48886382D01*
X173573748Y-48886393D01*
X173588321Y-49048309D01*
X173647006Y-49260948D01*
X173742719Y-49459699D01*
X173862059Y-49623956D01*
X173872381Y-49638163D01*
X174031825Y-49790607D01*
X174215927Y-49912131D01*
X174254540Y-49928635D01*
X174418767Y-49998830D01*
X174498697Y-50017073D01*
X174633832Y-50047917D01*
X174835258Y-50056963D01*
X174854202Y-50057814D01*
X174854202Y-50057813D01*
X174854204Y-50057814D01*
X175072802Y-50028203D01*
X175282599Y-49960036D01*
X175476853Y-49855503D01*
X175547082Y-49799497D01*
X189145073Y-49799497D01*
X189145181Y-49803149D01*
X189145181Y-49803160D01*
X189153175Y-50072771D01*
X189155275Y-50143606D01*
X189155815Y-50147227D01*
X189155817Y-50147243D01*
X189205561Y-50480465D01*
X189205562Y-50480474D01*
X189206103Y-50484092D01*
X189207069Y-50487627D01*
X189295879Y-50812640D01*
X189295881Y-50812647D01*
X189296846Y-50816177D01*
X189298219Y-50819564D01*
X189298222Y-50819571D01*
X189424849Y-51131800D01*
X189424852Y-51131807D01*
X189426228Y-51135199D01*
X189592434Y-51436679D01*
X189594569Y-51439654D01*
X189594575Y-51439664D01*
X189727766Y-51625289D01*
X189793130Y-51716385D01*
X190025499Y-51970391D01*
X190286280Y-52195131D01*
X190462811Y-52314034D01*
X190568754Y-52385393D01*
X190568758Y-52385395D01*
X190571810Y-52387451D01*
X190878083Y-52544650D01*
X191200799Y-52664522D01*
X191535427Y-52745383D01*
X191877270Y-52786100D01*
X191880938Y-52786100D01*
X192133565Y-52786100D01*
X192135390Y-52786100D01*
X192393055Y-52770809D01*
X192731886Y-52709913D01*
X193061136Y-52609369D01*
X193376183Y-52470590D01*
X193672606Y-52295524D01*
X193946242Y-52086627D01*
X194193251Y-51846833D01*
X194410164Y-51579507D01*
X194593938Y-51288402D01*
X194741992Y-50977606D01*
X194852248Y-50651480D01*
X194923158Y-50314602D01*
X194953727Y-49971703D01*
X194943525Y-49627594D01*
X194892697Y-49287108D01*
X194801954Y-48955023D01*
X194672572Y-48636001D01*
X194506366Y-48334521D01*
X194504227Y-48331541D01*
X194504224Y-48331535D01*
X194382105Y-48161341D01*
X194305670Y-48054815D01*
X194073301Y-47800809D01*
X193812520Y-47576069D01*
X193680865Y-47487392D01*
X193530045Y-47385806D01*
X193530036Y-47385800D01*
X193526990Y-47383749D01*
X193523718Y-47382069D01*
X193523712Y-47382066D01*
X193223994Y-47228232D01*
X193220717Y-47226550D01*
X192898001Y-47106678D01*
X192894436Y-47105816D01*
X192894431Y-47105815D01*
X192566937Y-47026678D01*
X192566933Y-47026677D01*
X192563373Y-47025817D01*
X192559737Y-47025383D01*
X192559732Y-47025383D01*
X192225169Y-46985533D01*
X192225161Y-46985532D01*
X192221530Y-46985100D01*
X191963410Y-46985100D01*
X191961596Y-46985207D01*
X191961584Y-46985208D01*
X191709411Y-47000173D01*
X191709403Y-47000173D01*
X191705745Y-47000391D01*
X191702150Y-47001037D01*
X191702134Y-47001039D01*
X191370530Y-47060637D01*
X191370528Y-47060637D01*
X191366914Y-47061287D01*
X191363405Y-47062358D01*
X191363399Y-47062360D01*
X191041178Y-47160757D01*
X191041164Y-47160762D01*
X191037664Y-47161831D01*
X191034313Y-47163306D01*
X191034297Y-47163313D01*
X190725973Y-47299131D01*
X190725963Y-47299135D01*
X190722617Y-47300610D01*
X190719478Y-47302463D01*
X190719464Y-47302471D01*
X190429352Y-47473810D01*
X190429341Y-47473817D01*
X190426194Y-47475676D01*
X190423283Y-47477898D01*
X190423273Y-47477905D01*
X190155478Y-47682343D01*
X190155469Y-47682350D01*
X190152558Y-47684573D01*
X190149929Y-47687124D01*
X190149921Y-47687132D01*
X189908193Y-47921799D01*
X189908182Y-47921809D01*
X189905549Y-47924367D01*
X189903238Y-47927214D01*
X189903228Y-47927226D01*
X189707615Y-48168303D01*
X189688636Y-48191693D01*
X189686679Y-48194792D01*
X189686671Y-48194804D01*
X189506822Y-48479693D01*
X189504862Y-48482798D01*
X189503288Y-48486101D01*
X189503282Y-48486113D01*
X189419128Y-48662771D01*
X189356808Y-48793594D01*
X189355627Y-48797086D01*
X189355625Y-48797092D01*
X189247733Y-49116225D01*
X189247730Y-49116233D01*
X189246552Y-49119720D01*
X189245796Y-49123310D01*
X189245792Y-49123326D01*
X189176399Y-49452999D01*
X189176397Y-49453008D01*
X189175642Y-49456598D01*
X189175316Y-49460253D01*
X189175315Y-49460261D01*
X189145398Y-49795841D01*
X189145397Y-49795856D01*
X189145073Y-49799497D01*
X175547082Y-49799497D01*
X175649320Y-49717965D01*
X175794457Y-49551842D01*
X175907600Y-49362474D01*
X175985111Y-49155946D01*
X176004304Y-49050185D01*
X176024500Y-48938898D01*
X176024500Y-48226344D01*
X176024500Y-48223568D01*
X176009679Y-48058894D01*
X176009378Y-48057805D01*
X175972942Y-47925782D01*
X175950993Y-47846250D01*
X175855281Y-47647502D01*
X175841443Y-47628456D01*
X175732062Y-47477905D01*
X175725619Y-47469037D01*
X175566175Y-47316593D01*
X175566172Y-47316591D01*
X175566171Y-47316590D01*
X175444987Y-47236598D01*
X175382073Y-47195069D01*
X175363354Y-47187068D01*
X175179232Y-47108369D01*
X174964168Y-47059283D01*
X174751935Y-47049751D01*
X174685847Y-47027078D01*
X174642507Y-46972275D01*
X174635677Y-46902740D01*
X174667522Y-46840552D01*
X174757245Y-46746454D01*
X174868291Y-46573664D01*
X174944629Y-46382982D01*
X174983500Y-46181298D01*
X174983500Y-45377368D01*
X174983092Y-45373099D01*
X174968868Y-45224136D01*
X174968868Y-45224134D01*
X174911001Y-45027059D01*
X174816884Y-44844496D01*
X174755773Y-44766788D01*
X174689917Y-44683045D01*
X174534687Y-44548537D01*
X174356812Y-44445841D01*
X174162712Y-44378662D01*
X173959408Y-44349432D01*
X173959407Y-44349432D01*
X173856825Y-44354318D01*
X173754243Y-44359205D01*
X173554638Y-44407629D01*
X173367800Y-44492954D01*
X173200496Y-44612092D01*
X173200494Y-44612093D01*
X173200494Y-44612094D01*
X173132844Y-44683044D01*
X173058754Y-44760747D01*
X172947709Y-44933534D01*
X172871370Y-45124220D01*
X172832500Y-45325901D01*
X172832499Y-46126878D01*
X172832500Y-46126898D01*
X172832500Y-46129832D01*
X172832779Y-46132762D01*
X172832781Y-46132787D01*
X172847131Y-46283063D01*
X172904999Y-46480141D01*
X172941484Y-46550914D01*
X172954706Y-46619521D01*
X172928738Y-46684386D01*
X172881709Y-46721010D01*
X172856470Y-46732248D01*
X172823337Y-46756319D01*
X172812460Y-46763383D01*
X172776982Y-46783867D01*
X172746547Y-46811271D01*
X172736464Y-46819436D01*
X172703328Y-46843511D01*
X172675922Y-46873948D01*
X172666748Y-46883122D01*
X172636311Y-46910528D01*
X172612236Y-46943664D01*
X172604071Y-46953747D01*
X172576667Y-46984182D01*
X172556183Y-47019660D01*
X172549119Y-47030537D01*
X172525048Y-47063670D01*
X172508391Y-47101081D01*
X172502501Y-47112641D01*
X172482020Y-47148115D01*
X172469363Y-47187068D01*
X172464714Y-47199180D01*
X172448054Y-47236598D01*
X172439540Y-47276658D01*
X172436181Y-47289194D01*
X172423525Y-47328144D01*
X172419242Y-47368883D01*
X172417213Y-47381692D01*
X172408700Y-47421750D01*
X172408700Y-47462706D01*
X172408021Y-47475666D01*
X172403740Y-47516399D01*
X169815500Y-47516399D01*
X169815500Y-47493892D01*
X169816179Y-47480931D01*
X169816732Y-47475666D01*
X169820460Y-47440200D01*
X169816179Y-47399466D01*
X169815500Y-47386506D01*
X169815500Y-47345553D01*
X169809344Y-47316593D01*
X169806985Y-47305494D01*
X169804955Y-47292680D01*
X169801393Y-47258789D01*
X169800674Y-47251944D01*
X169788014Y-47212982D01*
X169784660Y-47200467D01*
X169776144Y-47160397D01*
X169759483Y-47122978D01*
X169754831Y-47110858D01*
X169754022Y-47108369D01*
X169742179Y-47071916D01*
X169721696Y-47036439D01*
X169715805Y-47024877D01*
X169699151Y-46987470D01*
X169675078Y-46954336D01*
X169668015Y-46943460D01*
X169647531Y-46907981D01*
X169620127Y-46877547D01*
X169611957Y-46867458D01*
X169587889Y-46834330D01*
X169576590Y-46824156D01*
X169557442Y-46806915D01*
X169548274Y-46797746D01*
X169520871Y-46767312D01*
X169487739Y-46743241D01*
X169477662Y-46735081D01*
X169447216Y-46707667D01*
X169447215Y-46707666D01*
X169411740Y-46687184D01*
X169400860Y-46680118D01*
X169367732Y-46656050D01*
X169367730Y-46656049D01*
X169330308Y-46639387D01*
X169318755Y-46633500D01*
X169310746Y-46628876D01*
X169262530Y-46578309D01*
X169249307Y-46509702D01*
X169257629Y-46475402D01*
X169294629Y-46382982D01*
X169333500Y-46181298D01*
X169333500Y-45377368D01*
X169333092Y-45373099D01*
X169318868Y-45224136D01*
X169318868Y-45224134D01*
X169261001Y-45027059D01*
X169166884Y-44844496D01*
X169105773Y-44766788D01*
X169039917Y-44683045D01*
X168884687Y-44548537D01*
X168706812Y-44445841D01*
X168512712Y-44378662D01*
X168309408Y-44349432D01*
X168309407Y-44349432D01*
X168206825Y-44354318D01*
X168104243Y-44359205D01*
X167904638Y-44407629D01*
X167717800Y-44492954D01*
X167550496Y-44612092D01*
X167550494Y-44612093D01*
X167550494Y-44612094D01*
X167482844Y-44683044D01*
X167408754Y-44760747D01*
X167297709Y-44933534D01*
X167221370Y-45124220D01*
X167182500Y-45325901D01*
X167182499Y-46126878D01*
X167182500Y-46126898D01*
X167182500Y-46129832D01*
X167182779Y-46132762D01*
X167182781Y-46132787D01*
X167197131Y-46283063D01*
X167254998Y-46480139D01*
X167349117Y-46662706D01*
X167476084Y-46824157D01*
X167490607Y-46836741D01*
X167528381Y-46895519D01*
X167528381Y-46965389D01*
X167490606Y-47024166D01*
X167427050Y-47053191D01*
X167403841Y-47054328D01*
X167293797Y-47049385D01*
X167075196Y-47078997D01*
X166865402Y-47147163D01*
X166838145Y-47161831D01*
X166671147Y-47251697D01*
X166662254Y-47258789D01*
X166498679Y-47389235D01*
X166353542Y-47555358D01*
X166240399Y-47744726D01*
X166162888Y-47951253D01*
X166126091Y-48154023D01*
X166123500Y-48168303D01*
X166123500Y-48883632D01*
X133354789Y-48883632D01*
X133294996Y-48840189D01*
X133131664Y-48767469D01*
X132956793Y-48730300D01*
X132956791Y-48730300D01*
X132778009Y-48730300D01*
X132778007Y-48730300D01*
X132603135Y-48767469D01*
X132439808Y-48840187D01*
X132295168Y-48945274D01*
X132175540Y-49078134D01*
X132086149Y-49232964D01*
X132030903Y-49402995D01*
X132012215Y-49580800D01*
X124867534Y-49580800D01*
X124812814Y-49415667D01*
X124720711Y-49266345D01*
X124720710Y-49266344D01*
X124720709Y-49266342D01*
X124596657Y-49142290D01*
X124447331Y-49050185D01*
X124280796Y-48995000D01*
X124181139Y-48984819D01*
X124181120Y-48984818D01*
X124178007Y-48984500D01*
X124174858Y-48984500D01*
X120681142Y-48984500D01*
X120681122Y-48984500D01*
X120677994Y-48984501D01*
X120674862Y-48984820D01*
X120674860Y-48984821D01*
X120575204Y-48995000D01*
X120408667Y-49050185D01*
X120259342Y-49142290D01*
X120135290Y-49266342D01*
X120043185Y-49415668D01*
X119988000Y-49582203D01*
X119977819Y-49681860D01*
X119977817Y-49681880D01*
X119977500Y-49684993D01*
X119977500Y-49688140D01*
X119977500Y-49688141D01*
X119977500Y-53181857D01*
X119977500Y-53181876D01*
X104410818Y-53181876D01*
X104614442Y-53026427D01*
X104861451Y-52786633D01*
X105078364Y-52519307D01*
X105262138Y-52228202D01*
X105410192Y-51917406D01*
X105520448Y-51591280D01*
X105591358Y-51254402D01*
X105621927Y-50911503D01*
X105611725Y-50567394D01*
X105560897Y-50226908D01*
X105470154Y-49894823D01*
X105340772Y-49575801D01*
X105174566Y-49274321D01*
X105172427Y-49271341D01*
X105172424Y-49271335D01*
X105033797Y-49078134D01*
X104973870Y-48994615D01*
X104741501Y-48740609D01*
X104480720Y-48515869D01*
X104333785Y-48416900D01*
X104198245Y-48325606D01*
X104198236Y-48325600D01*
X104195190Y-48323549D01*
X104191918Y-48321869D01*
X104191912Y-48321866D01*
X103892194Y-48168032D01*
X103888917Y-48166350D01*
X103566201Y-48046478D01*
X103562636Y-48045616D01*
X103562631Y-48045615D01*
X103235137Y-47966478D01*
X103235133Y-47966477D01*
X103231573Y-47965617D01*
X103227937Y-47965183D01*
X103227932Y-47965183D01*
X102893369Y-47925333D01*
X102893361Y-47925332D01*
X102889730Y-47924900D01*
X102631610Y-47924900D01*
X102629796Y-47925007D01*
X102629784Y-47925008D01*
X102377611Y-47939973D01*
X102377603Y-47939973D01*
X102373945Y-47940191D01*
X102370350Y-47940837D01*
X102370334Y-47940839D01*
X102038730Y-48000437D01*
X102038728Y-48000437D01*
X102035114Y-48001087D01*
X102031605Y-48002158D01*
X102031599Y-48002160D01*
X101709378Y-48100557D01*
X101709364Y-48100562D01*
X101705864Y-48101631D01*
X101702513Y-48103106D01*
X101702497Y-48103113D01*
X101394173Y-48238931D01*
X101394163Y-48238935D01*
X101390817Y-48240410D01*
X101387678Y-48242263D01*
X101387664Y-48242271D01*
X101097552Y-48413610D01*
X101097541Y-48413617D01*
X101094394Y-48415476D01*
X101091483Y-48417698D01*
X101091473Y-48417705D01*
X100823678Y-48622143D01*
X100823669Y-48622150D01*
X100820758Y-48624373D01*
X100818129Y-48626924D01*
X100818121Y-48626932D01*
X100576393Y-48861599D01*
X100576382Y-48861609D01*
X100573749Y-48864167D01*
X100571438Y-48867014D01*
X100571428Y-48867026D01*
X100366389Y-49119720D01*
X100356836Y-49131493D01*
X100354879Y-49134592D01*
X100354871Y-49134604D01*
X100177437Y-49415668D01*
X100173062Y-49422598D01*
X100171488Y-49425901D01*
X100171482Y-49425913D01*
X100032358Y-49717964D01*
X100025008Y-49733394D01*
X100023827Y-49736886D01*
X100023825Y-49736892D01*
X99915933Y-50056025D01*
X99915930Y-50056033D01*
X99914752Y-50059520D01*
X99913996Y-50063110D01*
X99913992Y-50063126D01*
X99844599Y-50392799D01*
X99844597Y-50392808D01*
X99843842Y-50396398D01*
X99843516Y-50400053D01*
X99843515Y-50400061D01*
X99813598Y-50735641D01*
X99813597Y-50735656D01*
X99813273Y-50739297D01*
X94379935Y-50739297D01*
X94380155Y-50079381D01*
X94380853Y-50066304D01*
X94412581Y-49768811D01*
X94439856Y-49516969D01*
X94440951Y-49509189D01*
X94491455Y-49217837D01*
X94538366Y-48954886D01*
X94539885Y-48947647D01*
X94608706Y-48662756D01*
X94674274Y-48400736D01*
X94676174Y-48393972D01*
X94763186Y-48115078D01*
X94846981Y-47856925D01*
X94849170Y-47850754D01*
X94954098Y-47578459D01*
X95055694Y-47325950D01*
X95058144Y-47320283D01*
X95180536Y-47055653D01*
X95183397Y-47049751D01*
X95299459Y-46810208D01*
X95302128Y-46805016D01*
X95440921Y-46550107D01*
X95442166Y-46547879D01*
X95464017Y-46509702D01*
X95577235Y-46311892D01*
X95580007Y-46307287D01*
X95735098Y-46062090D01*
X95736641Y-46059716D01*
X95887711Y-45833359D01*
X95890543Y-45829296D01*
X96061280Y-45594820D01*
X96063236Y-45592211D01*
X96229548Y-45376662D01*
X96232347Y-45373173D01*
X96418032Y-45150365D01*
X96420394Y-45147617D01*
X96601130Y-44943956D01*
X96603942Y-44940897D01*
X96803690Y-44730803D01*
X96806576Y-44727869D01*
X97000845Y-44537101D01*
X97003543Y-44534533D01*
X97216644Y-44337893D01*
X97219980Y-44334929D01*
X97426887Y-44157931D01*
X97429386Y-44155853D01*
X97654951Y-43973502D01*
X97658827Y-43970498D01*
X97877358Y-43808136D01*
X97879588Y-43806521D01*
X98116693Y-43639224D01*
X98121066Y-43636281D01*
X98350105Y-43489370D01*
X98352162Y-43488081D01*
X98599763Y-43336592D01*
X98604736Y-43333709D01*
X98843888Y-43202541D01*
X99102046Y-43066932D01*
X99107588Y-43064198D01*
X99354622Y-42950003D01*
X99621309Y-42831455D01*
X99627327Y-42828973D01*
X99880909Y-42732264D01*
X100155093Y-42631278D01*
X100161739Y-42629043D01*
X100419985Y-42550378D01*
X100701189Y-42467226D01*
X100708363Y-42465339D01*
X100968628Y-42405218D01*
X101257004Y-42340091D01*
X101264732Y-42338603D01*
X101514747Y-42298676D01*
X101807304Y-42252445D01*
X101826500Y-42250926D01*
X193432805Y-42139116D01*
X193459574Y-42142008D01*
G37*
%TD.AperFunction*%
%TD*%
M02*
