%TF.GenerationSoftware,KiCad,Pcbnew,7.0.7*%
%TF.CreationDate,2023-10-20T22:51:04+03:00*%
%TF.ProjectId,picoballoon,7069636f-6261-46c6-9c6f-6f6e2e6b6963,rev?*%
%TF.SameCoordinates,Original*%
%TF.FileFunction,Legend,Bot*%
%TF.FilePolarity,Positive*%
%FSLAX46Y46*%
G04 Gerber Fmt 4.6, Leading zero omitted, Abs format (unit mm)*
G04 Created by KiCad (PCBNEW 7.0.7) date 2023-10-20 22:51:04*
%MOMM*%
%LPD*%
G01*
G04 APERTURE LIST*
G04 Aperture macros list*
%AMRoundRect*
0 Rectangle with rounded corners*
0 $1 Rounding radius*
0 $2 $3 $4 $5 $6 $7 $8 $9 X,Y pos of 4 corners*
0 Add a 4 corners polygon primitive as box body*
4,1,4,$2,$3,$4,$5,$6,$7,$8,$9,$2,$3,0*
0 Add four circle primitives for the rounded corners*
1,1,$1+$1,$2,$3*
1,1,$1+$1,$4,$5*
1,1,$1+$1,$6,$7*
1,1,$1+$1,$8,$9*
0 Add four rect primitives between the rounded corners*
20,1,$1+$1,$2,$3,$4,$5,0*
20,1,$1+$1,$4,$5,$6,$7,0*
20,1,$1+$1,$6,$7,$8,$9,0*
20,1,$1+$1,$8,$9,$2,$3,0*%
%AMHorizOval*
0 Thick line with rounded ends*
0 $1 width*
0 $2 $3 position (X,Y) of the first rounded end (center of the circle)*
0 $4 $5 position (X,Y) of the second rounded end (center of the circle)*
0 Add line between two ends*
20,1,$1,$2,$3,$4,$5,0*
0 Add two circle primitives to create the rounded ends*
1,1,$1,$2,$3*
1,1,$1,$4,$5*%
%AMRotRect*
0 Rectangle, with rotation*
0 The origin of the aperture is its center*
0 $1 length*
0 $2 width*
0 $3 Rotation angle, in degrees counterclockwise*
0 Add horizontal line*
21,1,$1,$2,0,0,$3*%
G04 Aperture macros list end*
%ADD10C,0.200000*%
%ADD11C,0.150000*%
%ADD12C,0.120000*%
%ADD13RoundRect,0.250002X-1.699998X-1.699998X1.699998X-1.699998X1.699998X1.699998X-1.699998X1.699998X0*%
%ADD14C,1.600000*%
%ADD15C,1.400000*%
%ADD16O,1.400000X1.400000*%
%ADD17R,1.000000X1.000000*%
%ADD18O,1.000000X1.000000*%
%ADD19RotRect,1.700000X1.700000X34.000000*%
%ADD20HorizOval,1.700000X0.000000X0.000000X0.000000X0.000000X0*%
%ADD21RotRect,1.700000X1.700000X225.000000*%
%ADD22HorizOval,1.700000X0.000000X0.000000X0.000000X0.000000X0*%
%ADD23O,0.800000X0.800000*%
%ADD24O,1.450000X2.000000*%
%ADD25O,1.150000X1.800000*%
%ADD26R,1.800000X1.800000*%
%ADD27C,1.800000*%
%ADD28RotRect,1.700000X1.700000X135.000000*%
%ADD29HorizOval,1.700000X0.000000X0.000000X0.000000X0.000000X0*%
%ADD30R,2.400000X2.400000*%
%ADD31C,2.400000*%
%ADD32C,5.300000*%
%ADD33HorizOval,1.400000X0.000000X0.000000X0.000000X0.000000X0*%
%ADD34C,1.500000*%
%ADD35RotRect,1.000000X1.000000X45.000000*%
%ADD36HorizOval,1.000000X0.000000X0.000000X0.000000X0.000000X0*%
%ADD37R,1.500000X1.500000*%
G04 APERTURE END LIST*
D10*
X182700993Y-95888457D02*
X182700993Y-92888457D01*
X182986707Y-93317028D02*
X182415279Y-93317028D01*
X182415279Y-93317028D02*
X181986707Y-93459885D01*
X181986707Y-93459885D02*
X181700993Y-93745600D01*
X181700993Y-93745600D02*
X181558136Y-94031314D01*
X181558136Y-94031314D02*
X181558136Y-94602742D01*
X181558136Y-94602742D02*
X181700993Y-94888457D01*
X181700993Y-94888457D02*
X181986707Y-95174171D01*
X181986707Y-95174171D02*
X182415279Y-95317028D01*
X182415279Y-95317028D02*
X182986707Y-95317028D01*
X182986707Y-95317028D02*
X183415279Y-95174171D01*
X183415279Y-95174171D02*
X183700993Y-94888457D01*
X183700993Y-94888457D02*
X183843850Y-94602742D01*
X183843850Y-94602742D02*
X183843850Y-94031314D01*
X183843850Y-94031314D02*
X183700993Y-93745600D01*
X183700993Y-93745600D02*
X183415279Y-93459885D01*
X183415279Y-93459885D02*
X182986707Y-93317028D01*
X180558136Y-94317028D02*
X180415279Y-94031314D01*
X180415279Y-94031314D02*
X180129565Y-93888457D01*
X180129565Y-93888457D02*
X178843850Y-93888457D01*
X179700993Y-93888457D02*
X179700993Y-95459885D01*
X179700993Y-95459885D02*
X179558136Y-95745600D01*
X179558136Y-95745600D02*
X179272422Y-95888457D01*
X177558136Y-93888457D02*
X177558136Y-95459885D01*
X177558136Y-95459885D02*
X177415279Y-95745600D01*
X177415279Y-95745600D02*
X177129564Y-95888457D01*
X174272421Y-93888457D02*
X174700993Y-95317028D01*
X174700993Y-95317028D02*
X174843850Y-95602742D01*
X174843850Y-95602742D02*
X174986707Y-95745600D01*
X174986707Y-95745600D02*
X175272421Y-95888457D01*
X175272421Y-95888457D02*
X175558135Y-95888457D01*
X175558135Y-95888457D02*
X175843850Y-95745600D01*
X175843850Y-95745600D02*
X175986707Y-95602742D01*
X175986707Y-95602742D02*
X176129564Y-95174171D01*
X176129564Y-95174171D02*
X176129564Y-94602742D01*
X176129564Y-94602742D02*
X175986707Y-94174171D01*
X175986707Y-94174171D02*
X175843850Y-94031314D01*
X175843850Y-94031314D02*
X175558135Y-93888457D01*
X175558135Y-93888457D02*
X175272421Y-93888457D01*
X175272421Y-93888457D02*
X174986707Y-94031314D01*
X174986707Y-94031314D02*
X174843850Y-94174171D01*
X174843850Y-94174171D02*
X174700993Y-94459885D01*
X174700993Y-94459885D02*
X174558135Y-95459885D01*
X174558135Y-95459885D02*
X174415278Y-95745600D01*
X174415278Y-95745600D02*
X174129564Y-95888457D01*
X172558135Y-95602742D02*
X172558135Y-96888457D01*
X173415278Y-93888457D02*
X173272421Y-93888457D01*
X173272421Y-93888457D02*
X173129564Y-94031314D01*
X173129564Y-94031314D02*
X172558135Y-95602742D01*
X172558135Y-95602742D02*
X171843850Y-93888457D01*
X170700993Y-93888457D02*
X170700993Y-96888457D01*
X169272421Y-95459885D02*
X169129564Y-95745600D01*
X169129564Y-95745600D02*
X168843850Y-95888457D01*
X170700993Y-95459885D02*
X170558136Y-95745600D01*
X170558136Y-95745600D02*
X170272421Y-95888457D01*
X170272421Y-95888457D02*
X169700993Y-95888457D01*
X169700993Y-95888457D02*
X169415279Y-95745600D01*
X169415279Y-95745600D02*
X169272421Y-95459885D01*
X169272421Y-95459885D02*
X169272421Y-93888457D01*
X167272422Y-94888457D02*
X167558136Y-95031314D01*
X167558136Y-95031314D02*
X167700993Y-95317028D01*
X167700993Y-95317028D02*
X167700993Y-95459885D01*
X167700993Y-95459885D02*
X167558136Y-95745600D01*
X167558136Y-95745600D02*
X167272422Y-95888457D01*
X167272422Y-95888457D02*
X166700993Y-95888457D01*
X166700993Y-95888457D02*
X166415279Y-95745600D01*
X166986707Y-94888457D02*
X167272422Y-94888457D01*
X167272422Y-94888457D02*
X167558136Y-94745600D01*
X167558136Y-94745600D02*
X167700993Y-94459885D01*
X167700993Y-94459885D02*
X167700993Y-94317028D01*
X167700993Y-94317028D02*
X167558136Y-94031314D01*
X167558136Y-94031314D02*
X167272422Y-93888457D01*
X167272422Y-93888457D02*
X166700993Y-93888457D01*
X166700993Y-93888457D02*
X166415279Y-94031314D01*
X166700993Y-92745600D02*
X167129564Y-93174171D01*
X165415279Y-93888457D02*
X164700993Y-95888457D01*
X164700993Y-95888457D02*
X163986708Y-94317028D01*
X163986708Y-94317028D02*
X163986708Y-94174171D01*
X163986708Y-94174171D02*
X164129565Y-93888457D01*
X162272422Y-95888457D02*
X162558137Y-95745600D01*
X162558137Y-95745600D02*
X162700994Y-95602742D01*
X162700994Y-95602742D02*
X162843851Y-95317028D01*
X162843851Y-95317028D02*
X162843851Y-94459885D01*
X162843851Y-94459885D02*
X162700994Y-94174171D01*
X162700994Y-94174171D02*
X162558137Y-94031314D01*
X162558137Y-94031314D02*
X162272422Y-93888457D01*
X162272422Y-93888457D02*
X161843851Y-93888457D01*
X161843851Y-93888457D02*
X161558137Y-94031314D01*
X161558137Y-94031314D02*
X161415280Y-94174171D01*
X161415280Y-94174171D02*
X161272422Y-94459885D01*
X161272422Y-94459885D02*
X161272422Y-95317028D01*
X161272422Y-95317028D02*
X161415280Y-95602742D01*
X161415280Y-95602742D02*
X161558137Y-95745600D01*
X161558137Y-95745600D02*
X161843851Y-95888457D01*
X161843851Y-95888457D02*
X162272422Y-95888457D01*
X155986708Y-93888457D02*
X157272422Y-93888457D01*
X157272422Y-93888457D02*
X157558137Y-94031314D01*
X157558137Y-94031314D02*
X157700994Y-94174171D01*
X157700994Y-94174171D02*
X157843851Y-94459885D01*
X157843851Y-94459885D02*
X157843851Y-95317028D01*
X157843851Y-95317028D02*
X157700994Y-95602742D01*
X157700994Y-95602742D02*
X157558137Y-95745600D01*
X157558137Y-95745600D02*
X157272422Y-95888457D01*
X157272422Y-95888457D02*
X156843851Y-95888457D01*
X156843851Y-95888457D02*
X156558137Y-95745600D01*
X156558137Y-95745600D02*
X156415280Y-95602742D01*
X156415280Y-95602742D02*
X156272422Y-95317028D01*
X156272422Y-95317028D02*
X156272422Y-94459885D01*
X156272422Y-94459885D02*
X156415280Y-94174171D01*
X156415280Y-94174171D02*
X156558137Y-94031314D01*
X156558137Y-94031314D02*
X156843851Y-93888457D01*
X154986708Y-94317028D02*
X154843851Y-94031314D01*
X154843851Y-94031314D02*
X154558137Y-93888457D01*
X154558137Y-93888457D02*
X153272422Y-93888457D01*
X154129565Y-93888457D02*
X154129565Y-95459885D01*
X154129565Y-95459885D02*
X153986708Y-95745600D01*
X153986708Y-95745600D02*
X153700994Y-95888457D01*
X151986708Y-93888457D02*
X151986708Y-95888457D01*
X151986708Y-94174171D02*
X151843851Y-94031314D01*
X151843851Y-94031314D02*
X151558136Y-93888457D01*
X151558136Y-93888457D02*
X151129565Y-93888457D01*
X151129565Y-93888457D02*
X150843851Y-94031314D01*
X150843851Y-94031314D02*
X150700994Y-94317028D01*
X150700994Y-94317028D02*
X150700994Y-96888457D01*
X146558136Y-95602742D02*
X146558136Y-96888457D01*
X147415279Y-93888457D02*
X147272422Y-93888457D01*
X147272422Y-93888457D02*
X147129565Y-94031314D01*
X147129565Y-94031314D02*
X146558136Y-95602742D01*
X146558136Y-95602742D02*
X145843851Y-93888457D01*
X144700994Y-93888457D02*
X144700994Y-95888457D01*
X144700994Y-94174171D02*
X144558137Y-94031314D01*
X144558137Y-94031314D02*
X144272422Y-93888457D01*
X144272422Y-93888457D02*
X143843851Y-93888457D01*
X143843851Y-93888457D02*
X143558137Y-94031314D01*
X143558137Y-94031314D02*
X143415280Y-94317028D01*
X143415280Y-94317028D02*
X143415280Y-96888457D01*
X143843851Y-92745600D02*
X144272422Y-93174171D01*
X137986708Y-93888457D02*
X138415280Y-95317028D01*
X138415280Y-95317028D02*
X138558137Y-95602742D01*
X138558137Y-95602742D02*
X138700994Y-95745600D01*
X138700994Y-95745600D02*
X138986708Y-95888457D01*
X138986708Y-95888457D02*
X139272422Y-95888457D01*
X139272422Y-95888457D02*
X139558137Y-95745600D01*
X139558137Y-95745600D02*
X139700994Y-95602742D01*
X139700994Y-95602742D02*
X139843851Y-95174171D01*
X139843851Y-95174171D02*
X139843851Y-94602742D01*
X139843851Y-94602742D02*
X139700994Y-94174171D01*
X139700994Y-94174171D02*
X139558137Y-94031314D01*
X139558137Y-94031314D02*
X139272422Y-93888457D01*
X139272422Y-93888457D02*
X138986708Y-93888457D01*
X138986708Y-93888457D02*
X138700994Y-94031314D01*
X138700994Y-94031314D02*
X138558137Y-94174171D01*
X138558137Y-94174171D02*
X138415280Y-94459885D01*
X138415280Y-94459885D02*
X138272422Y-95459885D01*
X138272422Y-95459885D02*
X138129565Y-95745600D01*
X138129565Y-95745600D02*
X137843851Y-95888457D01*
X135129565Y-93888457D02*
X135129565Y-95888457D01*
X136129565Y-93888457D02*
X136129565Y-95459885D01*
X136129565Y-95459885D02*
X136272422Y-95745600D01*
X136272422Y-95745600D02*
X136558137Y-95888457D01*
X134558137Y-93888457D02*
X136415280Y-93888457D01*
X136415280Y-93888457D02*
X136700994Y-94031314D01*
X136700994Y-94031314D02*
X136843851Y-94317028D01*
X132986708Y-95888457D02*
X133272423Y-95745600D01*
X133272423Y-95745600D02*
X133415280Y-95602742D01*
X133415280Y-95602742D02*
X133558137Y-95317028D01*
X133558137Y-95317028D02*
X133558137Y-94459885D01*
X133558137Y-94459885D02*
X133415280Y-94174171D01*
X133415280Y-94174171D02*
X133272423Y-94031314D01*
X133272423Y-94031314D02*
X132986708Y-93888457D01*
X132986708Y-93888457D02*
X132558137Y-93888457D01*
X132558137Y-93888457D02*
X132272423Y-94031314D01*
X132272423Y-94031314D02*
X132129566Y-94174171D01*
X132129566Y-94174171D02*
X131986708Y-94459885D01*
X131986708Y-94459885D02*
X131986708Y-95317028D01*
X131986708Y-95317028D02*
X132129566Y-95602742D01*
X132129566Y-95602742D02*
X132272423Y-95745600D01*
X132272423Y-95745600D02*
X132558137Y-95888457D01*
X132558137Y-95888457D02*
X132986708Y-95888457D01*
X132415280Y-92745600D02*
X132843851Y-93174171D01*
X126700994Y-93888457D02*
X127129566Y-95317028D01*
X127129566Y-95317028D02*
X127272423Y-95602742D01*
X127272423Y-95602742D02*
X127415280Y-95745600D01*
X127415280Y-95745600D02*
X127700994Y-95888457D01*
X127700994Y-95888457D02*
X127986708Y-95888457D01*
X127986708Y-95888457D02*
X128272423Y-95745600D01*
X128272423Y-95745600D02*
X128415280Y-95602742D01*
X128415280Y-95602742D02*
X128558137Y-95174171D01*
X128558137Y-95174171D02*
X128558137Y-94602742D01*
X128558137Y-94602742D02*
X128415280Y-94174171D01*
X128415280Y-94174171D02*
X128272423Y-94031314D01*
X128272423Y-94031314D02*
X127986708Y-93888457D01*
X127986708Y-93888457D02*
X127700994Y-93888457D01*
X127700994Y-93888457D02*
X127415280Y-94031314D01*
X127415280Y-94031314D02*
X127272423Y-94174171D01*
X127272423Y-94174171D02*
X127129566Y-94459885D01*
X127129566Y-94459885D02*
X126986708Y-95459885D01*
X126986708Y-95459885D02*
X126843851Y-95745600D01*
X126843851Y-95745600D02*
X126558137Y-95888457D01*
X125700994Y-93888457D02*
X124986708Y-95888457D01*
X124986708Y-95888457D02*
X124272423Y-94317028D01*
X124272423Y-94317028D02*
X124272423Y-94174171D01*
X124272423Y-94174171D02*
X124415280Y-93888457D01*
X123129566Y-94317028D02*
X121558137Y-94317028D01*
X122558137Y-92888457D02*
X122129566Y-92888457D01*
X122129566Y-92888457D02*
X121843852Y-93031314D01*
X121843852Y-93031314D02*
X121700995Y-93174171D01*
X121700995Y-93174171D02*
X121558137Y-93602742D01*
X121558137Y-93602742D02*
X121558137Y-95174171D01*
X121558137Y-95174171D02*
X121700995Y-95602742D01*
X121700995Y-95602742D02*
X121843852Y-95745600D01*
X121843852Y-95745600D02*
X122129566Y-95888457D01*
X122129566Y-95888457D02*
X122558137Y-95888457D01*
X122558137Y-95888457D02*
X122843852Y-95745600D01*
X122843852Y-95745600D02*
X122986709Y-95602742D01*
X122986709Y-95602742D02*
X123129566Y-95174171D01*
X123129566Y-95174171D02*
X123129566Y-93602742D01*
X123129566Y-93602742D02*
X122986709Y-93174171D01*
X122986709Y-93174171D02*
X122843852Y-93031314D01*
X122843852Y-93031314D02*
X122558137Y-92888457D01*
X120272423Y-96888457D02*
X120272423Y-94459885D01*
X120272423Y-94459885D02*
X120129566Y-94174171D01*
X120129566Y-94174171D02*
X119986709Y-94031314D01*
X119986709Y-94031314D02*
X119700994Y-93888457D01*
X119700994Y-93888457D02*
X119272423Y-93888457D01*
X119272423Y-93888457D02*
X118986709Y-94031314D01*
X118986709Y-94031314D02*
X118843851Y-94174171D01*
X118843851Y-94174171D02*
X118700994Y-94459885D01*
X118700994Y-94459885D02*
X118700994Y-95317028D01*
X118700994Y-95317028D02*
X118843851Y-95602742D01*
X118843851Y-95602742D02*
X118986709Y-95745600D01*
X118986709Y-95745600D02*
X119272423Y-95888457D01*
X119272423Y-95888457D02*
X119700994Y-95888457D01*
X119700994Y-95888457D02*
X119986709Y-95745600D01*
X119986709Y-95745600D02*
X120272423Y-95459885D01*
X116558137Y-94888457D02*
X116558137Y-95459885D01*
X117272423Y-93888457D02*
X117415280Y-94031314D01*
X117415280Y-94031314D02*
X117558137Y-94317028D01*
X117558137Y-94317028D02*
X117558137Y-95459885D01*
X117558137Y-95459885D02*
X117415280Y-95745600D01*
X117415280Y-95745600D02*
X117129566Y-95888457D01*
X117129566Y-95888457D02*
X116986708Y-95888457D01*
X116986708Y-95888457D02*
X116700994Y-95745600D01*
X116700994Y-95745600D02*
X116558137Y-95459885D01*
X116558137Y-95459885D02*
X116415280Y-95745600D01*
X116415280Y-95745600D02*
X116129566Y-95888457D01*
X116129566Y-95888457D02*
X115986708Y-95888457D01*
X115986708Y-95888457D02*
X115700994Y-95745600D01*
X115700994Y-95745600D02*
X115558137Y-95459885D01*
X115558137Y-95459885D02*
X115558137Y-94317028D01*
X115558137Y-94317028D02*
X115700994Y-94031314D01*
X115700994Y-94031314D02*
X115843851Y-93888457D01*
X116272423Y-92745600D02*
X116700994Y-93174171D01*
X112700994Y-93888457D02*
X112700994Y-95888457D01*
X113700994Y-93888457D02*
X113700994Y-95459885D01*
X113700994Y-95459885D02*
X113843851Y-95745600D01*
X113843851Y-95745600D02*
X114129566Y-95888457D01*
X112129566Y-93888457D02*
X113986709Y-93888457D01*
X113986709Y-93888457D02*
X114272423Y-94031314D01*
X114272423Y-94031314D02*
X114415280Y-94317028D01*
X110558137Y-95888457D02*
X110843852Y-95745600D01*
X110843852Y-95745600D02*
X110986709Y-95602742D01*
X110986709Y-95602742D02*
X111129566Y-95317028D01*
X111129566Y-95317028D02*
X111129566Y-94459885D01*
X111129566Y-94459885D02*
X110986709Y-94174171D01*
X110986709Y-94174171D02*
X110843852Y-94031314D01*
X110843852Y-94031314D02*
X110558137Y-93888457D01*
X110558137Y-93888457D02*
X110129566Y-93888457D01*
X110129566Y-93888457D02*
X109843852Y-94031314D01*
X109843852Y-94031314D02*
X109700995Y-94174171D01*
X109700995Y-94174171D02*
X109558137Y-94459885D01*
X109558137Y-94459885D02*
X109558137Y-95317028D01*
X109558137Y-95317028D02*
X109700995Y-95602742D01*
X109700995Y-95602742D02*
X109843852Y-95745600D01*
X109843852Y-95745600D02*
X110129566Y-95888457D01*
X110129566Y-95888457D02*
X110558137Y-95888457D01*
X108272423Y-93888457D02*
X108272423Y-95459885D01*
X108272423Y-95459885D02*
X108129566Y-95745600D01*
X108129566Y-95745600D02*
X107843851Y-95888457D01*
X107843851Y-95888457D02*
X107415280Y-95888457D01*
X107415280Y-95888457D02*
X107129566Y-95745600D01*
X107129566Y-95745600D02*
X106986709Y-95602742D01*
X106986709Y-95602742D02*
X106843851Y-95317028D01*
X106843851Y-95317028D02*
X106843851Y-94317028D01*
X106843851Y-94317028D02*
X106986709Y-94031314D01*
X106986709Y-94031314D02*
X107129566Y-93888457D01*
X104272423Y-94031314D02*
X104558137Y-93888457D01*
X104558137Y-93888457D02*
X105129565Y-93888457D01*
X105129565Y-93888457D02*
X105415280Y-94031314D01*
X105415280Y-94031314D02*
X105558137Y-94174171D01*
X105558137Y-94174171D02*
X105700994Y-94459885D01*
X105700994Y-94459885D02*
X105700994Y-95317028D01*
X105700994Y-95317028D02*
X105558137Y-95602742D01*
X105558137Y-95602742D02*
X105415280Y-95745600D01*
X105415280Y-95745600D02*
X105129565Y-95888457D01*
X105129565Y-95888457D02*
X104700994Y-95888457D01*
X104700994Y-95888457D02*
X104415280Y-96031314D01*
X104415280Y-96031314D02*
X104272423Y-96317028D01*
X104272423Y-96317028D02*
X104272423Y-96459885D01*
X104272423Y-96459885D02*
X104415280Y-96745600D01*
X104415280Y-96745600D02*
X104700994Y-96888457D01*
X102986708Y-95602742D02*
X102843851Y-95745600D01*
X102843851Y-95745600D02*
X102986708Y-95888457D01*
X102986708Y-95888457D02*
X103129565Y-95745600D01*
X103129565Y-95745600D02*
X102986708Y-95602742D01*
X102986708Y-95602742D02*
X102986708Y-95888457D01*
D11*
X119825204Y-61000119D02*
X119825204Y-61809642D01*
X119825204Y-61809642D02*
X119777585Y-61904880D01*
X119777585Y-61904880D02*
X119729966Y-61952500D01*
X119729966Y-61952500D02*
X119634728Y-62000119D01*
X119634728Y-62000119D02*
X119444252Y-62000119D01*
X119444252Y-62000119D02*
X119349014Y-61952500D01*
X119349014Y-61952500D02*
X119301395Y-61904880D01*
X119301395Y-61904880D02*
X119253776Y-61809642D01*
X119253776Y-61809642D02*
X119253776Y-61000119D01*
X118872823Y-61000119D02*
X118253776Y-61000119D01*
X118253776Y-61000119D02*
X118587109Y-61381071D01*
X118587109Y-61381071D02*
X118444252Y-61381071D01*
X118444252Y-61381071D02*
X118349014Y-61428690D01*
X118349014Y-61428690D02*
X118301395Y-61476309D01*
X118301395Y-61476309D02*
X118253776Y-61571547D01*
X118253776Y-61571547D02*
X118253776Y-61809642D01*
X118253776Y-61809642D02*
X118301395Y-61904880D01*
X118301395Y-61904880D02*
X118349014Y-61952500D01*
X118349014Y-61952500D02*
X118444252Y-62000119D01*
X118444252Y-62000119D02*
X118729966Y-62000119D01*
X118729966Y-62000119D02*
X118825204Y-61952500D01*
X118825204Y-61952500D02*
X118872823Y-61904880D01*
D12*
%TO.C,U3*%
X121223300Y-62445300D02*
X121223300Y-64445300D01*
X121223300Y-62445300D02*
X119613300Y-62445300D01*
X120943300Y-74985300D02*
X120943300Y-62735300D01*
X120933300Y-62725300D02*
X115193300Y-62725300D01*
X115183300Y-74985300D02*
X120943300Y-74985300D01*
X115183300Y-62725300D02*
X115183300Y-74985300D01*
%TD*%
%LPC*%
D13*
%TO.C,J1*%
X122428000Y-51435000D03*
%TD*%
D14*
%TO.C,C14*%
X159004000Y-56912000D03*
X159004000Y-58912000D03*
%TD*%
D15*
%TO.C,R19*%
X155930600Y-83743800D03*
D16*
X158470600Y-83743800D03*
%TD*%
D17*
%TO.C,SWD1*%
X158851600Y-71820800D03*
D18*
X158851600Y-70550800D03*
%TD*%
D19*
%TO.C,MISC3*%
X181383450Y-69522245D03*
D20*
X182803800Y-71628000D03*
X184224150Y-73733756D03*
%TD*%
D15*
%TO.C,R2*%
X112750600Y-112343400D03*
D16*
X112750600Y-114883400D03*
%TD*%
D21*
%TO.C,MISC2*%
X158419800Y-65709800D03*
D22*
X156623749Y-63913749D03*
X154827698Y-62117698D03*
X153031646Y-60321646D03*
%TD*%
D13*
%TO.C,J2*%
X122428000Y-58420000D03*
%TD*%
D23*
%TO.C,J3*%
X173309200Y-47516400D03*
X168915000Y-47440200D03*
D24*
X174799000Y-48553600D03*
D25*
X173908000Y-45753600D03*
X168258000Y-45753600D03*
D24*
X167349000Y-48553600D03*
%TD*%
D26*
%TO.C,D5*%
X172807000Y-77190600D03*
D27*
X170267000Y-77190600D03*
%TD*%
D15*
%TO.C,R3*%
X120675400Y-112343400D03*
D16*
X120675400Y-114883400D03*
%TD*%
D28*
%TO.C,MISC1*%
X130307394Y-64078806D03*
D29*
X132103445Y-62282755D03*
X133899496Y-60486704D03*
X135695548Y-58690652D03*
%TD*%
D30*
%TO.C,C9*%
X113360200Y-88773000D03*
D31*
X113360200Y-83773000D03*
%TD*%
D32*
%TO.C,H2*%
X192049400Y-49885600D03*
%TD*%
D15*
%TO.C,R23*%
X107746000Y-73660000D03*
D16*
X110286000Y-73660000D03*
%TD*%
D32*
%TO.C,H3*%
X102717600Y-50825400D03*
%TD*%
D15*
%TO.C,R21*%
X167818730Y-110336671D03*
D33*
X169614781Y-108540620D03*
%TD*%
D15*
%TO.C,R11*%
X176992200Y-77343000D03*
D16*
X179532200Y-77343000D03*
%TD*%
D17*
%TO.C,UART2*%
X139003800Y-64033400D03*
D18*
X137733800Y-64033400D03*
%TD*%
D32*
%TO.C,H1*%
X102235000Y-114731800D03*
%TD*%
%TO.C,H4*%
X193167000Y-114858800D03*
%TD*%
D34*
%TO.C,Y1*%
X127680589Y-79649189D03*
X131131270Y-83099870D03*
%TD*%
D35*
%TO.C,UART1*%
X150543381Y-64132581D03*
D36*
X151441407Y-65030607D03*
%TD*%
D14*
%TO.C,C13*%
X147167600Y-55346600D03*
X147167600Y-57346600D03*
%TD*%
%TO.C,C3*%
X131191000Y-55388000D03*
X131191000Y-57388000D03*
%TD*%
D37*
%TO.C,U3*%
X118063300Y-65045300D03*
D34*
X118063300Y-67585300D03*
X118063300Y-70125300D03*
X118063300Y-72665300D03*
%TD*%
%LPD*%
M02*
